%TF.GenerationSoftware,KiCad,Pcbnew,8.0.8*%
%TF.CreationDate,2025-04-01T10:51:04-04:00*%
%TF.ProjectId,cross-point-exp-brd-mini-red2-smd,63726f73-732d-4706-9f69-6e742d657870,rev?*%
%TF.SameCoordinates,Original*%
%TF.FileFunction,Soldermask,Top*%
%TF.FilePolarity,Negative*%
%FSLAX46Y46*%
G04 Gerber Fmt 4.6, Leading zero omitted, Abs format (unit mm)*
G04 Created by KiCad (PCBNEW 8.0.8) date 2025-04-01 10:51:04*
%MOMM*%
%LPD*%
G01*
G04 APERTURE LIST*
G04 Aperture macros list*
%AMRoundRect*
0 Rectangle with rounded corners*
0 $1 Rounding radius*
0 $2 $3 $4 $5 $6 $7 $8 $9 X,Y pos of 4 corners*
0 Add a 4 corners polygon primitive as box body*
4,1,4,$2,$3,$4,$5,$6,$7,$8,$9,$2,$3,0*
0 Add four circle primitives for the rounded corners*
1,1,$1+$1,$2,$3*
1,1,$1+$1,$4,$5*
1,1,$1+$1,$6,$7*
1,1,$1+$1,$8,$9*
0 Add four rect primitives between the rounded corners*
20,1,$1+$1,$2,$3,$4,$5,0*
20,1,$1+$1,$4,$5,$6,$7,0*
20,1,$1+$1,$6,$7,$8,$9,0*
20,1,$1+$1,$8,$9,$2,$3,0*%
%AMFreePoly0*
4,1,19,0.550000,-0.750000,0.000000,-0.750000,0.000000,-0.744911,-0.071157,-0.744911,-0.207708,-0.704816,-0.327430,-0.627875,-0.420627,-0.520320,-0.479746,-0.390866,-0.500000,-0.250000,-0.500000,0.250000,-0.479746,0.390866,-0.420627,0.520320,-0.327430,0.627875,-0.207708,0.704816,-0.071157,0.744911,0.000000,0.744911,0.000000,0.750000,0.550000,0.750000,0.550000,-0.750000,0.550000,-0.750000,
$1*%
%AMFreePoly1*
4,1,19,0.000000,0.744911,0.071157,0.744911,0.207708,0.704816,0.327430,0.627875,0.420627,0.520320,0.479746,0.390866,0.500000,0.250000,0.500000,-0.250000,0.479746,-0.390866,0.420627,-0.520320,0.327430,-0.627875,0.207708,-0.704816,0.071157,-0.744911,0.000000,-0.744911,0.000000,-0.750000,-0.550000,-0.750000,-0.550000,0.750000,0.000000,0.750000,0.000000,0.744911,0.000000,0.744911,
$1*%
G04 Aperture macros list end*
%ADD10RoundRect,0.249999X0.525001X0.900001X-0.525001X0.900001X-0.525001X-0.900001X0.525001X-0.900001X0*%
%ADD11R,1.700000X1.700000*%
%ADD12O,1.700000X1.700000*%
%ADD13C,2.200000*%
%ADD14RoundRect,0.249999X-0.900001X0.525001X-0.900001X-0.525001X0.900001X-0.525001X0.900001X0.525001X0*%
%ADD15RoundRect,0.249999X0.900001X-0.525001X0.900001X0.525001X-0.900001X0.525001X-0.900001X-0.525001X0*%
%ADD16RoundRect,0.250000X0.625000X-0.312500X0.625000X0.312500X-0.625000X0.312500X-0.625000X-0.312500X0*%
%ADD17C,1.500000*%
%ADD18RoundRect,0.250000X-0.312500X-0.625000X0.312500X-0.625000X0.312500X0.625000X-0.312500X0.625000X0*%
%ADD19RoundRect,0.150000X0.150000X-0.725000X0.150000X0.725000X-0.150000X0.725000X-0.150000X-0.725000X0*%
%ADD20R,0.500000X1.200000*%
%ADD21R,1.200000X0.500000*%
%ADD22C,2.286000*%
%ADD23RoundRect,0.250000X0.312500X0.625000X-0.312500X0.625000X-0.312500X-0.625000X0.312500X-0.625000X0*%
%ADD24O,4.572000X1.700000*%
%ADD25FreePoly0,270.000000*%
%ADD26R,1.500000X1.000000*%
%ADD27FreePoly1,270.000000*%
%ADD28C,2.000000*%
%ADD29RoundRect,0.150000X0.150000X-0.825000X0.150000X0.825000X-0.150000X0.825000X-0.150000X-0.825000X0*%
%ADD30O,1.800000X1.800000*%
%ADD31O,1.500000X1.500000*%
%ADD32R,1.700000X3.500000*%
%ADD33R,3.500000X1.700000*%
%ADD34C,1.440000*%
G04 APERTURE END LIST*
D10*
%TO.C,C2*%
X94785000Y-135890000D03*
X90635000Y-135890000D03*
%TD*%
D11*
%TO.C,JVEE1*%
X82550000Y-118745000D03*
D12*
X85090000Y-118745000D03*
X87630000Y-118745000D03*
X90170000Y-118745000D03*
%TD*%
D13*
%TO.C,PP3*%
X93345000Y-62865000D03*
%TD*%
D14*
%TO.C,C5*%
X99695000Y-133010000D03*
X99695000Y-137160000D03*
%TD*%
D13*
%TO.C,PP65*%
X175895000Y-90805000D03*
%TD*%
%TO.C,PP60*%
X163195000Y-90805000D03*
%TD*%
D15*
%TO.C,C3*%
X89535000Y-114300000D03*
X89535000Y-110150000D03*
%TD*%
D13*
%TO.C,PP33*%
X126365000Y-90805000D03*
%TD*%
D16*
%TO.C,R9*%
X119380000Y-122940000D03*
X119380000Y-120015000D03*
%TD*%
D13*
%TO.C,PP55*%
X150495000Y-90805000D03*
%TD*%
%TO.C,REF\u002A\u002A*%
X96520000Y-100965000D03*
%TD*%
%TO.C,REF\u002A\u002A*%
X175260000Y-100965000D03*
%TD*%
%TO.C,PP47*%
X173355000Y-62865000D03*
%TD*%
%TO.C,PP39*%
X153035000Y-62865000D03*
%TD*%
D17*
%TO.C,TP6*%
X139700000Y-132080000D03*
%TD*%
D13*
%TO.C,PP29*%
X116205000Y-90805000D03*
%TD*%
D15*
%TO.C,C8*%
X81915000Y-94320000D03*
X81915000Y-90170000D03*
%TD*%
D18*
%TO.C,R12*%
X89785000Y-139065000D03*
X92710000Y-139065000D03*
%TD*%
D13*
%TO.C,PP66*%
X178435000Y-90805000D03*
%TD*%
%TO.C,PP23*%
X100965000Y-90805000D03*
%TD*%
%TO.C,PP11*%
X113665000Y-62865000D03*
%TD*%
%TO.C,PP32*%
X123825000Y-90805000D03*
%TD*%
%TO.C,PP1*%
X88265000Y-62865000D03*
%TD*%
D19*
%TO.C,U10*%
X135255000Y-121285000D03*
X136525000Y-121285000D03*
X137795000Y-121285000D03*
X139065000Y-121285000D03*
X139065000Y-116135000D03*
X137795000Y-116135000D03*
X136525000Y-116135000D03*
X135255000Y-116135000D03*
%TD*%
D11*
%TO.C,JpVDD2*%
X96520000Y-123825000D03*
D12*
X99060000Y-123825000D03*
X101600000Y-123825000D03*
%TD*%
D20*
%TO.C,U3*%
X150320000Y-82535000D03*
X151120000Y-82535000D03*
X151920000Y-82535000D03*
X152720000Y-82535000D03*
X153520000Y-82535000D03*
X154320000Y-82535000D03*
X155120000Y-82535000D03*
X155920000Y-82535000D03*
X156720000Y-82535000D03*
X157520000Y-82535000D03*
X158320000Y-82535000D03*
D21*
X160020000Y-80835000D03*
X160020000Y-80035000D03*
X160020000Y-79235000D03*
X160020000Y-78435000D03*
X160020000Y-77635000D03*
X160020000Y-76835000D03*
X160020000Y-76035000D03*
X160020000Y-75235000D03*
X160020000Y-74435000D03*
X160020000Y-73635000D03*
X160020000Y-72835000D03*
D20*
X158320000Y-71135000D03*
X157520000Y-71135000D03*
X156720000Y-71135000D03*
X155920000Y-71135000D03*
X155120000Y-71135000D03*
X154320000Y-71135000D03*
X153520000Y-71135000D03*
X152720000Y-71135000D03*
X151920000Y-71135000D03*
X151120000Y-71135000D03*
X150320000Y-71135000D03*
D21*
X148620000Y-72835000D03*
X148620000Y-73635000D03*
X148620000Y-74435000D03*
X148620000Y-75235000D03*
X148620000Y-76035000D03*
X148620000Y-76835000D03*
X148620000Y-77635000D03*
X148620000Y-78435000D03*
X148620000Y-79235000D03*
X148620000Y-80035000D03*
X148620000Y-80835000D03*
%TD*%
D13*
%TO.C,PP51*%
X183515000Y-62865000D03*
%TD*%
D11*
%TO.C,J1*%
X81915000Y-67945000D03*
D12*
X81915000Y-70485000D03*
X81915000Y-73025000D03*
X81915000Y-75565000D03*
X81915000Y-78105000D03*
X81915000Y-80645000D03*
X81915000Y-83185000D03*
X81915000Y-85725000D03*
%TD*%
D13*
%TO.C,PP56*%
X153035000Y-90805000D03*
%TD*%
D11*
%TO.C,J2*%
X189230000Y-67945000D03*
D12*
X189230000Y-70485000D03*
X189230000Y-73025000D03*
X189230000Y-75565000D03*
X189230000Y-78105000D03*
X189230000Y-80645000D03*
X189230000Y-83185000D03*
X189230000Y-85725000D03*
%TD*%
D13*
%TO.C,PP27*%
X111125000Y-90805000D03*
%TD*%
D22*
%TO.C,J4*%
X144614900Y-76835000D03*
X181775100Y-76835000D03*
%TD*%
D13*
%TO.C,PP49*%
X178435000Y-62865000D03*
%TD*%
%TO.C,PP50*%
X180975000Y-62865000D03*
%TD*%
D11*
%TO.C,DC1*%
X83820000Y-139700000D03*
D12*
X83820000Y-137160000D03*
X83820000Y-134620000D03*
X83820000Y-132080000D03*
%TD*%
D13*
%TO.C,PP16*%
X126365000Y-62865000D03*
%TD*%
D23*
%TO.C,R1*%
X125922500Y-137160000D03*
X122997500Y-137160000D03*
%TD*%
D13*
%TO.C,PP36*%
X145415000Y-62865000D03*
%TD*%
%TO.C,PP59*%
X160655000Y-90805000D03*
%TD*%
D15*
%TO.C,C1*%
X130175000Y-132080000D03*
X130175000Y-127930000D03*
%TD*%
D13*
%TO.C,PP18*%
X88265000Y-90805000D03*
%TD*%
%TO.C,PP53*%
X145415000Y-90805000D03*
%TD*%
D16*
%TO.C,R8*%
X121920000Y-122940000D03*
X121920000Y-120015000D03*
%TD*%
D24*
%TO.C,J5*%
X100330000Y-53975000D03*
X102870000Y-53975000D03*
X105410000Y-53975000D03*
X107950000Y-53975000D03*
X110490000Y-53975000D03*
X113030000Y-53975000D03*
X115570000Y-53975000D03*
X118110000Y-53975000D03*
X153670000Y-53975000D03*
X156210000Y-53975000D03*
X158750000Y-53975000D03*
X161290000Y-53975000D03*
X163830000Y-53975000D03*
X166370000Y-53975000D03*
X168910000Y-53975000D03*
X171450000Y-53975000D03*
X100330000Y-51435000D03*
X102870000Y-51435000D03*
X105410000Y-51435000D03*
X107950000Y-51435000D03*
X110490000Y-51435000D03*
X113030000Y-51435000D03*
X115570000Y-51435000D03*
X118110000Y-51435000D03*
X153670000Y-51435000D03*
X156210000Y-51435000D03*
X158750000Y-51435000D03*
X161290000Y-51435000D03*
X163830000Y-51435000D03*
X166370000Y-51435000D03*
X168910000Y-51435000D03*
X171450000Y-51435000D03*
%TD*%
D13*
%TO.C,PP37*%
X147955000Y-62865000D03*
%TD*%
%TO.C,PP10*%
X111125000Y-62865000D03*
%TD*%
D24*
%TO.C,J6*%
X100330000Y-102235000D03*
X102870000Y-102235000D03*
X105410000Y-102235000D03*
X107950000Y-102235000D03*
X110490000Y-102235000D03*
X113030000Y-102235000D03*
X115570000Y-102235000D03*
X118110000Y-102235000D03*
X153670000Y-102235000D03*
X156210000Y-102235000D03*
X158750000Y-102235000D03*
X161290000Y-102235000D03*
X163830000Y-102235000D03*
X166370000Y-102235000D03*
X168910000Y-102235000D03*
X171450000Y-102235000D03*
X100330000Y-99695000D03*
X102870000Y-99695000D03*
X105410000Y-99695000D03*
X107950000Y-99695000D03*
X110490000Y-99695000D03*
X113030000Y-99695000D03*
X115570000Y-99695000D03*
X118110000Y-99695000D03*
X153670000Y-99695000D03*
X156210000Y-99695000D03*
X158750000Y-99695000D03*
X161290000Y-99695000D03*
X163830000Y-99695000D03*
X166370000Y-99695000D03*
X168910000Y-99695000D03*
X171450000Y-99695000D03*
%TD*%
D16*
%TO.C,R6*%
X116840000Y-122940000D03*
X116840000Y-120015000D03*
%TD*%
%TO.C,R4*%
X111760000Y-122940000D03*
X111760000Y-120015000D03*
%TD*%
D11*
%TO.C,JpVDD1*%
X93980000Y-128905000D03*
D12*
X96520000Y-128905000D03*
X99060000Y-128905000D03*
%TD*%
D13*
%TO.C,PP44*%
X165735000Y-62865000D03*
%TD*%
D11*
%TO.C,J8*%
X109220000Y-114300000D03*
D12*
X111760000Y-114300000D03*
X114300000Y-114300000D03*
X116840000Y-114300000D03*
X119380000Y-114300000D03*
X121920000Y-114300000D03*
X124460000Y-114300000D03*
X127000000Y-114300000D03*
%TD*%
D13*
%TO.C,PP25*%
X106045000Y-90805000D03*
%TD*%
D11*
%TO.C,JpVDD5*%
X96520000Y-118745000D03*
D12*
X99060000Y-118745000D03*
X101600000Y-118745000D03*
%TD*%
D13*
%TO.C,PP9*%
X108585000Y-62865000D03*
%TD*%
%TO.C,PP6*%
X100965000Y-62865000D03*
%TD*%
%TO.C,PP15*%
X123825000Y-62865000D03*
%TD*%
%TO.C,PP5*%
X98425000Y-62865000D03*
%TD*%
%TO.C,PP62*%
X168275000Y-90805000D03*
%TD*%
%TO.C,PP21*%
X95885000Y-90805000D03*
%TD*%
%TO.C,PP34*%
X128905000Y-90805000D03*
%TD*%
D25*
%TO.C,JP1*%
X80645000Y-124430000D03*
D26*
X80645000Y-125730000D03*
D27*
X80645000Y-127030000D03*
%TD*%
D13*
%TO.C,PP4*%
X95885000Y-62865000D03*
%TD*%
%TO.C,PP28*%
X113665000Y-90805000D03*
%TD*%
%TO.C,PP40*%
X155575000Y-62865000D03*
%TD*%
D22*
%TO.C,J3*%
X90004900Y-76835000D03*
X127165100Y-76835000D03*
%TD*%
D20*
%TO.C,U1*%
X96315000Y-82535000D03*
X97115000Y-82535000D03*
X97915000Y-82535000D03*
X98715000Y-82535000D03*
X99515000Y-82535000D03*
X100315000Y-82535000D03*
X101115000Y-82535000D03*
X101915000Y-82535000D03*
X102715000Y-82535000D03*
X103515000Y-82535000D03*
X104315000Y-82535000D03*
D21*
X106015000Y-80835000D03*
X106015000Y-80035000D03*
X106015000Y-79235000D03*
X106015000Y-78435000D03*
X106015000Y-77635000D03*
X106015000Y-76835000D03*
X106015000Y-76035000D03*
X106015000Y-75235000D03*
X106015000Y-74435000D03*
X106015000Y-73635000D03*
X106015000Y-72835000D03*
D20*
X104315000Y-71135000D03*
X103515000Y-71135000D03*
X102715000Y-71135000D03*
X101915000Y-71135000D03*
X101115000Y-71135000D03*
X100315000Y-71135000D03*
X99515000Y-71135000D03*
X98715000Y-71135000D03*
X97915000Y-71135000D03*
X97115000Y-71135000D03*
X96315000Y-71135000D03*
D21*
X94615000Y-72835000D03*
X94615000Y-73635000D03*
X94615000Y-74435000D03*
X94615000Y-75235000D03*
X94615000Y-76035000D03*
X94615000Y-76835000D03*
X94615000Y-77635000D03*
X94615000Y-78435000D03*
X94615000Y-79235000D03*
X94615000Y-80035000D03*
X94615000Y-80835000D03*
%TD*%
D13*
%TO.C,PP38*%
X150495000Y-62865000D03*
%TD*%
D23*
%TO.C,R2*%
X134177500Y-138430000D03*
X131252500Y-138430000D03*
%TD*%
D11*
%TO.C,J7*%
X109220000Y-111760000D03*
D12*
X111760000Y-111760000D03*
X114300000Y-111760000D03*
X116840000Y-111760000D03*
X119380000Y-111760000D03*
X121920000Y-111760000D03*
X124460000Y-111760000D03*
X127000000Y-111760000D03*
%TD*%
D28*
%TO.C,GND2*%
X135890000Y-59690000D03*
%TD*%
D13*
%TO.C,PP24*%
X103505000Y-90805000D03*
%TD*%
D10*
%TO.C,C6*%
X191305000Y-140335000D03*
X187155000Y-140335000D03*
%TD*%
D28*
%TO.C,VEE1*%
X138430000Y-107950000D03*
%TD*%
D13*
%TO.C,PP45*%
X168275000Y-62865000D03*
%TD*%
%TO.C,REF\u002A\u002A*%
X175260000Y-52705000D03*
%TD*%
%TO.C,PP26*%
X108585000Y-90805000D03*
%TD*%
%TO.C,PP58*%
X158115000Y-90805000D03*
%TD*%
D29*
%TO.C,U11*%
X109855000Y-135190000D03*
X111125000Y-135190000D03*
X112395000Y-135190000D03*
X113665000Y-135190000D03*
X114935000Y-135190000D03*
X116205000Y-135190000D03*
X117475000Y-135190000D03*
X117475000Y-130240000D03*
X116205000Y-130240000D03*
X114935000Y-130240000D03*
X113665000Y-130240000D03*
X112395000Y-130240000D03*
X111125000Y-130240000D03*
X109855000Y-130240000D03*
%TD*%
D23*
%TO.C,R3*%
X183265000Y-139065000D03*
X180340000Y-139065000D03*
%TD*%
D13*
%TO.C,PP57*%
X155575000Y-90805000D03*
%TD*%
%TO.C,PP43*%
X163195000Y-62865000D03*
%TD*%
D20*
%TO.C,U2*%
X113490000Y-82535000D03*
X114290000Y-82535000D03*
X115090000Y-82535000D03*
X115890000Y-82535000D03*
X116690000Y-82535000D03*
X117490000Y-82535000D03*
X118290000Y-82535000D03*
X119090000Y-82535000D03*
X119890000Y-82535000D03*
X120690000Y-82535000D03*
X121490000Y-82535000D03*
D21*
X123190000Y-80835000D03*
X123190000Y-80035000D03*
X123190000Y-79235000D03*
X123190000Y-78435000D03*
X123190000Y-77635000D03*
X123190000Y-76835000D03*
X123190000Y-76035000D03*
X123190000Y-75235000D03*
X123190000Y-74435000D03*
X123190000Y-73635000D03*
X123190000Y-72835000D03*
D20*
X121490000Y-71135000D03*
X120690000Y-71135000D03*
X119890000Y-71135000D03*
X119090000Y-71135000D03*
X118290000Y-71135000D03*
X117490000Y-71135000D03*
X116690000Y-71135000D03*
X115890000Y-71135000D03*
X115090000Y-71135000D03*
X114290000Y-71135000D03*
X113490000Y-71135000D03*
D21*
X111790000Y-72835000D03*
X111790000Y-73635000D03*
X111790000Y-74435000D03*
X111790000Y-75235000D03*
X111790000Y-76035000D03*
X111790000Y-76835000D03*
X111790000Y-77635000D03*
X111790000Y-78435000D03*
X111790000Y-79235000D03*
X111790000Y-80035000D03*
X111790000Y-80835000D03*
%TD*%
D13*
%TO.C,PP30*%
X118745000Y-90805000D03*
%TD*%
%TO.C,PP35*%
X142875000Y-62865000D03*
%TD*%
%TO.C,PP14*%
X121285000Y-62865000D03*
%TD*%
%TO.C,PP63*%
X170815000Y-90805000D03*
%TD*%
%TO.C,PP31*%
X121285000Y-90805000D03*
%TD*%
%TO.C,PP64*%
X173355000Y-90805000D03*
%TD*%
%TO.C,PP48*%
X175895000Y-62865000D03*
%TD*%
%TO.C,PP2*%
X90805000Y-62865000D03*
%TD*%
%TO.C,PP46*%
X170815000Y-62865000D03*
%TD*%
%TO.C,PP61*%
X165735000Y-90805000D03*
%TD*%
D28*
%TO.C,VCC1*%
X138430000Y-93980000D03*
%TD*%
D11*
%TO.C,PMOD1*%
X80645000Y-111760000D03*
D12*
X80645000Y-106680000D03*
X80645000Y-109220000D03*
X80645000Y-104140000D03*
X80645000Y-101600000D03*
X80645000Y-99060000D03*
X78105000Y-111760000D03*
X78105000Y-109220000D03*
X78105000Y-106680000D03*
X78105000Y-104140000D03*
X78105000Y-101600000D03*
X78105000Y-99060000D03*
%TD*%
D16*
%TO.C,R11*%
X127000000Y-122940000D03*
X127000000Y-120015000D03*
%TD*%
D13*
%TO.C,PP12*%
X116205000Y-62865000D03*
%TD*%
%TO.C,PP19*%
X90805000Y-90805000D03*
%TD*%
D11*
%TO.C,JpVDD4*%
X96520000Y-113665000D03*
D12*
X99060000Y-113665000D03*
X101600000Y-113665000D03*
%TD*%
D30*
%TO.C,U9*%
X199895000Y-120465000D03*
D31*
X196865000Y-120765000D03*
X196865000Y-125615000D03*
D30*
X199895000Y-125915000D03*
D12*
X200025000Y-114300000D03*
D32*
X200025000Y-113400000D03*
D12*
X197485000Y-114300000D03*
D32*
X197485000Y-113400000D03*
D11*
X194945000Y-114300000D03*
D32*
X194945000Y-113400000D03*
D12*
X192405000Y-114300000D03*
D32*
X192405000Y-113400000D03*
D12*
X189865000Y-114300000D03*
D32*
X189865000Y-113400000D03*
D12*
X187325000Y-114300000D03*
D32*
X187325000Y-113400000D03*
D12*
X184785000Y-114300000D03*
D32*
X184785000Y-113400000D03*
D11*
X182245000Y-114300000D03*
D32*
X182245000Y-113400000D03*
D12*
X179705000Y-114300000D03*
D32*
X179705000Y-113400000D03*
D12*
X177165000Y-114300000D03*
D32*
X177165000Y-113400000D03*
D12*
X174625000Y-114300000D03*
D32*
X174625000Y-113400000D03*
D12*
X172085000Y-114300000D03*
D32*
X172085000Y-113400000D03*
D11*
X169545000Y-114300000D03*
D32*
X169545000Y-113400000D03*
D12*
X167005000Y-114300000D03*
D32*
X167005000Y-113400000D03*
D12*
X164465000Y-114300000D03*
D32*
X164465000Y-113400000D03*
D12*
X161925000Y-114300000D03*
D32*
X161925000Y-113400000D03*
D12*
X159385000Y-114300000D03*
D32*
X159385000Y-113400000D03*
D11*
X156845000Y-114300000D03*
D32*
X156845000Y-113400000D03*
D12*
X154305000Y-114300000D03*
D32*
X154305000Y-113400000D03*
D12*
X151765000Y-114300000D03*
D32*
X151765000Y-113400000D03*
D12*
X151765000Y-132080000D03*
D32*
X151765000Y-132980000D03*
D12*
X154305000Y-132080000D03*
D32*
X154305000Y-132980000D03*
D11*
X156845000Y-132080000D03*
D32*
X156845000Y-132980000D03*
D12*
X159385000Y-132080000D03*
D32*
X159385000Y-132980000D03*
D12*
X161925000Y-132080000D03*
D32*
X161925000Y-132980000D03*
D12*
X164465000Y-132080000D03*
D32*
X164465000Y-132980000D03*
D12*
X167005000Y-132080000D03*
D32*
X167005000Y-132980000D03*
D11*
X169545000Y-132080000D03*
D32*
X169545000Y-132980000D03*
D12*
X172085000Y-132080000D03*
D32*
X172085000Y-132980000D03*
D12*
X174625000Y-132080000D03*
D32*
X174625000Y-132980000D03*
D12*
X177165000Y-132080000D03*
D32*
X177165000Y-132980000D03*
D12*
X179705000Y-132080000D03*
D32*
X179705000Y-132980000D03*
D11*
X182245000Y-132080000D03*
D32*
X182245000Y-132980000D03*
D12*
X184785000Y-132080000D03*
D32*
X184785000Y-132980000D03*
D12*
X187325000Y-132080000D03*
D32*
X187325000Y-132980000D03*
D12*
X189865000Y-132080000D03*
D32*
X189865000Y-132980000D03*
D12*
X192405000Y-132080000D03*
D32*
X192405000Y-132980000D03*
D11*
X194945000Y-132080000D03*
D32*
X194945000Y-132980000D03*
D12*
X197485000Y-132080000D03*
D32*
X197485000Y-132980000D03*
D12*
X200025000Y-132080000D03*
D32*
X200025000Y-132980000D03*
D12*
X151995000Y-120650000D03*
D33*
X151095000Y-120650000D03*
D11*
X151995000Y-123190000D03*
D33*
X151095000Y-123190000D03*
D12*
X151995000Y-125730000D03*
D33*
X151095000Y-125730000D03*
%TD*%
D13*
%TO.C,PP17*%
X128905000Y-62865000D03*
%TD*%
%TO.C,PP8*%
X106045000Y-62865000D03*
%TD*%
%TO.C,REF\u002A\u002A*%
X96520000Y-52705000D03*
%TD*%
%TO.C,PP67*%
X180975000Y-90805000D03*
%TD*%
%TO.C,PP41*%
X158115000Y-62865000D03*
%TD*%
D10*
%TO.C,C4*%
X175895000Y-142240000D03*
X171745000Y-142240000D03*
%TD*%
D20*
%TO.C,U4*%
X168100000Y-82535000D03*
X168900000Y-82535000D03*
X169700000Y-82535000D03*
X170500000Y-82535000D03*
X171300000Y-82535000D03*
X172100000Y-82535000D03*
X172900000Y-82535000D03*
X173700000Y-82535000D03*
X174500000Y-82535000D03*
X175300000Y-82535000D03*
X176100000Y-82535000D03*
D21*
X177800000Y-80835000D03*
X177800000Y-80035000D03*
X177800000Y-79235000D03*
X177800000Y-78435000D03*
X177800000Y-77635000D03*
X177800000Y-76835000D03*
X177800000Y-76035000D03*
X177800000Y-75235000D03*
X177800000Y-74435000D03*
X177800000Y-73635000D03*
X177800000Y-72835000D03*
D20*
X176100000Y-71135000D03*
X175300000Y-71135000D03*
X174500000Y-71135000D03*
X173700000Y-71135000D03*
X172900000Y-71135000D03*
X172100000Y-71135000D03*
X171300000Y-71135000D03*
X170500000Y-71135000D03*
X169700000Y-71135000D03*
X168900000Y-71135000D03*
X168100000Y-71135000D03*
D21*
X166400000Y-72835000D03*
X166400000Y-73635000D03*
X166400000Y-74435000D03*
X166400000Y-75235000D03*
X166400000Y-76035000D03*
X166400000Y-76835000D03*
X166400000Y-77635000D03*
X166400000Y-78435000D03*
X166400000Y-79235000D03*
X166400000Y-80035000D03*
X166400000Y-80835000D03*
%TD*%
D13*
%TO.C,PP54*%
X147955000Y-90805000D03*
%TD*%
%TO.C,PP52*%
X142875000Y-90805000D03*
%TD*%
%TO.C,PP42*%
X160655000Y-62865000D03*
%TD*%
D16*
%TO.C,R7*%
X114300000Y-122940000D03*
X114300000Y-120015000D03*
%TD*%
D13*
%TO.C,PP22*%
X98425000Y-90805000D03*
%TD*%
D20*
%TO.C,U5*%
X131875000Y-82535000D03*
X132675000Y-82535000D03*
X133475000Y-82535000D03*
X134275000Y-82535000D03*
X135075000Y-82535000D03*
X135875000Y-82535000D03*
X136675000Y-82535000D03*
X137475000Y-82535000D03*
X138275000Y-82535000D03*
X139075000Y-82535000D03*
X139875000Y-82535000D03*
D21*
X141575000Y-80835000D03*
X141575000Y-80035000D03*
X141575000Y-79235000D03*
X141575000Y-78435000D03*
X141575000Y-77635000D03*
X141575000Y-76835000D03*
X141575000Y-76035000D03*
X141575000Y-75235000D03*
X141575000Y-74435000D03*
X141575000Y-73635000D03*
X141575000Y-72835000D03*
D20*
X139875000Y-71135000D03*
X139075000Y-71135000D03*
X138275000Y-71135000D03*
X137475000Y-71135000D03*
X136675000Y-71135000D03*
X135875000Y-71135000D03*
X135075000Y-71135000D03*
X134275000Y-71135000D03*
X133475000Y-71135000D03*
X132675000Y-71135000D03*
X131875000Y-71135000D03*
D21*
X130175000Y-72835000D03*
X130175000Y-73635000D03*
X130175000Y-74435000D03*
X130175000Y-75235000D03*
X130175000Y-76035000D03*
X130175000Y-76835000D03*
X130175000Y-77635000D03*
X130175000Y-78435000D03*
X130175000Y-79235000D03*
X130175000Y-80035000D03*
X130175000Y-80835000D03*
%TD*%
D13*
%TO.C,PP13*%
X118745000Y-62865000D03*
%TD*%
D15*
%TO.C,C7*%
X81915000Y-63205000D03*
X81915000Y-59055000D03*
%TD*%
D16*
%TO.C,R5*%
X109220000Y-122940000D03*
X109220000Y-120015000D03*
%TD*%
D13*
%TO.C,PP20*%
X93345000Y-90805000D03*
%TD*%
%TO.C,PP68*%
X183515000Y-90805000D03*
%TD*%
D17*
%TO.C,GND1*%
X196215000Y-65405000D03*
%TD*%
D34*
%TO.C,RV1*%
X139685000Y-129540000D03*
X137145000Y-132080000D03*
X139685000Y-134620000D03*
%TD*%
D28*
%TO.C,VDD1*%
X135890000Y-47625000D03*
%TD*%
D16*
%TO.C,R10*%
X124460000Y-122940000D03*
X124460000Y-120015000D03*
%TD*%
D11*
%TO.C,JpVDD3*%
X90170000Y-123825000D03*
D12*
X87630000Y-123825000D03*
X85090000Y-123825000D03*
%TD*%
D13*
%TO.C,PP7*%
X103505000Y-62865000D03*
%TD*%
M02*
