%TF.GenerationSoftware,KiCad,Pcbnew,8.0.8*%
%TF.CreationDate,2025-04-01T10:51:03-04:00*%
%TF.ProjectId,cross-point-exp-brd-mini-red2-smd,63726f73-732d-4706-9f69-6e742d657870,rev?*%
%TF.SameCoordinates,Original*%
%TF.FileFunction,Paste,Top*%
%TF.FilePolarity,Positive*%
%FSLAX46Y46*%
G04 Gerber Fmt 4.6, Leading zero omitted, Abs format (unit mm)*
G04 Created by KiCad (PCBNEW 8.0.8) date 2025-04-01 10:51:03*
%MOMM*%
%LPD*%
G01*
G04 APERTURE LIST*
G04 Aperture macros list*
%AMRoundRect*
0 Rectangle with rounded corners*
0 $1 Rounding radius*
0 $2 $3 $4 $5 $6 $7 $8 $9 X,Y pos of 4 corners*
0 Add a 4 corners polygon primitive as box body*
4,1,4,$2,$3,$4,$5,$6,$7,$8,$9,$2,$3,0*
0 Add four circle primitives for the rounded corners*
1,1,$1+$1,$2,$3*
1,1,$1+$1,$4,$5*
1,1,$1+$1,$6,$7*
1,1,$1+$1,$8,$9*
0 Add four rect primitives between the rounded corners*
20,1,$1+$1,$2,$3,$4,$5,0*
20,1,$1+$1,$4,$5,$6,$7,0*
20,1,$1+$1,$6,$7,$8,$9,0*
20,1,$1+$1,$8,$9,$2,$3,0*%
G04 Aperture macros list end*
%ADD10RoundRect,0.249999X0.525001X0.900001X-0.525001X0.900001X-0.525001X-0.900001X0.525001X-0.900001X0*%
%ADD11C,2.200000*%
%ADD12RoundRect,0.249999X-0.900001X0.525001X-0.900001X-0.525001X0.900001X-0.525001X0.900001X0.525001X0*%
%ADD13RoundRect,0.249999X0.900001X-0.525001X0.900001X0.525001X-0.900001X0.525001X-0.900001X-0.525001X0*%
%ADD14RoundRect,0.250000X0.625000X-0.312500X0.625000X0.312500X-0.625000X0.312500X-0.625000X-0.312500X0*%
%ADD15RoundRect,0.250000X-0.312500X-0.625000X0.312500X-0.625000X0.312500X0.625000X-0.312500X0.625000X0*%
%ADD16RoundRect,0.150000X0.150000X-0.725000X0.150000X0.725000X-0.150000X0.725000X-0.150000X-0.725000X0*%
%ADD17R,0.500000X1.200000*%
%ADD18R,1.200000X0.500000*%
%ADD19RoundRect,0.250000X0.312500X0.625000X-0.312500X0.625000X-0.312500X-0.625000X0.312500X-0.625000X0*%
%ADD20RoundRect,0.150000X0.150000X-0.825000X0.150000X0.825000X-0.150000X0.825000X-0.150000X-0.825000X0*%
G04 APERTURE END LIST*
D10*
%TO.C,C2*%
X94785000Y-135890000D03*
X90635000Y-135890000D03*
%TD*%
D11*
%TO.C,PP3*%
X93345000Y-62865000D03*
%TD*%
D12*
%TO.C,C5*%
X99695000Y-133010000D03*
X99695000Y-137160000D03*
%TD*%
D11*
%TO.C,PP65*%
X175895000Y-90805000D03*
%TD*%
%TO.C,PP60*%
X163195000Y-90805000D03*
%TD*%
D13*
%TO.C,C3*%
X89535000Y-114300000D03*
X89535000Y-110150000D03*
%TD*%
D11*
%TO.C,PP33*%
X126365000Y-90805000D03*
%TD*%
D14*
%TO.C,R9*%
X119380000Y-122940000D03*
X119380000Y-120015000D03*
%TD*%
D11*
%TO.C,PP55*%
X150495000Y-90805000D03*
%TD*%
%TO.C,PP47*%
X173355000Y-62865000D03*
%TD*%
%TO.C,PP39*%
X153035000Y-62865000D03*
%TD*%
%TO.C,PP29*%
X116205000Y-90805000D03*
%TD*%
D13*
%TO.C,C8*%
X81915000Y-94320000D03*
X81915000Y-90170000D03*
%TD*%
D15*
%TO.C,R12*%
X89785000Y-139065000D03*
X92710000Y-139065000D03*
%TD*%
D11*
%TO.C,PP66*%
X178435000Y-90805000D03*
%TD*%
%TO.C,PP23*%
X100965000Y-90805000D03*
%TD*%
%TO.C,PP11*%
X113665000Y-62865000D03*
%TD*%
%TO.C,PP32*%
X123825000Y-90805000D03*
%TD*%
%TO.C,PP1*%
X88265000Y-62865000D03*
%TD*%
D16*
%TO.C,U10*%
X135255000Y-121285000D03*
X136525000Y-121285000D03*
X137795000Y-121285000D03*
X139065000Y-121285000D03*
X139065000Y-116135000D03*
X137795000Y-116135000D03*
X136525000Y-116135000D03*
X135255000Y-116135000D03*
%TD*%
D17*
%TO.C,U3*%
X150320000Y-82535000D03*
X151120000Y-82535000D03*
X151920000Y-82535000D03*
X152720000Y-82535000D03*
X153520000Y-82535000D03*
X154320000Y-82535000D03*
X155120000Y-82535000D03*
X155920000Y-82535000D03*
X156720000Y-82535000D03*
X157520000Y-82535000D03*
X158320000Y-82535000D03*
D18*
X160020000Y-80835000D03*
X160020000Y-80035000D03*
X160020000Y-79235000D03*
X160020000Y-78435000D03*
X160020000Y-77635000D03*
X160020000Y-76835000D03*
X160020000Y-76035000D03*
X160020000Y-75235000D03*
X160020000Y-74435000D03*
X160020000Y-73635000D03*
X160020000Y-72835000D03*
D17*
X158320000Y-71135000D03*
X157520000Y-71135000D03*
X156720000Y-71135000D03*
X155920000Y-71135000D03*
X155120000Y-71135000D03*
X154320000Y-71135000D03*
X153520000Y-71135000D03*
X152720000Y-71135000D03*
X151920000Y-71135000D03*
X151120000Y-71135000D03*
X150320000Y-71135000D03*
D18*
X148620000Y-72835000D03*
X148620000Y-73635000D03*
X148620000Y-74435000D03*
X148620000Y-75235000D03*
X148620000Y-76035000D03*
X148620000Y-76835000D03*
X148620000Y-77635000D03*
X148620000Y-78435000D03*
X148620000Y-79235000D03*
X148620000Y-80035000D03*
X148620000Y-80835000D03*
%TD*%
D11*
%TO.C,PP51*%
X183515000Y-62865000D03*
%TD*%
%TO.C,PP56*%
X153035000Y-90805000D03*
%TD*%
%TO.C,PP27*%
X111125000Y-90805000D03*
%TD*%
%TO.C,PP49*%
X178435000Y-62865000D03*
%TD*%
%TO.C,PP50*%
X180975000Y-62865000D03*
%TD*%
%TO.C,PP16*%
X126365000Y-62865000D03*
%TD*%
D19*
%TO.C,R1*%
X125922500Y-137160000D03*
X122997500Y-137160000D03*
%TD*%
D11*
%TO.C,PP36*%
X145415000Y-62865000D03*
%TD*%
%TO.C,PP59*%
X160655000Y-90805000D03*
%TD*%
D13*
%TO.C,C1*%
X130175000Y-132080000D03*
X130175000Y-127930000D03*
%TD*%
D11*
%TO.C,PP18*%
X88265000Y-90805000D03*
%TD*%
%TO.C,PP53*%
X145415000Y-90805000D03*
%TD*%
D14*
%TO.C,R8*%
X121920000Y-122940000D03*
X121920000Y-120015000D03*
%TD*%
D11*
%TO.C,PP37*%
X147955000Y-62865000D03*
%TD*%
%TO.C,PP10*%
X111125000Y-62865000D03*
%TD*%
D14*
%TO.C,R6*%
X116840000Y-122940000D03*
X116840000Y-120015000D03*
%TD*%
%TO.C,R4*%
X111760000Y-122940000D03*
X111760000Y-120015000D03*
%TD*%
D11*
%TO.C,PP44*%
X165735000Y-62865000D03*
%TD*%
%TO.C,PP25*%
X106045000Y-90805000D03*
%TD*%
%TO.C,PP9*%
X108585000Y-62865000D03*
%TD*%
%TO.C,PP6*%
X100965000Y-62865000D03*
%TD*%
%TO.C,PP15*%
X123825000Y-62865000D03*
%TD*%
%TO.C,PP5*%
X98425000Y-62865000D03*
%TD*%
%TO.C,PP62*%
X168275000Y-90805000D03*
%TD*%
%TO.C,PP21*%
X95885000Y-90805000D03*
%TD*%
%TO.C,PP34*%
X128905000Y-90805000D03*
%TD*%
%TO.C,PP4*%
X95885000Y-62865000D03*
%TD*%
%TO.C,PP28*%
X113665000Y-90805000D03*
%TD*%
%TO.C,PP40*%
X155575000Y-62865000D03*
%TD*%
D17*
%TO.C,U1*%
X96315000Y-82535000D03*
X97115000Y-82535000D03*
X97915000Y-82535000D03*
X98715000Y-82535000D03*
X99515000Y-82535000D03*
X100315000Y-82535000D03*
X101115000Y-82535000D03*
X101915000Y-82535000D03*
X102715000Y-82535000D03*
X103515000Y-82535000D03*
X104315000Y-82535000D03*
D18*
X106015000Y-80835000D03*
X106015000Y-80035000D03*
X106015000Y-79235000D03*
X106015000Y-78435000D03*
X106015000Y-77635000D03*
X106015000Y-76835000D03*
X106015000Y-76035000D03*
X106015000Y-75235000D03*
X106015000Y-74435000D03*
X106015000Y-73635000D03*
X106015000Y-72835000D03*
D17*
X104315000Y-71135000D03*
X103515000Y-71135000D03*
X102715000Y-71135000D03*
X101915000Y-71135000D03*
X101115000Y-71135000D03*
X100315000Y-71135000D03*
X99515000Y-71135000D03*
X98715000Y-71135000D03*
X97915000Y-71135000D03*
X97115000Y-71135000D03*
X96315000Y-71135000D03*
D18*
X94615000Y-72835000D03*
X94615000Y-73635000D03*
X94615000Y-74435000D03*
X94615000Y-75235000D03*
X94615000Y-76035000D03*
X94615000Y-76835000D03*
X94615000Y-77635000D03*
X94615000Y-78435000D03*
X94615000Y-79235000D03*
X94615000Y-80035000D03*
X94615000Y-80835000D03*
%TD*%
D11*
%TO.C,PP38*%
X150495000Y-62865000D03*
%TD*%
D19*
%TO.C,R2*%
X134177500Y-138430000D03*
X131252500Y-138430000D03*
%TD*%
D11*
%TO.C,PP24*%
X103505000Y-90805000D03*
%TD*%
D10*
%TO.C,C6*%
X191305000Y-140335000D03*
X187155000Y-140335000D03*
%TD*%
D11*
%TO.C,PP45*%
X168275000Y-62865000D03*
%TD*%
%TO.C,PP26*%
X108585000Y-90805000D03*
%TD*%
%TO.C,PP58*%
X158115000Y-90805000D03*
%TD*%
D20*
%TO.C,U11*%
X109855000Y-135190000D03*
X111125000Y-135190000D03*
X112395000Y-135190000D03*
X113665000Y-135190000D03*
X114935000Y-135190000D03*
X116205000Y-135190000D03*
X117475000Y-135190000D03*
X117475000Y-130240000D03*
X116205000Y-130240000D03*
X114935000Y-130240000D03*
X113665000Y-130240000D03*
X112395000Y-130240000D03*
X111125000Y-130240000D03*
X109855000Y-130240000D03*
%TD*%
D19*
%TO.C,R3*%
X183265000Y-139065000D03*
X180340000Y-139065000D03*
%TD*%
D11*
%TO.C,PP57*%
X155575000Y-90805000D03*
%TD*%
%TO.C,PP43*%
X163195000Y-62865000D03*
%TD*%
D17*
%TO.C,U2*%
X113490000Y-82535000D03*
X114290000Y-82535000D03*
X115090000Y-82535000D03*
X115890000Y-82535000D03*
X116690000Y-82535000D03*
X117490000Y-82535000D03*
X118290000Y-82535000D03*
X119090000Y-82535000D03*
X119890000Y-82535000D03*
X120690000Y-82535000D03*
X121490000Y-82535000D03*
D18*
X123190000Y-80835000D03*
X123190000Y-80035000D03*
X123190000Y-79235000D03*
X123190000Y-78435000D03*
X123190000Y-77635000D03*
X123190000Y-76835000D03*
X123190000Y-76035000D03*
X123190000Y-75235000D03*
X123190000Y-74435000D03*
X123190000Y-73635000D03*
X123190000Y-72835000D03*
D17*
X121490000Y-71135000D03*
X120690000Y-71135000D03*
X119890000Y-71135000D03*
X119090000Y-71135000D03*
X118290000Y-71135000D03*
X117490000Y-71135000D03*
X116690000Y-71135000D03*
X115890000Y-71135000D03*
X115090000Y-71135000D03*
X114290000Y-71135000D03*
X113490000Y-71135000D03*
D18*
X111790000Y-72835000D03*
X111790000Y-73635000D03*
X111790000Y-74435000D03*
X111790000Y-75235000D03*
X111790000Y-76035000D03*
X111790000Y-76835000D03*
X111790000Y-77635000D03*
X111790000Y-78435000D03*
X111790000Y-79235000D03*
X111790000Y-80035000D03*
X111790000Y-80835000D03*
%TD*%
D11*
%TO.C,PP30*%
X118745000Y-90805000D03*
%TD*%
%TO.C,PP35*%
X142875000Y-62865000D03*
%TD*%
%TO.C,PP14*%
X121285000Y-62865000D03*
%TD*%
%TO.C,PP63*%
X170815000Y-90805000D03*
%TD*%
%TO.C,PP31*%
X121285000Y-90805000D03*
%TD*%
%TO.C,PP64*%
X173355000Y-90805000D03*
%TD*%
%TO.C,PP48*%
X175895000Y-62865000D03*
%TD*%
%TO.C,PP2*%
X90805000Y-62865000D03*
%TD*%
%TO.C,PP46*%
X170815000Y-62865000D03*
%TD*%
%TO.C,PP61*%
X165735000Y-90805000D03*
%TD*%
D14*
%TO.C,R11*%
X127000000Y-122940000D03*
X127000000Y-120015000D03*
%TD*%
D11*
%TO.C,PP12*%
X116205000Y-62865000D03*
%TD*%
%TO.C,PP19*%
X90805000Y-90805000D03*
%TD*%
%TO.C,PP17*%
X128905000Y-62865000D03*
%TD*%
%TO.C,PP8*%
X106045000Y-62865000D03*
%TD*%
%TO.C,PP67*%
X180975000Y-90805000D03*
%TD*%
%TO.C,PP41*%
X158115000Y-62865000D03*
%TD*%
D10*
%TO.C,C4*%
X175895000Y-142240000D03*
X171745000Y-142240000D03*
%TD*%
D17*
%TO.C,U4*%
X168100000Y-82535000D03*
X168900000Y-82535000D03*
X169700000Y-82535000D03*
X170500000Y-82535000D03*
X171300000Y-82535000D03*
X172100000Y-82535000D03*
X172900000Y-82535000D03*
X173700000Y-82535000D03*
X174500000Y-82535000D03*
X175300000Y-82535000D03*
X176100000Y-82535000D03*
D18*
X177800000Y-80835000D03*
X177800000Y-80035000D03*
X177800000Y-79235000D03*
X177800000Y-78435000D03*
X177800000Y-77635000D03*
X177800000Y-76835000D03*
X177800000Y-76035000D03*
X177800000Y-75235000D03*
X177800000Y-74435000D03*
X177800000Y-73635000D03*
X177800000Y-72835000D03*
D17*
X176100000Y-71135000D03*
X175300000Y-71135000D03*
X174500000Y-71135000D03*
X173700000Y-71135000D03*
X172900000Y-71135000D03*
X172100000Y-71135000D03*
X171300000Y-71135000D03*
X170500000Y-71135000D03*
X169700000Y-71135000D03*
X168900000Y-71135000D03*
X168100000Y-71135000D03*
D18*
X166400000Y-72835000D03*
X166400000Y-73635000D03*
X166400000Y-74435000D03*
X166400000Y-75235000D03*
X166400000Y-76035000D03*
X166400000Y-76835000D03*
X166400000Y-77635000D03*
X166400000Y-78435000D03*
X166400000Y-79235000D03*
X166400000Y-80035000D03*
X166400000Y-80835000D03*
%TD*%
D11*
%TO.C,PP54*%
X147955000Y-90805000D03*
%TD*%
%TO.C,PP52*%
X142875000Y-90805000D03*
%TD*%
%TO.C,PP42*%
X160655000Y-62865000D03*
%TD*%
D14*
%TO.C,R7*%
X114300000Y-122940000D03*
X114300000Y-120015000D03*
%TD*%
D11*
%TO.C,PP22*%
X98425000Y-90805000D03*
%TD*%
D17*
%TO.C,U5*%
X131875000Y-82535000D03*
X132675000Y-82535000D03*
X133475000Y-82535000D03*
X134275000Y-82535000D03*
X135075000Y-82535000D03*
X135875000Y-82535000D03*
X136675000Y-82535000D03*
X137475000Y-82535000D03*
X138275000Y-82535000D03*
X139075000Y-82535000D03*
X139875000Y-82535000D03*
D18*
X141575000Y-80835000D03*
X141575000Y-80035000D03*
X141575000Y-79235000D03*
X141575000Y-78435000D03*
X141575000Y-77635000D03*
X141575000Y-76835000D03*
X141575000Y-76035000D03*
X141575000Y-75235000D03*
X141575000Y-74435000D03*
X141575000Y-73635000D03*
X141575000Y-72835000D03*
D17*
X139875000Y-71135000D03*
X139075000Y-71135000D03*
X138275000Y-71135000D03*
X137475000Y-71135000D03*
X136675000Y-71135000D03*
X135875000Y-71135000D03*
X135075000Y-71135000D03*
X134275000Y-71135000D03*
X133475000Y-71135000D03*
X132675000Y-71135000D03*
X131875000Y-71135000D03*
D18*
X130175000Y-72835000D03*
X130175000Y-73635000D03*
X130175000Y-74435000D03*
X130175000Y-75235000D03*
X130175000Y-76035000D03*
X130175000Y-76835000D03*
X130175000Y-77635000D03*
X130175000Y-78435000D03*
X130175000Y-79235000D03*
X130175000Y-80035000D03*
X130175000Y-80835000D03*
%TD*%
D11*
%TO.C,PP13*%
X118745000Y-62865000D03*
%TD*%
D13*
%TO.C,C7*%
X81915000Y-63205000D03*
X81915000Y-59055000D03*
%TD*%
D14*
%TO.C,R5*%
X109220000Y-122940000D03*
X109220000Y-120015000D03*
%TD*%
D11*
%TO.C,PP20*%
X93345000Y-90805000D03*
%TD*%
%TO.C,PP68*%
X183515000Y-90805000D03*
%TD*%
D14*
%TO.C,R10*%
X124460000Y-122940000D03*
X124460000Y-120015000D03*
%TD*%
D11*
%TO.C,PP7*%
X103505000Y-62865000D03*
%TD*%
M02*
