%TF.GenerationSoftware,KiCad,Pcbnew,8.0.8*%
%TF.CreationDate,2025-04-01T10:51:03-04:00*%
%TF.ProjectId,cross-point-exp-brd-mini-red2-smd,63726f73-732d-4706-9f69-6e742d657870,rev?*%
%TF.SameCoordinates,Original*%
%TF.FileFunction,Legend,Bot*%
%TF.FilePolarity,Positive*%
%FSLAX46Y46*%
G04 Gerber Fmt 4.6, Leading zero omitted, Abs format (unit mm)*
G04 Created by KiCad (PCBNEW 8.0.8) date 2025-04-01 10:51:03*
%MOMM*%
%LPD*%
G01*
G04 APERTURE LIST*
%ADD10C,0.254000*%
%ADD11C,0.381000*%
%ADD12C,0.150000*%
%ADD13C,0.120000*%
G04 APERTURE END LIST*
D10*
X194814180Y-67249318D02*
X194814180Y-68156461D01*
X194814180Y-68156461D02*
X194868609Y-68337889D01*
X194868609Y-68337889D02*
X194977466Y-68458842D01*
X194977466Y-68458842D02*
X195140752Y-68519318D01*
X195140752Y-68519318D02*
X195249609Y-68519318D01*
X194269895Y-68519318D02*
X194269895Y-67249318D01*
X194269895Y-67249318D02*
X193834466Y-67249318D01*
X193834466Y-67249318D02*
X193725609Y-67309794D01*
X193725609Y-67309794D02*
X193671180Y-67370270D01*
X193671180Y-67370270D02*
X193616752Y-67491222D01*
X193616752Y-67491222D02*
X193616752Y-67672651D01*
X193616752Y-67672651D02*
X193671180Y-67793603D01*
X193671180Y-67793603D02*
X193725609Y-67854080D01*
X193725609Y-67854080D02*
X193834466Y-67914556D01*
X193834466Y-67914556D02*
X194269895Y-67914556D01*
X193072466Y-68519318D02*
X192854752Y-68519318D01*
X192854752Y-68519318D02*
X192745895Y-68458842D01*
X192745895Y-68458842D02*
X192691466Y-68398365D01*
X192691466Y-68398365D02*
X192582609Y-68216937D01*
X192582609Y-68216937D02*
X192528180Y-67975032D01*
X192528180Y-67975032D02*
X192528180Y-67491222D01*
X192528180Y-67491222D02*
X192582609Y-67370270D01*
X192582609Y-67370270D02*
X192637038Y-67309794D01*
X192637038Y-67309794D02*
X192745895Y-67249318D01*
X192745895Y-67249318D02*
X192963609Y-67249318D01*
X192963609Y-67249318D02*
X193072466Y-67309794D01*
X193072466Y-67309794D02*
X193126895Y-67370270D01*
X193126895Y-67370270D02*
X193181323Y-67491222D01*
X193181323Y-67491222D02*
X193181323Y-67793603D01*
X193181323Y-67793603D02*
X193126895Y-67914556D01*
X193126895Y-67914556D02*
X193072466Y-67975032D01*
X193072466Y-67975032D02*
X192963609Y-68035508D01*
X192963609Y-68035508D02*
X192745895Y-68035508D01*
X192745895Y-68035508D02*
X192637038Y-67975032D01*
X192637038Y-67975032D02*
X192582609Y-67914556D01*
X192582609Y-67914556D02*
X192528180Y-67793603D01*
X194814180Y-79949318D02*
X194814180Y-80856461D01*
X194814180Y-80856461D02*
X194868609Y-81037889D01*
X194868609Y-81037889D02*
X194977466Y-81158842D01*
X194977466Y-81158842D02*
X195140752Y-81219318D01*
X195140752Y-81219318D02*
X195249609Y-81219318D01*
X194269895Y-81219318D02*
X194269895Y-79949318D01*
X194269895Y-79949318D02*
X193834466Y-79949318D01*
X193834466Y-79949318D02*
X193725609Y-80009794D01*
X193725609Y-80009794D02*
X193671180Y-80070270D01*
X193671180Y-80070270D02*
X193616752Y-80191222D01*
X193616752Y-80191222D02*
X193616752Y-80372651D01*
X193616752Y-80372651D02*
X193671180Y-80493603D01*
X193671180Y-80493603D02*
X193725609Y-80554080D01*
X193725609Y-80554080D02*
X193834466Y-80614556D01*
X193834466Y-80614556D02*
X194269895Y-80614556D01*
X192528180Y-81219318D02*
X193181323Y-81219318D01*
X192854752Y-81219318D02*
X192854752Y-79949318D01*
X192854752Y-79949318D02*
X192963609Y-80130746D01*
X192963609Y-80130746D02*
X193072466Y-80251699D01*
X193072466Y-80251699D02*
X193181323Y-80312175D01*
X191548467Y-80372651D02*
X191548467Y-81219318D01*
X191820609Y-79888842D02*
X192092752Y-80795984D01*
X192092752Y-80795984D02*
X191385181Y-80795984D01*
X79505818Y-72329318D02*
X79505818Y-73236461D01*
X79505818Y-73236461D02*
X79560247Y-73417889D01*
X79560247Y-73417889D02*
X79669104Y-73538842D01*
X79669104Y-73538842D02*
X79832390Y-73599318D01*
X79832390Y-73599318D02*
X79941247Y-73599318D01*
X78961533Y-73599318D02*
X78961533Y-72329318D01*
X78961533Y-72329318D02*
X78526104Y-72329318D01*
X78526104Y-72329318D02*
X78417247Y-72389794D01*
X78417247Y-72389794D02*
X78362818Y-72450270D01*
X78362818Y-72450270D02*
X78308390Y-72571222D01*
X78308390Y-72571222D02*
X78308390Y-72752651D01*
X78308390Y-72752651D02*
X78362818Y-72873603D01*
X78362818Y-72873603D02*
X78417247Y-72934080D01*
X78417247Y-72934080D02*
X78526104Y-72994556D01*
X78526104Y-72994556D02*
X78961533Y-72994556D01*
X77927390Y-72329318D02*
X77219818Y-72329318D01*
X77219818Y-72329318D02*
X77600818Y-72813127D01*
X77600818Y-72813127D02*
X77437533Y-72813127D01*
X77437533Y-72813127D02*
X77328676Y-72873603D01*
X77328676Y-72873603D02*
X77274247Y-72934080D01*
X77274247Y-72934080D02*
X77219818Y-73055032D01*
X77219818Y-73055032D02*
X77219818Y-73357413D01*
X77219818Y-73357413D02*
X77274247Y-73478365D01*
X77274247Y-73478365D02*
X77328676Y-73538842D01*
X77328676Y-73538842D02*
X77437533Y-73599318D01*
X77437533Y-73599318D02*
X77764104Y-73599318D01*
X77764104Y-73599318D02*
X77872961Y-73538842D01*
X77872961Y-73538842D02*
X77927390Y-73478365D01*
X194814180Y-69789318D02*
X194814180Y-70696461D01*
X194814180Y-70696461D02*
X194868609Y-70877889D01*
X194868609Y-70877889D02*
X194977466Y-70998842D01*
X194977466Y-70998842D02*
X195140752Y-71059318D01*
X195140752Y-71059318D02*
X195249609Y-71059318D01*
X194269895Y-71059318D02*
X194269895Y-69789318D01*
X194269895Y-69789318D02*
X193834466Y-69789318D01*
X193834466Y-69789318D02*
X193725609Y-69849794D01*
X193725609Y-69849794D02*
X193671180Y-69910270D01*
X193671180Y-69910270D02*
X193616752Y-70031222D01*
X193616752Y-70031222D02*
X193616752Y-70212651D01*
X193616752Y-70212651D02*
X193671180Y-70333603D01*
X193671180Y-70333603D02*
X193725609Y-70394080D01*
X193725609Y-70394080D02*
X193834466Y-70454556D01*
X193834466Y-70454556D02*
X194269895Y-70454556D01*
X192528180Y-71059318D02*
X193181323Y-71059318D01*
X192854752Y-71059318D02*
X192854752Y-69789318D01*
X192854752Y-69789318D02*
X192963609Y-69970746D01*
X192963609Y-69970746D02*
X193072466Y-70091699D01*
X193072466Y-70091699D02*
X193181323Y-70152175D01*
X191820609Y-69789318D02*
X191711752Y-69789318D01*
X191711752Y-69789318D02*
X191602895Y-69849794D01*
X191602895Y-69849794D02*
X191548467Y-69910270D01*
X191548467Y-69910270D02*
X191494038Y-70031222D01*
X191494038Y-70031222D02*
X191439609Y-70273127D01*
X191439609Y-70273127D02*
X191439609Y-70575508D01*
X191439609Y-70575508D02*
X191494038Y-70817413D01*
X191494038Y-70817413D02*
X191548467Y-70938365D01*
X191548467Y-70938365D02*
X191602895Y-70998842D01*
X191602895Y-70998842D02*
X191711752Y-71059318D01*
X191711752Y-71059318D02*
X191820609Y-71059318D01*
X191820609Y-71059318D02*
X191929467Y-70998842D01*
X191929467Y-70998842D02*
X191983895Y-70938365D01*
X191983895Y-70938365D02*
X192038324Y-70817413D01*
X192038324Y-70817413D02*
X192092752Y-70575508D01*
X192092752Y-70575508D02*
X192092752Y-70273127D01*
X192092752Y-70273127D02*
X192038324Y-70031222D01*
X192038324Y-70031222D02*
X191983895Y-69910270D01*
X191983895Y-69910270D02*
X191929467Y-69849794D01*
X191929467Y-69849794D02*
X191820609Y-69789318D01*
X194814180Y-72329318D02*
X194814180Y-73236461D01*
X194814180Y-73236461D02*
X194868609Y-73417889D01*
X194868609Y-73417889D02*
X194977466Y-73538842D01*
X194977466Y-73538842D02*
X195140752Y-73599318D01*
X195140752Y-73599318D02*
X195249609Y-73599318D01*
X194269895Y-73599318D02*
X194269895Y-72329318D01*
X194269895Y-72329318D02*
X193834466Y-72329318D01*
X193834466Y-72329318D02*
X193725609Y-72389794D01*
X193725609Y-72389794D02*
X193671180Y-72450270D01*
X193671180Y-72450270D02*
X193616752Y-72571222D01*
X193616752Y-72571222D02*
X193616752Y-72752651D01*
X193616752Y-72752651D02*
X193671180Y-72873603D01*
X193671180Y-72873603D02*
X193725609Y-72934080D01*
X193725609Y-72934080D02*
X193834466Y-72994556D01*
X193834466Y-72994556D02*
X194269895Y-72994556D01*
X192528180Y-73599318D02*
X193181323Y-73599318D01*
X192854752Y-73599318D02*
X192854752Y-72329318D01*
X192854752Y-72329318D02*
X192963609Y-72510746D01*
X192963609Y-72510746D02*
X193072466Y-72631699D01*
X193072466Y-72631699D02*
X193181323Y-72692175D01*
X191439609Y-73599318D02*
X192092752Y-73599318D01*
X191766181Y-73599318D02*
X191766181Y-72329318D01*
X191766181Y-72329318D02*
X191875038Y-72510746D01*
X191875038Y-72510746D02*
X191983895Y-72631699D01*
X191983895Y-72631699D02*
X192092752Y-72692175D01*
X194814180Y-85029318D02*
X194814180Y-85936461D01*
X194814180Y-85936461D02*
X194868609Y-86117889D01*
X194868609Y-86117889D02*
X194977466Y-86238842D01*
X194977466Y-86238842D02*
X195140752Y-86299318D01*
X195140752Y-86299318D02*
X195249609Y-86299318D01*
X194269895Y-86299318D02*
X194269895Y-85029318D01*
X194269895Y-85029318D02*
X193834466Y-85029318D01*
X193834466Y-85029318D02*
X193725609Y-85089794D01*
X193725609Y-85089794D02*
X193671180Y-85150270D01*
X193671180Y-85150270D02*
X193616752Y-85271222D01*
X193616752Y-85271222D02*
X193616752Y-85452651D01*
X193616752Y-85452651D02*
X193671180Y-85573603D01*
X193671180Y-85573603D02*
X193725609Y-85634080D01*
X193725609Y-85634080D02*
X193834466Y-85694556D01*
X193834466Y-85694556D02*
X194269895Y-85694556D01*
X192528180Y-86299318D02*
X193181323Y-86299318D01*
X192854752Y-86299318D02*
X192854752Y-85029318D01*
X192854752Y-85029318D02*
X192963609Y-85210746D01*
X192963609Y-85210746D02*
X193072466Y-85331699D01*
X193072466Y-85331699D02*
X193181323Y-85392175D01*
X191548467Y-85029318D02*
X191766181Y-85029318D01*
X191766181Y-85029318D02*
X191875038Y-85089794D01*
X191875038Y-85089794D02*
X191929467Y-85150270D01*
X191929467Y-85150270D02*
X192038324Y-85331699D01*
X192038324Y-85331699D02*
X192092752Y-85573603D01*
X192092752Y-85573603D02*
X192092752Y-86057413D01*
X192092752Y-86057413D02*
X192038324Y-86178365D01*
X192038324Y-86178365D02*
X191983895Y-86238842D01*
X191983895Y-86238842D02*
X191875038Y-86299318D01*
X191875038Y-86299318D02*
X191657324Y-86299318D01*
X191657324Y-86299318D02*
X191548467Y-86238842D01*
X191548467Y-86238842D02*
X191494038Y-86178365D01*
X191494038Y-86178365D02*
X191439609Y-86057413D01*
X191439609Y-86057413D02*
X191439609Y-85755032D01*
X191439609Y-85755032D02*
X191494038Y-85634080D01*
X191494038Y-85634080D02*
X191548467Y-85573603D01*
X191548467Y-85573603D02*
X191657324Y-85513127D01*
X191657324Y-85513127D02*
X191875038Y-85513127D01*
X191875038Y-85513127D02*
X191983895Y-85573603D01*
X191983895Y-85573603D02*
X192038324Y-85634080D01*
X192038324Y-85634080D02*
X192092752Y-85755032D01*
X79505818Y-85029318D02*
X79505818Y-85936461D01*
X79505818Y-85936461D02*
X79560247Y-86117889D01*
X79560247Y-86117889D02*
X79669104Y-86238842D01*
X79669104Y-86238842D02*
X79832390Y-86299318D01*
X79832390Y-86299318D02*
X79941247Y-86299318D01*
X78961533Y-86299318D02*
X78961533Y-85029318D01*
X78961533Y-85029318D02*
X78526104Y-85029318D01*
X78526104Y-85029318D02*
X78417247Y-85089794D01*
X78417247Y-85089794D02*
X78362818Y-85150270D01*
X78362818Y-85150270D02*
X78308390Y-85271222D01*
X78308390Y-85271222D02*
X78308390Y-85452651D01*
X78308390Y-85452651D02*
X78362818Y-85573603D01*
X78362818Y-85573603D02*
X78417247Y-85634080D01*
X78417247Y-85634080D02*
X78526104Y-85694556D01*
X78526104Y-85694556D02*
X78961533Y-85694556D01*
X77655247Y-85573603D02*
X77764104Y-85513127D01*
X77764104Y-85513127D02*
X77818533Y-85452651D01*
X77818533Y-85452651D02*
X77872961Y-85331699D01*
X77872961Y-85331699D02*
X77872961Y-85271222D01*
X77872961Y-85271222D02*
X77818533Y-85150270D01*
X77818533Y-85150270D02*
X77764104Y-85089794D01*
X77764104Y-85089794D02*
X77655247Y-85029318D01*
X77655247Y-85029318D02*
X77437533Y-85029318D01*
X77437533Y-85029318D02*
X77328676Y-85089794D01*
X77328676Y-85089794D02*
X77274247Y-85150270D01*
X77274247Y-85150270D02*
X77219818Y-85271222D01*
X77219818Y-85271222D02*
X77219818Y-85331699D01*
X77219818Y-85331699D02*
X77274247Y-85452651D01*
X77274247Y-85452651D02*
X77328676Y-85513127D01*
X77328676Y-85513127D02*
X77437533Y-85573603D01*
X77437533Y-85573603D02*
X77655247Y-85573603D01*
X77655247Y-85573603D02*
X77764104Y-85634080D01*
X77764104Y-85634080D02*
X77818533Y-85694556D01*
X77818533Y-85694556D02*
X77872961Y-85815508D01*
X77872961Y-85815508D02*
X77872961Y-86057413D01*
X77872961Y-86057413D02*
X77818533Y-86178365D01*
X77818533Y-86178365D02*
X77764104Y-86238842D01*
X77764104Y-86238842D02*
X77655247Y-86299318D01*
X77655247Y-86299318D02*
X77437533Y-86299318D01*
X77437533Y-86299318D02*
X77328676Y-86238842D01*
X77328676Y-86238842D02*
X77274247Y-86178365D01*
X77274247Y-86178365D02*
X77219818Y-86057413D01*
X77219818Y-86057413D02*
X77219818Y-85815508D01*
X77219818Y-85815508D02*
X77274247Y-85694556D01*
X77274247Y-85694556D02*
X77328676Y-85634080D01*
X77328676Y-85634080D02*
X77437533Y-85573603D01*
X79505818Y-67249318D02*
X79505818Y-68156461D01*
X79505818Y-68156461D02*
X79560247Y-68337889D01*
X79560247Y-68337889D02*
X79669104Y-68458842D01*
X79669104Y-68458842D02*
X79832390Y-68519318D01*
X79832390Y-68519318D02*
X79941247Y-68519318D01*
X78961533Y-68519318D02*
X78961533Y-67249318D01*
X78961533Y-67249318D02*
X78526104Y-67249318D01*
X78526104Y-67249318D02*
X78417247Y-67309794D01*
X78417247Y-67309794D02*
X78362818Y-67370270D01*
X78362818Y-67370270D02*
X78308390Y-67491222D01*
X78308390Y-67491222D02*
X78308390Y-67672651D01*
X78308390Y-67672651D02*
X78362818Y-67793603D01*
X78362818Y-67793603D02*
X78417247Y-67854080D01*
X78417247Y-67854080D02*
X78526104Y-67914556D01*
X78526104Y-67914556D02*
X78961533Y-67914556D01*
X77219818Y-68519318D02*
X77872961Y-68519318D01*
X77546390Y-68519318D02*
X77546390Y-67249318D01*
X77546390Y-67249318D02*
X77655247Y-67430746D01*
X77655247Y-67430746D02*
X77764104Y-67551699D01*
X77764104Y-67551699D02*
X77872961Y-67612175D01*
X116382609Y-109131680D02*
X116437037Y-109204252D01*
X116437037Y-109204252D02*
X116600323Y-109276823D01*
X116600323Y-109276823D02*
X116709180Y-109276823D01*
X116709180Y-109276823D02*
X116872466Y-109204252D01*
X116872466Y-109204252D02*
X116981323Y-109059109D01*
X116981323Y-109059109D02*
X117035752Y-108913966D01*
X117035752Y-108913966D02*
X117090180Y-108623680D01*
X117090180Y-108623680D02*
X117090180Y-108405966D01*
X117090180Y-108405966D02*
X117035752Y-108115680D01*
X117035752Y-108115680D02*
X116981323Y-107970537D01*
X116981323Y-107970537D02*
X116872466Y-107825394D01*
X116872466Y-107825394D02*
X116709180Y-107752823D01*
X116709180Y-107752823D02*
X116600323Y-107752823D01*
X116600323Y-107752823D02*
X116437037Y-107825394D01*
X116437037Y-107825394D02*
X116382609Y-107897966D01*
X115892752Y-109276823D02*
X115892752Y-107752823D01*
X115892752Y-108478537D02*
X115239609Y-108478537D01*
X115239609Y-109276823D02*
X115239609Y-107752823D01*
X114314323Y-108478537D02*
X114151037Y-108551109D01*
X114151037Y-108551109D02*
X114096608Y-108623680D01*
X114096608Y-108623680D02*
X114042180Y-108768823D01*
X114042180Y-108768823D02*
X114042180Y-108986537D01*
X114042180Y-108986537D02*
X114096608Y-109131680D01*
X114096608Y-109131680D02*
X114151037Y-109204252D01*
X114151037Y-109204252D02*
X114259894Y-109276823D01*
X114259894Y-109276823D02*
X114695323Y-109276823D01*
X114695323Y-109276823D02*
X114695323Y-107752823D01*
X114695323Y-107752823D02*
X114314323Y-107752823D01*
X114314323Y-107752823D02*
X114205466Y-107825394D01*
X114205466Y-107825394D02*
X114151037Y-107897966D01*
X114151037Y-107897966D02*
X114096608Y-108043109D01*
X114096608Y-108043109D02*
X114096608Y-108188252D01*
X114096608Y-108188252D02*
X114151037Y-108333394D01*
X114151037Y-108333394D02*
X114205466Y-108405966D01*
X114205466Y-108405966D02*
X114314323Y-108478537D01*
X114314323Y-108478537D02*
X114695323Y-108478537D01*
D11*
X160676485Y-144915763D02*
X160404343Y-145006477D01*
X160404343Y-145006477D02*
X159950771Y-145006477D01*
X159950771Y-145006477D02*
X159769343Y-144915763D01*
X159769343Y-144915763D02*
X159678628Y-144825048D01*
X159678628Y-144825048D02*
X159587914Y-144643620D01*
X159587914Y-144643620D02*
X159587914Y-144462191D01*
X159587914Y-144462191D02*
X159678628Y-144280763D01*
X159678628Y-144280763D02*
X159769343Y-144190048D01*
X159769343Y-144190048D02*
X159950771Y-144099334D01*
X159950771Y-144099334D02*
X160313628Y-144008620D01*
X160313628Y-144008620D02*
X160495057Y-143917905D01*
X160495057Y-143917905D02*
X160585771Y-143827191D01*
X160585771Y-143827191D02*
X160676485Y-143645763D01*
X160676485Y-143645763D02*
X160676485Y-143464334D01*
X160676485Y-143464334D02*
X160585771Y-143282905D01*
X160585771Y-143282905D02*
X160495057Y-143192191D01*
X160495057Y-143192191D02*
X160313628Y-143101477D01*
X160313628Y-143101477D02*
X159860057Y-143101477D01*
X159860057Y-143101477D02*
X159587914Y-143192191D01*
X158499342Y-145006477D02*
X158680771Y-144915763D01*
X158680771Y-144915763D02*
X158771485Y-144825048D01*
X158771485Y-144825048D02*
X158862199Y-144643620D01*
X158862199Y-144643620D02*
X158862199Y-144099334D01*
X158862199Y-144099334D02*
X158771485Y-143917905D01*
X158771485Y-143917905D02*
X158680771Y-143827191D01*
X158680771Y-143827191D02*
X158499342Y-143736477D01*
X158499342Y-143736477D02*
X158227199Y-143736477D01*
X158227199Y-143736477D02*
X158045771Y-143827191D01*
X158045771Y-143827191D02*
X157955057Y-143917905D01*
X157955057Y-143917905D02*
X157864342Y-144099334D01*
X157864342Y-144099334D02*
X157864342Y-144643620D01*
X157864342Y-144643620D02*
X157955057Y-144825048D01*
X157955057Y-144825048D02*
X158045771Y-144915763D01*
X158045771Y-144915763D02*
X158227199Y-145006477D01*
X158227199Y-145006477D02*
X158499342Y-145006477D01*
X157320057Y-143736477D02*
X156594343Y-143736477D01*
X157047914Y-145006477D02*
X157047914Y-143373620D01*
X157047914Y-143373620D02*
X156957200Y-143192191D01*
X156957200Y-143192191D02*
X156775771Y-143101477D01*
X156775771Y-143101477D02*
X156594343Y-143101477D01*
X156231486Y-143736477D02*
X155505772Y-143736477D01*
X155959343Y-143101477D02*
X155959343Y-144734334D01*
X155959343Y-144734334D02*
X155868629Y-144915763D01*
X155868629Y-144915763D02*
X155687200Y-145006477D01*
X155687200Y-145006477D02*
X155505772Y-145006477D01*
X155052201Y-143736477D02*
X154689344Y-145006477D01*
X154689344Y-145006477D02*
X154326486Y-144099334D01*
X154326486Y-144099334D02*
X153963629Y-145006477D01*
X153963629Y-145006477D02*
X153600772Y-143736477D01*
X152058630Y-145006477D02*
X152058630Y-144008620D01*
X152058630Y-144008620D02*
X152149344Y-143827191D01*
X152149344Y-143827191D02*
X152330772Y-143736477D01*
X152330772Y-143736477D02*
X152693630Y-143736477D01*
X152693630Y-143736477D02*
X152875058Y-143827191D01*
X152058630Y-144915763D02*
X152240058Y-145006477D01*
X152240058Y-145006477D02*
X152693630Y-145006477D01*
X152693630Y-145006477D02*
X152875058Y-144915763D01*
X152875058Y-144915763D02*
X152965772Y-144734334D01*
X152965772Y-144734334D02*
X152965772Y-144552905D01*
X152965772Y-144552905D02*
X152875058Y-144371477D01*
X152875058Y-144371477D02*
X152693630Y-144280763D01*
X152693630Y-144280763D02*
X152240058Y-144280763D01*
X152240058Y-144280763D02*
X152058630Y-144190048D01*
X151151487Y-145006477D02*
X151151487Y-143736477D01*
X151151487Y-144099334D02*
X151060773Y-143917905D01*
X151060773Y-143917905D02*
X150970059Y-143827191D01*
X150970059Y-143827191D02*
X150788630Y-143736477D01*
X150788630Y-143736477D02*
X150607201Y-143736477D01*
X149246487Y-144915763D02*
X149427915Y-145006477D01*
X149427915Y-145006477D02*
X149790773Y-145006477D01*
X149790773Y-145006477D02*
X149972201Y-144915763D01*
X149972201Y-144915763D02*
X150062915Y-144734334D01*
X150062915Y-144734334D02*
X150062915Y-144008620D01*
X150062915Y-144008620D02*
X149972201Y-143827191D01*
X149972201Y-143827191D02*
X149790773Y-143736477D01*
X149790773Y-143736477D02*
X149427915Y-143736477D01*
X149427915Y-143736477D02*
X149246487Y-143827191D01*
X149246487Y-143827191D02*
X149155773Y-144008620D01*
X149155773Y-144008620D02*
X149155773Y-144190048D01*
X149155773Y-144190048D02*
X150062915Y-144371477D01*
X145799344Y-144825048D02*
X145890058Y-144915763D01*
X145890058Y-144915763D02*
X146162201Y-145006477D01*
X146162201Y-145006477D02*
X146343629Y-145006477D01*
X146343629Y-145006477D02*
X146615772Y-144915763D01*
X146615772Y-144915763D02*
X146797201Y-144734334D01*
X146797201Y-144734334D02*
X146887915Y-144552905D01*
X146887915Y-144552905D02*
X146978629Y-144190048D01*
X146978629Y-144190048D02*
X146978629Y-143917905D01*
X146978629Y-143917905D02*
X146887915Y-143555048D01*
X146887915Y-143555048D02*
X146797201Y-143373620D01*
X146797201Y-143373620D02*
X146615772Y-143192191D01*
X146615772Y-143192191D02*
X146343629Y-143101477D01*
X146343629Y-143101477D02*
X146162201Y-143101477D01*
X146162201Y-143101477D02*
X145890058Y-143192191D01*
X145890058Y-143192191D02*
X145799344Y-143282905D01*
X144710772Y-145006477D02*
X144892201Y-144915763D01*
X144892201Y-144915763D02*
X144982915Y-144825048D01*
X144982915Y-144825048D02*
X145073629Y-144643620D01*
X145073629Y-144643620D02*
X145073629Y-144099334D01*
X145073629Y-144099334D02*
X144982915Y-143917905D01*
X144982915Y-143917905D02*
X144892201Y-143827191D01*
X144892201Y-143827191D02*
X144710772Y-143736477D01*
X144710772Y-143736477D02*
X144438629Y-143736477D01*
X144438629Y-143736477D02*
X144257201Y-143827191D01*
X144257201Y-143827191D02*
X144166487Y-143917905D01*
X144166487Y-143917905D02*
X144075772Y-144099334D01*
X144075772Y-144099334D02*
X144075772Y-144643620D01*
X144075772Y-144643620D02*
X144166487Y-144825048D01*
X144166487Y-144825048D02*
X144257201Y-144915763D01*
X144257201Y-144915763D02*
X144438629Y-145006477D01*
X144438629Y-145006477D02*
X144710772Y-145006477D01*
X143259344Y-143736477D02*
X143259344Y-145006477D01*
X143259344Y-143917905D02*
X143168630Y-143827191D01*
X143168630Y-143827191D02*
X142987201Y-143736477D01*
X142987201Y-143736477D02*
X142715058Y-143736477D01*
X142715058Y-143736477D02*
X142533630Y-143827191D01*
X142533630Y-143827191D02*
X142442916Y-144008620D01*
X142442916Y-144008620D02*
X142442916Y-145006477D01*
X141807916Y-143736477D02*
X141082202Y-143736477D01*
X141535773Y-145006477D02*
X141535773Y-143373620D01*
X141535773Y-143373620D02*
X141445059Y-143192191D01*
X141445059Y-143192191D02*
X141263630Y-143101477D01*
X141263630Y-143101477D02*
X141082202Y-143101477D01*
X140447202Y-145006477D02*
X140447202Y-143736477D01*
X140447202Y-143101477D02*
X140537916Y-143192191D01*
X140537916Y-143192191D02*
X140447202Y-143282905D01*
X140447202Y-143282905D02*
X140356488Y-143192191D01*
X140356488Y-143192191D02*
X140447202Y-143101477D01*
X140447202Y-143101477D02*
X140447202Y-143282905D01*
X138723631Y-143736477D02*
X138723631Y-145278620D01*
X138723631Y-145278620D02*
X138814345Y-145460048D01*
X138814345Y-145460048D02*
X138905059Y-145550763D01*
X138905059Y-145550763D02*
X139086488Y-145641477D01*
X139086488Y-145641477D02*
X139358631Y-145641477D01*
X139358631Y-145641477D02*
X139540059Y-145550763D01*
X138723631Y-144915763D02*
X138905059Y-145006477D01*
X138905059Y-145006477D02*
X139267916Y-145006477D01*
X139267916Y-145006477D02*
X139449345Y-144915763D01*
X139449345Y-144915763D02*
X139540059Y-144825048D01*
X139540059Y-144825048D02*
X139630773Y-144643620D01*
X139630773Y-144643620D02*
X139630773Y-144099334D01*
X139630773Y-144099334D02*
X139540059Y-143917905D01*
X139540059Y-143917905D02*
X139449345Y-143827191D01*
X139449345Y-143827191D02*
X139267916Y-143736477D01*
X139267916Y-143736477D02*
X138905059Y-143736477D01*
X138905059Y-143736477D02*
X138723631Y-143827191D01*
X137000060Y-143736477D02*
X137000060Y-145006477D01*
X137816488Y-143736477D02*
X137816488Y-144734334D01*
X137816488Y-144734334D02*
X137725774Y-144915763D01*
X137725774Y-144915763D02*
X137544345Y-145006477D01*
X137544345Y-145006477D02*
X137272202Y-145006477D01*
X137272202Y-145006477D02*
X137090774Y-144915763D01*
X137090774Y-144915763D02*
X137000060Y-144825048D01*
X136092917Y-145006477D02*
X136092917Y-143736477D01*
X136092917Y-144099334D02*
X136002203Y-143917905D01*
X136002203Y-143917905D02*
X135911489Y-143827191D01*
X135911489Y-143827191D02*
X135730060Y-143736477D01*
X135730060Y-143736477D02*
X135548631Y-143736477D01*
X134097203Y-145006477D02*
X134097203Y-144008620D01*
X134097203Y-144008620D02*
X134187917Y-143827191D01*
X134187917Y-143827191D02*
X134369345Y-143736477D01*
X134369345Y-143736477D02*
X134732203Y-143736477D01*
X134732203Y-143736477D02*
X134913631Y-143827191D01*
X134097203Y-144915763D02*
X134278631Y-145006477D01*
X134278631Y-145006477D02*
X134732203Y-145006477D01*
X134732203Y-145006477D02*
X134913631Y-144915763D01*
X134913631Y-144915763D02*
X135004345Y-144734334D01*
X135004345Y-144734334D02*
X135004345Y-144552905D01*
X135004345Y-144552905D02*
X134913631Y-144371477D01*
X134913631Y-144371477D02*
X134732203Y-144280763D01*
X134732203Y-144280763D02*
X134278631Y-144280763D01*
X134278631Y-144280763D02*
X134097203Y-144190048D01*
X133190060Y-145006477D02*
X133190060Y-143101477D01*
X133190060Y-143827191D02*
X133008632Y-143736477D01*
X133008632Y-143736477D02*
X132645774Y-143736477D01*
X132645774Y-143736477D02*
X132464346Y-143827191D01*
X132464346Y-143827191D02*
X132373632Y-143917905D01*
X132373632Y-143917905D02*
X132282917Y-144099334D01*
X132282917Y-144099334D02*
X132282917Y-144643620D01*
X132282917Y-144643620D02*
X132373632Y-144825048D01*
X132373632Y-144825048D02*
X132464346Y-144915763D01*
X132464346Y-144915763D02*
X132645774Y-145006477D01*
X132645774Y-145006477D02*
X133008632Y-145006477D01*
X133008632Y-145006477D02*
X133190060Y-144915763D01*
X131194346Y-145006477D02*
X131375775Y-144915763D01*
X131375775Y-144915763D02*
X131466489Y-144734334D01*
X131466489Y-144734334D02*
X131466489Y-143101477D01*
X129742918Y-144915763D02*
X129924346Y-145006477D01*
X129924346Y-145006477D02*
X130287204Y-145006477D01*
X130287204Y-145006477D02*
X130468632Y-144915763D01*
X130468632Y-144915763D02*
X130559346Y-144734334D01*
X130559346Y-144734334D02*
X130559346Y-144008620D01*
X130559346Y-144008620D02*
X130468632Y-143827191D01*
X130468632Y-143827191D02*
X130287204Y-143736477D01*
X130287204Y-143736477D02*
X129924346Y-143736477D01*
X129924346Y-143736477D02*
X129742918Y-143827191D01*
X129742918Y-143827191D02*
X129652204Y-144008620D01*
X129652204Y-144008620D02*
X129652204Y-144190048D01*
X129652204Y-144190048D02*
X130559346Y-144371477D01*
X127475060Y-144915763D02*
X127202918Y-145006477D01*
X127202918Y-145006477D02*
X126749346Y-145006477D01*
X126749346Y-145006477D02*
X126567918Y-144915763D01*
X126567918Y-144915763D02*
X126477203Y-144825048D01*
X126477203Y-144825048D02*
X126386489Y-144643620D01*
X126386489Y-144643620D02*
X126386489Y-144462191D01*
X126386489Y-144462191D02*
X126477203Y-144280763D01*
X126477203Y-144280763D02*
X126567918Y-144190048D01*
X126567918Y-144190048D02*
X126749346Y-144099334D01*
X126749346Y-144099334D02*
X127112203Y-144008620D01*
X127112203Y-144008620D02*
X127293632Y-143917905D01*
X127293632Y-143917905D02*
X127384346Y-143827191D01*
X127384346Y-143827191D02*
X127475060Y-143645763D01*
X127475060Y-143645763D02*
X127475060Y-143464334D01*
X127475060Y-143464334D02*
X127384346Y-143282905D01*
X127384346Y-143282905D02*
X127293632Y-143192191D01*
X127293632Y-143192191D02*
X127112203Y-143101477D01*
X127112203Y-143101477D02*
X126658632Y-143101477D01*
X126658632Y-143101477D02*
X126386489Y-143192191D01*
X125297917Y-145006477D02*
X125479346Y-144915763D01*
X125479346Y-144915763D02*
X125570060Y-144825048D01*
X125570060Y-144825048D02*
X125660774Y-144643620D01*
X125660774Y-144643620D02*
X125660774Y-144099334D01*
X125660774Y-144099334D02*
X125570060Y-143917905D01*
X125570060Y-143917905D02*
X125479346Y-143827191D01*
X125479346Y-143827191D02*
X125297917Y-143736477D01*
X125297917Y-143736477D02*
X125025774Y-143736477D01*
X125025774Y-143736477D02*
X124844346Y-143827191D01*
X124844346Y-143827191D02*
X124753632Y-143917905D01*
X124753632Y-143917905D02*
X124662917Y-144099334D01*
X124662917Y-144099334D02*
X124662917Y-144643620D01*
X124662917Y-144643620D02*
X124753632Y-144825048D01*
X124753632Y-144825048D02*
X124844346Y-144915763D01*
X124844346Y-144915763D02*
X125025774Y-145006477D01*
X125025774Y-145006477D02*
X125297917Y-145006477D01*
X123574346Y-145006477D02*
X123755775Y-144915763D01*
X123755775Y-144915763D02*
X123846489Y-144734334D01*
X123846489Y-144734334D02*
X123846489Y-143101477D01*
X122032204Y-145006477D02*
X122032204Y-143101477D01*
X122032204Y-144915763D02*
X122213632Y-145006477D01*
X122213632Y-145006477D02*
X122576489Y-145006477D01*
X122576489Y-145006477D02*
X122757918Y-144915763D01*
X122757918Y-144915763D02*
X122848632Y-144825048D01*
X122848632Y-144825048D02*
X122939346Y-144643620D01*
X122939346Y-144643620D02*
X122939346Y-144099334D01*
X122939346Y-144099334D02*
X122848632Y-143917905D01*
X122848632Y-143917905D02*
X122757918Y-143827191D01*
X122757918Y-143827191D02*
X122576489Y-143736477D01*
X122576489Y-143736477D02*
X122213632Y-143736477D01*
X122213632Y-143736477D02*
X122032204Y-143827191D01*
X120399347Y-144915763D02*
X120580775Y-145006477D01*
X120580775Y-145006477D02*
X120943633Y-145006477D01*
X120943633Y-145006477D02*
X121125061Y-144915763D01*
X121125061Y-144915763D02*
X121215775Y-144734334D01*
X121215775Y-144734334D02*
X121215775Y-144008620D01*
X121215775Y-144008620D02*
X121125061Y-143827191D01*
X121125061Y-143827191D02*
X120943633Y-143736477D01*
X120943633Y-143736477D02*
X120580775Y-143736477D01*
X120580775Y-143736477D02*
X120399347Y-143827191D01*
X120399347Y-143827191D02*
X120308633Y-144008620D01*
X120308633Y-144008620D02*
X120308633Y-144190048D01*
X120308633Y-144190048D02*
X121215775Y-144371477D01*
X119492204Y-145006477D02*
X119492204Y-143736477D01*
X119492204Y-144099334D02*
X119401490Y-143917905D01*
X119401490Y-143917905D02*
X119310776Y-143827191D01*
X119310776Y-143827191D02*
X119129347Y-143736477D01*
X119129347Y-143736477D02*
X118947918Y-143736477D01*
X118312918Y-144280763D02*
X116861490Y-144280763D01*
X115047204Y-145006477D02*
X115954347Y-145006477D01*
X115954347Y-145006477D02*
X115954347Y-143101477D01*
X113686490Y-144915763D02*
X113867918Y-145006477D01*
X113867918Y-145006477D02*
X114230776Y-145006477D01*
X114230776Y-145006477D02*
X114412204Y-144915763D01*
X114412204Y-144915763D02*
X114502918Y-144734334D01*
X114502918Y-144734334D02*
X114502918Y-144008620D01*
X114502918Y-144008620D02*
X114412204Y-143827191D01*
X114412204Y-143827191D02*
X114230776Y-143736477D01*
X114230776Y-143736477D02*
X113867918Y-143736477D01*
X113867918Y-143736477D02*
X113686490Y-143827191D01*
X113686490Y-143827191D02*
X113595776Y-144008620D01*
X113595776Y-144008620D02*
X113595776Y-144190048D01*
X113595776Y-144190048D02*
X114502918Y-144371477D01*
X112870061Y-144915763D02*
X112688633Y-145006477D01*
X112688633Y-145006477D02*
X112325776Y-145006477D01*
X112325776Y-145006477D02*
X112144347Y-144915763D01*
X112144347Y-144915763D02*
X112053633Y-144734334D01*
X112053633Y-144734334D02*
X112053633Y-144643620D01*
X112053633Y-144643620D02*
X112144347Y-144462191D01*
X112144347Y-144462191D02*
X112325776Y-144371477D01*
X112325776Y-144371477D02*
X112597919Y-144371477D01*
X112597919Y-144371477D02*
X112779347Y-144280763D01*
X112779347Y-144280763D02*
X112870061Y-144099334D01*
X112870061Y-144099334D02*
X112870061Y-144008620D01*
X112870061Y-144008620D02*
X112779347Y-143827191D01*
X112779347Y-143827191D02*
X112597919Y-143736477D01*
X112597919Y-143736477D02*
X112325776Y-143736477D01*
X112325776Y-143736477D02*
X112144347Y-143827191D01*
X111327918Y-144915763D02*
X111146490Y-145006477D01*
X111146490Y-145006477D02*
X110783633Y-145006477D01*
X110783633Y-145006477D02*
X110602204Y-144915763D01*
X110602204Y-144915763D02*
X110511490Y-144734334D01*
X110511490Y-144734334D02*
X110511490Y-144643620D01*
X110511490Y-144643620D02*
X110602204Y-144462191D01*
X110602204Y-144462191D02*
X110783633Y-144371477D01*
X110783633Y-144371477D02*
X111055776Y-144371477D01*
X111055776Y-144371477D02*
X111237204Y-144280763D01*
X111237204Y-144280763D02*
X111327918Y-144099334D01*
X111327918Y-144099334D02*
X111327918Y-144008620D01*
X111327918Y-144008620D02*
X111237204Y-143827191D01*
X111237204Y-143827191D02*
X111055776Y-143736477D01*
X111055776Y-143736477D02*
X110783633Y-143736477D01*
X110783633Y-143736477D02*
X110602204Y-143827191D01*
X107608632Y-144008620D02*
X107336489Y-144099334D01*
X107336489Y-144099334D02*
X107245775Y-144190048D01*
X107245775Y-144190048D02*
X107155061Y-144371477D01*
X107155061Y-144371477D02*
X107155061Y-144643620D01*
X107155061Y-144643620D02*
X107245775Y-144825048D01*
X107245775Y-144825048D02*
X107336489Y-144915763D01*
X107336489Y-144915763D02*
X107517918Y-145006477D01*
X107517918Y-145006477D02*
X108243632Y-145006477D01*
X108243632Y-145006477D02*
X108243632Y-143101477D01*
X108243632Y-143101477D02*
X107608632Y-143101477D01*
X107608632Y-143101477D02*
X107427204Y-143192191D01*
X107427204Y-143192191D02*
X107336489Y-143282905D01*
X107336489Y-143282905D02*
X107245775Y-143464334D01*
X107245775Y-143464334D02*
X107245775Y-143645763D01*
X107245775Y-143645763D02*
X107336489Y-143827191D01*
X107336489Y-143827191D02*
X107427204Y-143917905D01*
X107427204Y-143917905D02*
X107608632Y-144008620D01*
X107608632Y-144008620D02*
X108243632Y-144008620D01*
X106338632Y-145006477D02*
X106338632Y-143736477D01*
X106338632Y-144099334D02*
X106247918Y-143917905D01*
X106247918Y-143917905D02*
X106157204Y-143827191D01*
X106157204Y-143827191D02*
X105975775Y-143736477D01*
X105975775Y-143736477D02*
X105794346Y-143736477D01*
X104433632Y-144915763D02*
X104615060Y-145006477D01*
X104615060Y-145006477D02*
X104977918Y-145006477D01*
X104977918Y-145006477D02*
X105159346Y-144915763D01*
X105159346Y-144915763D02*
X105250060Y-144734334D01*
X105250060Y-144734334D02*
X105250060Y-144008620D01*
X105250060Y-144008620D02*
X105159346Y-143827191D01*
X105159346Y-143827191D02*
X104977918Y-143736477D01*
X104977918Y-143736477D02*
X104615060Y-143736477D01*
X104615060Y-143736477D02*
X104433632Y-143827191D01*
X104433632Y-143827191D02*
X104342918Y-144008620D01*
X104342918Y-144008620D02*
X104342918Y-144190048D01*
X104342918Y-144190048D02*
X105250060Y-144371477D01*
X102710061Y-145006477D02*
X102710061Y-144008620D01*
X102710061Y-144008620D02*
X102800775Y-143827191D01*
X102800775Y-143827191D02*
X102982203Y-143736477D01*
X102982203Y-143736477D02*
X103345061Y-143736477D01*
X103345061Y-143736477D02*
X103526489Y-143827191D01*
X102710061Y-144915763D02*
X102891489Y-145006477D01*
X102891489Y-145006477D02*
X103345061Y-145006477D01*
X103345061Y-145006477D02*
X103526489Y-144915763D01*
X103526489Y-144915763D02*
X103617203Y-144734334D01*
X103617203Y-144734334D02*
X103617203Y-144552905D01*
X103617203Y-144552905D02*
X103526489Y-144371477D01*
X103526489Y-144371477D02*
X103345061Y-144280763D01*
X103345061Y-144280763D02*
X102891489Y-144280763D01*
X102891489Y-144280763D02*
X102710061Y-144190048D01*
X100986490Y-145006477D02*
X100986490Y-143101477D01*
X100986490Y-144915763D02*
X101167918Y-145006477D01*
X101167918Y-145006477D02*
X101530775Y-145006477D01*
X101530775Y-145006477D02*
X101712204Y-144915763D01*
X101712204Y-144915763D02*
X101802918Y-144825048D01*
X101802918Y-144825048D02*
X101893632Y-144643620D01*
X101893632Y-144643620D02*
X101893632Y-144099334D01*
X101893632Y-144099334D02*
X101802918Y-143917905D01*
X101802918Y-143917905D02*
X101712204Y-143827191D01*
X101712204Y-143827191D02*
X101530775Y-143736477D01*
X101530775Y-143736477D02*
X101167918Y-143736477D01*
X101167918Y-143736477D02*
X100986490Y-143827191D01*
X100079347Y-145006477D02*
X100079347Y-143101477D01*
X100079347Y-143827191D02*
X99897919Y-143736477D01*
X99897919Y-143736477D02*
X99535061Y-143736477D01*
X99535061Y-143736477D02*
X99353633Y-143827191D01*
X99353633Y-143827191D02*
X99262919Y-143917905D01*
X99262919Y-143917905D02*
X99172204Y-144099334D01*
X99172204Y-144099334D02*
X99172204Y-144643620D01*
X99172204Y-144643620D02*
X99262919Y-144825048D01*
X99262919Y-144825048D02*
X99353633Y-144915763D01*
X99353633Y-144915763D02*
X99535061Y-145006477D01*
X99535061Y-145006477D02*
X99897919Y-145006477D01*
X99897919Y-145006477D02*
X100079347Y-144915763D01*
X98083633Y-145006477D02*
X98265062Y-144915763D01*
X98265062Y-144915763D02*
X98355776Y-144825048D01*
X98355776Y-144825048D02*
X98446490Y-144643620D01*
X98446490Y-144643620D02*
X98446490Y-144099334D01*
X98446490Y-144099334D02*
X98355776Y-143917905D01*
X98355776Y-143917905D02*
X98265062Y-143827191D01*
X98265062Y-143827191D02*
X98083633Y-143736477D01*
X98083633Y-143736477D02*
X97811490Y-143736477D01*
X97811490Y-143736477D02*
X97630062Y-143827191D01*
X97630062Y-143827191D02*
X97539348Y-143917905D01*
X97539348Y-143917905D02*
X97448633Y-144099334D01*
X97448633Y-144099334D02*
X97448633Y-144643620D01*
X97448633Y-144643620D02*
X97539348Y-144825048D01*
X97539348Y-144825048D02*
X97630062Y-144915763D01*
X97630062Y-144915763D02*
X97811490Y-145006477D01*
X97811490Y-145006477D02*
X98083633Y-145006477D01*
X95815777Y-145006477D02*
X95815777Y-144008620D01*
X95815777Y-144008620D02*
X95906491Y-143827191D01*
X95906491Y-143827191D02*
X96087919Y-143736477D01*
X96087919Y-143736477D02*
X96450777Y-143736477D01*
X96450777Y-143736477D02*
X96632205Y-143827191D01*
X95815777Y-144915763D02*
X95997205Y-145006477D01*
X95997205Y-145006477D02*
X96450777Y-145006477D01*
X96450777Y-145006477D02*
X96632205Y-144915763D01*
X96632205Y-144915763D02*
X96722919Y-144734334D01*
X96722919Y-144734334D02*
X96722919Y-144552905D01*
X96722919Y-144552905D02*
X96632205Y-144371477D01*
X96632205Y-144371477D02*
X96450777Y-144280763D01*
X96450777Y-144280763D02*
X95997205Y-144280763D01*
X95997205Y-144280763D02*
X95815777Y-144190048D01*
X94908634Y-145006477D02*
X94908634Y-143736477D01*
X94908634Y-144099334D02*
X94817920Y-143917905D01*
X94817920Y-143917905D02*
X94727206Y-143827191D01*
X94727206Y-143827191D02*
X94545777Y-143736477D01*
X94545777Y-143736477D02*
X94364348Y-143736477D01*
X92912920Y-145006477D02*
X92912920Y-143101477D01*
X92912920Y-144915763D02*
X93094348Y-145006477D01*
X93094348Y-145006477D02*
X93457205Y-145006477D01*
X93457205Y-145006477D02*
X93638634Y-144915763D01*
X93638634Y-144915763D02*
X93729348Y-144825048D01*
X93729348Y-144825048D02*
X93820062Y-144643620D01*
X93820062Y-144643620D02*
X93820062Y-144099334D01*
X93820062Y-144099334D02*
X93729348Y-143917905D01*
X93729348Y-143917905D02*
X93638634Y-143827191D01*
X93638634Y-143827191D02*
X93457205Y-143736477D01*
X93457205Y-143736477D02*
X93094348Y-143736477D01*
X93094348Y-143736477D02*
X92912920Y-143827191D01*
D10*
X131695180Y-110066461D02*
X131150895Y-110066461D01*
X131804037Y-110429318D02*
X131423037Y-109159318D01*
X131423037Y-109159318D02*
X131042037Y-110429318D01*
X130769895Y-109159318D02*
X130497752Y-110429318D01*
X130497752Y-110429318D02*
X130280038Y-109522175D01*
X130280038Y-109522175D02*
X130062323Y-110429318D01*
X130062323Y-110429318D02*
X129790181Y-109159318D01*
X129409180Y-109280270D02*
X129354752Y-109219794D01*
X129354752Y-109219794D02*
X129245895Y-109159318D01*
X129245895Y-109159318D02*
X128973752Y-109159318D01*
X128973752Y-109159318D02*
X128864895Y-109219794D01*
X128864895Y-109219794D02*
X128810466Y-109280270D01*
X128810466Y-109280270D02*
X128756037Y-109401222D01*
X128756037Y-109401222D02*
X128756037Y-109522175D01*
X128756037Y-109522175D02*
X128810466Y-109703603D01*
X128810466Y-109703603D02*
X129463609Y-110429318D01*
X129463609Y-110429318D02*
X128756037Y-110429318D01*
X194814180Y-82489318D02*
X194814180Y-83396461D01*
X194814180Y-83396461D02*
X194868609Y-83577889D01*
X194868609Y-83577889D02*
X194977466Y-83698842D01*
X194977466Y-83698842D02*
X195140752Y-83759318D01*
X195140752Y-83759318D02*
X195249609Y-83759318D01*
X194269895Y-83759318D02*
X194269895Y-82489318D01*
X194269895Y-82489318D02*
X193834466Y-82489318D01*
X193834466Y-82489318D02*
X193725609Y-82549794D01*
X193725609Y-82549794D02*
X193671180Y-82610270D01*
X193671180Y-82610270D02*
X193616752Y-82731222D01*
X193616752Y-82731222D02*
X193616752Y-82912651D01*
X193616752Y-82912651D02*
X193671180Y-83033603D01*
X193671180Y-83033603D02*
X193725609Y-83094080D01*
X193725609Y-83094080D02*
X193834466Y-83154556D01*
X193834466Y-83154556D02*
X194269895Y-83154556D01*
X192528180Y-83759318D02*
X193181323Y-83759318D01*
X192854752Y-83759318D02*
X192854752Y-82489318D01*
X192854752Y-82489318D02*
X192963609Y-82670746D01*
X192963609Y-82670746D02*
X193072466Y-82791699D01*
X193072466Y-82791699D02*
X193181323Y-82852175D01*
X191494038Y-82489318D02*
X192038324Y-82489318D01*
X192038324Y-82489318D02*
X192092752Y-83094080D01*
X192092752Y-83094080D02*
X192038324Y-83033603D01*
X192038324Y-83033603D02*
X191929467Y-82973127D01*
X191929467Y-82973127D02*
X191657324Y-82973127D01*
X191657324Y-82973127D02*
X191548467Y-83033603D01*
X191548467Y-83033603D02*
X191494038Y-83094080D01*
X191494038Y-83094080D02*
X191439609Y-83215032D01*
X191439609Y-83215032D02*
X191439609Y-83517413D01*
X191439609Y-83517413D02*
X191494038Y-83638365D01*
X191494038Y-83638365D02*
X191548467Y-83698842D01*
X191548467Y-83698842D02*
X191657324Y-83759318D01*
X191657324Y-83759318D02*
X191929467Y-83759318D01*
X191929467Y-83759318D02*
X192038324Y-83698842D01*
X192038324Y-83698842D02*
X192092752Y-83638365D01*
X111302609Y-109131680D02*
X111357037Y-109204252D01*
X111357037Y-109204252D02*
X111520323Y-109276823D01*
X111520323Y-109276823D02*
X111629180Y-109276823D01*
X111629180Y-109276823D02*
X111792466Y-109204252D01*
X111792466Y-109204252D02*
X111901323Y-109059109D01*
X111901323Y-109059109D02*
X111955752Y-108913966D01*
X111955752Y-108913966D02*
X112010180Y-108623680D01*
X112010180Y-108623680D02*
X112010180Y-108405966D01*
X112010180Y-108405966D02*
X111955752Y-108115680D01*
X111955752Y-108115680D02*
X111901323Y-107970537D01*
X111901323Y-107970537D02*
X111792466Y-107825394D01*
X111792466Y-107825394D02*
X111629180Y-107752823D01*
X111629180Y-107752823D02*
X111520323Y-107752823D01*
X111520323Y-107752823D02*
X111357037Y-107825394D01*
X111357037Y-107825394D02*
X111302609Y-107897966D01*
X110812752Y-109276823D02*
X110812752Y-107752823D01*
X110812752Y-108478537D02*
X110159609Y-108478537D01*
X110159609Y-109276823D02*
X110159609Y-107752823D01*
X109669751Y-108841394D02*
X109125466Y-108841394D01*
X109778608Y-109276823D02*
X109397608Y-107752823D01*
X109397608Y-107752823D02*
X109016608Y-109276823D01*
X79505818Y-74869318D02*
X79505818Y-75776461D01*
X79505818Y-75776461D02*
X79560247Y-75957889D01*
X79560247Y-75957889D02*
X79669104Y-76078842D01*
X79669104Y-76078842D02*
X79832390Y-76139318D01*
X79832390Y-76139318D02*
X79941247Y-76139318D01*
X78961533Y-76139318D02*
X78961533Y-74869318D01*
X78961533Y-74869318D02*
X78526104Y-74869318D01*
X78526104Y-74869318D02*
X78417247Y-74929794D01*
X78417247Y-74929794D02*
X78362818Y-74990270D01*
X78362818Y-74990270D02*
X78308390Y-75111222D01*
X78308390Y-75111222D02*
X78308390Y-75292651D01*
X78308390Y-75292651D02*
X78362818Y-75413603D01*
X78362818Y-75413603D02*
X78417247Y-75474080D01*
X78417247Y-75474080D02*
X78526104Y-75534556D01*
X78526104Y-75534556D02*
X78961533Y-75534556D01*
X77328676Y-75292651D02*
X77328676Y-76139318D01*
X77600818Y-74808842D02*
X77872961Y-75715984D01*
X77872961Y-75715984D02*
X77165390Y-75715984D01*
X118335990Y-116265270D02*
X118275514Y-116204794D01*
X118275514Y-116204794D02*
X118154561Y-116144318D01*
X118154561Y-116144318D02*
X117852180Y-116144318D01*
X117852180Y-116144318D02*
X117731228Y-116204794D01*
X117731228Y-116204794D02*
X117670752Y-116265270D01*
X117670752Y-116265270D02*
X117610275Y-116386222D01*
X117610275Y-116386222D02*
X117610275Y-116507175D01*
X117610275Y-116507175D02*
X117670752Y-116688603D01*
X117670752Y-116688603D02*
X118396466Y-117414318D01*
X118396466Y-117414318D02*
X117610275Y-117414318D01*
X117065990Y-117293365D02*
X117005513Y-117353842D01*
X117005513Y-117353842D02*
X117065990Y-117414318D01*
X117065990Y-117414318D02*
X117126466Y-117353842D01*
X117126466Y-117353842D02*
X117065990Y-117293365D01*
X117065990Y-117293365D02*
X117065990Y-117414318D01*
X115856466Y-116144318D02*
X116461228Y-116144318D01*
X116461228Y-116144318D02*
X116521704Y-116749080D01*
X116521704Y-116749080D02*
X116461228Y-116688603D01*
X116461228Y-116688603D02*
X116340275Y-116628127D01*
X116340275Y-116628127D02*
X116037894Y-116628127D01*
X116037894Y-116628127D02*
X115916942Y-116688603D01*
X115916942Y-116688603D02*
X115856466Y-116749080D01*
X115856466Y-116749080D02*
X115795989Y-116870032D01*
X115795989Y-116870032D02*
X115795989Y-117172413D01*
X115795989Y-117172413D02*
X115856466Y-117293365D01*
X115856466Y-117293365D02*
X115916942Y-117353842D01*
X115916942Y-117353842D02*
X116037894Y-117414318D01*
X116037894Y-117414318D02*
X116340275Y-117414318D01*
X116340275Y-117414318D02*
X116461228Y-117353842D01*
X116461228Y-117353842D02*
X116521704Y-117293365D01*
X115433132Y-116144318D02*
X115009799Y-117414318D01*
X115009799Y-117414318D02*
X114586465Y-116144318D01*
X126615180Y-108796461D02*
X126070895Y-108796461D01*
X126724037Y-109159318D02*
X126343037Y-107889318D01*
X126343037Y-107889318D02*
X125962037Y-109159318D01*
X125689895Y-107889318D02*
X125417752Y-109159318D01*
X125417752Y-109159318D02*
X125200038Y-108252175D01*
X125200038Y-108252175D02*
X124982323Y-109159318D01*
X124982323Y-109159318D02*
X124710181Y-107889318D01*
X123676037Y-109159318D02*
X124329180Y-109159318D01*
X124002609Y-109159318D02*
X124002609Y-107889318D01*
X124002609Y-107889318D02*
X124111466Y-108070746D01*
X124111466Y-108070746D02*
X124220323Y-108191699D01*
X124220323Y-108191699D02*
X124329180Y-108252175D01*
X79505818Y-69789318D02*
X79505818Y-70696461D01*
X79505818Y-70696461D02*
X79560247Y-70877889D01*
X79560247Y-70877889D02*
X79669104Y-70998842D01*
X79669104Y-70998842D02*
X79832390Y-71059318D01*
X79832390Y-71059318D02*
X79941247Y-71059318D01*
X78961533Y-71059318D02*
X78961533Y-69789318D01*
X78961533Y-69789318D02*
X78526104Y-69789318D01*
X78526104Y-69789318D02*
X78417247Y-69849794D01*
X78417247Y-69849794D02*
X78362818Y-69910270D01*
X78362818Y-69910270D02*
X78308390Y-70031222D01*
X78308390Y-70031222D02*
X78308390Y-70212651D01*
X78308390Y-70212651D02*
X78362818Y-70333603D01*
X78362818Y-70333603D02*
X78417247Y-70394080D01*
X78417247Y-70394080D02*
X78526104Y-70454556D01*
X78526104Y-70454556D02*
X78961533Y-70454556D01*
X77872961Y-69910270D02*
X77818533Y-69849794D01*
X77818533Y-69849794D02*
X77709676Y-69789318D01*
X77709676Y-69789318D02*
X77437533Y-69789318D01*
X77437533Y-69789318D02*
X77328676Y-69849794D01*
X77328676Y-69849794D02*
X77274247Y-69910270D01*
X77274247Y-69910270D02*
X77219818Y-70031222D01*
X77219818Y-70031222D02*
X77219818Y-70152175D01*
X77219818Y-70152175D02*
X77274247Y-70333603D01*
X77274247Y-70333603D02*
X77927390Y-71059318D01*
X77927390Y-71059318D02*
X77219818Y-71059318D01*
X79505818Y-82489318D02*
X79505818Y-83396461D01*
X79505818Y-83396461D02*
X79560247Y-83577889D01*
X79560247Y-83577889D02*
X79669104Y-83698842D01*
X79669104Y-83698842D02*
X79832390Y-83759318D01*
X79832390Y-83759318D02*
X79941247Y-83759318D01*
X78961533Y-83759318D02*
X78961533Y-82489318D01*
X78961533Y-82489318D02*
X78526104Y-82489318D01*
X78526104Y-82489318D02*
X78417247Y-82549794D01*
X78417247Y-82549794D02*
X78362818Y-82610270D01*
X78362818Y-82610270D02*
X78308390Y-82731222D01*
X78308390Y-82731222D02*
X78308390Y-82912651D01*
X78308390Y-82912651D02*
X78362818Y-83033603D01*
X78362818Y-83033603D02*
X78417247Y-83094080D01*
X78417247Y-83094080D02*
X78526104Y-83154556D01*
X78526104Y-83154556D02*
X78961533Y-83154556D01*
X77927390Y-82489318D02*
X77165390Y-82489318D01*
X77165390Y-82489318D02*
X77655247Y-83759318D01*
X86027381Y-143764701D02*
X86027381Y-144611368D01*
X86329762Y-143280892D02*
X86632143Y-144188034D01*
X86632143Y-144188034D02*
X85845952Y-144188034D01*
X84455000Y-143280892D02*
X85543571Y-144913749D01*
X84092143Y-143462320D02*
X84031667Y-143401844D01*
X84031667Y-143401844D02*
X83910714Y-143341368D01*
X83910714Y-143341368D02*
X83608333Y-143341368D01*
X83608333Y-143341368D02*
X83487381Y-143401844D01*
X83487381Y-143401844D02*
X83426905Y-143462320D01*
X83426905Y-143462320D02*
X83366428Y-143583272D01*
X83366428Y-143583272D02*
X83366428Y-143704225D01*
X83366428Y-143704225D02*
X83426905Y-143885653D01*
X83426905Y-143885653D02*
X84152619Y-144611368D01*
X84152619Y-144611368D02*
X83366428Y-144611368D01*
X81915000Y-143280892D02*
X83003571Y-144913749D01*
X81552143Y-143462320D02*
X81491667Y-143401844D01*
X81491667Y-143401844D02*
X81370714Y-143341368D01*
X81370714Y-143341368D02*
X81068333Y-143341368D01*
X81068333Y-143341368D02*
X80947381Y-143401844D01*
X80947381Y-143401844D02*
X80886905Y-143462320D01*
X80886905Y-143462320D02*
X80826428Y-143583272D01*
X80826428Y-143583272D02*
X80826428Y-143704225D01*
X80826428Y-143704225D02*
X80886905Y-143885653D01*
X80886905Y-143885653D02*
X81612619Y-144611368D01*
X81612619Y-144611368D02*
X80826428Y-144611368D01*
X80040238Y-143341368D02*
X79919285Y-143341368D01*
X79919285Y-143341368D02*
X79798333Y-143401844D01*
X79798333Y-143401844D02*
X79737857Y-143462320D01*
X79737857Y-143462320D02*
X79677381Y-143583272D01*
X79677381Y-143583272D02*
X79616904Y-143825177D01*
X79616904Y-143825177D02*
X79616904Y-144127558D01*
X79616904Y-144127558D02*
X79677381Y-144369463D01*
X79677381Y-144369463D02*
X79737857Y-144490415D01*
X79737857Y-144490415D02*
X79798333Y-144550892D01*
X79798333Y-144550892D02*
X79919285Y-144611368D01*
X79919285Y-144611368D02*
X80040238Y-144611368D01*
X80040238Y-144611368D02*
X80161190Y-144550892D01*
X80161190Y-144550892D02*
X80221666Y-144490415D01*
X80221666Y-144490415D02*
X80282143Y-144369463D01*
X80282143Y-144369463D02*
X80342619Y-144127558D01*
X80342619Y-144127558D02*
X80342619Y-143825177D01*
X80342619Y-143825177D02*
X80282143Y-143583272D01*
X80282143Y-143583272D02*
X80221666Y-143462320D01*
X80221666Y-143462320D02*
X80161190Y-143401844D01*
X80161190Y-143401844D02*
X80040238Y-143341368D01*
X79133095Y-143462320D02*
X79072619Y-143401844D01*
X79072619Y-143401844D02*
X78951666Y-143341368D01*
X78951666Y-143341368D02*
X78649285Y-143341368D01*
X78649285Y-143341368D02*
X78528333Y-143401844D01*
X78528333Y-143401844D02*
X78467857Y-143462320D01*
X78467857Y-143462320D02*
X78407380Y-143583272D01*
X78407380Y-143583272D02*
X78407380Y-143704225D01*
X78407380Y-143704225D02*
X78467857Y-143885653D01*
X78467857Y-143885653D02*
X79193571Y-144611368D01*
X79193571Y-144611368D02*
X78407380Y-144611368D01*
X77258333Y-143341368D02*
X77863095Y-143341368D01*
X77863095Y-143341368D02*
X77923571Y-143946130D01*
X77923571Y-143946130D02*
X77863095Y-143885653D01*
X77863095Y-143885653D02*
X77742142Y-143825177D01*
X77742142Y-143825177D02*
X77439761Y-143825177D01*
X77439761Y-143825177D02*
X77318809Y-143885653D01*
X77318809Y-143885653D02*
X77258333Y-143946130D01*
X77258333Y-143946130D02*
X77197856Y-144067082D01*
X77197856Y-144067082D02*
X77197856Y-144369463D01*
X77197856Y-144369463D02*
X77258333Y-144490415D01*
X77258333Y-144490415D02*
X77318809Y-144550892D01*
X77318809Y-144550892D02*
X77439761Y-144611368D01*
X77439761Y-144611368D02*
X77742142Y-144611368D01*
X77742142Y-144611368D02*
X77863095Y-144550892D01*
X77863095Y-144550892D02*
X77923571Y-144490415D01*
X79505818Y-77409318D02*
X79505818Y-78316461D01*
X79505818Y-78316461D02*
X79560247Y-78497889D01*
X79560247Y-78497889D02*
X79669104Y-78618842D01*
X79669104Y-78618842D02*
X79832390Y-78679318D01*
X79832390Y-78679318D02*
X79941247Y-78679318D01*
X78961533Y-78679318D02*
X78961533Y-77409318D01*
X78961533Y-77409318D02*
X78526104Y-77409318D01*
X78526104Y-77409318D02*
X78417247Y-77469794D01*
X78417247Y-77469794D02*
X78362818Y-77530270D01*
X78362818Y-77530270D02*
X78308390Y-77651222D01*
X78308390Y-77651222D02*
X78308390Y-77832651D01*
X78308390Y-77832651D02*
X78362818Y-77953603D01*
X78362818Y-77953603D02*
X78417247Y-78014080D01*
X78417247Y-78014080D02*
X78526104Y-78074556D01*
X78526104Y-78074556D02*
X78961533Y-78074556D01*
X77274247Y-77409318D02*
X77818533Y-77409318D01*
X77818533Y-77409318D02*
X77872961Y-78014080D01*
X77872961Y-78014080D02*
X77818533Y-77953603D01*
X77818533Y-77953603D02*
X77709676Y-77893127D01*
X77709676Y-77893127D02*
X77437533Y-77893127D01*
X77437533Y-77893127D02*
X77328676Y-77953603D01*
X77328676Y-77953603D02*
X77274247Y-78014080D01*
X77274247Y-78014080D02*
X77219818Y-78135032D01*
X77219818Y-78135032D02*
X77219818Y-78437413D01*
X77219818Y-78437413D02*
X77274247Y-78558365D01*
X77274247Y-78558365D02*
X77328676Y-78618842D01*
X77328676Y-78618842D02*
X77437533Y-78679318D01*
X77437533Y-78679318D02*
X77709676Y-78679318D01*
X77709676Y-78679318D02*
X77818533Y-78618842D01*
X77818533Y-78618842D02*
X77872961Y-78558365D01*
X194814180Y-74869318D02*
X194814180Y-75776461D01*
X194814180Y-75776461D02*
X194868609Y-75957889D01*
X194868609Y-75957889D02*
X194977466Y-76078842D01*
X194977466Y-76078842D02*
X195140752Y-76139318D01*
X195140752Y-76139318D02*
X195249609Y-76139318D01*
X194269895Y-76139318D02*
X194269895Y-74869318D01*
X194269895Y-74869318D02*
X193834466Y-74869318D01*
X193834466Y-74869318D02*
X193725609Y-74929794D01*
X193725609Y-74929794D02*
X193671180Y-74990270D01*
X193671180Y-74990270D02*
X193616752Y-75111222D01*
X193616752Y-75111222D02*
X193616752Y-75292651D01*
X193616752Y-75292651D02*
X193671180Y-75413603D01*
X193671180Y-75413603D02*
X193725609Y-75474080D01*
X193725609Y-75474080D02*
X193834466Y-75534556D01*
X193834466Y-75534556D02*
X194269895Y-75534556D01*
X192528180Y-76139318D02*
X193181323Y-76139318D01*
X192854752Y-76139318D02*
X192854752Y-74869318D01*
X192854752Y-74869318D02*
X192963609Y-75050746D01*
X192963609Y-75050746D02*
X193072466Y-75171699D01*
X193072466Y-75171699D02*
X193181323Y-75232175D01*
X192092752Y-74990270D02*
X192038324Y-74929794D01*
X192038324Y-74929794D02*
X191929467Y-74869318D01*
X191929467Y-74869318D02*
X191657324Y-74869318D01*
X191657324Y-74869318D02*
X191548467Y-74929794D01*
X191548467Y-74929794D02*
X191494038Y-74990270D01*
X191494038Y-74990270D02*
X191439609Y-75111222D01*
X191439609Y-75111222D02*
X191439609Y-75232175D01*
X191439609Y-75232175D02*
X191494038Y-75413603D01*
X191494038Y-75413603D02*
X192147181Y-76139318D01*
X192147181Y-76139318D02*
X191439609Y-76139318D01*
X79505818Y-79949318D02*
X79505818Y-80856461D01*
X79505818Y-80856461D02*
X79560247Y-81037889D01*
X79560247Y-81037889D02*
X79669104Y-81158842D01*
X79669104Y-81158842D02*
X79832390Y-81219318D01*
X79832390Y-81219318D02*
X79941247Y-81219318D01*
X78961533Y-81219318D02*
X78961533Y-79949318D01*
X78961533Y-79949318D02*
X78526104Y-79949318D01*
X78526104Y-79949318D02*
X78417247Y-80009794D01*
X78417247Y-80009794D02*
X78362818Y-80070270D01*
X78362818Y-80070270D02*
X78308390Y-80191222D01*
X78308390Y-80191222D02*
X78308390Y-80372651D01*
X78308390Y-80372651D02*
X78362818Y-80493603D01*
X78362818Y-80493603D02*
X78417247Y-80554080D01*
X78417247Y-80554080D02*
X78526104Y-80614556D01*
X78526104Y-80614556D02*
X78961533Y-80614556D01*
X77328676Y-79949318D02*
X77546390Y-79949318D01*
X77546390Y-79949318D02*
X77655247Y-80009794D01*
X77655247Y-80009794D02*
X77709676Y-80070270D01*
X77709676Y-80070270D02*
X77818533Y-80251699D01*
X77818533Y-80251699D02*
X77872961Y-80493603D01*
X77872961Y-80493603D02*
X77872961Y-80977413D01*
X77872961Y-80977413D02*
X77818533Y-81098365D01*
X77818533Y-81098365D02*
X77764104Y-81158842D01*
X77764104Y-81158842D02*
X77655247Y-81219318D01*
X77655247Y-81219318D02*
X77437533Y-81219318D01*
X77437533Y-81219318D02*
X77328676Y-81158842D01*
X77328676Y-81158842D02*
X77274247Y-81098365D01*
X77274247Y-81098365D02*
X77219818Y-80977413D01*
X77219818Y-80977413D02*
X77219818Y-80675032D01*
X77219818Y-80675032D02*
X77274247Y-80554080D01*
X77274247Y-80554080D02*
X77328676Y-80493603D01*
X77328676Y-80493603D02*
X77437533Y-80433127D01*
X77437533Y-80433127D02*
X77655247Y-80433127D01*
X77655247Y-80433127D02*
X77764104Y-80493603D01*
X77764104Y-80493603D02*
X77818533Y-80554080D01*
X77818533Y-80554080D02*
X77872961Y-80675032D01*
X121462609Y-109131680D02*
X121517037Y-109204252D01*
X121517037Y-109204252D02*
X121680323Y-109276823D01*
X121680323Y-109276823D02*
X121789180Y-109276823D01*
X121789180Y-109276823D02*
X121952466Y-109204252D01*
X121952466Y-109204252D02*
X122061323Y-109059109D01*
X122061323Y-109059109D02*
X122115752Y-108913966D01*
X122115752Y-108913966D02*
X122170180Y-108623680D01*
X122170180Y-108623680D02*
X122170180Y-108405966D01*
X122170180Y-108405966D02*
X122115752Y-108115680D01*
X122115752Y-108115680D02*
X122061323Y-107970537D01*
X122061323Y-107970537D02*
X121952466Y-107825394D01*
X121952466Y-107825394D02*
X121789180Y-107752823D01*
X121789180Y-107752823D02*
X121680323Y-107752823D01*
X121680323Y-107752823D02*
X121517037Y-107825394D01*
X121517037Y-107825394D02*
X121462609Y-107897966D01*
X120972752Y-109276823D02*
X120972752Y-107752823D01*
X120972752Y-108478537D02*
X120319609Y-108478537D01*
X120319609Y-109276823D02*
X120319609Y-107752823D01*
X119122180Y-109131680D02*
X119176608Y-109204252D01*
X119176608Y-109204252D02*
X119339894Y-109276823D01*
X119339894Y-109276823D02*
X119448751Y-109276823D01*
X119448751Y-109276823D02*
X119612037Y-109204252D01*
X119612037Y-109204252D02*
X119720894Y-109059109D01*
X119720894Y-109059109D02*
X119775323Y-108913966D01*
X119775323Y-108913966D02*
X119829751Y-108623680D01*
X119829751Y-108623680D02*
X119829751Y-108405966D01*
X119829751Y-108405966D02*
X119775323Y-108115680D01*
X119775323Y-108115680D02*
X119720894Y-107970537D01*
X119720894Y-107970537D02*
X119612037Y-107825394D01*
X119612037Y-107825394D02*
X119448751Y-107752823D01*
X119448751Y-107752823D02*
X119339894Y-107752823D01*
X119339894Y-107752823D02*
X119176608Y-107825394D01*
X119176608Y-107825394D02*
X119122180Y-107897966D01*
X194814180Y-77409318D02*
X194814180Y-78316461D01*
X194814180Y-78316461D02*
X194868609Y-78497889D01*
X194868609Y-78497889D02*
X194977466Y-78618842D01*
X194977466Y-78618842D02*
X195140752Y-78679318D01*
X195140752Y-78679318D02*
X195249609Y-78679318D01*
X194269895Y-78679318D02*
X194269895Y-77409318D01*
X194269895Y-77409318D02*
X193834466Y-77409318D01*
X193834466Y-77409318D02*
X193725609Y-77469794D01*
X193725609Y-77469794D02*
X193671180Y-77530270D01*
X193671180Y-77530270D02*
X193616752Y-77651222D01*
X193616752Y-77651222D02*
X193616752Y-77832651D01*
X193616752Y-77832651D02*
X193671180Y-77953603D01*
X193671180Y-77953603D02*
X193725609Y-78014080D01*
X193725609Y-78014080D02*
X193834466Y-78074556D01*
X193834466Y-78074556D02*
X194269895Y-78074556D01*
X192528180Y-78679318D02*
X193181323Y-78679318D01*
X192854752Y-78679318D02*
X192854752Y-77409318D01*
X192854752Y-77409318D02*
X192963609Y-77590746D01*
X192963609Y-77590746D02*
X193072466Y-77711699D01*
X193072466Y-77711699D02*
X193181323Y-77772175D01*
X192147181Y-77409318D02*
X191439609Y-77409318D01*
X191439609Y-77409318D02*
X191820609Y-77893127D01*
X191820609Y-77893127D02*
X191657324Y-77893127D01*
X191657324Y-77893127D02*
X191548467Y-77953603D01*
X191548467Y-77953603D02*
X191494038Y-78014080D01*
X191494038Y-78014080D02*
X191439609Y-78135032D01*
X191439609Y-78135032D02*
X191439609Y-78437413D01*
X191439609Y-78437413D02*
X191494038Y-78558365D01*
X191494038Y-78558365D02*
X191548467Y-78618842D01*
X191548467Y-78618842D02*
X191657324Y-78679318D01*
X191657324Y-78679318D02*
X191983895Y-78679318D01*
X191983895Y-78679318D02*
X192092752Y-78618842D01*
X192092752Y-78618842D02*
X192147181Y-78558365D01*
D12*
X140533333Y-96624819D02*
X140533333Y-97339104D01*
X140533333Y-97339104D02*
X140580952Y-97481961D01*
X140580952Y-97481961D02*
X140676190Y-97577200D01*
X140676190Y-97577200D02*
X140819047Y-97624819D01*
X140819047Y-97624819D02*
X140914285Y-97624819D01*
X140057142Y-97624819D02*
X140057142Y-96624819D01*
X140057142Y-96624819D02*
X139676190Y-96624819D01*
X139676190Y-96624819D02*
X139580952Y-96672438D01*
X139580952Y-96672438D02*
X139533333Y-96720057D01*
X139533333Y-96720057D02*
X139485714Y-96815295D01*
X139485714Y-96815295D02*
X139485714Y-96958152D01*
X139485714Y-96958152D02*
X139533333Y-97053390D01*
X139533333Y-97053390D02*
X139580952Y-97101009D01*
X139580952Y-97101009D02*
X139676190Y-97148628D01*
X139676190Y-97148628D02*
X140057142Y-97148628D01*
X139152380Y-96624819D02*
X138533333Y-96624819D01*
X138533333Y-96624819D02*
X138866666Y-97005771D01*
X138866666Y-97005771D02*
X138723809Y-97005771D01*
X138723809Y-97005771D02*
X138628571Y-97053390D01*
X138628571Y-97053390D02*
X138580952Y-97101009D01*
X138580952Y-97101009D02*
X138533333Y-97196247D01*
X138533333Y-97196247D02*
X138533333Y-97434342D01*
X138533333Y-97434342D02*
X138580952Y-97529580D01*
X138580952Y-97529580D02*
X138628571Y-97577200D01*
X138628571Y-97577200D02*
X138723809Y-97624819D01*
X138723809Y-97624819D02*
X139009523Y-97624819D01*
X139009523Y-97624819D02*
X139104761Y-97577200D01*
X139104761Y-97577200D02*
X139152380Y-97529580D01*
X184348333Y-95339819D02*
X184348333Y-96054104D01*
X184348333Y-96054104D02*
X184395952Y-96196961D01*
X184395952Y-96196961D02*
X184491190Y-96292200D01*
X184491190Y-96292200D02*
X184634047Y-96339819D01*
X184634047Y-96339819D02*
X184729285Y-96339819D01*
X183872142Y-96339819D02*
X183872142Y-95339819D01*
X183872142Y-95339819D02*
X183491190Y-95339819D01*
X183491190Y-95339819D02*
X183395952Y-95387438D01*
X183395952Y-95387438D02*
X183348333Y-95435057D01*
X183348333Y-95435057D02*
X183300714Y-95530295D01*
X183300714Y-95530295D02*
X183300714Y-95673152D01*
X183300714Y-95673152D02*
X183348333Y-95768390D01*
X183348333Y-95768390D02*
X183395952Y-95816009D01*
X183395952Y-95816009D02*
X183491190Y-95863628D01*
X183491190Y-95863628D02*
X183872142Y-95863628D01*
X182443571Y-95673152D02*
X182443571Y-96339819D01*
X182681666Y-95292200D02*
X182919761Y-96006485D01*
X182919761Y-96006485D02*
X182300714Y-96006485D01*
D13*
%TO.C,JP3*%
X135525000Y-96455000D02*
X135525000Y-97855000D01*
X136225000Y-98555000D02*
X136825000Y-98555000D01*
X136825000Y-95755000D02*
X136225000Y-95755000D01*
X137525000Y-97855000D02*
X137525000Y-96455000D01*
X135525000Y-96455000D02*
G75*
G02*
X136225000Y-95755000I699999J1D01*
G01*
X136225000Y-98555000D02*
G75*
G02*
X135525000Y-97855000I0J700000D01*
G01*
X136825000Y-95755000D02*
G75*
G02*
X137525000Y-96455000I1J-699999D01*
G01*
X137525000Y-97855000D02*
G75*
G02*
X136825000Y-98555000I-700000J0D01*
G01*
%TO.C,JP4*%
X178955000Y-95585000D02*
X178955000Y-96185000D01*
X179655000Y-96885000D02*
X181055000Y-96885000D01*
X181055000Y-94885000D02*
X179655000Y-94885000D01*
X181755000Y-96185000D02*
X181755000Y-95585000D01*
X178955000Y-95585000D02*
G75*
G02*
X179655000Y-94885000I700000J0D01*
G01*
X179655000Y-96885000D02*
G75*
G02*
X178955000Y-96185000I0J700000D01*
G01*
X181055000Y-94885000D02*
G75*
G02*
X181755000Y-95585000I1J-699999D01*
G01*
X181755000Y-96185000D02*
G75*
G02*
X181055000Y-96885000I-699999J-1D01*
G01*
%TD*%
M02*
