M48
; DRILL file {KiCad 9.0.3} date 2025-08-01T08:51:43-0400
; FORMAT={-:-/ absolute / inch / decimal}
; #@! TF.CreationDate,2025-08-01T08:51:43-04:00
; #@! TF.GenerationSoftware,Kicad,Pcbnew,9.0.3
; #@! TF.FileFunction,Plated,1,2,PTH
FMAT,2
INCH
; #@! TA.AperFunction,Plated,PTH,ViaDrill
T1C0.0157
; #@! TA.AperFunction,Plated,PTH,ViaDrill
T2C0.0157
; #@! TA.AperFunction,Plated,PTH,ComponentDrill
T3C0.0315
; #@! TA.AperFunction,Plated,PTH,ComponentDrill
T4C0.0394
; #@! TA.AperFunction,Plated,PTH,ComponentDrill
T5C0.0402
%
G90
G05
T1
X4.625Y-3.55
X4.725Y-3.55
X4.75Y-4.2
X4.7826Y-3.275
X4.825Y-3.95
X4.925Y-4.2
X5.025Y-3.275
X5.075Y-3.675
X5.075Y-3.8326
X5.1Y-3.725
X5.15Y-2.675
X5.15Y-3.55
X5.3Y-3.325
X5.3Y-3.675
X5.35Y-3.8
X5.35Y-4.325
X5.5Y-4.325
X5.525Y-3.25
X5.5576Y-3.75
X5.5576Y-3.85
X5.575Y-3.975
X5.625Y-3.225
X5.65Y-3.525
X5.675Y-3.275
X5.7Y-4.325
X5.725Y-3.65
X5.725Y-3.85
X5.8Y-3.8
X5.825Y-2.925
X5.825Y-3.55
X5.875Y-2.975
X5.875Y-3.475
T2
X5.625Y-2.85
T3
X4.6Y-3.025
X4.7Y-2.925
X4.7Y-3.025
X4.8Y-3.025
T4
X5.15Y-4.425
X5.15Y-4.525
X5.25Y-4.425
X5.25Y-4.525
X5.35Y-4.425
X5.35Y-4.525
X5.425Y-2.775
X5.45Y-4.425
X5.45Y-4.525
X5.525Y-2.775
X5.55Y-4.425
X5.55Y-4.525
X5.625Y-2.775
X5.65Y-4.425
X5.65Y-4.525
X5.725Y-2.775
X5.75Y-4.425
X5.75Y-4.525
X5.85Y-4.425
X5.85Y-4.525
X5.95Y-4.425
X5.95Y-4.525
X6.05Y-4.425
X6.05Y-4.525
X6.15Y-4.425
X6.15Y-4.525
X6.25Y-4.425
X6.25Y-4.525
X6.35Y-4.425
X6.35Y-4.525
X6.45Y-4.425
X6.45Y-4.525
X6.55Y-4.425
X6.55Y-4.525
T5
X6.15Y-3.325
X6.15Y-3.425
X6.15Y-3.525
X6.15Y-3.625
X6.15Y-3.725
X6.15Y-3.825
X6.15Y-3.925
X6.25Y-3.325
X6.25Y-3.925
X6.35Y-3.325
X6.35Y-3.925
X6.45Y-3.325
X6.45Y-3.925
X6.55Y-3.325
X6.55Y-3.925
X6.65Y-3.325
X6.65Y-3.925
X6.75Y-3.325
X6.75Y-3.925
X6.85Y-3.325
X6.85Y-3.925
X6.95Y-3.325
X6.95Y-3.925
M30
