%TF.GenerationSoftware,KiCad,Pcbnew,9.0.3*%
%TF.CreationDate,2025-08-01T08:51:33-04:00*%
%TF.ProjectId,pi-mini-zero-adapter,70692d6d-696e-4692-9d7a-65726f2d6164,rev?*%
%TF.SameCoordinates,Original*%
%TF.FileFunction,Copper,L2,Bot*%
%TF.FilePolarity,Positive*%
%FSLAX46Y46*%
G04 Gerber Fmt 4.6, Leading zero omitted, Abs format (unit mm)*
G04 Created by KiCad (PCBNEW 9.0.3) date 2025-08-01 08:51:33*
%MOMM*%
%LPD*%
G01*
G04 APERTURE LIST*
%TA.AperFunction,ComponentPad*%
%ADD10R,1.700000X1.700000*%
%TD*%
%TA.AperFunction,ComponentPad*%
%ADD11O,1.700000X1.700000*%
%TD*%
%TA.AperFunction,ComponentPad*%
%ADD12C,1.440000*%
%TD*%
%TA.AperFunction,ComponentPad*%
%ADD13C,1.700000*%
%TD*%
%TA.AperFunction,ViaPad*%
%ADD14C,0.700001*%
%TD*%
%TA.AperFunction,ViaPad*%
%ADD15C,0.800000*%
%TD*%
%TA.AperFunction,Conductor*%
%ADD16C,0.406400*%
%TD*%
%TA.AperFunction,Conductor*%
%ADD17C,0.812800*%
%TD*%
%TA.AperFunction,Conductor*%
%ADD18C,0.609600*%
%TD*%
G04 APERTURE END LIST*
D10*
%TO.P,DC1,1,-Vin*%
%TO.N,GND*%
X145415000Y-70485000D03*
D11*
%TO.P,DC1,2,+Vin*%
%TO.N,+5V*%
X142875000Y-70485000D03*
%TO.P,DC1,3,-Vout*%
%TO.N,-5V*%
X140335000Y-70485000D03*
%TO.P,DC1,4,+Vout*%
%TO.N,GND*%
X137795000Y-70485000D03*
%TD*%
D12*
%TO.P,RV1,1,1*%
%TO.N,+3.3V*%
X121920000Y-76835000D03*
%TO.P,RV1,2,2*%
%TO.N,/VCM*%
X119380000Y-74295000D03*
X119380000Y-76835000D03*
%TO.P,RV1,3,3*%
%TO.N,GND*%
X116840000Y-76835000D03*
%TD*%
D10*
%TO.P,J1,1,Pin_1*%
%TO.N,Net-(J1-Pin_1)*%
X166370000Y-112395000D03*
D13*
%TO.P,J1,2,Pin_2*%
%TO.N,unconnected-(J1-Pin_2-Pad2)*%
X166370000Y-114935000D03*
%TO.P,J1,3,Pin_3*%
%TO.N,Net-(J1-Pin_3)*%
X163830000Y-112395000D03*
%TO.P,J1,4,Pin_4*%
%TO.N,unconnected-(J1-Pin_4-Pad4)*%
X163830000Y-114935000D03*
%TO.P,J1,5,Pin_5*%
%TO.N,Net-(J1-Pin_5)*%
X161290000Y-112395000D03*
%TO.P,J1,6,Pin_6*%
%TO.N,unconnected-(J1-Pin_6-Pad6)*%
X161290000Y-114935000D03*
%TO.P,J1,7,Pin_7*%
%TO.N,Net-(J1-Pin_7)*%
X158750000Y-112395000D03*
%TO.P,J1,8,Pin_8*%
%TO.N,/GPIO8*%
X158750000Y-114935000D03*
%TO.P,J1,9,Pin_9*%
%TO.N,Net-(J1-Pin_9)*%
X156210000Y-112395000D03*
%TO.P,J1,10,Pin_10*%
%TO.N,/GPIO9*%
X156210000Y-114935000D03*
%TO.P,J1,11,Pin_11*%
%TO.N,Net-(J1-Pin_11)*%
X153670000Y-112395000D03*
%TO.P,J1,12,Pin_12*%
%TO.N,/GPIO10*%
X153670000Y-114935000D03*
%TO.P,J1,13,Pin_13*%
%TO.N,Net-(J1-Pin_13)*%
X151130000Y-112395000D03*
%TO.P,J1,14,Pin_14*%
%TO.N,/GPIO11*%
X151130000Y-114935000D03*
%TO.P,J1,15,Pin_15*%
%TO.N,Net-(J1-Pin_15)*%
X148590000Y-112395000D03*
%TO.P,J1,16,Pin_16*%
%TO.N,/GPIO12*%
X148590000Y-114935000D03*
%TO.P,J1,17,Pin_17*%
%TO.N,unconnected-(J1-Pin_17-Pad17)*%
X146050000Y-112395000D03*
%TO.P,J1,18,Pin_18*%
%TO.N,unconnected-(J1-Pin_18-Pad18)*%
X146050000Y-114935000D03*
%TO.P,J1,19,Pin_19*%
%TO.N,GND*%
X143510000Y-112395000D03*
%TO.P,J1,20,Pin_20*%
X143510000Y-114935000D03*
%TO.P,J1,21,Pin_21*%
%TO.N,/AWGA*%
X140970000Y-112395000D03*
%TO.P,J1,22,Pin_22*%
%TO.N,/AWGB*%
X140970000Y-114935000D03*
%TO.P,J1,23,Pin_23*%
%TO.N,+5V*%
X138430000Y-112395000D03*
%TO.P,J1,24,Pin_24*%
%TO.N,-5V*%
X138430000Y-114935000D03*
%TO.P,J1,25,Pin_25*%
%TO.N,GND*%
X135890000Y-112395000D03*
%TO.P,J1,26,Pin_26*%
X135890000Y-114935000D03*
%TO.P,J1,27,Pin_27*%
%TO.N,/BINH*%
X133350000Y-112395000D03*
%TO.P,J1,28,Pin_28*%
%TO.N,/CINH*%
X133350000Y-114935000D03*
%TO.P,J1,29,Pin_29*%
%TO.N,/AINH*%
X130810000Y-112395000D03*
%TO.P,J1,30,Pin_30*%
%TO.N,/DINH*%
X130810000Y-114935000D03*
%TD*%
D11*
%TO.P,U1,1,VBUS*%
%TO.N,+5V*%
X176530000Y-84455000D03*
%TO.P,U1,2,GND*%
%TO.N,GND*%
X173990000Y-84455000D03*
D10*
%TO.P,U1,3,3V3*%
%TO.N,+3.3V*%
X171450000Y-84455000D03*
D11*
%TO.P,U1,4,GPIO28_ADC3*%
%TO.N,Net-(U1-GPIO28_ADC3)*%
X168910000Y-84455000D03*
%TO.P,U1,5,GPIO28_ADC2*%
%TO.N,Net-(U1-GPIO28_ADC2)*%
X166370000Y-84455000D03*
%TO.P,U1,6,GPIO27_ADC1*%
%TO.N,Net-(U1-GPIO27_ADC1)*%
X163830000Y-84455000D03*
%TO.P,U1,7,GPIO26_ADC0*%
%TO.N,Net-(U1-GPIO26_ADC0)*%
X161290000Y-84455000D03*
D10*
%TO.P,U1,8,GPIO15*%
%TO.N,Net-(U1-GPIO15)*%
X158750000Y-84455000D03*
D11*
%TO.P,U1,9,GPIO14*%
%TO.N,Net-(U1-GPIO14)*%
X156210000Y-84455000D03*
%TO.P,U1,10,GPIO13*%
%TO.N,Net-(U1-GPIO13)*%
X156210000Y-86995000D03*
%TO.P,U1,11,GPIO12*%
%TO.N,/GPIO12*%
X156210000Y-89535000D03*
%TO.P,U1,12,GPIO11*%
%TO.N,/GPIO11*%
X156210000Y-92075000D03*
%TO.P,U1,13,GPIO10*%
%TO.N,/GPIO10*%
X156210000Y-94615000D03*
%TO.P,U1,14,GPIO9*%
%TO.N,/GPIO9*%
X156210000Y-97155000D03*
%TO.P,U1,15,GPIO8*%
%TO.N,/GPIO8*%
X156210000Y-99695000D03*
%TO.P,U1,16,GPIO7*%
%TO.N,Net-(J1-Pin_15)*%
X158750000Y-99695000D03*
%TO.P,U1,17,GPIO6*%
%TO.N,Net-(J1-Pin_13)*%
X161290000Y-99695000D03*
%TO.P,U1,18,GPIO5*%
%TO.N,Net-(J1-Pin_11)*%
X163830000Y-99695000D03*
%TO.P,U1,19,GPIO4*%
%TO.N,Net-(J1-Pin_9)*%
X166370000Y-99695000D03*
%TO.P,U1,20,GPIO3*%
%TO.N,Net-(J1-Pin_7)*%
X168910000Y-99695000D03*
%TO.P,U1,21,GPIO2*%
%TO.N,Net-(J1-Pin_5)*%
X171450000Y-99695000D03*
%TO.P,U1,22,GPIO1*%
%TO.N,Net-(J1-Pin_3)*%
X173990000Y-99695000D03*
%TO.P,U1,23,GPIO0*%
%TO.N,Net-(J1-Pin_1)*%
X176530000Y-99695000D03*
%TD*%
D14*
%TO.N,GND*%
X143510000Y-89535000D03*
X144780000Y-109855000D03*
X130810000Y-67945000D03*
X140335000Y-82550000D03*
X141162500Y-97790000D03*
X145415000Y-92710000D03*
X122555000Y-100330000D03*
X135890000Y-109855000D03*
X145415000Y-97790000D03*
X141162500Y-95250000D03*
X142875000Y-81915000D03*
%TO.N,+5V*%
X128905000Y-93345000D03*
X134620000Y-93345000D03*
X144145000Y-83185000D03*
D15*
X142875000Y-72390000D03*
D14*
X134620000Y-84455000D03*
%TO.N,-5V*%
X139700000Y-109855000D03*
X147955000Y-90170000D03*
X141605000Y-100965000D03*
X147955000Y-74295000D03*
%TO.N,Net-(U2B--)*%
X130810000Y-90170000D03*
X120015000Y-90170000D03*
%TO.N,Net-(U2D--)*%
X128905000Y-97347500D03*
X129540000Y-94615000D03*
%TO.N,/VCM*%
X125095000Y-106680000D03*
X120650000Y-106680000D03*
X127635000Y-83185000D03*
X121477500Y-83185000D03*
X117475000Y-90170000D03*
%TO.N,+3.3V*%
X135890000Y-96520000D03*
X149225000Y-88265000D03*
X147320000Y-96520000D03*
X149225000Y-75565000D03*
%TD*%
D16*
%TO.N,/VCM*%
X125095000Y-106680000D02*
X120650000Y-106680000D01*
D17*
%TO.N,+3.3V*%
X149225000Y-88265000D02*
X149225000Y-80645000D01*
D16*
%TO.N,GND*%
X170180000Y-97155000D02*
X172720000Y-97155000D01*
X172720000Y-97155000D02*
X175260000Y-97155000D01*
X170180000Y-88265000D02*
X170180000Y-82550000D01*
X167640000Y-97155000D02*
X167640000Y-101600000D01*
X175260000Y-97155000D02*
X175275800Y-97170800D01*
X170180000Y-97155000D02*
X170180000Y-101600000D01*
X171450000Y-88265000D02*
X153670000Y-88265000D01*
X172720000Y-101600000D02*
X172735800Y-101584200D01*
X170180000Y-88265000D02*
X170180000Y-97155000D01*
X172735800Y-97170800D02*
X172735800Y-101584200D01*
X174055003Y-84520003D02*
X174055003Y-85659997D01*
X170180000Y-97155000D02*
X167640000Y-97155000D01*
X175260000Y-101600000D02*
X175275800Y-101584200D01*
X173990000Y-84455000D02*
X174055003Y-84520003D01*
X172720000Y-97155000D02*
X172735800Y-97170800D01*
X175275800Y-97170800D02*
X175275800Y-101584200D01*
X174055003Y-85659997D02*
X171450000Y-88265000D01*
D17*
%TO.N,+5V*%
X144145000Y-83185000D02*
X141605000Y-83185000D01*
X141605000Y-78740000D02*
X141605000Y-83185000D01*
X142875000Y-72390000D02*
X142875000Y-77470000D01*
X140335000Y-84455000D02*
X141605000Y-83185000D01*
X142875000Y-77470000D02*
X141605000Y-78740000D01*
X134620000Y-84455000D02*
X140335000Y-84455000D01*
X142490000Y-70485000D02*
X142875000Y-70870000D01*
X128905000Y-93345000D02*
X134620000Y-93345000D01*
D18*
%TO.N,-5V*%
X141605000Y-100965000D02*
X141605000Y-106045000D01*
X139700000Y-107950000D02*
X139700000Y-109855000D01*
D17*
X147955000Y-74295000D02*
X147955000Y-90170000D01*
D18*
X141605000Y-106045000D02*
X139700000Y-107950000D01*
D16*
%TO.N,Net-(U2B--)*%
X130810000Y-90170000D02*
X120015000Y-90170000D01*
%TO.N,Net-(U2D--)*%
X129540000Y-94615000D02*
X128905000Y-95250000D01*
X128905000Y-95250000D02*
X128905000Y-97347500D01*
%TO.N,/VCM*%
X118110000Y-89535000D02*
X118110000Y-86552500D01*
D17*
X121477500Y-83185000D02*
X119380000Y-81087500D01*
D16*
X118110000Y-86552500D02*
X121477500Y-83185000D01*
D17*
X119380000Y-81087500D02*
X119380000Y-76835000D01*
D16*
X121477500Y-83185000D02*
X127635000Y-83185000D01*
X117475000Y-90170000D02*
X118110000Y-89535000D01*
D17*
%TO.N,+3.3V*%
X135890000Y-96520000D02*
X147320000Y-96520000D01*
X171450000Y-84455000D02*
X171450000Y-81915000D01*
X171450000Y-81915000D02*
X170180000Y-80645000D01*
X149225000Y-80645000D02*
X149225000Y-75565000D01*
X154940000Y-80645000D02*
X149225000Y-80645000D01*
X170180000Y-80645000D02*
X154940000Y-80645000D01*
D16*
%TO.N,/GPIO8*%
X157480000Y-113665000D02*
X157480000Y-110490000D01*
X156210000Y-109220000D02*
X156210000Y-99695000D01*
X157480000Y-110490000D02*
X156210000Y-109220000D01*
X158750000Y-114935000D02*
X157480000Y-113665000D01*
%TO.N,/GPIO9*%
X156210000Y-114935000D02*
X154940000Y-113665000D01*
X154940000Y-113665000D02*
X154940000Y-102870000D01*
X155575000Y-97155000D02*
X156210000Y-97155000D01*
X154305000Y-102235000D02*
X154305000Y-98425000D01*
X154305000Y-98425000D02*
X155575000Y-97155000D01*
X154940000Y-102870000D02*
X154305000Y-102235000D01*
%TO.N,/GPIO10*%
X152400000Y-111859693D02*
X152400000Y-110490000D01*
X152415800Y-113680800D02*
X152415800Y-111875493D01*
X153670000Y-114935000D02*
X152415800Y-113680800D01*
X154940000Y-94615000D02*
X156210000Y-94615000D01*
X153035000Y-109855000D02*
X153035000Y-96520000D01*
X152400000Y-110490000D02*
X153035000Y-109855000D01*
X152415800Y-111875493D02*
X152400000Y-111859693D01*
X153035000Y-96520000D02*
X154940000Y-94615000D01*
%TO.N,/GPIO11*%
X149860000Y-113665000D02*
X149860000Y-111125000D01*
X151765000Y-95250000D02*
X154940000Y-92075000D01*
X149860000Y-111125000D02*
X151765000Y-109220000D01*
X151765000Y-109220000D02*
X151765000Y-95250000D01*
X151130000Y-114935000D02*
X149860000Y-113665000D01*
X154940000Y-92075000D02*
X156210000Y-92075000D01*
%TD*%
%TA.AperFunction,Conductor*%
%TO.N,GND*%
G36*
X177108039Y-64154685D02*
G01*
X177153794Y-64207489D01*
X177165000Y-64259000D01*
X177165000Y-83070653D01*
X177145315Y-83137692D01*
X177092511Y-83183447D01*
X177023353Y-83193391D01*
X177002682Y-83188584D01*
X176846240Y-83137753D01*
X176684957Y-83112208D01*
X176636287Y-83104500D01*
X176423713Y-83104500D01*
X176375042Y-83112208D01*
X176213760Y-83137753D01*
X176011585Y-83203444D01*
X175822179Y-83299951D01*
X175650213Y-83424890D01*
X175499890Y-83575213D01*
X175374949Y-83747182D01*
X175370202Y-83756499D01*
X175322227Y-83807293D01*
X175254405Y-83824087D01*
X175188271Y-83801548D01*
X175149234Y-83756495D01*
X175144622Y-83747444D01*
X175019727Y-83575540D01*
X175019723Y-83575535D01*
X174869464Y-83425276D01*
X174869459Y-83425272D01*
X174697557Y-83300379D01*
X174508215Y-83203903D01*
X174306124Y-83138241D01*
X174240000Y-83127768D01*
X174240000Y-84010439D01*
X174186853Y-83979755D01*
X174057143Y-83945000D01*
X173922857Y-83945000D01*
X173793147Y-83979755D01*
X173740000Y-84010439D01*
X173740000Y-83127768D01*
X173739999Y-83127768D01*
X173673875Y-83138241D01*
X173471784Y-83203903D01*
X173282442Y-83300379D01*
X173110541Y-83425271D01*
X172996865Y-83538947D01*
X172935542Y-83572431D01*
X172865850Y-83567447D01*
X172809917Y-83525575D01*
X172793002Y-83494598D01*
X172743797Y-83362671D01*
X172743793Y-83362664D01*
X172657547Y-83247455D01*
X172657544Y-83247452D01*
X172542335Y-83161206D01*
X172542328Y-83161202D01*
X172437567Y-83122129D01*
X172381633Y-83080258D01*
X172357216Y-83014793D01*
X172356900Y-83005947D01*
X172356900Y-81825675D01*
X172322049Y-81650472D01*
X172322048Y-81650471D01*
X172322048Y-81650467D01*
X172253684Y-81485422D01*
X172253683Y-81485421D01*
X172253680Y-81485415D01*
X172154436Y-81336886D01*
X172154435Y-81336885D01*
X172028115Y-81210565D01*
X171478038Y-80660488D01*
X170758118Y-79940567D01*
X170758114Y-79940564D01*
X170609584Y-79841319D01*
X170609575Y-79841314D01*
X170444533Y-79772952D01*
X170444527Y-79772950D01*
X170269324Y-79738100D01*
X170269322Y-79738100D01*
X155029322Y-79738100D01*
X150255900Y-79738100D01*
X150188861Y-79718415D01*
X150143106Y-79665611D01*
X150131900Y-79614100D01*
X150131900Y-75475675D01*
X150097049Y-75300472D01*
X150097048Y-75300471D01*
X150097048Y-75300467D01*
X150028684Y-75135422D01*
X150028683Y-75135421D01*
X150028680Y-75135415D01*
X149929435Y-74986885D01*
X149929432Y-74986881D01*
X149803118Y-74860567D01*
X149803114Y-74860564D01*
X149654584Y-74761319D01*
X149654575Y-74761314D01*
X149489533Y-74692952D01*
X149489527Y-74692950D01*
X149314324Y-74658100D01*
X149314322Y-74658100D01*
X149135678Y-74658100D01*
X149135673Y-74658100D01*
X149010091Y-74683080D01*
X148940500Y-74676853D01*
X148885322Y-74633990D01*
X148862078Y-74568100D01*
X148861900Y-74561463D01*
X148861900Y-74205675D01*
X148827049Y-74030472D01*
X148827048Y-74030471D01*
X148827048Y-74030467D01*
X148758684Y-73865422D01*
X148758683Y-73865421D01*
X148758680Y-73865415D01*
X148659435Y-73716885D01*
X148659432Y-73716881D01*
X148533118Y-73590567D01*
X148533114Y-73590564D01*
X148384584Y-73491319D01*
X148384575Y-73491314D01*
X148219533Y-73422952D01*
X148219527Y-73422950D01*
X148044324Y-73388100D01*
X148044322Y-73388100D01*
X147865678Y-73388100D01*
X147865676Y-73388100D01*
X147690472Y-73422950D01*
X147690466Y-73422952D01*
X147525424Y-73491314D01*
X147525415Y-73491319D01*
X147376885Y-73590564D01*
X147376881Y-73590567D01*
X147250567Y-73716881D01*
X147250564Y-73716885D01*
X147151319Y-73865415D01*
X147151314Y-73865424D01*
X147082952Y-74030466D01*
X147082950Y-74030472D01*
X147048100Y-74205675D01*
X147048100Y-74205678D01*
X147048100Y-90259322D01*
X147048100Y-90259324D01*
X147048099Y-90259324D01*
X147082950Y-90434527D01*
X147082952Y-90434533D01*
X147151314Y-90599575D01*
X147151319Y-90599584D01*
X147250564Y-90748114D01*
X147250567Y-90748118D01*
X147376881Y-90874432D01*
X147376885Y-90874435D01*
X147525415Y-90973680D01*
X147525421Y-90973683D01*
X147525422Y-90973684D01*
X147690467Y-91042048D01*
X147690471Y-91042048D01*
X147690472Y-91042049D01*
X147865675Y-91076900D01*
X147865678Y-91076900D01*
X148044324Y-91076900D01*
X148205245Y-91044890D01*
X148219533Y-91042048D01*
X148384578Y-90973684D01*
X148533115Y-90874435D01*
X148659435Y-90748115D01*
X148758684Y-90599578D01*
X148827048Y-90434533D01*
X148847880Y-90329807D01*
X148861900Y-90259324D01*
X148861900Y-89268536D01*
X148881585Y-89201497D01*
X148934389Y-89155742D01*
X149003547Y-89145798D01*
X149010087Y-89146918D01*
X149032508Y-89151378D01*
X149135675Y-89171900D01*
X149135678Y-89171900D01*
X149314324Y-89171900D01*
X149445544Y-89145798D01*
X149489533Y-89137048D01*
X149654578Y-89068684D01*
X149803115Y-88969435D01*
X149929435Y-88843115D01*
X150028684Y-88694578D01*
X150097048Y-88529533D01*
X150116789Y-88430290D01*
X150131900Y-88354324D01*
X150131900Y-81675900D01*
X150151585Y-81608861D01*
X150204389Y-81563106D01*
X150255900Y-81551900D01*
X154850678Y-81551900D01*
X169752988Y-81551900D01*
X169820027Y-81571585D01*
X169840669Y-81588219D01*
X170506781Y-82254331D01*
X170540266Y-82315654D01*
X170543100Y-82342012D01*
X170543100Y-83005947D01*
X170523415Y-83072986D01*
X170470611Y-83118741D01*
X170462433Y-83122129D01*
X170357671Y-83161202D01*
X170357664Y-83161206D01*
X170242455Y-83247452D01*
X170242452Y-83247455D01*
X170156206Y-83362664D01*
X170156203Y-83362669D01*
X170107189Y-83494083D01*
X170065317Y-83550016D01*
X169999853Y-83574433D01*
X169931580Y-83559581D01*
X169903326Y-83538430D01*
X169789786Y-83424890D01*
X169617820Y-83299951D01*
X169428414Y-83203444D01*
X169428413Y-83203443D01*
X169428412Y-83203443D01*
X169226243Y-83137754D01*
X169226241Y-83137753D01*
X169226240Y-83137753D01*
X169064957Y-83112208D01*
X169016287Y-83104500D01*
X168803713Y-83104500D01*
X168755042Y-83112208D01*
X168593760Y-83137753D01*
X168391585Y-83203444D01*
X168202179Y-83299951D01*
X168030213Y-83424890D01*
X167879890Y-83575213D01*
X167754949Y-83747182D01*
X167750484Y-83755946D01*
X167702509Y-83806742D01*
X167634688Y-83823536D01*
X167568553Y-83800998D01*
X167529516Y-83755946D01*
X167525050Y-83747182D01*
X167400109Y-83575213D01*
X167249786Y-83424890D01*
X167077820Y-83299951D01*
X166888414Y-83203444D01*
X166888413Y-83203443D01*
X166888412Y-83203443D01*
X166686243Y-83137754D01*
X166686241Y-83137753D01*
X166686240Y-83137753D01*
X166524957Y-83112208D01*
X166476287Y-83104500D01*
X166263713Y-83104500D01*
X166215042Y-83112208D01*
X166053760Y-83137753D01*
X165851585Y-83203444D01*
X165662179Y-83299951D01*
X165490213Y-83424890D01*
X165339890Y-83575213D01*
X165214949Y-83747182D01*
X165210484Y-83755946D01*
X165162509Y-83806742D01*
X165094688Y-83823536D01*
X165028553Y-83800998D01*
X164989516Y-83755946D01*
X164985050Y-83747182D01*
X164860109Y-83575213D01*
X164709786Y-83424890D01*
X164537820Y-83299951D01*
X164348414Y-83203444D01*
X164348413Y-83203443D01*
X164348412Y-83203443D01*
X164146243Y-83137754D01*
X164146241Y-83137753D01*
X164146240Y-83137753D01*
X163984957Y-83112208D01*
X163936287Y-83104500D01*
X163723713Y-83104500D01*
X163675042Y-83112208D01*
X163513760Y-83137753D01*
X163311585Y-83203444D01*
X163122179Y-83299951D01*
X162950213Y-83424890D01*
X162799890Y-83575213D01*
X162674949Y-83747182D01*
X162670484Y-83755946D01*
X162622509Y-83806742D01*
X162554688Y-83823536D01*
X162488553Y-83800998D01*
X162449516Y-83755946D01*
X162445050Y-83747182D01*
X162320109Y-83575213D01*
X162169786Y-83424890D01*
X161997820Y-83299951D01*
X161808414Y-83203444D01*
X161808413Y-83203443D01*
X161808412Y-83203443D01*
X161606243Y-83137754D01*
X161606241Y-83137753D01*
X161606240Y-83137753D01*
X161444957Y-83112208D01*
X161396287Y-83104500D01*
X161183713Y-83104500D01*
X161135042Y-83112208D01*
X160973760Y-83137753D01*
X160771585Y-83203444D01*
X160582179Y-83299951D01*
X160410215Y-83424889D01*
X160296673Y-83538431D01*
X160235350Y-83571915D01*
X160165658Y-83566931D01*
X160109725Y-83525059D01*
X160092810Y-83494082D01*
X160043797Y-83362671D01*
X160043793Y-83362664D01*
X159957547Y-83247455D01*
X159957544Y-83247452D01*
X159842335Y-83161206D01*
X159842328Y-83161202D01*
X159707482Y-83110908D01*
X159707483Y-83110908D01*
X159647883Y-83104501D01*
X159647881Y-83104500D01*
X159647873Y-83104500D01*
X159647864Y-83104500D01*
X157852129Y-83104500D01*
X157852123Y-83104501D01*
X157792516Y-83110908D01*
X157657671Y-83161202D01*
X157657664Y-83161206D01*
X157542455Y-83247452D01*
X157542452Y-83247455D01*
X157456206Y-83362664D01*
X157456203Y-83362669D01*
X157407189Y-83494083D01*
X157365317Y-83550016D01*
X157299853Y-83574433D01*
X157231580Y-83559581D01*
X157203326Y-83538430D01*
X157089786Y-83424890D01*
X156917820Y-83299951D01*
X156728414Y-83203444D01*
X156728413Y-83203443D01*
X156728412Y-83203443D01*
X156526243Y-83137754D01*
X156526241Y-83137753D01*
X156526240Y-83137753D01*
X156364957Y-83112208D01*
X156316287Y-83104500D01*
X156103713Y-83104500D01*
X156055042Y-83112208D01*
X155893760Y-83137753D01*
X155691585Y-83203444D01*
X155502179Y-83299951D01*
X155330213Y-83424890D01*
X155179890Y-83575213D01*
X155054951Y-83747179D01*
X154958444Y-83936585D01*
X154892753Y-84138760D01*
X154859500Y-84348713D01*
X154859500Y-84561286D01*
X154892753Y-84771239D01*
X154958444Y-84973414D01*
X155054951Y-85162820D01*
X155179890Y-85334786D01*
X155330213Y-85485109D01*
X155502182Y-85610050D01*
X155510946Y-85614516D01*
X155561742Y-85662491D01*
X155578536Y-85730312D01*
X155555998Y-85796447D01*
X155510946Y-85835484D01*
X155502182Y-85839949D01*
X155330213Y-85964890D01*
X155179890Y-86115213D01*
X155054951Y-86287179D01*
X154958444Y-86476585D01*
X154892753Y-86678760D01*
X154859500Y-86888713D01*
X154859500Y-87101286D01*
X154892753Y-87311239D01*
X154958444Y-87513414D01*
X155054951Y-87702820D01*
X155179890Y-87874786D01*
X155330213Y-88025109D01*
X155502182Y-88150050D01*
X155510946Y-88154516D01*
X155561742Y-88202491D01*
X155578536Y-88270312D01*
X155555998Y-88336447D01*
X155510946Y-88375484D01*
X155502182Y-88379949D01*
X155330213Y-88504890D01*
X155179890Y-88655213D01*
X155054951Y-88827179D01*
X154958444Y-89016585D01*
X154892753Y-89218760D01*
X154859500Y-89428713D01*
X154859500Y-89641286D01*
X154883313Y-89791639D01*
X154892754Y-89851243D01*
X154922511Y-89942826D01*
X154958444Y-90053414D01*
X155054951Y-90242820D01*
X155179890Y-90414786D01*
X155330213Y-90565109D01*
X155502182Y-90690050D01*
X155510946Y-90694516D01*
X155561742Y-90742491D01*
X155578536Y-90810312D01*
X155555998Y-90876447D01*
X155510946Y-90915484D01*
X155502182Y-90919949D01*
X155330213Y-91044890D01*
X155179894Y-91195209D01*
X155179890Y-91195214D01*
X155089095Y-91320184D01*
X155033765Y-91362850D01*
X154988777Y-91371299D01*
X154870689Y-91371299D01*
X154734743Y-91398341D01*
X154734735Y-91398343D01*
X154606676Y-91451386D01*
X154491416Y-91528400D01*
X154463232Y-91556585D01*
X154393400Y-91626417D01*
X154393397Y-91626420D01*
X151316420Y-94703397D01*
X151316417Y-94703400D01*
X151226991Y-94792826D01*
X151218398Y-94801419D01*
X151218396Y-94801421D01*
X151146012Y-94909751D01*
X151146013Y-94909752D01*
X151141392Y-94916667D01*
X151141390Y-94916671D01*
X151088342Y-95044739D01*
X151088341Y-95044743D01*
X151061299Y-95180689D01*
X151061299Y-95325421D01*
X151061300Y-95325442D01*
X151061300Y-108877155D01*
X151041615Y-108944194D01*
X151024981Y-108964836D01*
X149313399Y-110676417D01*
X149313397Y-110676419D01*
X149293970Y-110705497D01*
X149293968Y-110705500D01*
X149236392Y-110791667D01*
X149236385Y-110791679D01*
X149183343Y-110919735D01*
X149183341Y-110919741D01*
X149164219Y-111015871D01*
X149131833Y-111077782D01*
X149071117Y-111112355D01*
X149004285Y-111109609D01*
X148906244Y-111077754D01*
X148906240Y-111077753D01*
X148744957Y-111052208D01*
X148696287Y-111044500D01*
X148483713Y-111044500D01*
X148435042Y-111052208D01*
X148273760Y-111077753D01*
X148071585Y-111143444D01*
X147882179Y-111239951D01*
X147710213Y-111364890D01*
X147559890Y-111515213D01*
X147434949Y-111687182D01*
X147430484Y-111695946D01*
X147382509Y-111746742D01*
X147314688Y-111763536D01*
X147248553Y-111740998D01*
X147209516Y-111695946D01*
X147205050Y-111687182D01*
X147080109Y-111515213D01*
X146929786Y-111364890D01*
X146757820Y-111239951D01*
X146568414Y-111143444D01*
X146568413Y-111143443D01*
X146568412Y-111143443D01*
X146366243Y-111077754D01*
X146366241Y-111077753D01*
X146366240Y-111077753D01*
X146204957Y-111052208D01*
X146156287Y-111044500D01*
X145943713Y-111044500D01*
X145895042Y-111052208D01*
X145733760Y-111077753D01*
X145531585Y-111143444D01*
X145342179Y-111239951D01*
X145170213Y-111364890D01*
X145019890Y-111515213D01*
X144894949Y-111687182D01*
X144890202Y-111696499D01*
X144842227Y-111747293D01*
X144774405Y-111764087D01*
X144708271Y-111741548D01*
X144669234Y-111696495D01*
X144664626Y-111687452D01*
X144625270Y-111633282D01*
X144625269Y-111633282D01*
X143992962Y-112265590D01*
X143975925Y-112202007D01*
X143910099Y-112087993D01*
X143817007Y-111994901D01*
X143702993Y-111929075D01*
X143639409Y-111912037D01*
X144271716Y-111279728D01*
X144217550Y-111240375D01*
X144028217Y-111143904D01*
X143826129Y-111078242D01*
X143616246Y-111045000D01*
X143403754Y-111045000D01*
X143193872Y-111078242D01*
X143193869Y-111078242D01*
X142991782Y-111143904D01*
X142802439Y-111240380D01*
X142748282Y-111279727D01*
X142748282Y-111279728D01*
X143380591Y-111912037D01*
X143317007Y-111929075D01*
X143202993Y-111994901D01*
X143109901Y-112087993D01*
X143044075Y-112202007D01*
X143027037Y-112265591D01*
X142394728Y-111633282D01*
X142394727Y-111633282D01*
X142355380Y-111687440D01*
X142355376Y-111687446D01*
X142350760Y-111696505D01*
X142302781Y-111747297D01*
X142234959Y-111764087D01*
X142168826Y-111741543D01*
X142129794Y-111696493D01*
X142125051Y-111687184D01*
X142125049Y-111687181D01*
X142125048Y-111687179D01*
X142000109Y-111515213D01*
X141849786Y-111364890D01*
X141677820Y-111239951D01*
X141488414Y-111143444D01*
X141488413Y-111143443D01*
X141488412Y-111143443D01*
X141286243Y-111077754D01*
X141286241Y-111077753D01*
X141286240Y-111077753D01*
X141124957Y-111052208D01*
X141076287Y-111044500D01*
X140863713Y-111044500D01*
X140815042Y-111052208D01*
X140653760Y-111077753D01*
X140451585Y-111143444D01*
X140262179Y-111239951D01*
X140090213Y-111364890D01*
X139939890Y-111515213D01*
X139814949Y-111687182D01*
X139810484Y-111695946D01*
X139762509Y-111746742D01*
X139694688Y-111763536D01*
X139628553Y-111740998D01*
X139589516Y-111695946D01*
X139585050Y-111687182D01*
X139460109Y-111515213D01*
X139309786Y-111364890D01*
X139137820Y-111239951D01*
X138948414Y-111143444D01*
X138948413Y-111143443D01*
X138948412Y-111143443D01*
X138746243Y-111077754D01*
X138746241Y-111077753D01*
X138746240Y-111077753D01*
X138584957Y-111052208D01*
X138536287Y-111044500D01*
X138323713Y-111044500D01*
X138275042Y-111052208D01*
X138113760Y-111077753D01*
X137911585Y-111143444D01*
X137722179Y-111239951D01*
X137550213Y-111364890D01*
X137399890Y-111515213D01*
X137274949Y-111687182D01*
X137270202Y-111696499D01*
X137222227Y-111747293D01*
X137154405Y-111764087D01*
X137088271Y-111741548D01*
X137049234Y-111696495D01*
X137044626Y-111687452D01*
X137005270Y-111633282D01*
X137005269Y-111633282D01*
X136372962Y-112265590D01*
X136355925Y-112202007D01*
X136290099Y-112087993D01*
X136197007Y-111994901D01*
X136082993Y-111929075D01*
X136019409Y-111912037D01*
X136651716Y-111279728D01*
X136597550Y-111240375D01*
X136408217Y-111143904D01*
X136206129Y-111078242D01*
X135996246Y-111045000D01*
X135783754Y-111045000D01*
X135573872Y-111078242D01*
X135573869Y-111078242D01*
X135371782Y-111143904D01*
X135182439Y-111240380D01*
X135128282Y-111279727D01*
X135128282Y-111279728D01*
X135760591Y-111912037D01*
X135697007Y-111929075D01*
X135582993Y-111994901D01*
X135489901Y-112087993D01*
X135424075Y-112202007D01*
X135407037Y-112265591D01*
X134774728Y-111633282D01*
X134774727Y-111633282D01*
X134735380Y-111687440D01*
X134735376Y-111687446D01*
X134730760Y-111696505D01*
X134682781Y-111747297D01*
X134614959Y-111764087D01*
X134548826Y-111741543D01*
X134509794Y-111696493D01*
X134505051Y-111687184D01*
X134505049Y-111687181D01*
X134505048Y-111687179D01*
X134380109Y-111515213D01*
X134229786Y-111364890D01*
X134057820Y-111239951D01*
X133868414Y-111143444D01*
X133868413Y-111143443D01*
X133868412Y-111143443D01*
X133666243Y-111077754D01*
X133666241Y-111077753D01*
X133666240Y-111077753D01*
X133504957Y-111052208D01*
X133456287Y-111044500D01*
X133243713Y-111044500D01*
X133195042Y-111052208D01*
X133033760Y-111077753D01*
X132831585Y-111143444D01*
X132642179Y-111239951D01*
X132470213Y-111364890D01*
X132319890Y-111515213D01*
X132194949Y-111687182D01*
X132190484Y-111695946D01*
X132142509Y-111746742D01*
X132074688Y-111763536D01*
X132008553Y-111740998D01*
X131969516Y-111695946D01*
X131965050Y-111687182D01*
X131840109Y-111515213D01*
X131689786Y-111364890D01*
X131517820Y-111239951D01*
X131328414Y-111143444D01*
X131328413Y-111143443D01*
X131328412Y-111143443D01*
X131126243Y-111077754D01*
X131126241Y-111077753D01*
X131126240Y-111077753D01*
X130964957Y-111052208D01*
X130916287Y-111044500D01*
X130703713Y-111044500D01*
X130655042Y-111052208D01*
X130493760Y-111077753D01*
X130291585Y-111143444D01*
X130102179Y-111239951D01*
X129930213Y-111364890D01*
X129779890Y-111515213D01*
X129654951Y-111687179D01*
X129558444Y-111876585D01*
X129492753Y-112078760D01*
X129459500Y-112288713D01*
X129459500Y-112501286D01*
X129492753Y-112711239D01*
X129558444Y-112913414D01*
X129654951Y-113102820D01*
X129779890Y-113274786D01*
X129930213Y-113425109D01*
X130102182Y-113550050D01*
X130110946Y-113554516D01*
X130161742Y-113602491D01*
X130178536Y-113670312D01*
X130155998Y-113736447D01*
X130110946Y-113775484D01*
X130102182Y-113779949D01*
X129930213Y-113904890D01*
X129779890Y-114055213D01*
X129654951Y-114227179D01*
X129558444Y-114416585D01*
X129492753Y-114618760D01*
X129459500Y-114828713D01*
X129459500Y-115041286D01*
X129492753Y-115251239D01*
X129558444Y-115453414D01*
X129654951Y-115642820D01*
X129779890Y-115814786D01*
X129930209Y-115965105D01*
X129930214Y-115965109D01*
X129951648Y-115980682D01*
X129994314Y-116036012D01*
X130000293Y-116105625D01*
X129967688Y-116167420D01*
X129906849Y-116201777D01*
X129878763Y-116205000D01*
X114424000Y-116205000D01*
X114356961Y-116185315D01*
X114311206Y-116132511D01*
X114300000Y-116081000D01*
X114300000Y-112273711D01*
X116259500Y-112273711D01*
X116259500Y-112516288D01*
X116291161Y-112756785D01*
X116353947Y-112991104D01*
X116446773Y-113215205D01*
X116446776Y-113215212D01*
X116568064Y-113425289D01*
X116568066Y-113425292D01*
X116568067Y-113425293D01*
X116715733Y-113617736D01*
X116715739Y-113617743D01*
X116887256Y-113789260D01*
X116887262Y-113789265D01*
X117079711Y-113936936D01*
X117289788Y-114058224D01*
X117513900Y-114151054D01*
X117748211Y-114213838D01*
X117920387Y-114236505D01*
X117988711Y-114245500D01*
X117988712Y-114245500D01*
X118231289Y-114245500D01*
X118299613Y-114236505D01*
X118471789Y-114213838D01*
X118706100Y-114151054D01*
X118930212Y-114058224D01*
X119140289Y-113936936D01*
X119332738Y-113789265D01*
X119504265Y-113617738D01*
X119651936Y-113425289D01*
X119773224Y-113215212D01*
X119866054Y-112991100D01*
X119928838Y-112756789D01*
X119960500Y-112516288D01*
X119960500Y-112273712D01*
X119928838Y-112033211D01*
X119866054Y-111798900D01*
X119773224Y-111574788D01*
X119651936Y-111364711D01*
X119556530Y-111240375D01*
X119504266Y-111172263D01*
X119504260Y-111172256D01*
X119332743Y-111000739D01*
X119332736Y-111000733D01*
X119140293Y-110853067D01*
X119140292Y-110853066D01*
X119140289Y-110853064D01*
X118930212Y-110731776D01*
X118930205Y-110731773D01*
X118706104Y-110638947D01*
X118471785Y-110576161D01*
X118231289Y-110544500D01*
X118231288Y-110544500D01*
X117988712Y-110544500D01*
X117988711Y-110544500D01*
X117748214Y-110576161D01*
X117513895Y-110638947D01*
X117289794Y-110731773D01*
X117289785Y-110731777D01*
X117079706Y-110853067D01*
X116887263Y-111000733D01*
X116887256Y-111000739D01*
X116715739Y-111172256D01*
X116715733Y-111172263D01*
X116568067Y-111364706D01*
X116446777Y-111574785D01*
X116446773Y-111574794D01*
X116353947Y-111798895D01*
X116291161Y-112033214D01*
X116259500Y-112273711D01*
X114300000Y-112273711D01*
X114300000Y-109771233D01*
X138849500Y-109771233D01*
X138849500Y-109778148D01*
X138849500Y-109938771D01*
X138882182Y-110103074D01*
X138882184Y-110103082D01*
X138946295Y-110257860D01*
X139039373Y-110397162D01*
X139157837Y-110515626D01*
X139223212Y-110559308D01*
X139297137Y-110608703D01*
X139451918Y-110672816D01*
X139616218Y-110705497D01*
X139616228Y-110705499D01*
X139616232Y-110705500D01*
X139616233Y-110705500D01*
X139783768Y-110705500D01*
X139783769Y-110705499D01*
X139948082Y-110672816D01*
X140102863Y-110608703D01*
X140242162Y-110515626D01*
X140360626Y-110397162D01*
X140453703Y-110257863D01*
X140517816Y-110103082D01*
X140550500Y-109938767D01*
X140550500Y-109771233D01*
X140517816Y-109606918D01*
X140514738Y-109599486D01*
X140505300Y-109552035D01*
X140505300Y-108334927D01*
X140524985Y-108267888D01*
X140541614Y-108247251D01*
X142118345Y-106670520D01*
X142118349Y-106670518D01*
X142230518Y-106558349D01*
X142318648Y-106426453D01*
X142379353Y-106279897D01*
X142379902Y-106277137D01*
X142407611Y-106137838D01*
X142410301Y-106124317D01*
X142410301Y-105960574D01*
X142410300Y-105960548D01*
X142410300Y-101267963D01*
X142419739Y-101220510D01*
X142422816Y-101213082D01*
X142455500Y-101048767D01*
X142455500Y-100881233D01*
X142422816Y-100716918D01*
X142366193Y-100580220D01*
X142358704Y-100562139D01*
X142265626Y-100422837D01*
X142147162Y-100304373D01*
X142007860Y-100211295D01*
X141853082Y-100147184D01*
X141853074Y-100147182D01*
X141688771Y-100114500D01*
X141688767Y-100114500D01*
X141521233Y-100114500D01*
X141521228Y-100114500D01*
X141356925Y-100147182D01*
X141356917Y-100147184D01*
X141202139Y-100211295D01*
X141062837Y-100304373D01*
X140944373Y-100422837D01*
X140851295Y-100562139D01*
X140787184Y-100716917D01*
X140787182Y-100716925D01*
X140754500Y-100881228D01*
X140754500Y-101048771D01*
X140787182Y-101213074D01*
X140787184Y-101213082D01*
X140790261Y-101220510D01*
X140799700Y-101267963D01*
X140799700Y-105660071D01*
X140780015Y-105727110D01*
X140763381Y-105747752D01*
X139952786Y-106558347D01*
X139186654Y-107324479D01*
X139186651Y-107324482D01*
X139130566Y-107380566D01*
X139074482Y-107436650D01*
X139033614Y-107497815D01*
X139033613Y-107497816D01*
X138986355Y-107568541D01*
X138986348Y-107568553D01*
X138925648Y-107715098D01*
X138925645Y-107715108D01*
X138894699Y-107870682D01*
X138894699Y-108035428D01*
X138894700Y-108035449D01*
X138894700Y-109552035D01*
X138893210Y-109559521D01*
X138892002Y-109577763D01*
X138889632Y-109588936D01*
X138882184Y-109606918D01*
X138849500Y-109771233D01*
X114300000Y-109771233D01*
X114300000Y-106596228D01*
X119799500Y-106596228D01*
X119799500Y-106763771D01*
X119832182Y-106928074D01*
X119832184Y-106928082D01*
X119896295Y-107082860D01*
X119989373Y-107222162D01*
X120107837Y-107340626D01*
X120172332Y-107383720D01*
X120247137Y-107433703D01*
X120247138Y-107433703D01*
X120247139Y-107433704D01*
X120254254Y-107436651D01*
X120401918Y-107497816D01*
X120566228Y-107530499D01*
X120566232Y-107530500D01*
X120566233Y-107530500D01*
X120733768Y-107530500D01*
X120733769Y-107530499D01*
X120898082Y-107497816D01*
X121052863Y-107433703D01*
X121096421Y-107404597D01*
X121163098Y-107383720D01*
X121165312Y-107383700D01*
X124579688Y-107383700D01*
X124646727Y-107403385D01*
X124648565Y-107404589D01*
X124692137Y-107433703D01*
X124692138Y-107433703D01*
X124692139Y-107433704D01*
X124699254Y-107436651D01*
X124846918Y-107497816D01*
X125011228Y-107530499D01*
X125011232Y-107530500D01*
X125011233Y-107530500D01*
X125178768Y-107530500D01*
X125178769Y-107530499D01*
X125343082Y-107497816D01*
X125497863Y-107433703D01*
X125637162Y-107340626D01*
X125755626Y-107222162D01*
X125848703Y-107082863D01*
X125912816Y-106928082D01*
X125945500Y-106763767D01*
X125945500Y-106596233D01*
X125912816Y-106431918D01*
X125848703Y-106277137D01*
X125755626Y-106137837D01*
X125637162Y-106019373D01*
X125497860Y-105926295D01*
X125343082Y-105862184D01*
X125343074Y-105862182D01*
X125178771Y-105829500D01*
X125178767Y-105829500D01*
X125011233Y-105829500D01*
X125011228Y-105829500D01*
X124846925Y-105862182D01*
X124846917Y-105862184D01*
X124692139Y-105926295D01*
X124648579Y-105955402D01*
X124581902Y-105976280D01*
X124579688Y-105976300D01*
X121165312Y-105976300D01*
X121098273Y-105956615D01*
X121096421Y-105955402D01*
X121052860Y-105926295D01*
X120898082Y-105862184D01*
X120898074Y-105862182D01*
X120733771Y-105829500D01*
X120733767Y-105829500D01*
X120566233Y-105829500D01*
X120566228Y-105829500D01*
X120401925Y-105862182D01*
X120401917Y-105862184D01*
X120247139Y-105926295D01*
X120107837Y-106019373D01*
X119989373Y-106137837D01*
X119896297Y-106277137D01*
X119832184Y-106431917D01*
X119832182Y-106431925D01*
X119799500Y-106596228D01*
X114300000Y-106596228D01*
X114300000Y-93434324D01*
X127998099Y-93434324D01*
X128032950Y-93609527D01*
X128032952Y-93609533D01*
X128101314Y-93774575D01*
X128101319Y-93774584D01*
X128200564Y-93923114D01*
X128200567Y-93923118D01*
X128326881Y-94049432D01*
X128326885Y-94049435D01*
X128475415Y-94148680D01*
X128475421Y-94148683D01*
X128475422Y-94148684D01*
X128640467Y-94217048D01*
X128640469Y-94217048D01*
X128643218Y-94218187D01*
X128643864Y-94218224D01*
X128644605Y-94218762D01*
X128646095Y-94219379D01*
X128645947Y-94219735D01*
X128669845Y-94237073D01*
X128696698Y-94254667D01*
X128697943Y-94257458D01*
X128700418Y-94259254D01*
X128712084Y-94289158D01*
X128725162Y-94318476D01*
X128725035Y-94322357D01*
X128725811Y-94324346D01*
X128724586Y-94336095D01*
X128723820Y-94359584D01*
X128722486Y-94366187D01*
X128722184Y-94366918D01*
X128711929Y-94418470D01*
X128711893Y-94418651D01*
X128695679Y-94449429D01*
X128679578Y-94480211D01*
X128679333Y-94480460D01*
X128679329Y-94480468D01*
X128679320Y-94480472D01*
X128678027Y-94481789D01*
X128561400Y-94598417D01*
X128456420Y-94703397D01*
X128456417Y-94703400D01*
X128366991Y-94792826D01*
X128358398Y-94801419D01*
X128358396Y-94801421D01*
X128286012Y-94909751D01*
X128286013Y-94909752D01*
X128281392Y-94916667D01*
X128281390Y-94916671D01*
X128228342Y-95044739D01*
X128228341Y-95044743D01*
X128201299Y-95180689D01*
X128201299Y-95325421D01*
X128201300Y-95325442D01*
X128201300Y-96832186D01*
X128181615Y-96899225D01*
X128180402Y-96901076D01*
X128151303Y-96944625D01*
X128151295Y-96944640D01*
X128087184Y-97099417D01*
X128087182Y-97099425D01*
X128054500Y-97263728D01*
X128054500Y-97431271D01*
X128087182Y-97595574D01*
X128087184Y-97595582D01*
X128151295Y-97750360D01*
X128244373Y-97889662D01*
X128362837Y-98008126D01*
X128402737Y-98034786D01*
X128502137Y-98101203D01*
X128656918Y-98165316D01*
X128821228Y-98197999D01*
X128821232Y-98198000D01*
X128821233Y-98198000D01*
X128988768Y-98198000D01*
X128988769Y-98197999D01*
X129153082Y-98165316D01*
X129307863Y-98101203D01*
X129447162Y-98008126D01*
X129565626Y-97889662D01*
X129658703Y-97750363D01*
X129722816Y-97595582D01*
X129755500Y-97431267D01*
X129755500Y-97263733D01*
X129722816Y-97099418D01*
X129658703Y-96944637D01*
X129658700Y-96944632D01*
X129658696Y-96944625D01*
X129629598Y-96901076D01*
X129608720Y-96834399D01*
X129608700Y-96832186D01*
X129608700Y-96609324D01*
X134983099Y-96609324D01*
X135017950Y-96784527D01*
X135017952Y-96784533D01*
X135086314Y-96949575D01*
X135086319Y-96949584D01*
X135185564Y-97098114D01*
X135185567Y-97098118D01*
X135311881Y-97224432D01*
X135311885Y-97224435D01*
X135460415Y-97323680D01*
X135460421Y-97323683D01*
X135460422Y-97323684D01*
X135625467Y-97392048D01*
X135625471Y-97392048D01*
X135625472Y-97392049D01*
X135800675Y-97426900D01*
X135800678Y-97426900D01*
X147409324Y-97426900D01*
X147527198Y-97403452D01*
X147584533Y-97392048D01*
X147749578Y-97323684D01*
X147898115Y-97224435D01*
X148024435Y-97098115D01*
X148123684Y-96949578D01*
X148192048Y-96784533D01*
X148203452Y-96727198D01*
X148226900Y-96609324D01*
X148226900Y-96430675D01*
X148192049Y-96255472D01*
X148192048Y-96255471D01*
X148192048Y-96255467D01*
X148126780Y-96097896D01*
X148123685Y-96090424D01*
X148123680Y-96090415D01*
X148024435Y-95941885D01*
X148024432Y-95941881D01*
X147898118Y-95815567D01*
X147898114Y-95815564D01*
X147749584Y-95716319D01*
X147749575Y-95716314D01*
X147584533Y-95647952D01*
X147584527Y-95647950D01*
X147409324Y-95613100D01*
X147409322Y-95613100D01*
X135800678Y-95613100D01*
X135800676Y-95613100D01*
X135625472Y-95647950D01*
X135625466Y-95647952D01*
X135460424Y-95716314D01*
X135460415Y-95716319D01*
X135311885Y-95815564D01*
X135311881Y-95815567D01*
X135185567Y-95941881D01*
X135185564Y-95941885D01*
X135086319Y-96090415D01*
X135086314Y-96090424D01*
X135017952Y-96255466D01*
X135017950Y-96255472D01*
X134983100Y-96430675D01*
X134983100Y-96430678D01*
X134983100Y-96609322D01*
X134983100Y-96609324D01*
X134983099Y-96609324D01*
X129608700Y-96609324D01*
X129608700Y-95592844D01*
X129617344Y-95563404D01*
X129623867Y-95533419D01*
X129627622Y-95528401D01*
X129628385Y-95525805D01*
X129645014Y-95505167D01*
X129673209Y-95476971D01*
X129734530Y-95443487D01*
X129736621Y-95443051D01*
X129788082Y-95432816D01*
X129942863Y-95368703D01*
X130082162Y-95275626D01*
X130200626Y-95157162D01*
X130293703Y-95017863D01*
X130357816Y-94863082D01*
X130390500Y-94698767D01*
X130390500Y-94531233D01*
X130380403Y-94480472D01*
X130364415Y-94400091D01*
X130370642Y-94330499D01*
X130413505Y-94275322D01*
X130479395Y-94252078D01*
X130486032Y-94251900D01*
X134709324Y-94251900D01*
X134827198Y-94228452D01*
X134884533Y-94217048D01*
X135049578Y-94148684D01*
X135198115Y-94049435D01*
X135324435Y-93923115D01*
X135423684Y-93774578D01*
X135492048Y-93609533D01*
X135508184Y-93528412D01*
X135526900Y-93434324D01*
X135526900Y-93255675D01*
X135492049Y-93080472D01*
X135492048Y-93080471D01*
X135492048Y-93080467D01*
X135423684Y-92915422D01*
X135423683Y-92915421D01*
X135423680Y-92915415D01*
X135324435Y-92766885D01*
X135324432Y-92766881D01*
X135198118Y-92640567D01*
X135198114Y-92640564D01*
X135049584Y-92541319D01*
X135049575Y-92541314D01*
X134884533Y-92472952D01*
X134884527Y-92472950D01*
X134709324Y-92438100D01*
X134709322Y-92438100D01*
X128815678Y-92438100D01*
X128815676Y-92438100D01*
X128640472Y-92472950D01*
X128640466Y-92472952D01*
X128475424Y-92541314D01*
X128475415Y-92541319D01*
X128326885Y-92640564D01*
X128326881Y-92640567D01*
X128200567Y-92766881D01*
X128200564Y-92766885D01*
X128101319Y-92915415D01*
X128101314Y-92915424D01*
X128032952Y-93080466D01*
X128032950Y-93080472D01*
X127998100Y-93255675D01*
X127998100Y-93255678D01*
X127998100Y-93434322D01*
X127998100Y-93434324D01*
X127998099Y-93434324D01*
X114300000Y-93434324D01*
X114300000Y-76738984D01*
X115620000Y-76738984D01*
X115620000Y-76931015D01*
X115650040Y-77120684D01*
X115709383Y-77303321D01*
X115796561Y-77474415D01*
X115817798Y-77503646D01*
X116440000Y-76881445D01*
X116440000Y-76887661D01*
X116467259Y-76989394D01*
X116519920Y-77080606D01*
X116594394Y-77155080D01*
X116685606Y-77207741D01*
X116787339Y-77235000D01*
X116793554Y-77235000D01*
X116171351Y-77857200D01*
X116171352Y-77857201D01*
X116200577Y-77878434D01*
X116371678Y-77965616D01*
X116554315Y-78024959D01*
X116743985Y-78055000D01*
X116936015Y-78055000D01*
X117125684Y-78024959D01*
X117308321Y-77965616D01*
X117479419Y-77878436D01*
X117508646Y-77857201D01*
X117508646Y-77857200D01*
X116886447Y-77235000D01*
X116892661Y-77235000D01*
X116994394Y-77207741D01*
X117085606Y-77155080D01*
X117160080Y-77080606D01*
X117212741Y-76989394D01*
X117240000Y-76887661D01*
X117240000Y-76881446D01*
X117862200Y-77503646D01*
X117862201Y-77503646D01*
X117883436Y-77474419D01*
X117970616Y-77303319D01*
X117991805Y-77238108D01*
X118031242Y-77180433D01*
X118095600Y-77153234D01*
X118164447Y-77165148D01*
X118215923Y-77212392D01*
X118227667Y-77238108D01*
X118248916Y-77303505D01*
X118248917Y-77303506D01*
X118248918Y-77303509D01*
X118336135Y-77474681D01*
X118449055Y-77630102D01*
X118449059Y-77630106D01*
X118449418Y-77630600D01*
X118472898Y-77696406D01*
X118473100Y-77703486D01*
X118473100Y-80998178D01*
X118473100Y-81176822D01*
X118473100Y-81176824D01*
X118473099Y-81176824D01*
X118507950Y-81352027D01*
X118507952Y-81352033D01*
X118576314Y-81517075D01*
X118576319Y-81517084D01*
X118675564Y-81665614D01*
X118675567Y-81665618D01*
X120250952Y-83241003D01*
X120284437Y-83302326D01*
X120279453Y-83372018D01*
X120250952Y-83416365D01*
X118947790Y-84719527D01*
X117661420Y-86005897D01*
X117661417Y-86005900D01*
X117612408Y-86054908D01*
X117563400Y-86103916D01*
X117492455Y-86210093D01*
X117492455Y-86210094D01*
X117486389Y-86219173D01*
X117486388Y-86219175D01*
X117433342Y-86347239D01*
X117433341Y-86347243D01*
X117406299Y-86483189D01*
X117406299Y-86627921D01*
X117406300Y-86627942D01*
X117406300Y-89192154D01*
X117397654Y-89221596D01*
X117391131Y-89251583D01*
X117387377Y-89256597D01*
X117386615Y-89259193D01*
X117369980Y-89279837D01*
X117341787Y-89308029D01*
X117280463Y-89341513D01*
X117278299Y-89341963D01*
X117226923Y-89352182D01*
X117226917Y-89352184D01*
X117072139Y-89416295D01*
X116932837Y-89509373D01*
X116814373Y-89627837D01*
X116721295Y-89767139D01*
X116657184Y-89921917D01*
X116657182Y-89921925D01*
X116624500Y-90086228D01*
X116624500Y-90253771D01*
X116657182Y-90418074D01*
X116657184Y-90418082D01*
X116721295Y-90572860D01*
X116814373Y-90712162D01*
X116932837Y-90830626D01*
X117025494Y-90892537D01*
X117072137Y-90923703D01*
X117226918Y-90987816D01*
X117391228Y-91020499D01*
X117391232Y-91020500D01*
X117391233Y-91020500D01*
X117558768Y-91020500D01*
X117558769Y-91020499D01*
X117723082Y-90987816D01*
X117877863Y-90923703D01*
X118017162Y-90830626D01*
X118135626Y-90712162D01*
X118228703Y-90572863D01*
X118292816Y-90418082D01*
X118303036Y-90366697D01*
X118335419Y-90304789D01*
X118336916Y-90303264D01*
X118553953Y-90086228D01*
X119164500Y-90086228D01*
X119164500Y-90253771D01*
X119197182Y-90418074D01*
X119197184Y-90418082D01*
X119261295Y-90572860D01*
X119354373Y-90712162D01*
X119472837Y-90830626D01*
X119565494Y-90892537D01*
X119612137Y-90923703D01*
X119766918Y-90987816D01*
X119931228Y-91020499D01*
X119931232Y-91020500D01*
X119931233Y-91020500D01*
X120098768Y-91020500D01*
X120098769Y-91020499D01*
X120263082Y-90987816D01*
X120417863Y-90923703D01*
X120461421Y-90894597D01*
X120528098Y-90873720D01*
X120530312Y-90873700D01*
X130294688Y-90873700D01*
X130361727Y-90893385D01*
X130363565Y-90894589D01*
X130407137Y-90923703D01*
X130561918Y-90987816D01*
X130726228Y-91020499D01*
X130726232Y-91020500D01*
X130726233Y-91020500D01*
X130893768Y-91020500D01*
X130893769Y-91020499D01*
X131058082Y-90987816D01*
X131212863Y-90923703D01*
X131352162Y-90830626D01*
X131470626Y-90712162D01*
X131563703Y-90572863D01*
X131627816Y-90418082D01*
X131660500Y-90253767D01*
X131660500Y-90086233D01*
X131627816Y-89921918D01*
X131563703Y-89767137D01*
X131532537Y-89720494D01*
X131470626Y-89627837D01*
X131352162Y-89509373D01*
X131212860Y-89416295D01*
X131058082Y-89352184D01*
X131058074Y-89352182D01*
X130893771Y-89319500D01*
X130893767Y-89319500D01*
X130726233Y-89319500D01*
X130726228Y-89319500D01*
X130561925Y-89352182D01*
X130561917Y-89352184D01*
X130407139Y-89416295D01*
X130363579Y-89445402D01*
X130296902Y-89466280D01*
X130294688Y-89466300D01*
X120530312Y-89466300D01*
X120463273Y-89446615D01*
X120461421Y-89445402D01*
X120417860Y-89416295D01*
X120263082Y-89352184D01*
X120263074Y-89352182D01*
X120098771Y-89319500D01*
X120098767Y-89319500D01*
X119931233Y-89319500D01*
X119931228Y-89319500D01*
X119766925Y-89352182D01*
X119766917Y-89352184D01*
X119612139Y-89416295D01*
X119472837Y-89509373D01*
X119354373Y-89627837D01*
X119261295Y-89767139D01*
X119197184Y-89921917D01*
X119197182Y-89921925D01*
X119164500Y-90086228D01*
X118553953Y-90086228D01*
X118558579Y-90081602D01*
X118558583Y-90081600D01*
X118656600Y-89983583D01*
X118733611Y-89868327D01*
X118765376Y-89791639D01*
X118786658Y-89740262D01*
X118813701Y-89604308D01*
X118813701Y-89465691D01*
X118813701Y-89460581D01*
X118813700Y-89460555D01*
X118813700Y-86895344D01*
X118833385Y-86828305D01*
X118850019Y-86807663D01*
X120110356Y-85547326D01*
X121113357Y-84544324D01*
X133713099Y-84544324D01*
X133747950Y-84719527D01*
X133747952Y-84719533D01*
X133816314Y-84884575D01*
X133816319Y-84884584D01*
X133915564Y-85033114D01*
X133915567Y-85033118D01*
X134041881Y-85159432D01*
X134041885Y-85159435D01*
X134190415Y-85258680D01*
X134190421Y-85258683D01*
X134190422Y-85258684D01*
X134355467Y-85327048D01*
X134355471Y-85327048D01*
X134355472Y-85327049D01*
X134530675Y-85361900D01*
X134530678Y-85361900D01*
X140424324Y-85361900D01*
X140544052Y-85338084D01*
X140599533Y-85327048D01*
X140764578Y-85258684D01*
X140913115Y-85159435D01*
X141944331Y-84128219D01*
X142005654Y-84094734D01*
X142032012Y-84091900D01*
X144234324Y-84091900D01*
X144352198Y-84068452D01*
X144409533Y-84057048D01*
X144574578Y-83988684D01*
X144723115Y-83889435D01*
X144849435Y-83763115D01*
X144948684Y-83614578D01*
X145017048Y-83449533D01*
X145034327Y-83362669D01*
X145051900Y-83274324D01*
X145051900Y-83095675D01*
X145017049Y-82920472D01*
X145017048Y-82920471D01*
X145017048Y-82920467D01*
X144948684Y-82755422D01*
X144948683Y-82755421D01*
X144948680Y-82755415D01*
X144849435Y-82606885D01*
X144849432Y-82606881D01*
X144723118Y-82480567D01*
X144723114Y-82480564D01*
X144574584Y-82381319D01*
X144574575Y-82381314D01*
X144409533Y-82312952D01*
X144409527Y-82312950D01*
X144234324Y-82278100D01*
X144234322Y-82278100D01*
X142635900Y-82278100D01*
X142568861Y-82258415D01*
X142523106Y-82205611D01*
X142511900Y-82154100D01*
X142511900Y-79167012D01*
X142531585Y-79099973D01*
X142548219Y-79079331D01*
X143579432Y-78048118D01*
X143579435Y-78048115D01*
X143678684Y-77899578D01*
X143747048Y-77734533D01*
X143767722Y-77630600D01*
X143781900Y-77559324D01*
X143781900Y-72300675D01*
X143747049Y-72125472D01*
X143747048Y-72125471D01*
X143747048Y-72125467D01*
X143678684Y-71960422D01*
X143678683Y-71960421D01*
X143678680Y-71960415D01*
X143579435Y-71811884D01*
X143575794Y-71807448D01*
X143548481Y-71743138D01*
X143560272Y-71674271D01*
X143598761Y-71628466D01*
X143754792Y-71515104D01*
X143868717Y-71401178D01*
X143930036Y-71367696D01*
X143999728Y-71372680D01*
X144055662Y-71414551D01*
X144072577Y-71445528D01*
X144121646Y-71577088D01*
X144121649Y-71577093D01*
X144207809Y-71692187D01*
X144207812Y-71692190D01*
X144322906Y-71778350D01*
X144322913Y-71778354D01*
X144457620Y-71828596D01*
X144457627Y-71828598D01*
X144517155Y-71834999D01*
X144517172Y-71835000D01*
X145165000Y-71835000D01*
X145165000Y-70918012D01*
X145222007Y-70950925D01*
X145349174Y-70985000D01*
X145480826Y-70985000D01*
X145607993Y-70950925D01*
X145665000Y-70918012D01*
X145665000Y-71835000D01*
X146312828Y-71835000D01*
X146312844Y-71834999D01*
X146372372Y-71828598D01*
X146372379Y-71828596D01*
X146507086Y-71778354D01*
X146507093Y-71778350D01*
X146622187Y-71692190D01*
X146622190Y-71692187D01*
X146708350Y-71577093D01*
X146708354Y-71577086D01*
X146758596Y-71442379D01*
X146758598Y-71442372D01*
X146764999Y-71382844D01*
X146765000Y-71382827D01*
X146765000Y-70735000D01*
X145848012Y-70735000D01*
X145880925Y-70677993D01*
X145915000Y-70550826D01*
X145915000Y-70419174D01*
X145880925Y-70292007D01*
X145848012Y-70235000D01*
X146765000Y-70235000D01*
X146765000Y-69587172D01*
X146764999Y-69587155D01*
X146758598Y-69527627D01*
X146758596Y-69527620D01*
X146708354Y-69392913D01*
X146708350Y-69392906D01*
X146622190Y-69277812D01*
X146622187Y-69277809D01*
X146507093Y-69191649D01*
X146507086Y-69191645D01*
X146372379Y-69141403D01*
X146372372Y-69141401D01*
X146312844Y-69135000D01*
X145665000Y-69135000D01*
X145665000Y-70051988D01*
X145607993Y-70019075D01*
X145480826Y-69985000D01*
X145349174Y-69985000D01*
X145222007Y-70019075D01*
X145165000Y-70051988D01*
X145165000Y-69135000D01*
X144517155Y-69135000D01*
X144457627Y-69141401D01*
X144457620Y-69141403D01*
X144322913Y-69191645D01*
X144322906Y-69191649D01*
X144207812Y-69277809D01*
X144207809Y-69277812D01*
X144121649Y-69392906D01*
X144121646Y-69392912D01*
X144072577Y-69524471D01*
X144030705Y-69580404D01*
X143965241Y-69604821D01*
X143896968Y-69589969D01*
X143868714Y-69568818D01*
X143754786Y-69454890D01*
X143582820Y-69329951D01*
X143393414Y-69233444D01*
X143393413Y-69233443D01*
X143393412Y-69233443D01*
X143191243Y-69167754D01*
X143191241Y-69167753D01*
X143191240Y-69167753D01*
X143029957Y-69142208D01*
X142981287Y-69134500D01*
X142768713Y-69134500D01*
X142720042Y-69142208D01*
X142558760Y-69167753D01*
X142356585Y-69233444D01*
X142167179Y-69329951D01*
X141995213Y-69454890D01*
X141844890Y-69605213D01*
X141719949Y-69777182D01*
X141715484Y-69785946D01*
X141667509Y-69836742D01*
X141599688Y-69853536D01*
X141533553Y-69830998D01*
X141494516Y-69785946D01*
X141490050Y-69777182D01*
X141365109Y-69605213D01*
X141214786Y-69454890D01*
X141042820Y-69329951D01*
X140853414Y-69233444D01*
X140853413Y-69233443D01*
X140853412Y-69233443D01*
X140651243Y-69167754D01*
X140651241Y-69167753D01*
X140651240Y-69167753D01*
X140489957Y-69142208D01*
X140441287Y-69134500D01*
X140228713Y-69134500D01*
X140180042Y-69142208D01*
X140018760Y-69167753D01*
X139816585Y-69233444D01*
X139627179Y-69329951D01*
X139455213Y-69454890D01*
X139304890Y-69605213D01*
X139179949Y-69777182D01*
X139175202Y-69786499D01*
X139127227Y-69837293D01*
X139059405Y-69854087D01*
X138993271Y-69831548D01*
X138954234Y-69786495D01*
X138949622Y-69777444D01*
X138824727Y-69605540D01*
X138824723Y-69605535D01*
X138674464Y-69455276D01*
X138674459Y-69455272D01*
X138502557Y-69330379D01*
X138313215Y-69233903D01*
X138111124Y-69168241D01*
X138045000Y-69157768D01*
X138045000Y-70051988D01*
X137987993Y-70019075D01*
X137860826Y-69985000D01*
X137729174Y-69985000D01*
X137602007Y-70019075D01*
X137545000Y-70051988D01*
X137545000Y-69157768D01*
X137544999Y-69157768D01*
X137478875Y-69168241D01*
X137276784Y-69233903D01*
X137087442Y-69330379D01*
X136915540Y-69455272D01*
X136915535Y-69455276D01*
X136765276Y-69605535D01*
X136765272Y-69605540D01*
X136640379Y-69777442D01*
X136543904Y-69966782D01*
X136478242Y-70168870D01*
X136478242Y-70168873D01*
X136467769Y-70235000D01*
X137361988Y-70235000D01*
X137329075Y-70292007D01*
X137295000Y-70419174D01*
X137295000Y-70550826D01*
X137329075Y-70677993D01*
X137361988Y-70735000D01*
X136467769Y-70735000D01*
X136478242Y-70801126D01*
X136478242Y-70801129D01*
X136543904Y-71003217D01*
X136640379Y-71192557D01*
X136765272Y-71364459D01*
X136765276Y-71364464D01*
X136915535Y-71514723D01*
X136915540Y-71514727D01*
X137087442Y-71639620D01*
X137276782Y-71736095D01*
X137478871Y-71801757D01*
X137545000Y-71812231D01*
X137545000Y-70918012D01*
X137602007Y-70950925D01*
X137729174Y-70985000D01*
X137860826Y-70985000D01*
X137987993Y-70950925D01*
X138045000Y-70918012D01*
X138045000Y-71812230D01*
X138111126Y-71801757D01*
X138111129Y-71801757D01*
X138313217Y-71736095D01*
X138502557Y-71639620D01*
X138674459Y-71514727D01*
X138674464Y-71514723D01*
X138824723Y-71364464D01*
X138824727Y-71364459D01*
X138949620Y-71192558D01*
X138954232Y-71183507D01*
X139002205Y-71132709D01*
X139070025Y-71115912D01*
X139136161Y-71138447D01*
X139175204Y-71183504D01*
X139179949Y-71192817D01*
X139304890Y-71364786D01*
X139455213Y-71515109D01*
X139627179Y-71640048D01*
X139627181Y-71640049D01*
X139627184Y-71640051D01*
X139816588Y-71736557D01*
X140018757Y-71802246D01*
X140228713Y-71835500D01*
X140228714Y-71835500D01*
X140441286Y-71835500D01*
X140441287Y-71835500D01*
X140651243Y-71802246D01*
X140853412Y-71736557D01*
X141042816Y-71640051D01*
X141129478Y-71577088D01*
X141214786Y-71515109D01*
X141214788Y-71515106D01*
X141214792Y-71515104D01*
X141365104Y-71364792D01*
X141365106Y-71364788D01*
X141365109Y-71364786D01*
X141490048Y-71192820D01*
X141490050Y-71192817D01*
X141490051Y-71192816D01*
X141494514Y-71184054D01*
X141542488Y-71133259D01*
X141610308Y-71116463D01*
X141676444Y-71138999D01*
X141715486Y-71184056D01*
X141719951Y-71192820D01*
X141844890Y-71364786D01*
X141995209Y-71515105D01*
X141995214Y-71515109D01*
X142151237Y-71628466D01*
X142193903Y-71683795D01*
X142199882Y-71753409D01*
X142174206Y-71807448D01*
X142170564Y-71811885D01*
X142071319Y-71960415D01*
X142071314Y-71960424D01*
X142002952Y-72125466D01*
X142002950Y-72125472D01*
X141968100Y-72300675D01*
X141968100Y-77042988D01*
X141948415Y-77110027D01*
X141931781Y-77130669D01*
X141026885Y-78035565D01*
X140963724Y-78098726D01*
X140900563Y-78161886D01*
X140801319Y-78310415D01*
X140801314Y-78310424D01*
X140732952Y-78475466D01*
X140732950Y-78475472D01*
X140698100Y-78650675D01*
X140698100Y-82757988D01*
X140678415Y-82825027D01*
X140661781Y-82845669D01*
X139995669Y-83511781D01*
X139934346Y-83545266D01*
X139907988Y-83548100D01*
X134530676Y-83548100D01*
X134355472Y-83582950D01*
X134355466Y-83582952D01*
X134190424Y-83651314D01*
X134190415Y-83651319D01*
X134041885Y-83750564D01*
X134041881Y-83750567D01*
X133915567Y-83876881D01*
X133915564Y-83876885D01*
X133816319Y-84025415D01*
X133816314Y-84025424D01*
X133747952Y-84190466D01*
X133747950Y-84190472D01*
X133713100Y-84365675D01*
X133713100Y-84365678D01*
X133713100Y-84544322D01*
X133713100Y-84544324D01*
X133713099Y-84544324D01*
X121113357Y-84544324D01*
X121538927Y-84118754D01*
X121600248Y-84085271D01*
X121602415Y-84084820D01*
X121742033Y-84057048D01*
X121907078Y-83988684D01*
X122025439Y-83909598D01*
X122092116Y-83888720D01*
X122094330Y-83888700D01*
X127119688Y-83888700D01*
X127186727Y-83908385D01*
X127188565Y-83909589D01*
X127232137Y-83938703D01*
X127386918Y-84002816D01*
X127551228Y-84035499D01*
X127551232Y-84035500D01*
X127551233Y-84035500D01*
X127718768Y-84035500D01*
X127718769Y-84035499D01*
X127883082Y-84002816D01*
X128037863Y-83938703D01*
X128177162Y-83845626D01*
X128295626Y-83727162D01*
X128388703Y-83587863D01*
X128452816Y-83433082D01*
X128485500Y-83268767D01*
X128485500Y-83101233D01*
X128452816Y-82936918D01*
X128388703Y-82782137D01*
X128357537Y-82735494D01*
X128295626Y-82642837D01*
X128177162Y-82524373D01*
X128037860Y-82431295D01*
X127883082Y-82367184D01*
X127883074Y-82367182D01*
X127718771Y-82334500D01*
X127718767Y-82334500D01*
X127551233Y-82334500D01*
X127551228Y-82334500D01*
X127386925Y-82367182D01*
X127386917Y-82367184D01*
X127232139Y-82431295D01*
X127188579Y-82460402D01*
X127121902Y-82481280D01*
X127119688Y-82481300D01*
X122107712Y-82481300D01*
X122040673Y-82461615D01*
X122020031Y-82444981D01*
X120323219Y-80748169D01*
X120289734Y-80686846D01*
X120286900Y-80660488D01*
X120286900Y-77703486D01*
X120306585Y-77636447D01*
X120310582Y-77630600D01*
X120310940Y-77630106D01*
X120310945Y-77630102D01*
X120423865Y-77474681D01*
X120511082Y-77303509D01*
X120511144Y-77303319D01*
X120532069Y-77238919D01*
X120571506Y-77181243D01*
X120635864Y-77154044D01*
X120704711Y-77165958D01*
X120756187Y-77213202D01*
X120767931Y-77238919D01*
X120788915Y-77303504D01*
X120788918Y-77303509D01*
X120876135Y-77474681D01*
X120989055Y-77630102D01*
X121124898Y-77765945D01*
X121280319Y-77878865D01*
X121450576Y-77965616D01*
X121451493Y-77966083D01*
X121542845Y-77995764D01*
X121634199Y-78025447D01*
X121823945Y-78055500D01*
X121823946Y-78055500D01*
X122016054Y-78055500D01*
X122016055Y-78055500D01*
X122205801Y-78025447D01*
X122388509Y-77966082D01*
X122559681Y-77878865D01*
X122715102Y-77765945D01*
X122850945Y-77630102D01*
X122963865Y-77474681D01*
X123051082Y-77303509D01*
X123110447Y-77120801D01*
X123140500Y-76931055D01*
X123140500Y-76738945D01*
X123110447Y-76549199D01*
X123072332Y-76431891D01*
X123051083Y-76366493D01*
X123051082Y-76366491D01*
X122963865Y-76195319D01*
X122850945Y-76039898D01*
X122715102Y-75904055D01*
X122559681Y-75791135D01*
X122388506Y-75703916D01*
X122205802Y-75644553D01*
X122110928Y-75629526D01*
X122016055Y-75614500D01*
X121823945Y-75614500D01*
X121760696Y-75624517D01*
X121634197Y-75644553D01*
X121451493Y-75703916D01*
X121280318Y-75791135D01*
X121250502Y-75812798D01*
X121124898Y-75904055D01*
X121124896Y-75904057D01*
X121124895Y-75904057D01*
X120989057Y-76039895D01*
X120989057Y-76039896D01*
X120989055Y-76039898D01*
X120940560Y-76106645D01*
X120876135Y-76195318D01*
X120788916Y-76366493D01*
X120767931Y-76431081D01*
X120728494Y-76488756D01*
X120664135Y-76515955D01*
X120595289Y-76504041D01*
X120543813Y-76456797D01*
X120532069Y-76431081D01*
X120511083Y-76366493D01*
X120511082Y-76366491D01*
X120423865Y-76195319D01*
X120310945Y-76039898D01*
X120175102Y-75904055D01*
X120019681Y-75791135D01*
X119849422Y-75704383D01*
X119848504Y-75703915D01*
X119783919Y-75682931D01*
X119726243Y-75643494D01*
X119699044Y-75579136D01*
X119710958Y-75510289D01*
X119758202Y-75458813D01*
X119783919Y-75447069D01*
X119848504Y-75426084D01*
X119848506Y-75426082D01*
X119848509Y-75426082D01*
X120019681Y-75338865D01*
X120175102Y-75225945D01*
X120310945Y-75090102D01*
X120423865Y-74934681D01*
X120511082Y-74763509D01*
X120570447Y-74580801D01*
X120600500Y-74391055D01*
X120600500Y-74198945D01*
X120570447Y-74009199D01*
X120523732Y-73865424D01*
X120511083Y-73826493D01*
X120511082Y-73826491D01*
X120423865Y-73655319D01*
X120310945Y-73499898D01*
X120175102Y-73364055D01*
X120019681Y-73251135D01*
X119848506Y-73163916D01*
X119665802Y-73104553D01*
X119570928Y-73089526D01*
X119476055Y-73074500D01*
X119283945Y-73074500D01*
X119220696Y-73084517D01*
X119094197Y-73104553D01*
X118911493Y-73163916D01*
X118740318Y-73251135D01*
X118651645Y-73315560D01*
X118584898Y-73364055D01*
X118584896Y-73364057D01*
X118584895Y-73364057D01*
X118449057Y-73499895D01*
X118449057Y-73499896D01*
X118449055Y-73499898D01*
X118400560Y-73566645D01*
X118336135Y-73655318D01*
X118248916Y-73826493D01*
X118189553Y-74009197D01*
X118159500Y-74198945D01*
X118159500Y-74391054D01*
X118189553Y-74580802D01*
X118248916Y-74763506D01*
X118248918Y-74763509D01*
X118336135Y-74934681D01*
X118449055Y-75090102D01*
X118584898Y-75225945D01*
X118740319Y-75338865D01*
X118911491Y-75426082D01*
X118911493Y-75426083D01*
X118976081Y-75447069D01*
X119033756Y-75486506D01*
X119060955Y-75550865D01*
X119049041Y-75619711D01*
X119001797Y-75671187D01*
X118976081Y-75682931D01*
X118911493Y-75703916D01*
X118740318Y-75791135D01*
X118710502Y-75812798D01*
X118584898Y-75904055D01*
X118584896Y-75904057D01*
X118584895Y-75904057D01*
X118449057Y-76039895D01*
X118449057Y-76039896D01*
X118449055Y-76039898D01*
X118400560Y-76106645D01*
X118336135Y-76195318D01*
X118248917Y-76366492D01*
X118227667Y-76431892D01*
X118188229Y-76489567D01*
X118123870Y-76516765D01*
X118055024Y-76504850D01*
X118003548Y-76457605D01*
X117991805Y-76431891D01*
X117970616Y-76366680D01*
X117883434Y-76195577D01*
X117862201Y-76166352D01*
X117862200Y-76166351D01*
X117240000Y-76788552D01*
X117240000Y-76782339D01*
X117212741Y-76680606D01*
X117160080Y-76589394D01*
X117085606Y-76514920D01*
X116994394Y-76462259D01*
X116892661Y-76435000D01*
X116886447Y-76435000D01*
X117508646Y-75812798D01*
X117479415Y-75791561D01*
X117308321Y-75704383D01*
X117125684Y-75645040D01*
X116936015Y-75615000D01*
X116743985Y-75615000D01*
X116554315Y-75645040D01*
X116371678Y-75704383D01*
X116200578Y-75791564D01*
X116171352Y-75812798D01*
X116171351Y-75812798D01*
X116793554Y-76435000D01*
X116787339Y-76435000D01*
X116685606Y-76462259D01*
X116594394Y-76514920D01*
X116519920Y-76589394D01*
X116467259Y-76680606D01*
X116440000Y-76782339D01*
X116440000Y-76788553D01*
X115817798Y-76166351D01*
X115817798Y-76166352D01*
X115796564Y-76195578D01*
X115709383Y-76366678D01*
X115650040Y-76549315D01*
X115620000Y-76738984D01*
X114300000Y-76738984D01*
X114300000Y-67823711D01*
X116259500Y-67823711D01*
X116259500Y-68066288D01*
X116291161Y-68306785D01*
X116353947Y-68541104D01*
X116446773Y-68765205D01*
X116446776Y-68765212D01*
X116568064Y-68975289D01*
X116568066Y-68975292D01*
X116568067Y-68975293D01*
X116715733Y-69167736D01*
X116715739Y-69167743D01*
X116887256Y-69339260D01*
X116887263Y-69339266D01*
X117000321Y-69426018D01*
X117079711Y-69486936D01*
X117289788Y-69608224D01*
X117513900Y-69701054D01*
X117748211Y-69763838D01*
X117928586Y-69787584D01*
X117988711Y-69795500D01*
X117988712Y-69795500D01*
X118231289Y-69795500D01*
X118279388Y-69789167D01*
X118471789Y-69763838D01*
X118706100Y-69701054D01*
X118930212Y-69608224D01*
X119140289Y-69486936D01*
X119332738Y-69339265D01*
X119504265Y-69167738D01*
X119651936Y-68975289D01*
X119773224Y-68765212D01*
X119866054Y-68541100D01*
X119928838Y-68306789D01*
X119960500Y-68066288D01*
X119960500Y-67823712D01*
X119960500Y-67823711D01*
X171504500Y-67823711D01*
X171504500Y-68066288D01*
X171536161Y-68306785D01*
X171598947Y-68541104D01*
X171691773Y-68765205D01*
X171691776Y-68765212D01*
X171813064Y-68975289D01*
X171813066Y-68975292D01*
X171813067Y-68975293D01*
X171960733Y-69167736D01*
X171960739Y-69167743D01*
X172132256Y-69339260D01*
X172132263Y-69339266D01*
X172245321Y-69426018D01*
X172324711Y-69486936D01*
X172534788Y-69608224D01*
X172758900Y-69701054D01*
X172993211Y-69763838D01*
X173173586Y-69787584D01*
X173233711Y-69795500D01*
X173233712Y-69795500D01*
X173476289Y-69795500D01*
X173524388Y-69789167D01*
X173716789Y-69763838D01*
X173951100Y-69701054D01*
X174175212Y-69608224D01*
X174385289Y-69486936D01*
X174577738Y-69339265D01*
X174749265Y-69167738D01*
X174896936Y-68975289D01*
X175018224Y-68765212D01*
X175111054Y-68541100D01*
X175173838Y-68306789D01*
X175205500Y-68066288D01*
X175205500Y-67823712D01*
X175173838Y-67583211D01*
X175111054Y-67348900D01*
X175018224Y-67124788D01*
X174896936Y-66914711D01*
X174749265Y-66722262D01*
X174749260Y-66722256D01*
X174577743Y-66550739D01*
X174577736Y-66550733D01*
X174385293Y-66403067D01*
X174385292Y-66403066D01*
X174385289Y-66403064D01*
X174175212Y-66281776D01*
X174175205Y-66281773D01*
X173951104Y-66188947D01*
X173716785Y-66126161D01*
X173476289Y-66094500D01*
X173476288Y-66094500D01*
X173233712Y-66094500D01*
X173233711Y-66094500D01*
X172993214Y-66126161D01*
X172758895Y-66188947D01*
X172534794Y-66281773D01*
X172534785Y-66281777D01*
X172324706Y-66403067D01*
X172132263Y-66550733D01*
X172132256Y-66550739D01*
X171960739Y-66722256D01*
X171960733Y-66722263D01*
X171813067Y-66914706D01*
X171691777Y-67124785D01*
X171691773Y-67124794D01*
X171598947Y-67348895D01*
X171536161Y-67583214D01*
X171504500Y-67823711D01*
X119960500Y-67823711D01*
X119928838Y-67583211D01*
X119866054Y-67348900D01*
X119773224Y-67124788D01*
X119651936Y-66914711D01*
X119504265Y-66722262D01*
X119504260Y-66722256D01*
X119332743Y-66550739D01*
X119332736Y-66550733D01*
X119140293Y-66403067D01*
X119140292Y-66403066D01*
X119140289Y-66403064D01*
X118930212Y-66281776D01*
X118930205Y-66281773D01*
X118706104Y-66188947D01*
X118471785Y-66126161D01*
X118231289Y-66094500D01*
X118231288Y-66094500D01*
X117988712Y-66094500D01*
X117988711Y-66094500D01*
X117748214Y-66126161D01*
X117513895Y-66188947D01*
X117289794Y-66281773D01*
X117289785Y-66281777D01*
X117079706Y-66403067D01*
X116887263Y-66550733D01*
X116887256Y-66550739D01*
X116715739Y-66722256D01*
X116715733Y-66722263D01*
X116568067Y-66914706D01*
X116446777Y-67124785D01*
X116446773Y-67124794D01*
X116353947Y-67348895D01*
X116291161Y-67583214D01*
X116259500Y-67823711D01*
X114300000Y-67823711D01*
X114300000Y-64259000D01*
X114319685Y-64191961D01*
X114372489Y-64146206D01*
X114424000Y-64135000D01*
X177041000Y-64135000D01*
X177108039Y-64154685D01*
G37*
%TD.AperFunction*%
%TA.AperFunction,Conductor*%
G36*
X135424075Y-115127993D02*
G01*
X135489901Y-115242007D01*
X135582993Y-115335099D01*
X135697007Y-115400925D01*
X135760590Y-115417962D01*
X135128282Y-116050269D01*
X135129935Y-116071271D01*
X135115571Y-116139648D01*
X135066520Y-116189405D01*
X135006317Y-116205000D01*
X134281237Y-116205000D01*
X134214198Y-116185315D01*
X134168443Y-116132511D01*
X134158499Y-116063353D01*
X134187524Y-115999797D01*
X134208352Y-115980682D01*
X134229785Y-115965109D01*
X134229783Y-115965109D01*
X134229792Y-115965104D01*
X134380104Y-115814792D01*
X134380106Y-115814788D01*
X134380109Y-115814786D01*
X134465890Y-115696717D01*
X134505051Y-115642816D01*
X134509793Y-115633508D01*
X134557763Y-115582711D01*
X134625583Y-115565911D01*
X134691719Y-115588445D01*
X134730763Y-115633500D01*
X134735373Y-115642547D01*
X134774728Y-115696716D01*
X135407037Y-115064408D01*
X135424075Y-115127993D01*
G37*
%TD.AperFunction*%
%TA.AperFunction,Conductor*%
G36*
X137005270Y-115696717D02*
G01*
X137005270Y-115696716D01*
X137044622Y-115642555D01*
X137049232Y-115633507D01*
X137097205Y-115582709D01*
X137165025Y-115565912D01*
X137231161Y-115588447D01*
X137270204Y-115633504D01*
X137274949Y-115642817D01*
X137399890Y-115814786D01*
X137550209Y-115965105D01*
X137550214Y-115965109D01*
X137571648Y-115980682D01*
X137614314Y-116036012D01*
X137620293Y-116105625D01*
X137587688Y-116167420D01*
X137526849Y-116201777D01*
X137498763Y-116205000D01*
X136773682Y-116205000D01*
X136706643Y-116185315D01*
X136660888Y-116132511D01*
X136650064Y-116071271D01*
X136651716Y-116050269D01*
X136019408Y-115417962D01*
X136082993Y-115400925D01*
X136197007Y-115335099D01*
X136290099Y-115242007D01*
X136355925Y-115127993D01*
X136372962Y-115064408D01*
X137005270Y-115696717D01*
G37*
%TD.AperFunction*%
%TA.AperFunction,Conductor*%
G36*
X143044075Y-115127993D02*
G01*
X143109901Y-115242007D01*
X143202993Y-115335099D01*
X143317007Y-115400925D01*
X143380590Y-115417962D01*
X142748282Y-116050269D01*
X142749935Y-116071271D01*
X142735571Y-116139648D01*
X142686520Y-116189405D01*
X142626317Y-116205000D01*
X141901237Y-116205000D01*
X141834198Y-116185315D01*
X141788443Y-116132511D01*
X141778499Y-116063353D01*
X141807524Y-115999797D01*
X141828352Y-115980682D01*
X141849785Y-115965109D01*
X141849783Y-115965109D01*
X141849792Y-115965104D01*
X142000104Y-115814792D01*
X142000106Y-115814788D01*
X142000109Y-115814786D01*
X142085890Y-115696717D01*
X142125051Y-115642816D01*
X142129793Y-115633508D01*
X142177763Y-115582711D01*
X142245583Y-115565911D01*
X142311719Y-115588445D01*
X142350763Y-115633500D01*
X142355373Y-115642547D01*
X142394728Y-115696716D01*
X143027037Y-115064408D01*
X143044075Y-115127993D01*
G37*
%TD.AperFunction*%
%TA.AperFunction,Conductor*%
G36*
X144625270Y-115696717D02*
G01*
X144625270Y-115696716D01*
X144664622Y-115642555D01*
X144669232Y-115633507D01*
X144717205Y-115582709D01*
X144785025Y-115565912D01*
X144851161Y-115588447D01*
X144890204Y-115633504D01*
X144894949Y-115642817D01*
X145019890Y-115814786D01*
X145170209Y-115965105D01*
X145170214Y-115965109D01*
X145191648Y-115980682D01*
X145234314Y-116036012D01*
X145240293Y-116105625D01*
X145207688Y-116167420D01*
X145146849Y-116201777D01*
X145118763Y-116205000D01*
X144393682Y-116205000D01*
X144326643Y-116185315D01*
X144280888Y-116132511D01*
X144270064Y-116071271D01*
X144271716Y-116050269D01*
X143639408Y-115417962D01*
X143702993Y-115400925D01*
X143817007Y-115335099D01*
X143910099Y-115242007D01*
X143975925Y-115127993D01*
X143992962Y-115064409D01*
X144625270Y-115696717D01*
G37*
%TD.AperFunction*%
%TA.AperFunction,Conductor*%
G36*
X175277226Y-100330524D02*
G01*
X175289810Y-100329985D01*
X175309674Y-100341581D01*
X175331444Y-100348999D01*
X175340719Y-100359703D01*
X175350151Y-100365209D01*
X175370486Y-100394056D01*
X175374951Y-100402820D01*
X175499890Y-100574786D01*
X175650213Y-100725109D01*
X175822179Y-100850048D01*
X175822181Y-100850049D01*
X175822184Y-100850051D01*
X176011588Y-100946557D01*
X176213757Y-101012246D01*
X176423713Y-101045500D01*
X176423714Y-101045500D01*
X176636286Y-101045500D01*
X176636287Y-101045500D01*
X176846243Y-101012246D01*
X177002684Y-100961414D01*
X177072523Y-100959420D01*
X177132356Y-100995500D01*
X177163184Y-101058201D01*
X177165000Y-101079346D01*
X177165000Y-116081000D01*
X177145315Y-116148039D01*
X177092511Y-116193794D01*
X177041000Y-116205000D01*
X167301237Y-116205000D01*
X167234198Y-116185315D01*
X167188443Y-116132511D01*
X167178499Y-116063353D01*
X167207524Y-115999797D01*
X167228352Y-115980682D01*
X167249785Y-115965109D01*
X167249783Y-115965109D01*
X167249792Y-115965104D01*
X167400104Y-115814792D01*
X167400106Y-115814788D01*
X167400109Y-115814786D01*
X167525048Y-115642820D01*
X167525047Y-115642820D01*
X167525051Y-115642816D01*
X167621557Y-115453412D01*
X167687246Y-115251243D01*
X167720500Y-115041287D01*
X167720500Y-114828713D01*
X167687246Y-114618757D01*
X167621557Y-114416588D01*
X167525051Y-114227184D01*
X167525049Y-114227181D01*
X167525048Y-114227179D01*
X167400109Y-114055213D01*
X167286569Y-113941673D01*
X167253084Y-113880350D01*
X167258068Y-113810658D01*
X167299940Y-113754725D01*
X167330915Y-113737810D01*
X167462331Y-113688796D01*
X167577546Y-113602546D01*
X167663796Y-113487331D01*
X167714091Y-113352483D01*
X167720500Y-113292873D01*
X167720499Y-112273711D01*
X171504500Y-112273711D01*
X171504500Y-112516288D01*
X171536161Y-112756785D01*
X171598947Y-112991104D01*
X171691773Y-113215205D01*
X171691776Y-113215212D01*
X171813064Y-113425289D01*
X171813066Y-113425292D01*
X171813067Y-113425293D01*
X171960733Y-113617736D01*
X171960739Y-113617743D01*
X172132256Y-113789260D01*
X172132262Y-113789265D01*
X172324711Y-113936936D01*
X172534788Y-114058224D01*
X172758900Y-114151054D01*
X172993211Y-114213838D01*
X173165387Y-114236505D01*
X173233711Y-114245500D01*
X173233712Y-114245500D01*
X173476289Y-114245500D01*
X173544613Y-114236505D01*
X173716789Y-114213838D01*
X173951100Y-114151054D01*
X174175212Y-114058224D01*
X174385289Y-113936936D01*
X174577738Y-113789265D01*
X174749265Y-113617738D01*
X174896936Y-113425289D01*
X175018224Y-113215212D01*
X175111054Y-112991100D01*
X175173838Y-112756789D01*
X175205500Y-112516288D01*
X175205500Y-112273712D01*
X175173838Y-112033211D01*
X175111054Y-111798900D01*
X175018224Y-111574788D01*
X174896936Y-111364711D01*
X174801530Y-111240375D01*
X174749266Y-111172263D01*
X174749260Y-111172256D01*
X174577743Y-111000739D01*
X174577736Y-111000733D01*
X174385293Y-110853067D01*
X174385292Y-110853066D01*
X174385289Y-110853064D01*
X174175212Y-110731776D01*
X174175205Y-110731773D01*
X173951104Y-110638947D01*
X173716785Y-110576161D01*
X173476289Y-110544500D01*
X173476288Y-110544500D01*
X173233712Y-110544500D01*
X173233711Y-110544500D01*
X172993214Y-110576161D01*
X172758895Y-110638947D01*
X172534794Y-110731773D01*
X172534785Y-110731777D01*
X172324706Y-110853067D01*
X172132263Y-111000733D01*
X172132256Y-111000739D01*
X171960739Y-111172256D01*
X171960733Y-111172263D01*
X171813067Y-111364706D01*
X171691777Y-111574785D01*
X171691773Y-111574794D01*
X171598947Y-111798895D01*
X171536161Y-112033214D01*
X171504500Y-112273711D01*
X167720499Y-112273711D01*
X167720499Y-111497128D01*
X167714091Y-111437517D01*
X167712810Y-111434083D01*
X167663797Y-111302671D01*
X167663793Y-111302664D01*
X167577547Y-111187455D01*
X167577544Y-111187452D01*
X167462335Y-111101206D01*
X167462328Y-111101202D01*
X167327482Y-111050908D01*
X167327483Y-111050908D01*
X167267883Y-111044501D01*
X167267881Y-111044500D01*
X167267873Y-111044500D01*
X167267864Y-111044500D01*
X165472129Y-111044500D01*
X165472123Y-111044501D01*
X165412516Y-111050908D01*
X165277671Y-111101202D01*
X165277664Y-111101206D01*
X165162455Y-111187452D01*
X165162452Y-111187455D01*
X165076206Y-111302664D01*
X165076203Y-111302669D01*
X165027189Y-111434083D01*
X164985317Y-111490016D01*
X164919853Y-111514433D01*
X164851580Y-111499581D01*
X164823326Y-111478430D01*
X164709786Y-111364890D01*
X164537820Y-111239951D01*
X164348414Y-111143444D01*
X164348413Y-111143443D01*
X164348412Y-111143443D01*
X164146243Y-111077754D01*
X164146241Y-111077753D01*
X164146240Y-111077753D01*
X163984957Y-111052208D01*
X163936287Y-111044500D01*
X163723713Y-111044500D01*
X163675042Y-111052208D01*
X163513760Y-111077753D01*
X163311585Y-111143444D01*
X163122179Y-111239951D01*
X162950213Y-111364890D01*
X162799890Y-111515213D01*
X162674949Y-111687182D01*
X162670484Y-111695946D01*
X162622509Y-111746742D01*
X162554688Y-111763536D01*
X162488553Y-111740998D01*
X162449516Y-111695946D01*
X162445050Y-111687182D01*
X162320109Y-111515213D01*
X162169786Y-111364890D01*
X161997820Y-111239951D01*
X161808414Y-111143444D01*
X161808413Y-111143443D01*
X161808412Y-111143443D01*
X161606243Y-111077754D01*
X161606241Y-111077753D01*
X161606240Y-111077753D01*
X161444957Y-111052208D01*
X161396287Y-111044500D01*
X161183713Y-111044500D01*
X161135042Y-111052208D01*
X160973760Y-111077753D01*
X160771585Y-111143444D01*
X160582179Y-111239951D01*
X160410213Y-111364890D01*
X160259890Y-111515213D01*
X160134949Y-111687182D01*
X160130484Y-111695946D01*
X160082509Y-111746742D01*
X160014688Y-111763536D01*
X159948553Y-111740998D01*
X159909516Y-111695946D01*
X159905050Y-111687182D01*
X159780109Y-111515213D01*
X159629786Y-111364890D01*
X159457820Y-111239951D01*
X159268414Y-111143444D01*
X159268413Y-111143443D01*
X159268412Y-111143443D01*
X159066243Y-111077754D01*
X159066241Y-111077753D01*
X159066240Y-111077753D01*
X158904957Y-111052208D01*
X158856287Y-111044500D01*
X158643713Y-111044500D01*
X158628352Y-111046933D01*
X158433759Y-111077753D01*
X158346018Y-111106262D01*
X158276176Y-111108257D01*
X158216344Y-111072176D01*
X158185516Y-111009475D01*
X158183700Y-110988331D01*
X158183700Y-110420692D01*
X158179902Y-110401602D01*
X158179902Y-110401598D01*
X158156659Y-110284745D01*
X158156656Y-110284736D01*
X158136929Y-110237111D01*
X158103611Y-110156673D01*
X158026600Y-110041417D01*
X158026598Y-110041414D01*
X157925487Y-109940303D01*
X157925456Y-109940274D01*
X156950019Y-108964837D01*
X156916534Y-108903514D01*
X156913700Y-108877156D01*
X156913700Y-100916223D01*
X156933385Y-100849184D01*
X156964813Y-100815905D01*
X157089792Y-100725104D01*
X157240104Y-100574792D01*
X157240106Y-100574788D01*
X157240109Y-100574786D01*
X157365048Y-100402820D01*
X157365047Y-100402820D01*
X157365051Y-100402816D01*
X157369514Y-100394054D01*
X157417488Y-100343259D01*
X157485308Y-100326463D01*
X157551444Y-100348999D01*
X157590486Y-100394056D01*
X157594951Y-100402820D01*
X157719890Y-100574786D01*
X157870213Y-100725109D01*
X158042179Y-100850048D01*
X158042181Y-100850049D01*
X158042184Y-100850051D01*
X158231588Y-100946557D01*
X158433757Y-101012246D01*
X158643713Y-101045500D01*
X158643714Y-101045500D01*
X158856286Y-101045500D01*
X158856287Y-101045500D01*
X159066243Y-101012246D01*
X159268412Y-100946557D01*
X159457816Y-100850051D01*
X159504816Y-100815904D01*
X159629786Y-100725109D01*
X159629788Y-100725106D01*
X159629792Y-100725104D01*
X159780104Y-100574792D01*
X159780106Y-100574788D01*
X159780109Y-100574786D01*
X159905048Y-100402820D01*
X159905047Y-100402820D01*
X159905051Y-100402816D01*
X159909514Y-100394054D01*
X159957488Y-100343259D01*
X160025308Y-100326463D01*
X160091444Y-100348999D01*
X160130486Y-100394056D01*
X160134951Y-100402820D01*
X160259890Y-100574786D01*
X160410213Y-100725109D01*
X160582179Y-100850048D01*
X160582181Y-100850049D01*
X160582184Y-100850051D01*
X160771588Y-100946557D01*
X160973757Y-101012246D01*
X161183713Y-101045500D01*
X161183714Y-101045500D01*
X161396286Y-101045500D01*
X161396287Y-101045500D01*
X161606243Y-101012246D01*
X161808412Y-100946557D01*
X161997816Y-100850051D01*
X162044816Y-100815904D01*
X162169786Y-100725109D01*
X162169788Y-100725106D01*
X162169792Y-100725104D01*
X162320104Y-100574792D01*
X162320106Y-100574788D01*
X162320109Y-100574786D01*
X162445048Y-100402820D01*
X162445047Y-100402820D01*
X162445051Y-100402816D01*
X162449514Y-100394054D01*
X162497488Y-100343259D01*
X162565308Y-100326463D01*
X162631444Y-100348999D01*
X162670486Y-100394056D01*
X162674951Y-100402820D01*
X162799890Y-100574786D01*
X162950213Y-100725109D01*
X163122179Y-100850048D01*
X163122181Y-100850049D01*
X163122184Y-100850051D01*
X163311588Y-100946557D01*
X163513757Y-101012246D01*
X163723713Y-101045500D01*
X163723714Y-101045500D01*
X163936286Y-101045500D01*
X163936287Y-101045500D01*
X164146243Y-101012246D01*
X164348412Y-100946557D01*
X164537816Y-100850051D01*
X164584816Y-100815904D01*
X164709786Y-100725109D01*
X164709788Y-100725106D01*
X164709792Y-100725104D01*
X164860104Y-100574792D01*
X164860106Y-100574788D01*
X164860109Y-100574786D01*
X164985048Y-100402820D01*
X164985047Y-100402820D01*
X164985051Y-100402816D01*
X164989514Y-100394054D01*
X165037488Y-100343259D01*
X165105308Y-100326463D01*
X165171444Y-100348999D01*
X165210486Y-100394056D01*
X165214951Y-100402820D01*
X165339890Y-100574786D01*
X165490213Y-100725109D01*
X165662179Y-100850048D01*
X165662181Y-100850049D01*
X165662184Y-100850051D01*
X165851588Y-100946557D01*
X166053757Y-101012246D01*
X166263713Y-101045500D01*
X166263714Y-101045500D01*
X166476286Y-101045500D01*
X166476287Y-101045500D01*
X166686243Y-101012246D01*
X166888412Y-100946557D01*
X167077816Y-100850051D01*
X167124816Y-100815904D01*
X167249786Y-100725109D01*
X167249788Y-100725106D01*
X167249792Y-100725104D01*
X167400104Y-100574792D01*
X167400106Y-100574788D01*
X167400109Y-100574786D01*
X167525048Y-100402820D01*
X167525047Y-100402820D01*
X167525051Y-100402816D01*
X167529514Y-100394054D01*
X167577488Y-100343259D01*
X167645308Y-100326463D01*
X167711444Y-100348999D01*
X167750486Y-100394056D01*
X167754951Y-100402820D01*
X167879890Y-100574786D01*
X168030213Y-100725109D01*
X168202179Y-100850048D01*
X168202181Y-100850049D01*
X168202184Y-100850051D01*
X168391588Y-100946557D01*
X168593757Y-101012246D01*
X168803713Y-101045500D01*
X168803714Y-101045500D01*
X169016286Y-101045500D01*
X169016287Y-101045500D01*
X169226243Y-101012246D01*
X169428412Y-100946557D01*
X169617816Y-100850051D01*
X169664816Y-100815904D01*
X169789786Y-100725109D01*
X169789788Y-100725106D01*
X169789792Y-100725104D01*
X169940104Y-100574792D01*
X169940106Y-100574788D01*
X169940109Y-100574786D01*
X170065048Y-100402820D01*
X170065047Y-100402820D01*
X170065051Y-100402816D01*
X170069514Y-100394054D01*
X170117488Y-100343259D01*
X170185308Y-100326463D01*
X170251444Y-100348999D01*
X170290486Y-100394056D01*
X170294951Y-100402820D01*
X170419890Y-100574786D01*
X170570213Y-100725109D01*
X170742179Y-100850048D01*
X170742181Y-100850049D01*
X170742184Y-100850051D01*
X170931588Y-100946557D01*
X171133757Y-101012246D01*
X171343713Y-101045500D01*
X171343714Y-101045500D01*
X171556286Y-101045500D01*
X171556287Y-101045500D01*
X171766243Y-101012246D01*
X171968412Y-100946557D01*
X172157816Y-100850051D01*
X172204816Y-100815904D01*
X172329786Y-100725109D01*
X172329788Y-100725106D01*
X172329792Y-100725104D01*
X172480104Y-100574792D01*
X172480106Y-100574788D01*
X172480109Y-100574786D01*
X172605048Y-100402820D01*
X172605047Y-100402820D01*
X172605051Y-100402816D01*
X172609514Y-100394054D01*
X172657488Y-100343259D01*
X172725308Y-100326463D01*
X172791444Y-100348999D01*
X172830486Y-100394056D01*
X172834951Y-100402820D01*
X172959890Y-100574786D01*
X173110213Y-100725109D01*
X173282179Y-100850048D01*
X173282181Y-100850049D01*
X173282184Y-100850051D01*
X173471588Y-100946557D01*
X173673757Y-101012246D01*
X173883713Y-101045500D01*
X173883714Y-101045500D01*
X174096286Y-101045500D01*
X174096287Y-101045500D01*
X174306243Y-101012246D01*
X174508412Y-100946557D01*
X174697816Y-100850051D01*
X174744816Y-100815904D01*
X174869786Y-100725109D01*
X174869788Y-100725106D01*
X174869792Y-100725104D01*
X175020104Y-100574792D01*
X175020106Y-100574788D01*
X175020109Y-100574786D01*
X175145048Y-100402820D01*
X175145047Y-100402820D01*
X175145051Y-100402816D01*
X175149514Y-100394054D01*
X175158160Y-100384900D01*
X175162897Y-100373232D01*
X175181696Y-100359979D01*
X175197488Y-100343259D01*
X175209710Y-100340231D01*
X175220004Y-100332976D01*
X175242985Y-100331991D01*
X175265308Y-100326463D01*
X175277226Y-100330524D01*
G37*
%TD.AperFunction*%
%TA.AperFunction,Conductor*%
G36*
X135424075Y-112587993D02*
G01*
X135489901Y-112702007D01*
X135582993Y-112795099D01*
X135697007Y-112860925D01*
X135760591Y-112877962D01*
X135159971Y-113478581D01*
X135238711Y-113595895D01*
X135239920Y-113599729D01*
X135242844Y-113602491D01*
X135250343Y-113632778D01*
X135259727Y-113662529D01*
X135258671Y-113666408D01*
X135259638Y-113670312D01*
X135249573Y-113699844D01*
X135241383Y-113729947D01*
X135238397Y-113732640D01*
X135237100Y-113736447D01*
X135192051Y-113775483D01*
X135182440Y-113780380D01*
X135128282Y-113819727D01*
X135128282Y-113819728D01*
X135760591Y-114452037D01*
X135697007Y-114469075D01*
X135582993Y-114534901D01*
X135489901Y-114627993D01*
X135424075Y-114742007D01*
X135407037Y-114805591D01*
X134774728Y-114173282D01*
X134774727Y-114173282D01*
X134735380Y-114227440D01*
X134735376Y-114227446D01*
X134730760Y-114236505D01*
X134682781Y-114287297D01*
X134614959Y-114304087D01*
X134548826Y-114281543D01*
X134509794Y-114236493D01*
X134505051Y-114227184D01*
X134505049Y-114227181D01*
X134505048Y-114227179D01*
X134380109Y-114055213D01*
X134229786Y-113904890D01*
X134057820Y-113779951D01*
X134057115Y-113779591D01*
X134049054Y-113775485D01*
X133998259Y-113727512D01*
X133981463Y-113659692D01*
X134003999Y-113593556D01*
X134049054Y-113554515D01*
X134057816Y-113550051D01*
X134144138Y-113487335D01*
X134229786Y-113425109D01*
X134229788Y-113425106D01*
X134229792Y-113425104D01*
X134380104Y-113274792D01*
X134380106Y-113274788D01*
X134380109Y-113274786D01*
X134465890Y-113156717D01*
X134505051Y-113102816D01*
X134509793Y-113093508D01*
X134557763Y-113042711D01*
X134625583Y-113025911D01*
X134691719Y-113048445D01*
X134730763Y-113093500D01*
X134735373Y-113102547D01*
X134774728Y-113156716D01*
X135407037Y-112524408D01*
X135424075Y-112587993D01*
G37*
%TD.AperFunction*%
%TA.AperFunction,Conductor*%
G36*
X143044075Y-112587993D02*
G01*
X143109901Y-112702007D01*
X143202993Y-112795099D01*
X143317007Y-112860925D01*
X143380591Y-112877962D01*
X142779971Y-113478581D01*
X142858711Y-113595895D01*
X142859920Y-113599729D01*
X142862844Y-113602491D01*
X142870343Y-113632778D01*
X142879727Y-113662529D01*
X142878671Y-113666408D01*
X142879638Y-113670312D01*
X142869573Y-113699844D01*
X142861383Y-113729947D01*
X142858397Y-113732640D01*
X142857100Y-113736447D01*
X142812051Y-113775483D01*
X142802440Y-113780380D01*
X142748282Y-113819727D01*
X142748282Y-113819728D01*
X143380591Y-114452037D01*
X143317007Y-114469075D01*
X143202993Y-114534901D01*
X143109901Y-114627993D01*
X143044075Y-114742007D01*
X143027037Y-114805591D01*
X142394728Y-114173282D01*
X142394727Y-114173282D01*
X142355380Y-114227440D01*
X142355376Y-114227446D01*
X142350760Y-114236505D01*
X142302781Y-114287297D01*
X142234959Y-114304087D01*
X142168826Y-114281543D01*
X142129794Y-114236493D01*
X142125051Y-114227184D01*
X142125049Y-114227181D01*
X142125048Y-114227179D01*
X142000109Y-114055213D01*
X141849786Y-113904890D01*
X141677820Y-113779951D01*
X141677115Y-113779591D01*
X141669054Y-113775485D01*
X141618259Y-113727512D01*
X141601463Y-113659692D01*
X141623999Y-113593556D01*
X141669054Y-113554515D01*
X141677816Y-113550051D01*
X141764138Y-113487335D01*
X141849786Y-113425109D01*
X141849788Y-113425106D01*
X141849792Y-113425104D01*
X142000104Y-113274792D01*
X142000106Y-113274788D01*
X142000109Y-113274786D01*
X142085890Y-113156717D01*
X142125051Y-113102816D01*
X142129793Y-113093508D01*
X142177763Y-113042711D01*
X142245583Y-113025911D01*
X142311719Y-113048445D01*
X142350763Y-113093500D01*
X142355373Y-113102547D01*
X142394728Y-113156716D01*
X143027037Y-112524408D01*
X143044075Y-112587993D01*
G37*
%TD.AperFunction*%
%TA.AperFunction,Conductor*%
G36*
X137005270Y-113156717D02*
G01*
X137005270Y-113156716D01*
X137044622Y-113102555D01*
X137049232Y-113093507D01*
X137097205Y-113042709D01*
X137165025Y-113025912D01*
X137231161Y-113048447D01*
X137270204Y-113093504D01*
X137274949Y-113102817D01*
X137399890Y-113274786D01*
X137550213Y-113425109D01*
X137722182Y-113550050D01*
X137730946Y-113554516D01*
X137781742Y-113602491D01*
X137798536Y-113670312D01*
X137775998Y-113736447D01*
X137730946Y-113775484D01*
X137722182Y-113779949D01*
X137550213Y-113904890D01*
X137399890Y-114055213D01*
X137274949Y-114227182D01*
X137270202Y-114236499D01*
X137222227Y-114287293D01*
X137154405Y-114304087D01*
X137088271Y-114281548D01*
X137049234Y-114236495D01*
X137044626Y-114227452D01*
X137005270Y-114173282D01*
X137005269Y-114173282D01*
X136372962Y-114805590D01*
X136355925Y-114742007D01*
X136290099Y-114627993D01*
X136197007Y-114534901D01*
X136082993Y-114469075D01*
X136019409Y-114452037D01*
X136651716Y-113819728D01*
X136597550Y-113780375D01*
X136587954Y-113775486D01*
X136537157Y-113727512D01*
X136520361Y-113659692D01*
X136542897Y-113593556D01*
X136587954Y-113554514D01*
X136597554Y-113549622D01*
X136651716Y-113510270D01*
X136651717Y-113510270D01*
X136019408Y-112877962D01*
X136082993Y-112860925D01*
X136197007Y-112795099D01*
X136290099Y-112702007D01*
X136355925Y-112587993D01*
X136372962Y-112524408D01*
X137005270Y-113156717D01*
G37*
%TD.AperFunction*%
%TA.AperFunction,Conductor*%
G36*
X144625270Y-113156717D02*
G01*
X144625270Y-113156716D01*
X144664622Y-113102555D01*
X144669232Y-113093507D01*
X144717205Y-113042709D01*
X144785025Y-113025912D01*
X144851161Y-113048447D01*
X144890204Y-113093504D01*
X144894949Y-113102817D01*
X145019890Y-113274786D01*
X145170213Y-113425109D01*
X145342182Y-113550050D01*
X145350946Y-113554516D01*
X145401742Y-113602491D01*
X145418536Y-113670312D01*
X145395998Y-113736447D01*
X145350946Y-113775484D01*
X145342182Y-113779949D01*
X145170213Y-113904890D01*
X145019890Y-114055213D01*
X144894949Y-114227182D01*
X144890202Y-114236499D01*
X144842227Y-114287293D01*
X144774405Y-114304087D01*
X144708271Y-114281548D01*
X144669234Y-114236495D01*
X144664626Y-114227452D01*
X144625270Y-114173282D01*
X144625269Y-114173282D01*
X143992962Y-114805590D01*
X143975925Y-114742007D01*
X143910099Y-114627993D01*
X143817007Y-114534901D01*
X143702993Y-114469075D01*
X143639409Y-114452037D01*
X144271716Y-113819728D01*
X144217550Y-113780375D01*
X144207954Y-113775486D01*
X144157157Y-113727512D01*
X144140361Y-113659692D01*
X144162897Y-113593556D01*
X144207954Y-113554514D01*
X144217554Y-113549622D01*
X144271716Y-113510270D01*
X144271717Y-113510270D01*
X143639408Y-112877962D01*
X143702993Y-112860925D01*
X143817007Y-112795099D01*
X143910099Y-112702007D01*
X143975925Y-112587993D01*
X143992962Y-112524409D01*
X144625270Y-113156717D01*
G37*
%TD.AperFunction*%
%TA.AperFunction,Conductor*%
G36*
X174240000Y-85782230D02*
G01*
X174306126Y-85771757D01*
X174306129Y-85771757D01*
X174508217Y-85706095D01*
X174697557Y-85609620D01*
X174869459Y-85484727D01*
X174869464Y-85484723D01*
X175019723Y-85334464D01*
X175019727Y-85334459D01*
X175144620Y-85162558D01*
X175149232Y-85153507D01*
X175197205Y-85102709D01*
X175265025Y-85085912D01*
X175331161Y-85108447D01*
X175370204Y-85153504D01*
X175374949Y-85162817D01*
X175499890Y-85334786D01*
X175650213Y-85485109D01*
X175822179Y-85610048D01*
X175822181Y-85610049D01*
X175822184Y-85610051D01*
X176011588Y-85706557D01*
X176213757Y-85772246D01*
X176423713Y-85805500D01*
X176423714Y-85805500D01*
X176636286Y-85805500D01*
X176636287Y-85805500D01*
X176846243Y-85772246D01*
X177002684Y-85721414D01*
X177072523Y-85719420D01*
X177132356Y-85755500D01*
X177163184Y-85818201D01*
X177165000Y-85839346D01*
X177165000Y-87965618D01*
X177145315Y-88032657D01*
X177092511Y-88078412D01*
X177023353Y-88088356D01*
X176984705Y-88076103D01*
X176937606Y-88052104D01*
X176937603Y-88052103D01*
X176727952Y-87983985D01*
X176611987Y-87965618D01*
X176510222Y-87949500D01*
X176289778Y-87949500D01*
X176217201Y-87960995D01*
X176072047Y-87983985D01*
X175862396Y-88052103D01*
X175862393Y-88052104D01*
X175665974Y-88152187D01*
X175487641Y-88281752D01*
X175487636Y-88281756D01*
X175331756Y-88437636D01*
X175331752Y-88437641D01*
X175202187Y-88615974D01*
X175102104Y-88812393D01*
X175102103Y-88812396D01*
X175033985Y-89022047D01*
X175010556Y-89169975D01*
X174999500Y-89239778D01*
X174999500Y-89460222D01*
X175000463Y-89466300D01*
X175033985Y-89677952D01*
X175102103Y-89887603D01*
X175102104Y-89887606D01*
X175130241Y-89942826D01*
X175186589Y-90053414D01*
X175202187Y-90084025D01*
X175331752Y-90262358D01*
X175331756Y-90262363D01*
X175487636Y-90418243D01*
X175487641Y-90418247D01*
X175643192Y-90531260D01*
X175665978Y-90547815D01*
X175775903Y-90603825D01*
X175862393Y-90647895D01*
X175862396Y-90647896D01*
X175967221Y-90681955D01*
X176072049Y-90716015D01*
X176289778Y-90750500D01*
X176289779Y-90750500D01*
X176510221Y-90750500D01*
X176510222Y-90750500D01*
X176727951Y-90716015D01*
X176937606Y-90647895D01*
X176984704Y-90623896D01*
X177053372Y-90611000D01*
X177118113Y-90637275D01*
X177158371Y-90694381D01*
X177165000Y-90734381D01*
X177165000Y-93415618D01*
X177145315Y-93482657D01*
X177092511Y-93528412D01*
X177023353Y-93538356D01*
X176984705Y-93526103D01*
X176937606Y-93502104D01*
X176937603Y-93502103D01*
X176727952Y-93433985D01*
X176611987Y-93415618D01*
X176510222Y-93399500D01*
X176289778Y-93399500D01*
X176217201Y-93410995D01*
X176072047Y-93433985D01*
X175862396Y-93502103D01*
X175862393Y-93502104D01*
X175665974Y-93602187D01*
X175487641Y-93731752D01*
X175487636Y-93731756D01*
X175331756Y-93887636D01*
X175331752Y-93887641D01*
X175202187Y-94065974D01*
X175102104Y-94262393D01*
X175102103Y-94262396D01*
X175033985Y-94472047D01*
X175032651Y-94480472D01*
X174999500Y-94689778D01*
X174999500Y-94910222D01*
X175010556Y-94980025D01*
X175033985Y-95127952D01*
X175102103Y-95337603D01*
X175102104Y-95337606D01*
X175159564Y-95450374D01*
X175197998Y-95525805D01*
X175202187Y-95534025D01*
X175331752Y-95712358D01*
X175331756Y-95712363D01*
X175487636Y-95868243D01*
X175487641Y-95868247D01*
X175588991Y-95941881D01*
X175665978Y-95997815D01*
X175789984Y-96061000D01*
X175862393Y-96097895D01*
X175862396Y-96097896D01*
X175945477Y-96124890D01*
X176072049Y-96166015D01*
X176289778Y-96200500D01*
X176289779Y-96200500D01*
X176510221Y-96200500D01*
X176510222Y-96200500D01*
X176727951Y-96166015D01*
X176937606Y-96097895D01*
X176984704Y-96073896D01*
X177053372Y-96061000D01*
X177118113Y-96087275D01*
X177158371Y-96144381D01*
X177165000Y-96184381D01*
X177165000Y-98310653D01*
X177145315Y-98377692D01*
X177092511Y-98423447D01*
X177023353Y-98433391D01*
X177002682Y-98428584D01*
X176846240Y-98377753D01*
X176684957Y-98352208D01*
X176636287Y-98344500D01*
X176423713Y-98344500D01*
X176375042Y-98352208D01*
X176213760Y-98377753D01*
X176011585Y-98443444D01*
X175822179Y-98539951D01*
X175650213Y-98664890D01*
X175499890Y-98815213D01*
X175374949Y-98987182D01*
X175370484Y-98995946D01*
X175322509Y-99046742D01*
X175254688Y-99063536D01*
X175188553Y-99040998D01*
X175149516Y-98995946D01*
X175145050Y-98987182D01*
X175020109Y-98815213D01*
X174869786Y-98664890D01*
X174697820Y-98539951D01*
X174508414Y-98443444D01*
X174508413Y-98443443D01*
X174508412Y-98443443D01*
X174306243Y-98377754D01*
X174306241Y-98377753D01*
X174306240Y-98377753D01*
X174144957Y-98352208D01*
X174096287Y-98344500D01*
X173883713Y-98344500D01*
X173835042Y-98352208D01*
X173673760Y-98377753D01*
X173471585Y-98443444D01*
X173282179Y-98539951D01*
X173110213Y-98664890D01*
X172959890Y-98815213D01*
X172834949Y-98987182D01*
X172830484Y-98995946D01*
X172782509Y-99046742D01*
X172714688Y-99063536D01*
X172648553Y-99040998D01*
X172609516Y-98995946D01*
X172605050Y-98987182D01*
X172480109Y-98815213D01*
X172329786Y-98664890D01*
X172157820Y-98539951D01*
X171968414Y-98443444D01*
X171968413Y-98443443D01*
X171968412Y-98443443D01*
X171766243Y-98377754D01*
X171766241Y-98377753D01*
X171766240Y-98377753D01*
X171604957Y-98352208D01*
X171556287Y-98344500D01*
X171343713Y-98344500D01*
X171295042Y-98352208D01*
X171133760Y-98377753D01*
X170931585Y-98443444D01*
X170742179Y-98539951D01*
X170570213Y-98664890D01*
X170419890Y-98815213D01*
X170294949Y-98987182D01*
X170290484Y-98995946D01*
X170242509Y-99046742D01*
X170174688Y-99063536D01*
X170108553Y-99040998D01*
X170069516Y-98995946D01*
X170065050Y-98987182D01*
X169940109Y-98815213D01*
X169789786Y-98664890D01*
X169617820Y-98539951D01*
X169428414Y-98443444D01*
X169428413Y-98443443D01*
X169428412Y-98443443D01*
X169226243Y-98377754D01*
X169226241Y-98377753D01*
X169226240Y-98377753D01*
X169064957Y-98352208D01*
X169016287Y-98344500D01*
X168803713Y-98344500D01*
X168755042Y-98352208D01*
X168593760Y-98377753D01*
X168391585Y-98443444D01*
X168202179Y-98539951D01*
X168030213Y-98664890D01*
X167879890Y-98815213D01*
X167754949Y-98987182D01*
X167750484Y-98995946D01*
X167702509Y-99046742D01*
X167634688Y-99063536D01*
X167568553Y-99040998D01*
X167529516Y-98995946D01*
X167525050Y-98987182D01*
X167400109Y-98815213D01*
X167249786Y-98664890D01*
X167077820Y-98539951D01*
X166888414Y-98443444D01*
X166888413Y-98443443D01*
X166888412Y-98443443D01*
X166686243Y-98377754D01*
X166686241Y-98377753D01*
X166686240Y-98377753D01*
X166524957Y-98352208D01*
X166476287Y-98344500D01*
X166263713Y-98344500D01*
X166215042Y-98352208D01*
X166053760Y-98377753D01*
X165851585Y-98443444D01*
X165662179Y-98539951D01*
X165490213Y-98664890D01*
X165339890Y-98815213D01*
X165214949Y-98987182D01*
X165210484Y-98995946D01*
X165162509Y-99046742D01*
X165094688Y-99063536D01*
X165028553Y-99040998D01*
X164989516Y-98995946D01*
X164985050Y-98987182D01*
X164860109Y-98815213D01*
X164709786Y-98664890D01*
X164537820Y-98539951D01*
X164348414Y-98443444D01*
X164348413Y-98443443D01*
X164348412Y-98443443D01*
X164146243Y-98377754D01*
X164146241Y-98377753D01*
X164146240Y-98377753D01*
X163984957Y-98352208D01*
X163936287Y-98344500D01*
X163723713Y-98344500D01*
X163675042Y-98352208D01*
X163513760Y-98377753D01*
X163311585Y-98443444D01*
X163122179Y-98539951D01*
X162950213Y-98664890D01*
X162799890Y-98815213D01*
X162674949Y-98987182D01*
X162670484Y-98995946D01*
X162622509Y-99046742D01*
X162554688Y-99063536D01*
X162488553Y-99040998D01*
X162449516Y-98995946D01*
X162445050Y-98987182D01*
X162320109Y-98815213D01*
X162169786Y-98664890D01*
X161997820Y-98539951D01*
X161808414Y-98443444D01*
X161808413Y-98443443D01*
X161808412Y-98443443D01*
X161606243Y-98377754D01*
X161606241Y-98377753D01*
X161606240Y-98377753D01*
X161444957Y-98352208D01*
X161396287Y-98344500D01*
X161183713Y-98344500D01*
X161135042Y-98352208D01*
X160973760Y-98377753D01*
X160771585Y-98443444D01*
X160582179Y-98539951D01*
X160410213Y-98664890D01*
X160259890Y-98815213D01*
X160134949Y-98987182D01*
X160130484Y-98995946D01*
X160082509Y-99046742D01*
X160014688Y-99063536D01*
X159948553Y-99040998D01*
X159909516Y-98995946D01*
X159905050Y-98987182D01*
X159780109Y-98815213D01*
X159629786Y-98664890D01*
X159457820Y-98539951D01*
X159268414Y-98443444D01*
X159268413Y-98443443D01*
X159268412Y-98443443D01*
X159066243Y-98377754D01*
X159066241Y-98377753D01*
X159066240Y-98377753D01*
X158904957Y-98352208D01*
X158856287Y-98344500D01*
X158643713Y-98344500D01*
X158595042Y-98352208D01*
X158433760Y-98377753D01*
X158231585Y-98443444D01*
X158042179Y-98539951D01*
X157870213Y-98664890D01*
X157719890Y-98815213D01*
X157594949Y-98987182D01*
X157590484Y-98995946D01*
X157542509Y-99046742D01*
X157474688Y-99063536D01*
X157408553Y-99040998D01*
X157369516Y-98995946D01*
X157365050Y-98987182D01*
X157240109Y-98815213D01*
X157089786Y-98664890D01*
X156917820Y-98539951D01*
X156917115Y-98539591D01*
X156909054Y-98535485D01*
X156858259Y-98487512D01*
X156841463Y-98419692D01*
X156863999Y-98353556D01*
X156909054Y-98314515D01*
X156917816Y-98310051D01*
X156939789Y-98294086D01*
X157089786Y-98185109D01*
X157089788Y-98185106D01*
X157089792Y-98185104D01*
X157240104Y-98034792D01*
X157240106Y-98034788D01*
X157240109Y-98034786D01*
X157365048Y-97862820D01*
X157365047Y-97862820D01*
X157365051Y-97862816D01*
X157461557Y-97673412D01*
X157527246Y-97471243D01*
X157560500Y-97261287D01*
X157560500Y-97048713D01*
X157527246Y-96838757D01*
X157461557Y-96636588D01*
X157365051Y-96447184D01*
X157365049Y-96447181D01*
X157365048Y-96447179D01*
X157240109Y-96275213D01*
X157089786Y-96124890D01*
X156917820Y-95999951D01*
X156917115Y-95999591D01*
X156909054Y-95995485D01*
X156858259Y-95947512D01*
X156841463Y-95879692D01*
X156863999Y-95813556D01*
X156909054Y-95774515D01*
X156917816Y-95770051D01*
X156944726Y-95750500D01*
X157089786Y-95645109D01*
X157089788Y-95645106D01*
X157089792Y-95645104D01*
X157240104Y-95494792D01*
X157240106Y-95494788D01*
X157240109Y-95494786D01*
X157349086Y-95344789D01*
X157365051Y-95322816D01*
X157461557Y-95133412D01*
X157527246Y-94931243D01*
X157560500Y-94721287D01*
X157560500Y-94508713D01*
X157551110Y-94449429D01*
X157545833Y-94416109D01*
X157543531Y-94401577D01*
X172119500Y-94401577D01*
X172119500Y-94598422D01*
X172150290Y-94792826D01*
X172211117Y-94980029D01*
X172286488Y-95127952D01*
X172300476Y-95155405D01*
X172416172Y-95314646D01*
X172555354Y-95453828D01*
X172714595Y-95569524D01*
X172797455Y-95611743D01*
X172889970Y-95658882D01*
X172889972Y-95658882D01*
X172889975Y-95658884D01*
X172990317Y-95691487D01*
X173077173Y-95719709D01*
X173271578Y-95750500D01*
X173271583Y-95750500D01*
X173468422Y-95750500D01*
X173662826Y-95719709D01*
X173673259Y-95716319D01*
X173850025Y-95658884D01*
X174025405Y-95569524D01*
X174184646Y-95453828D01*
X174323828Y-95314646D01*
X174439524Y-95155405D01*
X174528884Y-94980025D01*
X174589709Y-94792826D01*
X174601040Y-94721286D01*
X174620500Y-94598422D01*
X174620500Y-94401577D01*
X174589709Y-94207173D01*
X174528882Y-94019970D01*
X174439523Y-93844594D01*
X174323828Y-93685354D01*
X174184646Y-93546172D01*
X174025405Y-93430476D01*
X173850029Y-93341117D01*
X173662826Y-93280290D01*
X173468422Y-93249500D01*
X173468417Y-93249500D01*
X173271583Y-93249500D01*
X173271578Y-93249500D01*
X173077173Y-93280290D01*
X172889970Y-93341117D01*
X172714594Y-93430476D01*
X172674029Y-93459949D01*
X172555354Y-93546172D01*
X172555352Y-93546174D01*
X172555351Y-93546174D01*
X172416174Y-93685351D01*
X172416174Y-93685352D01*
X172416172Y-93685354D01*
X172366485Y-93753741D01*
X172300476Y-93844594D01*
X172211117Y-94019970D01*
X172150290Y-94207173D01*
X172119500Y-94401577D01*
X157543531Y-94401577D01*
X157527246Y-94298760D01*
X157527246Y-94298757D01*
X157461557Y-94096588D01*
X157365051Y-93907184D01*
X157365049Y-93907181D01*
X157365048Y-93907179D01*
X157240109Y-93735213D01*
X157089786Y-93584890D01*
X156917820Y-93459951D01*
X156917115Y-93459591D01*
X156909054Y-93455485D01*
X156858259Y-93407512D01*
X156841463Y-93339692D01*
X156863999Y-93273556D01*
X156909054Y-93234515D01*
X156917816Y-93230051D01*
X156939789Y-93214086D01*
X157089786Y-93105109D01*
X157089788Y-93105106D01*
X157089792Y-93105104D01*
X157240104Y-92954792D01*
X157240106Y-92954788D01*
X157240109Y-92954786D01*
X157365048Y-92782820D01*
X157365047Y-92782820D01*
X157365051Y-92782816D01*
X157461557Y-92593412D01*
X157527246Y-92391243D01*
X157560500Y-92181287D01*
X157560500Y-91968713D01*
X157527246Y-91758757D01*
X157461557Y-91556588D01*
X157365051Y-91367184D01*
X157365049Y-91367181D01*
X157365048Y-91367179D01*
X157240109Y-91195213D01*
X157089786Y-91044890D01*
X156917820Y-90919951D01*
X156917115Y-90919591D01*
X156909054Y-90915485D01*
X156858259Y-90867512D01*
X156841463Y-90799692D01*
X156863999Y-90733556D01*
X156909054Y-90694515D01*
X156917816Y-90690051D01*
X156975839Y-90647895D01*
X157089786Y-90565109D01*
X157089788Y-90565106D01*
X157089792Y-90565104D01*
X157240104Y-90414792D01*
X157240106Y-90414788D01*
X157240109Y-90414786D01*
X157365048Y-90242820D01*
X157365047Y-90242820D01*
X157365051Y-90242816D01*
X157461557Y-90053412D01*
X157527246Y-89851243D01*
X157560500Y-89641287D01*
X157560500Y-89551577D01*
X172119500Y-89551577D01*
X172119500Y-89748422D01*
X172150290Y-89942826D01*
X172211117Y-90130029D01*
X172278545Y-90262363D01*
X172300476Y-90305405D01*
X172416172Y-90464646D01*
X172555354Y-90603828D01*
X172714595Y-90719524D01*
X172775389Y-90750500D01*
X172889970Y-90808882D01*
X172889972Y-90808882D01*
X172889975Y-90808884D01*
X172934783Y-90823443D01*
X173077173Y-90869709D01*
X173271578Y-90900500D01*
X173271583Y-90900500D01*
X173468422Y-90900500D01*
X173662826Y-90869709D01*
X173669588Y-90867512D01*
X173850025Y-90808884D01*
X174025405Y-90719524D01*
X174184646Y-90603828D01*
X174323828Y-90464646D01*
X174439524Y-90305405D01*
X174528884Y-90130025D01*
X174589709Y-89942826D01*
X174593019Y-89921925D01*
X174620500Y-89748422D01*
X174620500Y-89551577D01*
X174589709Y-89357173D01*
X174552780Y-89243518D01*
X174528884Y-89169975D01*
X174528882Y-89169972D01*
X174528882Y-89169970D01*
X174439523Y-88994594D01*
X174421244Y-88969435D01*
X174323828Y-88835354D01*
X174184646Y-88696172D01*
X174025405Y-88580476D01*
X173850029Y-88491117D01*
X173662826Y-88430290D01*
X173468422Y-88399500D01*
X173468417Y-88399500D01*
X173271583Y-88399500D01*
X173271578Y-88399500D01*
X173077173Y-88430290D01*
X172889970Y-88491117D01*
X172714594Y-88580476D01*
X172623741Y-88646485D01*
X172555354Y-88696172D01*
X172555352Y-88696174D01*
X172555351Y-88696174D01*
X172416174Y-88835351D01*
X172416174Y-88835352D01*
X172416172Y-88835354D01*
X172366485Y-88903741D01*
X172300476Y-88994594D01*
X172211117Y-89169970D01*
X172150290Y-89357173D01*
X172119500Y-89551577D01*
X157560500Y-89551577D01*
X157560500Y-89428713D01*
X157527246Y-89218757D01*
X157461557Y-89016588D01*
X157365051Y-88827184D01*
X157365049Y-88827181D01*
X157365048Y-88827179D01*
X157240109Y-88655213D01*
X157089786Y-88504890D01*
X156917820Y-88379951D01*
X156917115Y-88379591D01*
X156909054Y-88375485D01*
X156858259Y-88327512D01*
X156841463Y-88259692D01*
X156863999Y-88193556D01*
X156909054Y-88154515D01*
X156917816Y-88150051D01*
X156939789Y-88134086D01*
X157089786Y-88025109D01*
X157089788Y-88025106D01*
X157089792Y-88025104D01*
X157240104Y-87874792D01*
X157240106Y-87874788D01*
X157240109Y-87874786D01*
X157365048Y-87702820D01*
X157365047Y-87702820D01*
X157365051Y-87702816D01*
X157461557Y-87513412D01*
X157527246Y-87311243D01*
X157560500Y-87101287D01*
X157560500Y-86888713D01*
X157527246Y-86678757D01*
X157461557Y-86476588D01*
X157365051Y-86287184D01*
X157365049Y-86287181D01*
X157365048Y-86287179D01*
X157240109Y-86115213D01*
X157089786Y-85964890D01*
X156917820Y-85839951D01*
X156917115Y-85839591D01*
X156909054Y-85835485D01*
X156858259Y-85787512D01*
X156841463Y-85719692D01*
X156863999Y-85653556D01*
X156909054Y-85614515D01*
X156917816Y-85610051D01*
X157089792Y-85485104D01*
X157203329Y-85371566D01*
X157264648Y-85338084D01*
X157334340Y-85343068D01*
X157390274Y-85384939D01*
X157407189Y-85415917D01*
X157456202Y-85547328D01*
X157456206Y-85547335D01*
X157542452Y-85662544D01*
X157542455Y-85662547D01*
X157657664Y-85748793D01*
X157657671Y-85748797D01*
X157792517Y-85799091D01*
X157792516Y-85799091D01*
X157799444Y-85799835D01*
X157852127Y-85805500D01*
X159647872Y-85805499D01*
X159707483Y-85799091D01*
X159842331Y-85748796D01*
X159957546Y-85662546D01*
X160043796Y-85547331D01*
X160092810Y-85415916D01*
X160134681Y-85359984D01*
X160200145Y-85335566D01*
X160268418Y-85350417D01*
X160296673Y-85371569D01*
X160410213Y-85485109D01*
X160582179Y-85610048D01*
X160582181Y-85610049D01*
X160582184Y-85610051D01*
X160771588Y-85706557D01*
X160973757Y-85772246D01*
X161183713Y-85805500D01*
X161183714Y-85805500D01*
X161396286Y-85805500D01*
X161396287Y-85805500D01*
X161606243Y-85772246D01*
X161808412Y-85706557D01*
X161997816Y-85610051D01*
X162084138Y-85547335D01*
X162169786Y-85485109D01*
X162169788Y-85485106D01*
X162169792Y-85485104D01*
X162320104Y-85334792D01*
X162320106Y-85334788D01*
X162320109Y-85334786D01*
X162445048Y-85162820D01*
X162445050Y-85162817D01*
X162445051Y-85162816D01*
X162449514Y-85154054D01*
X162497488Y-85103259D01*
X162565308Y-85086463D01*
X162631444Y-85108999D01*
X162670486Y-85154056D01*
X162674951Y-85162820D01*
X162799890Y-85334786D01*
X162950213Y-85485109D01*
X163122179Y-85610048D01*
X163122181Y-85610049D01*
X163122184Y-85610051D01*
X163311588Y-85706557D01*
X163513757Y-85772246D01*
X163723713Y-85805500D01*
X163723714Y-85805500D01*
X163936286Y-85805500D01*
X163936287Y-85805500D01*
X164146243Y-85772246D01*
X164348412Y-85706557D01*
X164537816Y-85610051D01*
X164624138Y-85547335D01*
X164709786Y-85485109D01*
X164709788Y-85485106D01*
X164709792Y-85485104D01*
X164860104Y-85334792D01*
X164860106Y-85334788D01*
X164860109Y-85334786D01*
X164985048Y-85162820D01*
X164985050Y-85162817D01*
X164985051Y-85162816D01*
X164989514Y-85154054D01*
X165037488Y-85103259D01*
X165105308Y-85086463D01*
X165171444Y-85108999D01*
X165210486Y-85154056D01*
X165214951Y-85162820D01*
X165339890Y-85334786D01*
X165490213Y-85485109D01*
X165662179Y-85610048D01*
X165662181Y-85610049D01*
X165662184Y-85610051D01*
X165851588Y-85706557D01*
X166053757Y-85772246D01*
X166263713Y-85805500D01*
X166263714Y-85805500D01*
X166476286Y-85805500D01*
X166476287Y-85805500D01*
X166686243Y-85772246D01*
X166888412Y-85706557D01*
X167077816Y-85610051D01*
X167164138Y-85547335D01*
X167249786Y-85485109D01*
X167249788Y-85485106D01*
X167249792Y-85485104D01*
X167400104Y-85334792D01*
X167400106Y-85334788D01*
X167400109Y-85334786D01*
X167525048Y-85162820D01*
X167525050Y-85162817D01*
X167525051Y-85162816D01*
X167529514Y-85154054D01*
X167577488Y-85103259D01*
X167645308Y-85086463D01*
X167711444Y-85108999D01*
X167750486Y-85154056D01*
X167754951Y-85162820D01*
X167879890Y-85334786D01*
X168030213Y-85485109D01*
X168202179Y-85610048D01*
X168202181Y-85610049D01*
X168202184Y-85610051D01*
X168391588Y-85706557D01*
X168593757Y-85772246D01*
X168803713Y-85805500D01*
X168803714Y-85805500D01*
X169016286Y-85805500D01*
X169016287Y-85805500D01*
X169226243Y-85772246D01*
X169428412Y-85706557D01*
X169617816Y-85610051D01*
X169789792Y-85485104D01*
X169903329Y-85371566D01*
X169964648Y-85338084D01*
X170034340Y-85343068D01*
X170090274Y-85384939D01*
X170107189Y-85415917D01*
X170156202Y-85547328D01*
X170156206Y-85547335D01*
X170242452Y-85662544D01*
X170242455Y-85662547D01*
X170357664Y-85748793D01*
X170357671Y-85748797D01*
X170492517Y-85799091D01*
X170492516Y-85799091D01*
X170499444Y-85799835D01*
X170552127Y-85805500D01*
X172347872Y-85805499D01*
X172407483Y-85799091D01*
X172542331Y-85748796D01*
X172657546Y-85662546D01*
X172743796Y-85547331D01*
X172793002Y-85415401D01*
X172834872Y-85359468D01*
X172900337Y-85335050D01*
X172968610Y-85349901D01*
X172996865Y-85371053D01*
X173110535Y-85484723D01*
X173110540Y-85484727D01*
X173282442Y-85609620D01*
X173471782Y-85706095D01*
X173673871Y-85771757D01*
X173740000Y-85782231D01*
X173740000Y-84899560D01*
X173793147Y-84930245D01*
X173922857Y-84965000D01*
X174057143Y-84965000D01*
X174186853Y-84930245D01*
X174240000Y-84899560D01*
X174240000Y-85782230D01*
G37*
%TD.AperFunction*%
%TD*%
M02*
