%TF.GenerationSoftware,KiCad,Pcbnew,8.0.8*%
%TF.CreationDate,2025-07-05T11:35:26-04:00*%
%TF.ProjectId,cross-point-exp-brd-mini-red2-m2k,63726f73-732d-4706-9f69-6e742d657870,rev?*%
%TF.SameCoordinates,Original*%
%TF.FileFunction,Legend,Bot*%
%TF.FilePolarity,Positive*%
%FSLAX46Y46*%
G04 Gerber Fmt 4.6, Leading zero omitted, Abs format (unit mm)*
G04 Created by KiCad (PCBNEW 8.0.8) date 2025-07-05 11:35:26*
%MOMM*%
%LPD*%
G01*
G04 APERTURE LIST*
%ADD10C,0.254000*%
%ADD11C,0.381000*%
%ADD12C,0.150000*%
%ADD13C,0.120000*%
G04 APERTURE END LIST*
D10*
X194814180Y-92014318D02*
X194814180Y-92921461D01*
X194814180Y-92921461D02*
X194868609Y-93102889D01*
X194868609Y-93102889D02*
X194977466Y-93223842D01*
X194977466Y-93223842D02*
X195140752Y-93284318D01*
X195140752Y-93284318D02*
X195249609Y-93284318D01*
X194269895Y-93284318D02*
X194269895Y-92014318D01*
X194269895Y-92014318D02*
X193834466Y-92014318D01*
X193834466Y-92014318D02*
X193725609Y-92074794D01*
X193725609Y-92074794D02*
X193671180Y-92135270D01*
X193671180Y-92135270D02*
X193616752Y-92256222D01*
X193616752Y-92256222D02*
X193616752Y-92437651D01*
X193616752Y-92437651D02*
X193671180Y-92558603D01*
X193671180Y-92558603D02*
X193725609Y-92619080D01*
X193725609Y-92619080D02*
X193834466Y-92679556D01*
X193834466Y-92679556D02*
X194269895Y-92679556D01*
X193072466Y-93284318D02*
X192854752Y-93284318D01*
X192854752Y-93284318D02*
X192745895Y-93223842D01*
X192745895Y-93223842D02*
X192691466Y-93163365D01*
X192691466Y-93163365D02*
X192582609Y-92981937D01*
X192582609Y-92981937D02*
X192528180Y-92740032D01*
X192528180Y-92740032D02*
X192528180Y-92256222D01*
X192528180Y-92256222D02*
X192582609Y-92135270D01*
X192582609Y-92135270D02*
X192637038Y-92074794D01*
X192637038Y-92074794D02*
X192745895Y-92014318D01*
X192745895Y-92014318D02*
X192963609Y-92014318D01*
X192963609Y-92014318D02*
X193072466Y-92074794D01*
X193072466Y-92074794D02*
X193126895Y-92135270D01*
X193126895Y-92135270D02*
X193181323Y-92256222D01*
X193181323Y-92256222D02*
X193181323Y-92558603D01*
X193181323Y-92558603D02*
X193126895Y-92679556D01*
X193126895Y-92679556D02*
X193072466Y-92740032D01*
X193072466Y-92740032D02*
X192963609Y-92800508D01*
X192963609Y-92800508D02*
X192745895Y-92800508D01*
X192745895Y-92800508D02*
X192637038Y-92740032D01*
X192637038Y-92740032D02*
X192582609Y-92679556D01*
X192582609Y-92679556D02*
X192528180Y-92558603D01*
X194814180Y-104714318D02*
X194814180Y-105621461D01*
X194814180Y-105621461D02*
X194868609Y-105802889D01*
X194868609Y-105802889D02*
X194977466Y-105923842D01*
X194977466Y-105923842D02*
X195140752Y-105984318D01*
X195140752Y-105984318D02*
X195249609Y-105984318D01*
X194269895Y-105984318D02*
X194269895Y-104714318D01*
X194269895Y-104714318D02*
X193834466Y-104714318D01*
X193834466Y-104714318D02*
X193725609Y-104774794D01*
X193725609Y-104774794D02*
X193671180Y-104835270D01*
X193671180Y-104835270D02*
X193616752Y-104956222D01*
X193616752Y-104956222D02*
X193616752Y-105137651D01*
X193616752Y-105137651D02*
X193671180Y-105258603D01*
X193671180Y-105258603D02*
X193725609Y-105319080D01*
X193725609Y-105319080D02*
X193834466Y-105379556D01*
X193834466Y-105379556D02*
X194269895Y-105379556D01*
X192528180Y-105984318D02*
X193181323Y-105984318D01*
X192854752Y-105984318D02*
X192854752Y-104714318D01*
X192854752Y-104714318D02*
X192963609Y-104895746D01*
X192963609Y-104895746D02*
X193072466Y-105016699D01*
X193072466Y-105016699D02*
X193181323Y-105077175D01*
X191548467Y-105137651D02*
X191548467Y-105984318D01*
X191820609Y-104653842D02*
X192092752Y-105560984D01*
X192092752Y-105560984D02*
X191385181Y-105560984D01*
X79505818Y-97094318D02*
X79505818Y-98001461D01*
X79505818Y-98001461D02*
X79560247Y-98182889D01*
X79560247Y-98182889D02*
X79669104Y-98303842D01*
X79669104Y-98303842D02*
X79832390Y-98364318D01*
X79832390Y-98364318D02*
X79941247Y-98364318D01*
X78961533Y-98364318D02*
X78961533Y-97094318D01*
X78961533Y-97094318D02*
X78526104Y-97094318D01*
X78526104Y-97094318D02*
X78417247Y-97154794D01*
X78417247Y-97154794D02*
X78362818Y-97215270D01*
X78362818Y-97215270D02*
X78308390Y-97336222D01*
X78308390Y-97336222D02*
X78308390Y-97517651D01*
X78308390Y-97517651D02*
X78362818Y-97638603D01*
X78362818Y-97638603D02*
X78417247Y-97699080D01*
X78417247Y-97699080D02*
X78526104Y-97759556D01*
X78526104Y-97759556D02*
X78961533Y-97759556D01*
X77927390Y-97094318D02*
X77219818Y-97094318D01*
X77219818Y-97094318D02*
X77600818Y-97578127D01*
X77600818Y-97578127D02*
X77437533Y-97578127D01*
X77437533Y-97578127D02*
X77328676Y-97638603D01*
X77328676Y-97638603D02*
X77274247Y-97699080D01*
X77274247Y-97699080D02*
X77219818Y-97820032D01*
X77219818Y-97820032D02*
X77219818Y-98122413D01*
X77219818Y-98122413D02*
X77274247Y-98243365D01*
X77274247Y-98243365D02*
X77328676Y-98303842D01*
X77328676Y-98303842D02*
X77437533Y-98364318D01*
X77437533Y-98364318D02*
X77764104Y-98364318D01*
X77764104Y-98364318D02*
X77872961Y-98303842D01*
X77872961Y-98303842D02*
X77927390Y-98243365D01*
X194814180Y-94554318D02*
X194814180Y-95461461D01*
X194814180Y-95461461D02*
X194868609Y-95642889D01*
X194868609Y-95642889D02*
X194977466Y-95763842D01*
X194977466Y-95763842D02*
X195140752Y-95824318D01*
X195140752Y-95824318D02*
X195249609Y-95824318D01*
X194269895Y-95824318D02*
X194269895Y-94554318D01*
X194269895Y-94554318D02*
X193834466Y-94554318D01*
X193834466Y-94554318D02*
X193725609Y-94614794D01*
X193725609Y-94614794D02*
X193671180Y-94675270D01*
X193671180Y-94675270D02*
X193616752Y-94796222D01*
X193616752Y-94796222D02*
X193616752Y-94977651D01*
X193616752Y-94977651D02*
X193671180Y-95098603D01*
X193671180Y-95098603D02*
X193725609Y-95159080D01*
X193725609Y-95159080D02*
X193834466Y-95219556D01*
X193834466Y-95219556D02*
X194269895Y-95219556D01*
X192528180Y-95824318D02*
X193181323Y-95824318D01*
X192854752Y-95824318D02*
X192854752Y-94554318D01*
X192854752Y-94554318D02*
X192963609Y-94735746D01*
X192963609Y-94735746D02*
X193072466Y-94856699D01*
X193072466Y-94856699D02*
X193181323Y-94917175D01*
X191820609Y-94554318D02*
X191711752Y-94554318D01*
X191711752Y-94554318D02*
X191602895Y-94614794D01*
X191602895Y-94614794D02*
X191548467Y-94675270D01*
X191548467Y-94675270D02*
X191494038Y-94796222D01*
X191494038Y-94796222D02*
X191439609Y-95038127D01*
X191439609Y-95038127D02*
X191439609Y-95340508D01*
X191439609Y-95340508D02*
X191494038Y-95582413D01*
X191494038Y-95582413D02*
X191548467Y-95703365D01*
X191548467Y-95703365D02*
X191602895Y-95763842D01*
X191602895Y-95763842D02*
X191711752Y-95824318D01*
X191711752Y-95824318D02*
X191820609Y-95824318D01*
X191820609Y-95824318D02*
X191929467Y-95763842D01*
X191929467Y-95763842D02*
X191983895Y-95703365D01*
X191983895Y-95703365D02*
X192038324Y-95582413D01*
X192038324Y-95582413D02*
X192092752Y-95340508D01*
X192092752Y-95340508D02*
X192092752Y-95038127D01*
X192092752Y-95038127D02*
X192038324Y-94796222D01*
X192038324Y-94796222D02*
X191983895Y-94675270D01*
X191983895Y-94675270D02*
X191929467Y-94614794D01*
X191929467Y-94614794D02*
X191820609Y-94554318D01*
X194814180Y-97094318D02*
X194814180Y-98001461D01*
X194814180Y-98001461D02*
X194868609Y-98182889D01*
X194868609Y-98182889D02*
X194977466Y-98303842D01*
X194977466Y-98303842D02*
X195140752Y-98364318D01*
X195140752Y-98364318D02*
X195249609Y-98364318D01*
X194269895Y-98364318D02*
X194269895Y-97094318D01*
X194269895Y-97094318D02*
X193834466Y-97094318D01*
X193834466Y-97094318D02*
X193725609Y-97154794D01*
X193725609Y-97154794D02*
X193671180Y-97215270D01*
X193671180Y-97215270D02*
X193616752Y-97336222D01*
X193616752Y-97336222D02*
X193616752Y-97517651D01*
X193616752Y-97517651D02*
X193671180Y-97638603D01*
X193671180Y-97638603D02*
X193725609Y-97699080D01*
X193725609Y-97699080D02*
X193834466Y-97759556D01*
X193834466Y-97759556D02*
X194269895Y-97759556D01*
X192528180Y-98364318D02*
X193181323Y-98364318D01*
X192854752Y-98364318D02*
X192854752Y-97094318D01*
X192854752Y-97094318D02*
X192963609Y-97275746D01*
X192963609Y-97275746D02*
X193072466Y-97396699D01*
X193072466Y-97396699D02*
X193181323Y-97457175D01*
X191439609Y-98364318D02*
X192092752Y-98364318D01*
X191766181Y-98364318D02*
X191766181Y-97094318D01*
X191766181Y-97094318D02*
X191875038Y-97275746D01*
X191875038Y-97275746D02*
X191983895Y-97396699D01*
X191983895Y-97396699D02*
X192092752Y-97457175D01*
X194814180Y-109794318D02*
X194814180Y-110701461D01*
X194814180Y-110701461D02*
X194868609Y-110882889D01*
X194868609Y-110882889D02*
X194977466Y-111003842D01*
X194977466Y-111003842D02*
X195140752Y-111064318D01*
X195140752Y-111064318D02*
X195249609Y-111064318D01*
X194269895Y-111064318D02*
X194269895Y-109794318D01*
X194269895Y-109794318D02*
X193834466Y-109794318D01*
X193834466Y-109794318D02*
X193725609Y-109854794D01*
X193725609Y-109854794D02*
X193671180Y-109915270D01*
X193671180Y-109915270D02*
X193616752Y-110036222D01*
X193616752Y-110036222D02*
X193616752Y-110217651D01*
X193616752Y-110217651D02*
X193671180Y-110338603D01*
X193671180Y-110338603D02*
X193725609Y-110399080D01*
X193725609Y-110399080D02*
X193834466Y-110459556D01*
X193834466Y-110459556D02*
X194269895Y-110459556D01*
X192528180Y-111064318D02*
X193181323Y-111064318D01*
X192854752Y-111064318D02*
X192854752Y-109794318D01*
X192854752Y-109794318D02*
X192963609Y-109975746D01*
X192963609Y-109975746D02*
X193072466Y-110096699D01*
X193072466Y-110096699D02*
X193181323Y-110157175D01*
X191548467Y-109794318D02*
X191766181Y-109794318D01*
X191766181Y-109794318D02*
X191875038Y-109854794D01*
X191875038Y-109854794D02*
X191929467Y-109915270D01*
X191929467Y-109915270D02*
X192038324Y-110096699D01*
X192038324Y-110096699D02*
X192092752Y-110338603D01*
X192092752Y-110338603D02*
X192092752Y-110822413D01*
X192092752Y-110822413D02*
X192038324Y-110943365D01*
X192038324Y-110943365D02*
X191983895Y-111003842D01*
X191983895Y-111003842D02*
X191875038Y-111064318D01*
X191875038Y-111064318D02*
X191657324Y-111064318D01*
X191657324Y-111064318D02*
X191548467Y-111003842D01*
X191548467Y-111003842D02*
X191494038Y-110943365D01*
X191494038Y-110943365D02*
X191439609Y-110822413D01*
X191439609Y-110822413D02*
X191439609Y-110520032D01*
X191439609Y-110520032D02*
X191494038Y-110399080D01*
X191494038Y-110399080D02*
X191548467Y-110338603D01*
X191548467Y-110338603D02*
X191657324Y-110278127D01*
X191657324Y-110278127D02*
X191875038Y-110278127D01*
X191875038Y-110278127D02*
X191983895Y-110338603D01*
X191983895Y-110338603D02*
X192038324Y-110399080D01*
X192038324Y-110399080D02*
X192092752Y-110520032D01*
X79505818Y-109794318D02*
X79505818Y-110701461D01*
X79505818Y-110701461D02*
X79560247Y-110882889D01*
X79560247Y-110882889D02*
X79669104Y-111003842D01*
X79669104Y-111003842D02*
X79832390Y-111064318D01*
X79832390Y-111064318D02*
X79941247Y-111064318D01*
X78961533Y-111064318D02*
X78961533Y-109794318D01*
X78961533Y-109794318D02*
X78526104Y-109794318D01*
X78526104Y-109794318D02*
X78417247Y-109854794D01*
X78417247Y-109854794D02*
X78362818Y-109915270D01*
X78362818Y-109915270D02*
X78308390Y-110036222D01*
X78308390Y-110036222D02*
X78308390Y-110217651D01*
X78308390Y-110217651D02*
X78362818Y-110338603D01*
X78362818Y-110338603D02*
X78417247Y-110399080D01*
X78417247Y-110399080D02*
X78526104Y-110459556D01*
X78526104Y-110459556D02*
X78961533Y-110459556D01*
X77655247Y-110338603D02*
X77764104Y-110278127D01*
X77764104Y-110278127D02*
X77818533Y-110217651D01*
X77818533Y-110217651D02*
X77872961Y-110096699D01*
X77872961Y-110096699D02*
X77872961Y-110036222D01*
X77872961Y-110036222D02*
X77818533Y-109915270D01*
X77818533Y-109915270D02*
X77764104Y-109854794D01*
X77764104Y-109854794D02*
X77655247Y-109794318D01*
X77655247Y-109794318D02*
X77437533Y-109794318D01*
X77437533Y-109794318D02*
X77328676Y-109854794D01*
X77328676Y-109854794D02*
X77274247Y-109915270D01*
X77274247Y-109915270D02*
X77219818Y-110036222D01*
X77219818Y-110036222D02*
X77219818Y-110096699D01*
X77219818Y-110096699D02*
X77274247Y-110217651D01*
X77274247Y-110217651D02*
X77328676Y-110278127D01*
X77328676Y-110278127D02*
X77437533Y-110338603D01*
X77437533Y-110338603D02*
X77655247Y-110338603D01*
X77655247Y-110338603D02*
X77764104Y-110399080D01*
X77764104Y-110399080D02*
X77818533Y-110459556D01*
X77818533Y-110459556D02*
X77872961Y-110580508D01*
X77872961Y-110580508D02*
X77872961Y-110822413D01*
X77872961Y-110822413D02*
X77818533Y-110943365D01*
X77818533Y-110943365D02*
X77764104Y-111003842D01*
X77764104Y-111003842D02*
X77655247Y-111064318D01*
X77655247Y-111064318D02*
X77437533Y-111064318D01*
X77437533Y-111064318D02*
X77328676Y-111003842D01*
X77328676Y-111003842D02*
X77274247Y-110943365D01*
X77274247Y-110943365D02*
X77219818Y-110822413D01*
X77219818Y-110822413D02*
X77219818Y-110580508D01*
X77219818Y-110580508D02*
X77274247Y-110459556D01*
X77274247Y-110459556D02*
X77328676Y-110399080D01*
X77328676Y-110399080D02*
X77437533Y-110338603D01*
X79505818Y-92014318D02*
X79505818Y-92921461D01*
X79505818Y-92921461D02*
X79560247Y-93102889D01*
X79560247Y-93102889D02*
X79669104Y-93223842D01*
X79669104Y-93223842D02*
X79832390Y-93284318D01*
X79832390Y-93284318D02*
X79941247Y-93284318D01*
X78961533Y-93284318D02*
X78961533Y-92014318D01*
X78961533Y-92014318D02*
X78526104Y-92014318D01*
X78526104Y-92014318D02*
X78417247Y-92074794D01*
X78417247Y-92074794D02*
X78362818Y-92135270D01*
X78362818Y-92135270D02*
X78308390Y-92256222D01*
X78308390Y-92256222D02*
X78308390Y-92437651D01*
X78308390Y-92437651D02*
X78362818Y-92558603D01*
X78362818Y-92558603D02*
X78417247Y-92619080D01*
X78417247Y-92619080D02*
X78526104Y-92679556D01*
X78526104Y-92679556D02*
X78961533Y-92679556D01*
X77219818Y-93284318D02*
X77872961Y-93284318D01*
X77546390Y-93284318D02*
X77546390Y-92014318D01*
X77546390Y-92014318D02*
X77655247Y-92195746D01*
X77655247Y-92195746D02*
X77764104Y-92316699D01*
X77764104Y-92316699D02*
X77872961Y-92377175D01*
X169722609Y-131356680D02*
X169777037Y-131429252D01*
X169777037Y-131429252D02*
X169940323Y-131501823D01*
X169940323Y-131501823D02*
X170049180Y-131501823D01*
X170049180Y-131501823D02*
X170212466Y-131429252D01*
X170212466Y-131429252D02*
X170321323Y-131284109D01*
X170321323Y-131284109D02*
X170375752Y-131138966D01*
X170375752Y-131138966D02*
X170430180Y-130848680D01*
X170430180Y-130848680D02*
X170430180Y-130630966D01*
X170430180Y-130630966D02*
X170375752Y-130340680D01*
X170375752Y-130340680D02*
X170321323Y-130195537D01*
X170321323Y-130195537D02*
X170212466Y-130050394D01*
X170212466Y-130050394D02*
X170049180Y-129977823D01*
X170049180Y-129977823D02*
X169940323Y-129977823D01*
X169940323Y-129977823D02*
X169777037Y-130050394D01*
X169777037Y-130050394D02*
X169722609Y-130122966D01*
X169232752Y-131501823D02*
X169232752Y-129977823D01*
X169232752Y-130703537D02*
X168579609Y-130703537D01*
X168579609Y-131501823D02*
X168579609Y-129977823D01*
X167654323Y-130703537D02*
X167491037Y-130776109D01*
X167491037Y-130776109D02*
X167436608Y-130848680D01*
X167436608Y-130848680D02*
X167382180Y-130993823D01*
X167382180Y-130993823D02*
X167382180Y-131211537D01*
X167382180Y-131211537D02*
X167436608Y-131356680D01*
X167436608Y-131356680D02*
X167491037Y-131429252D01*
X167491037Y-131429252D02*
X167599894Y-131501823D01*
X167599894Y-131501823D02*
X168035323Y-131501823D01*
X168035323Y-131501823D02*
X168035323Y-129977823D01*
X168035323Y-129977823D02*
X167654323Y-129977823D01*
X167654323Y-129977823D02*
X167545466Y-130050394D01*
X167545466Y-130050394D02*
X167491037Y-130122966D01*
X167491037Y-130122966D02*
X167436608Y-130268109D01*
X167436608Y-130268109D02*
X167436608Y-130413252D01*
X167436608Y-130413252D02*
X167491037Y-130558394D01*
X167491037Y-130558394D02*
X167545466Y-130630966D01*
X167545466Y-130630966D02*
X167654323Y-130703537D01*
X167654323Y-130703537D02*
X168035323Y-130703537D01*
D11*
X118766485Y-141477292D02*
X118494343Y-141568006D01*
X118494343Y-141568006D02*
X118040771Y-141568006D01*
X118040771Y-141568006D02*
X117859343Y-141477292D01*
X117859343Y-141477292D02*
X117768628Y-141386577D01*
X117768628Y-141386577D02*
X117677914Y-141205149D01*
X117677914Y-141205149D02*
X117677914Y-141023720D01*
X117677914Y-141023720D02*
X117768628Y-140842292D01*
X117768628Y-140842292D02*
X117859343Y-140751577D01*
X117859343Y-140751577D02*
X118040771Y-140660863D01*
X118040771Y-140660863D02*
X118403628Y-140570149D01*
X118403628Y-140570149D02*
X118585057Y-140479434D01*
X118585057Y-140479434D02*
X118675771Y-140388720D01*
X118675771Y-140388720D02*
X118766485Y-140207292D01*
X118766485Y-140207292D02*
X118766485Y-140025863D01*
X118766485Y-140025863D02*
X118675771Y-139844434D01*
X118675771Y-139844434D02*
X118585057Y-139753720D01*
X118585057Y-139753720D02*
X118403628Y-139663006D01*
X118403628Y-139663006D02*
X117950057Y-139663006D01*
X117950057Y-139663006D02*
X117677914Y-139753720D01*
X116589342Y-141568006D02*
X116770771Y-141477292D01*
X116770771Y-141477292D02*
X116861485Y-141386577D01*
X116861485Y-141386577D02*
X116952199Y-141205149D01*
X116952199Y-141205149D02*
X116952199Y-140660863D01*
X116952199Y-140660863D02*
X116861485Y-140479434D01*
X116861485Y-140479434D02*
X116770771Y-140388720D01*
X116770771Y-140388720D02*
X116589342Y-140298006D01*
X116589342Y-140298006D02*
X116317199Y-140298006D01*
X116317199Y-140298006D02*
X116135771Y-140388720D01*
X116135771Y-140388720D02*
X116045057Y-140479434D01*
X116045057Y-140479434D02*
X115954342Y-140660863D01*
X115954342Y-140660863D02*
X115954342Y-141205149D01*
X115954342Y-141205149D02*
X116045057Y-141386577D01*
X116045057Y-141386577D02*
X116135771Y-141477292D01*
X116135771Y-141477292D02*
X116317199Y-141568006D01*
X116317199Y-141568006D02*
X116589342Y-141568006D01*
X115410057Y-140298006D02*
X114684343Y-140298006D01*
X115137914Y-141568006D02*
X115137914Y-139935149D01*
X115137914Y-139935149D02*
X115047200Y-139753720D01*
X115047200Y-139753720D02*
X114865771Y-139663006D01*
X114865771Y-139663006D02*
X114684343Y-139663006D01*
X114321486Y-140298006D02*
X113595772Y-140298006D01*
X114049343Y-139663006D02*
X114049343Y-141295863D01*
X114049343Y-141295863D02*
X113958629Y-141477292D01*
X113958629Y-141477292D02*
X113777200Y-141568006D01*
X113777200Y-141568006D02*
X113595772Y-141568006D01*
X113142201Y-140298006D02*
X112779344Y-141568006D01*
X112779344Y-141568006D02*
X112416486Y-140660863D01*
X112416486Y-140660863D02*
X112053629Y-141568006D01*
X112053629Y-141568006D02*
X111690772Y-140298006D01*
X110148630Y-141568006D02*
X110148630Y-140570149D01*
X110148630Y-140570149D02*
X110239344Y-140388720D01*
X110239344Y-140388720D02*
X110420772Y-140298006D01*
X110420772Y-140298006D02*
X110783630Y-140298006D01*
X110783630Y-140298006D02*
X110965058Y-140388720D01*
X110148630Y-141477292D02*
X110330058Y-141568006D01*
X110330058Y-141568006D02*
X110783630Y-141568006D01*
X110783630Y-141568006D02*
X110965058Y-141477292D01*
X110965058Y-141477292D02*
X111055772Y-141295863D01*
X111055772Y-141295863D02*
X111055772Y-141114434D01*
X111055772Y-141114434D02*
X110965058Y-140933006D01*
X110965058Y-140933006D02*
X110783630Y-140842292D01*
X110783630Y-140842292D02*
X110330058Y-140842292D01*
X110330058Y-140842292D02*
X110148630Y-140751577D01*
X109241487Y-141568006D02*
X109241487Y-140298006D01*
X109241487Y-140660863D02*
X109150773Y-140479434D01*
X109150773Y-140479434D02*
X109060059Y-140388720D01*
X109060059Y-140388720D02*
X108878630Y-140298006D01*
X108878630Y-140298006D02*
X108697201Y-140298006D01*
X107336487Y-141477292D02*
X107517915Y-141568006D01*
X107517915Y-141568006D02*
X107880773Y-141568006D01*
X107880773Y-141568006D02*
X108062201Y-141477292D01*
X108062201Y-141477292D02*
X108152915Y-141295863D01*
X108152915Y-141295863D02*
X108152915Y-140570149D01*
X108152915Y-140570149D02*
X108062201Y-140388720D01*
X108062201Y-140388720D02*
X107880773Y-140298006D01*
X107880773Y-140298006D02*
X107517915Y-140298006D01*
X107517915Y-140298006D02*
X107336487Y-140388720D01*
X107336487Y-140388720D02*
X107245773Y-140570149D01*
X107245773Y-140570149D02*
X107245773Y-140751577D01*
X107245773Y-140751577D02*
X108152915Y-140933006D01*
X103889344Y-141386577D02*
X103980058Y-141477292D01*
X103980058Y-141477292D02*
X104252201Y-141568006D01*
X104252201Y-141568006D02*
X104433629Y-141568006D01*
X104433629Y-141568006D02*
X104705772Y-141477292D01*
X104705772Y-141477292D02*
X104887201Y-141295863D01*
X104887201Y-141295863D02*
X104977915Y-141114434D01*
X104977915Y-141114434D02*
X105068629Y-140751577D01*
X105068629Y-140751577D02*
X105068629Y-140479434D01*
X105068629Y-140479434D02*
X104977915Y-140116577D01*
X104977915Y-140116577D02*
X104887201Y-139935149D01*
X104887201Y-139935149D02*
X104705772Y-139753720D01*
X104705772Y-139753720D02*
X104433629Y-139663006D01*
X104433629Y-139663006D02*
X104252201Y-139663006D01*
X104252201Y-139663006D02*
X103980058Y-139753720D01*
X103980058Y-139753720D02*
X103889344Y-139844434D01*
X102800772Y-141568006D02*
X102982201Y-141477292D01*
X102982201Y-141477292D02*
X103072915Y-141386577D01*
X103072915Y-141386577D02*
X103163629Y-141205149D01*
X103163629Y-141205149D02*
X103163629Y-140660863D01*
X103163629Y-140660863D02*
X103072915Y-140479434D01*
X103072915Y-140479434D02*
X102982201Y-140388720D01*
X102982201Y-140388720D02*
X102800772Y-140298006D01*
X102800772Y-140298006D02*
X102528629Y-140298006D01*
X102528629Y-140298006D02*
X102347201Y-140388720D01*
X102347201Y-140388720D02*
X102256487Y-140479434D01*
X102256487Y-140479434D02*
X102165772Y-140660863D01*
X102165772Y-140660863D02*
X102165772Y-141205149D01*
X102165772Y-141205149D02*
X102256487Y-141386577D01*
X102256487Y-141386577D02*
X102347201Y-141477292D01*
X102347201Y-141477292D02*
X102528629Y-141568006D01*
X102528629Y-141568006D02*
X102800772Y-141568006D01*
X101349344Y-140298006D02*
X101349344Y-141568006D01*
X101349344Y-140479434D02*
X101258630Y-140388720D01*
X101258630Y-140388720D02*
X101077201Y-140298006D01*
X101077201Y-140298006D02*
X100805058Y-140298006D01*
X100805058Y-140298006D02*
X100623630Y-140388720D01*
X100623630Y-140388720D02*
X100532916Y-140570149D01*
X100532916Y-140570149D02*
X100532916Y-141568006D01*
X99897916Y-140298006D02*
X99172202Y-140298006D01*
X99625773Y-141568006D02*
X99625773Y-139935149D01*
X99625773Y-139935149D02*
X99535059Y-139753720D01*
X99535059Y-139753720D02*
X99353630Y-139663006D01*
X99353630Y-139663006D02*
X99172202Y-139663006D01*
X98537202Y-141568006D02*
X98537202Y-140298006D01*
X98537202Y-139663006D02*
X98627916Y-139753720D01*
X98627916Y-139753720D02*
X98537202Y-139844434D01*
X98537202Y-139844434D02*
X98446488Y-139753720D01*
X98446488Y-139753720D02*
X98537202Y-139663006D01*
X98537202Y-139663006D02*
X98537202Y-139844434D01*
X96813631Y-140298006D02*
X96813631Y-141840149D01*
X96813631Y-141840149D02*
X96904345Y-142021577D01*
X96904345Y-142021577D02*
X96995059Y-142112292D01*
X96995059Y-142112292D02*
X97176488Y-142203006D01*
X97176488Y-142203006D02*
X97448631Y-142203006D01*
X97448631Y-142203006D02*
X97630059Y-142112292D01*
X96813631Y-141477292D02*
X96995059Y-141568006D01*
X96995059Y-141568006D02*
X97357916Y-141568006D01*
X97357916Y-141568006D02*
X97539345Y-141477292D01*
X97539345Y-141477292D02*
X97630059Y-141386577D01*
X97630059Y-141386577D02*
X97720773Y-141205149D01*
X97720773Y-141205149D02*
X97720773Y-140660863D01*
X97720773Y-140660863D02*
X97630059Y-140479434D01*
X97630059Y-140479434D02*
X97539345Y-140388720D01*
X97539345Y-140388720D02*
X97357916Y-140298006D01*
X97357916Y-140298006D02*
X96995059Y-140298006D01*
X96995059Y-140298006D02*
X96813631Y-140388720D01*
X95090060Y-140298006D02*
X95090060Y-141568006D01*
X95906488Y-140298006D02*
X95906488Y-141295863D01*
X95906488Y-141295863D02*
X95815774Y-141477292D01*
X95815774Y-141477292D02*
X95634345Y-141568006D01*
X95634345Y-141568006D02*
X95362202Y-141568006D01*
X95362202Y-141568006D02*
X95180774Y-141477292D01*
X95180774Y-141477292D02*
X95090060Y-141386577D01*
X94182917Y-141568006D02*
X94182917Y-140298006D01*
X94182917Y-140660863D02*
X94092203Y-140479434D01*
X94092203Y-140479434D02*
X94001489Y-140388720D01*
X94001489Y-140388720D02*
X93820060Y-140298006D01*
X93820060Y-140298006D02*
X93638631Y-140298006D01*
X92187203Y-141568006D02*
X92187203Y-140570149D01*
X92187203Y-140570149D02*
X92277917Y-140388720D01*
X92277917Y-140388720D02*
X92459345Y-140298006D01*
X92459345Y-140298006D02*
X92822203Y-140298006D01*
X92822203Y-140298006D02*
X93003631Y-140388720D01*
X92187203Y-141477292D02*
X92368631Y-141568006D01*
X92368631Y-141568006D02*
X92822203Y-141568006D01*
X92822203Y-141568006D02*
X93003631Y-141477292D01*
X93003631Y-141477292D02*
X93094345Y-141295863D01*
X93094345Y-141295863D02*
X93094345Y-141114434D01*
X93094345Y-141114434D02*
X93003631Y-140933006D01*
X93003631Y-140933006D02*
X92822203Y-140842292D01*
X92822203Y-140842292D02*
X92368631Y-140842292D01*
X92368631Y-140842292D02*
X92187203Y-140751577D01*
X91280060Y-141568006D02*
X91280060Y-139663006D01*
X91280060Y-140388720D02*
X91098632Y-140298006D01*
X91098632Y-140298006D02*
X90735774Y-140298006D01*
X90735774Y-140298006D02*
X90554346Y-140388720D01*
X90554346Y-140388720D02*
X90463632Y-140479434D01*
X90463632Y-140479434D02*
X90372917Y-140660863D01*
X90372917Y-140660863D02*
X90372917Y-141205149D01*
X90372917Y-141205149D02*
X90463632Y-141386577D01*
X90463632Y-141386577D02*
X90554346Y-141477292D01*
X90554346Y-141477292D02*
X90735774Y-141568006D01*
X90735774Y-141568006D02*
X91098632Y-141568006D01*
X91098632Y-141568006D02*
X91280060Y-141477292D01*
X89284346Y-141568006D02*
X89465775Y-141477292D01*
X89465775Y-141477292D02*
X89556489Y-141295863D01*
X89556489Y-141295863D02*
X89556489Y-139663006D01*
X87832918Y-141477292D02*
X88014346Y-141568006D01*
X88014346Y-141568006D02*
X88377204Y-141568006D01*
X88377204Y-141568006D02*
X88558632Y-141477292D01*
X88558632Y-141477292D02*
X88649346Y-141295863D01*
X88649346Y-141295863D02*
X88649346Y-140570149D01*
X88649346Y-140570149D02*
X88558632Y-140388720D01*
X88558632Y-140388720D02*
X88377204Y-140298006D01*
X88377204Y-140298006D02*
X88014346Y-140298006D01*
X88014346Y-140298006D02*
X87832918Y-140388720D01*
X87832918Y-140388720D02*
X87742204Y-140570149D01*
X87742204Y-140570149D02*
X87742204Y-140751577D01*
X87742204Y-140751577D02*
X88649346Y-140933006D01*
X118766485Y-144544235D02*
X118494343Y-144634949D01*
X118494343Y-144634949D02*
X118040771Y-144634949D01*
X118040771Y-144634949D02*
X117859343Y-144544235D01*
X117859343Y-144544235D02*
X117768628Y-144453520D01*
X117768628Y-144453520D02*
X117677914Y-144272092D01*
X117677914Y-144272092D02*
X117677914Y-144090663D01*
X117677914Y-144090663D02*
X117768628Y-143909235D01*
X117768628Y-143909235D02*
X117859343Y-143818520D01*
X117859343Y-143818520D02*
X118040771Y-143727806D01*
X118040771Y-143727806D02*
X118403628Y-143637092D01*
X118403628Y-143637092D02*
X118585057Y-143546377D01*
X118585057Y-143546377D02*
X118675771Y-143455663D01*
X118675771Y-143455663D02*
X118766485Y-143274235D01*
X118766485Y-143274235D02*
X118766485Y-143092806D01*
X118766485Y-143092806D02*
X118675771Y-142911377D01*
X118675771Y-142911377D02*
X118585057Y-142820663D01*
X118585057Y-142820663D02*
X118403628Y-142729949D01*
X118403628Y-142729949D02*
X117950057Y-142729949D01*
X117950057Y-142729949D02*
X117677914Y-142820663D01*
X116589342Y-144634949D02*
X116770771Y-144544235D01*
X116770771Y-144544235D02*
X116861485Y-144453520D01*
X116861485Y-144453520D02*
X116952199Y-144272092D01*
X116952199Y-144272092D02*
X116952199Y-143727806D01*
X116952199Y-143727806D02*
X116861485Y-143546377D01*
X116861485Y-143546377D02*
X116770771Y-143455663D01*
X116770771Y-143455663D02*
X116589342Y-143364949D01*
X116589342Y-143364949D02*
X116317199Y-143364949D01*
X116317199Y-143364949D02*
X116135771Y-143455663D01*
X116135771Y-143455663D02*
X116045057Y-143546377D01*
X116045057Y-143546377D02*
X115954342Y-143727806D01*
X115954342Y-143727806D02*
X115954342Y-144272092D01*
X115954342Y-144272092D02*
X116045057Y-144453520D01*
X116045057Y-144453520D02*
X116135771Y-144544235D01*
X116135771Y-144544235D02*
X116317199Y-144634949D01*
X116317199Y-144634949D02*
X116589342Y-144634949D01*
X114865771Y-144634949D02*
X115047200Y-144544235D01*
X115047200Y-144544235D02*
X115137914Y-144362806D01*
X115137914Y-144362806D02*
X115137914Y-142729949D01*
X113323629Y-144634949D02*
X113323629Y-142729949D01*
X113323629Y-144544235D02*
X113505057Y-144634949D01*
X113505057Y-144634949D02*
X113867914Y-144634949D01*
X113867914Y-144634949D02*
X114049343Y-144544235D01*
X114049343Y-144544235D02*
X114140057Y-144453520D01*
X114140057Y-144453520D02*
X114230771Y-144272092D01*
X114230771Y-144272092D02*
X114230771Y-143727806D01*
X114230771Y-143727806D02*
X114140057Y-143546377D01*
X114140057Y-143546377D02*
X114049343Y-143455663D01*
X114049343Y-143455663D02*
X113867914Y-143364949D01*
X113867914Y-143364949D02*
X113505057Y-143364949D01*
X113505057Y-143364949D02*
X113323629Y-143455663D01*
X111690772Y-144544235D02*
X111872200Y-144634949D01*
X111872200Y-144634949D02*
X112235058Y-144634949D01*
X112235058Y-144634949D02*
X112416486Y-144544235D01*
X112416486Y-144544235D02*
X112507200Y-144362806D01*
X112507200Y-144362806D02*
X112507200Y-143637092D01*
X112507200Y-143637092D02*
X112416486Y-143455663D01*
X112416486Y-143455663D02*
X112235058Y-143364949D01*
X112235058Y-143364949D02*
X111872200Y-143364949D01*
X111872200Y-143364949D02*
X111690772Y-143455663D01*
X111690772Y-143455663D02*
X111600058Y-143637092D01*
X111600058Y-143637092D02*
X111600058Y-143818520D01*
X111600058Y-143818520D02*
X112507200Y-143999949D01*
X110783629Y-144634949D02*
X110783629Y-143364949D01*
X110783629Y-143727806D02*
X110692915Y-143546377D01*
X110692915Y-143546377D02*
X110602201Y-143455663D01*
X110602201Y-143455663D02*
X110420772Y-143364949D01*
X110420772Y-143364949D02*
X110239343Y-143364949D01*
X109604343Y-143909235D02*
X108152915Y-143909235D01*
X106338629Y-144634949D02*
X107245772Y-144634949D01*
X107245772Y-144634949D02*
X107245772Y-142729949D01*
X104977915Y-144544235D02*
X105159343Y-144634949D01*
X105159343Y-144634949D02*
X105522201Y-144634949D01*
X105522201Y-144634949D02*
X105703629Y-144544235D01*
X105703629Y-144544235D02*
X105794343Y-144362806D01*
X105794343Y-144362806D02*
X105794343Y-143637092D01*
X105794343Y-143637092D02*
X105703629Y-143455663D01*
X105703629Y-143455663D02*
X105522201Y-143364949D01*
X105522201Y-143364949D02*
X105159343Y-143364949D01*
X105159343Y-143364949D02*
X104977915Y-143455663D01*
X104977915Y-143455663D02*
X104887201Y-143637092D01*
X104887201Y-143637092D02*
X104887201Y-143818520D01*
X104887201Y-143818520D02*
X105794343Y-143999949D01*
X104161486Y-144544235D02*
X103980058Y-144634949D01*
X103980058Y-144634949D02*
X103617201Y-144634949D01*
X103617201Y-144634949D02*
X103435772Y-144544235D01*
X103435772Y-144544235D02*
X103345058Y-144362806D01*
X103345058Y-144362806D02*
X103345058Y-144272092D01*
X103345058Y-144272092D02*
X103435772Y-144090663D01*
X103435772Y-144090663D02*
X103617201Y-143999949D01*
X103617201Y-143999949D02*
X103889344Y-143999949D01*
X103889344Y-143999949D02*
X104070772Y-143909235D01*
X104070772Y-143909235D02*
X104161486Y-143727806D01*
X104161486Y-143727806D02*
X104161486Y-143637092D01*
X104161486Y-143637092D02*
X104070772Y-143455663D01*
X104070772Y-143455663D02*
X103889344Y-143364949D01*
X103889344Y-143364949D02*
X103617201Y-143364949D01*
X103617201Y-143364949D02*
X103435772Y-143455663D01*
X102619343Y-144544235D02*
X102437915Y-144634949D01*
X102437915Y-144634949D02*
X102075058Y-144634949D01*
X102075058Y-144634949D02*
X101893629Y-144544235D01*
X101893629Y-144544235D02*
X101802915Y-144362806D01*
X101802915Y-144362806D02*
X101802915Y-144272092D01*
X101802915Y-144272092D02*
X101893629Y-144090663D01*
X101893629Y-144090663D02*
X102075058Y-143999949D01*
X102075058Y-143999949D02*
X102347201Y-143999949D01*
X102347201Y-143999949D02*
X102528629Y-143909235D01*
X102528629Y-143909235D02*
X102619343Y-143727806D01*
X102619343Y-143727806D02*
X102619343Y-143637092D01*
X102619343Y-143637092D02*
X102528629Y-143455663D01*
X102528629Y-143455663D02*
X102347201Y-143364949D01*
X102347201Y-143364949D02*
X102075058Y-143364949D01*
X102075058Y-143364949D02*
X101893629Y-143455663D01*
X98900057Y-143637092D02*
X98627914Y-143727806D01*
X98627914Y-143727806D02*
X98537200Y-143818520D01*
X98537200Y-143818520D02*
X98446486Y-143999949D01*
X98446486Y-143999949D02*
X98446486Y-144272092D01*
X98446486Y-144272092D02*
X98537200Y-144453520D01*
X98537200Y-144453520D02*
X98627914Y-144544235D01*
X98627914Y-144544235D02*
X98809343Y-144634949D01*
X98809343Y-144634949D02*
X99535057Y-144634949D01*
X99535057Y-144634949D02*
X99535057Y-142729949D01*
X99535057Y-142729949D02*
X98900057Y-142729949D01*
X98900057Y-142729949D02*
X98718629Y-142820663D01*
X98718629Y-142820663D02*
X98627914Y-142911377D01*
X98627914Y-142911377D02*
X98537200Y-143092806D01*
X98537200Y-143092806D02*
X98537200Y-143274235D01*
X98537200Y-143274235D02*
X98627914Y-143455663D01*
X98627914Y-143455663D02*
X98718629Y-143546377D01*
X98718629Y-143546377D02*
X98900057Y-143637092D01*
X98900057Y-143637092D02*
X99535057Y-143637092D01*
X97630057Y-144634949D02*
X97630057Y-143364949D01*
X97630057Y-143727806D02*
X97539343Y-143546377D01*
X97539343Y-143546377D02*
X97448629Y-143455663D01*
X97448629Y-143455663D02*
X97267200Y-143364949D01*
X97267200Y-143364949D02*
X97085771Y-143364949D01*
X95725057Y-144544235D02*
X95906485Y-144634949D01*
X95906485Y-144634949D02*
X96269343Y-144634949D01*
X96269343Y-144634949D02*
X96450771Y-144544235D01*
X96450771Y-144544235D02*
X96541485Y-144362806D01*
X96541485Y-144362806D02*
X96541485Y-143637092D01*
X96541485Y-143637092D02*
X96450771Y-143455663D01*
X96450771Y-143455663D02*
X96269343Y-143364949D01*
X96269343Y-143364949D02*
X95906485Y-143364949D01*
X95906485Y-143364949D02*
X95725057Y-143455663D01*
X95725057Y-143455663D02*
X95634343Y-143637092D01*
X95634343Y-143637092D02*
X95634343Y-143818520D01*
X95634343Y-143818520D02*
X96541485Y-143999949D01*
X94001486Y-144634949D02*
X94001486Y-143637092D01*
X94001486Y-143637092D02*
X94092200Y-143455663D01*
X94092200Y-143455663D02*
X94273628Y-143364949D01*
X94273628Y-143364949D02*
X94636486Y-143364949D01*
X94636486Y-143364949D02*
X94817914Y-143455663D01*
X94001486Y-144544235D02*
X94182914Y-144634949D01*
X94182914Y-144634949D02*
X94636486Y-144634949D01*
X94636486Y-144634949D02*
X94817914Y-144544235D01*
X94817914Y-144544235D02*
X94908628Y-144362806D01*
X94908628Y-144362806D02*
X94908628Y-144181377D01*
X94908628Y-144181377D02*
X94817914Y-143999949D01*
X94817914Y-143999949D02*
X94636486Y-143909235D01*
X94636486Y-143909235D02*
X94182914Y-143909235D01*
X94182914Y-143909235D02*
X94001486Y-143818520D01*
X92277915Y-144634949D02*
X92277915Y-142729949D01*
X92277915Y-144544235D02*
X92459343Y-144634949D01*
X92459343Y-144634949D02*
X92822200Y-144634949D01*
X92822200Y-144634949D02*
X93003629Y-144544235D01*
X93003629Y-144544235D02*
X93094343Y-144453520D01*
X93094343Y-144453520D02*
X93185057Y-144272092D01*
X93185057Y-144272092D02*
X93185057Y-143727806D01*
X93185057Y-143727806D02*
X93094343Y-143546377D01*
X93094343Y-143546377D02*
X93003629Y-143455663D01*
X93003629Y-143455663D02*
X92822200Y-143364949D01*
X92822200Y-143364949D02*
X92459343Y-143364949D01*
X92459343Y-143364949D02*
X92277915Y-143455663D01*
X91370772Y-144634949D02*
X91370772Y-142729949D01*
X91370772Y-143455663D02*
X91189344Y-143364949D01*
X91189344Y-143364949D02*
X90826486Y-143364949D01*
X90826486Y-143364949D02*
X90645058Y-143455663D01*
X90645058Y-143455663D02*
X90554344Y-143546377D01*
X90554344Y-143546377D02*
X90463629Y-143727806D01*
X90463629Y-143727806D02*
X90463629Y-144272092D01*
X90463629Y-144272092D02*
X90554344Y-144453520D01*
X90554344Y-144453520D02*
X90645058Y-144544235D01*
X90645058Y-144544235D02*
X90826486Y-144634949D01*
X90826486Y-144634949D02*
X91189344Y-144634949D01*
X91189344Y-144634949D02*
X91370772Y-144544235D01*
X89375058Y-144634949D02*
X89556487Y-144544235D01*
X89556487Y-144544235D02*
X89647201Y-144453520D01*
X89647201Y-144453520D02*
X89737915Y-144272092D01*
X89737915Y-144272092D02*
X89737915Y-143727806D01*
X89737915Y-143727806D02*
X89647201Y-143546377D01*
X89647201Y-143546377D02*
X89556487Y-143455663D01*
X89556487Y-143455663D02*
X89375058Y-143364949D01*
X89375058Y-143364949D02*
X89102915Y-143364949D01*
X89102915Y-143364949D02*
X88921487Y-143455663D01*
X88921487Y-143455663D02*
X88830773Y-143546377D01*
X88830773Y-143546377D02*
X88740058Y-143727806D01*
X88740058Y-143727806D02*
X88740058Y-144272092D01*
X88740058Y-144272092D02*
X88830773Y-144453520D01*
X88830773Y-144453520D02*
X88921487Y-144544235D01*
X88921487Y-144544235D02*
X89102915Y-144634949D01*
X89102915Y-144634949D02*
X89375058Y-144634949D01*
X87107202Y-144634949D02*
X87107202Y-143637092D01*
X87107202Y-143637092D02*
X87197916Y-143455663D01*
X87197916Y-143455663D02*
X87379344Y-143364949D01*
X87379344Y-143364949D02*
X87742202Y-143364949D01*
X87742202Y-143364949D02*
X87923630Y-143455663D01*
X87107202Y-144544235D02*
X87288630Y-144634949D01*
X87288630Y-144634949D02*
X87742202Y-144634949D01*
X87742202Y-144634949D02*
X87923630Y-144544235D01*
X87923630Y-144544235D02*
X88014344Y-144362806D01*
X88014344Y-144362806D02*
X88014344Y-144181377D01*
X88014344Y-144181377D02*
X87923630Y-143999949D01*
X87923630Y-143999949D02*
X87742202Y-143909235D01*
X87742202Y-143909235D02*
X87288630Y-143909235D01*
X87288630Y-143909235D02*
X87107202Y-143818520D01*
X86200059Y-144634949D02*
X86200059Y-143364949D01*
X86200059Y-143727806D02*
X86109345Y-143546377D01*
X86109345Y-143546377D02*
X86018631Y-143455663D01*
X86018631Y-143455663D02*
X85837202Y-143364949D01*
X85837202Y-143364949D02*
X85655773Y-143364949D01*
X84204345Y-144634949D02*
X84204345Y-142729949D01*
X84204345Y-144544235D02*
X84385773Y-144634949D01*
X84385773Y-144634949D02*
X84748630Y-144634949D01*
X84748630Y-144634949D02*
X84930059Y-144544235D01*
X84930059Y-144544235D02*
X85020773Y-144453520D01*
X85020773Y-144453520D02*
X85111487Y-144272092D01*
X85111487Y-144272092D02*
X85111487Y-143727806D01*
X85111487Y-143727806D02*
X85020773Y-143546377D01*
X85020773Y-143546377D02*
X84930059Y-143455663D01*
X84930059Y-143455663D02*
X84748630Y-143364949D01*
X84748630Y-143364949D02*
X84385773Y-143364949D01*
X84385773Y-143364949D02*
X84204345Y-143455663D01*
D10*
X154555180Y-133561461D02*
X154010895Y-133561461D01*
X154664037Y-133924318D02*
X154283037Y-132654318D01*
X154283037Y-132654318D02*
X153902037Y-133924318D01*
X153629895Y-132654318D02*
X153357752Y-133924318D01*
X153357752Y-133924318D02*
X153140038Y-133017175D01*
X153140038Y-133017175D02*
X152922323Y-133924318D01*
X152922323Y-133924318D02*
X152650181Y-132654318D01*
X152269180Y-132775270D02*
X152214752Y-132714794D01*
X152214752Y-132714794D02*
X152105895Y-132654318D01*
X152105895Y-132654318D02*
X151833752Y-132654318D01*
X151833752Y-132654318D02*
X151724895Y-132714794D01*
X151724895Y-132714794D02*
X151670466Y-132775270D01*
X151670466Y-132775270D02*
X151616037Y-132896222D01*
X151616037Y-132896222D02*
X151616037Y-133017175D01*
X151616037Y-133017175D02*
X151670466Y-133198603D01*
X151670466Y-133198603D02*
X152323609Y-133924318D01*
X152323609Y-133924318D02*
X151616037Y-133924318D01*
X194814180Y-107254318D02*
X194814180Y-108161461D01*
X194814180Y-108161461D02*
X194868609Y-108342889D01*
X194868609Y-108342889D02*
X194977466Y-108463842D01*
X194977466Y-108463842D02*
X195140752Y-108524318D01*
X195140752Y-108524318D02*
X195249609Y-108524318D01*
X194269895Y-108524318D02*
X194269895Y-107254318D01*
X194269895Y-107254318D02*
X193834466Y-107254318D01*
X193834466Y-107254318D02*
X193725609Y-107314794D01*
X193725609Y-107314794D02*
X193671180Y-107375270D01*
X193671180Y-107375270D02*
X193616752Y-107496222D01*
X193616752Y-107496222D02*
X193616752Y-107677651D01*
X193616752Y-107677651D02*
X193671180Y-107798603D01*
X193671180Y-107798603D02*
X193725609Y-107859080D01*
X193725609Y-107859080D02*
X193834466Y-107919556D01*
X193834466Y-107919556D02*
X194269895Y-107919556D01*
X192528180Y-108524318D02*
X193181323Y-108524318D01*
X192854752Y-108524318D02*
X192854752Y-107254318D01*
X192854752Y-107254318D02*
X192963609Y-107435746D01*
X192963609Y-107435746D02*
X193072466Y-107556699D01*
X193072466Y-107556699D02*
X193181323Y-107617175D01*
X191494038Y-107254318D02*
X192038324Y-107254318D01*
X192038324Y-107254318D02*
X192092752Y-107859080D01*
X192092752Y-107859080D02*
X192038324Y-107798603D01*
X192038324Y-107798603D02*
X191929467Y-107738127D01*
X191929467Y-107738127D02*
X191657324Y-107738127D01*
X191657324Y-107738127D02*
X191548467Y-107798603D01*
X191548467Y-107798603D02*
X191494038Y-107859080D01*
X191494038Y-107859080D02*
X191439609Y-107980032D01*
X191439609Y-107980032D02*
X191439609Y-108282413D01*
X191439609Y-108282413D02*
X191494038Y-108403365D01*
X191494038Y-108403365D02*
X191548467Y-108463842D01*
X191548467Y-108463842D02*
X191657324Y-108524318D01*
X191657324Y-108524318D02*
X191929467Y-108524318D01*
X191929467Y-108524318D02*
X192038324Y-108463842D01*
X192038324Y-108463842D02*
X192092752Y-108403365D01*
X164642609Y-131356680D02*
X164697037Y-131429252D01*
X164697037Y-131429252D02*
X164860323Y-131501823D01*
X164860323Y-131501823D02*
X164969180Y-131501823D01*
X164969180Y-131501823D02*
X165132466Y-131429252D01*
X165132466Y-131429252D02*
X165241323Y-131284109D01*
X165241323Y-131284109D02*
X165295752Y-131138966D01*
X165295752Y-131138966D02*
X165350180Y-130848680D01*
X165350180Y-130848680D02*
X165350180Y-130630966D01*
X165350180Y-130630966D02*
X165295752Y-130340680D01*
X165295752Y-130340680D02*
X165241323Y-130195537D01*
X165241323Y-130195537D02*
X165132466Y-130050394D01*
X165132466Y-130050394D02*
X164969180Y-129977823D01*
X164969180Y-129977823D02*
X164860323Y-129977823D01*
X164860323Y-129977823D02*
X164697037Y-130050394D01*
X164697037Y-130050394D02*
X164642609Y-130122966D01*
X164152752Y-131501823D02*
X164152752Y-129977823D01*
X164152752Y-130703537D02*
X163499609Y-130703537D01*
X163499609Y-131501823D02*
X163499609Y-129977823D01*
X163009751Y-131066394D02*
X162465466Y-131066394D01*
X163118608Y-131501823D02*
X162737608Y-129977823D01*
X162737608Y-129977823D02*
X162356608Y-131501823D01*
X79505818Y-99634318D02*
X79505818Y-100541461D01*
X79505818Y-100541461D02*
X79560247Y-100722889D01*
X79560247Y-100722889D02*
X79669104Y-100843842D01*
X79669104Y-100843842D02*
X79832390Y-100904318D01*
X79832390Y-100904318D02*
X79941247Y-100904318D01*
X78961533Y-100904318D02*
X78961533Y-99634318D01*
X78961533Y-99634318D02*
X78526104Y-99634318D01*
X78526104Y-99634318D02*
X78417247Y-99694794D01*
X78417247Y-99694794D02*
X78362818Y-99755270D01*
X78362818Y-99755270D02*
X78308390Y-99876222D01*
X78308390Y-99876222D02*
X78308390Y-100057651D01*
X78308390Y-100057651D02*
X78362818Y-100178603D01*
X78362818Y-100178603D02*
X78417247Y-100239080D01*
X78417247Y-100239080D02*
X78526104Y-100299556D01*
X78526104Y-100299556D02*
X78961533Y-100299556D01*
X77328676Y-100057651D02*
X77328676Y-100904318D01*
X77600818Y-99573842D02*
X77872961Y-100480984D01*
X77872961Y-100480984D02*
X77165390Y-100480984D01*
X160270180Y-130386461D02*
X159725895Y-130386461D01*
X160379037Y-130749318D02*
X159998037Y-129479318D01*
X159998037Y-129479318D02*
X159617037Y-130749318D01*
X159344895Y-129479318D02*
X159072752Y-130749318D01*
X159072752Y-130749318D02*
X158855038Y-129842175D01*
X158855038Y-129842175D02*
X158637323Y-130749318D01*
X158637323Y-130749318D02*
X158365181Y-129479318D01*
X157331037Y-130749318D02*
X157984180Y-130749318D01*
X157657609Y-130749318D02*
X157657609Y-129479318D01*
X157657609Y-129479318D02*
X157766466Y-129660746D01*
X157766466Y-129660746D02*
X157875323Y-129781699D01*
X157875323Y-129781699D02*
X157984180Y-129842175D01*
X79505818Y-94554318D02*
X79505818Y-95461461D01*
X79505818Y-95461461D02*
X79560247Y-95642889D01*
X79560247Y-95642889D02*
X79669104Y-95763842D01*
X79669104Y-95763842D02*
X79832390Y-95824318D01*
X79832390Y-95824318D02*
X79941247Y-95824318D01*
X78961533Y-95824318D02*
X78961533Y-94554318D01*
X78961533Y-94554318D02*
X78526104Y-94554318D01*
X78526104Y-94554318D02*
X78417247Y-94614794D01*
X78417247Y-94614794D02*
X78362818Y-94675270D01*
X78362818Y-94675270D02*
X78308390Y-94796222D01*
X78308390Y-94796222D02*
X78308390Y-94977651D01*
X78308390Y-94977651D02*
X78362818Y-95098603D01*
X78362818Y-95098603D02*
X78417247Y-95159080D01*
X78417247Y-95159080D02*
X78526104Y-95219556D01*
X78526104Y-95219556D02*
X78961533Y-95219556D01*
X77872961Y-94675270D02*
X77818533Y-94614794D01*
X77818533Y-94614794D02*
X77709676Y-94554318D01*
X77709676Y-94554318D02*
X77437533Y-94554318D01*
X77437533Y-94554318D02*
X77328676Y-94614794D01*
X77328676Y-94614794D02*
X77274247Y-94675270D01*
X77274247Y-94675270D02*
X77219818Y-94796222D01*
X77219818Y-94796222D02*
X77219818Y-94917175D01*
X77219818Y-94917175D02*
X77274247Y-95098603D01*
X77274247Y-95098603D02*
X77927390Y-95824318D01*
X77927390Y-95824318D02*
X77219818Y-95824318D01*
X79505818Y-107254318D02*
X79505818Y-108161461D01*
X79505818Y-108161461D02*
X79560247Y-108342889D01*
X79560247Y-108342889D02*
X79669104Y-108463842D01*
X79669104Y-108463842D02*
X79832390Y-108524318D01*
X79832390Y-108524318D02*
X79941247Y-108524318D01*
X78961533Y-108524318D02*
X78961533Y-107254318D01*
X78961533Y-107254318D02*
X78526104Y-107254318D01*
X78526104Y-107254318D02*
X78417247Y-107314794D01*
X78417247Y-107314794D02*
X78362818Y-107375270D01*
X78362818Y-107375270D02*
X78308390Y-107496222D01*
X78308390Y-107496222D02*
X78308390Y-107677651D01*
X78308390Y-107677651D02*
X78362818Y-107798603D01*
X78362818Y-107798603D02*
X78417247Y-107859080D01*
X78417247Y-107859080D02*
X78526104Y-107919556D01*
X78526104Y-107919556D02*
X78961533Y-107919556D01*
X77927390Y-107254318D02*
X77165390Y-107254318D01*
X77165390Y-107254318D02*
X77655247Y-108524318D01*
X181942619Y-142706368D02*
X181095952Y-142706368D01*
X181095952Y-142706368D02*
X181640238Y-143976368D01*
X179705000Y-142645892D02*
X180793571Y-144278749D01*
X178616428Y-143976368D02*
X179342143Y-143976368D01*
X178979286Y-143976368D02*
X178979286Y-142706368D01*
X178979286Y-142706368D02*
X179100238Y-142887796D01*
X179100238Y-142887796D02*
X179221190Y-143008749D01*
X179221190Y-143008749D02*
X179342143Y-143069225D01*
X177165000Y-142645892D02*
X178253571Y-144278749D01*
X176802143Y-142827320D02*
X176741667Y-142766844D01*
X176741667Y-142766844D02*
X176620714Y-142706368D01*
X176620714Y-142706368D02*
X176318333Y-142706368D01*
X176318333Y-142706368D02*
X176197381Y-142766844D01*
X176197381Y-142766844D02*
X176136905Y-142827320D01*
X176136905Y-142827320D02*
X176076428Y-142948272D01*
X176076428Y-142948272D02*
X176076428Y-143069225D01*
X176076428Y-143069225D02*
X176136905Y-143250653D01*
X176136905Y-143250653D02*
X176862619Y-143976368D01*
X176862619Y-143976368D02*
X176076428Y-143976368D01*
X175290238Y-142706368D02*
X175169285Y-142706368D01*
X175169285Y-142706368D02*
X175048333Y-142766844D01*
X175048333Y-142766844D02*
X174987857Y-142827320D01*
X174987857Y-142827320D02*
X174927381Y-142948272D01*
X174927381Y-142948272D02*
X174866904Y-143190177D01*
X174866904Y-143190177D02*
X174866904Y-143492558D01*
X174866904Y-143492558D02*
X174927381Y-143734463D01*
X174927381Y-143734463D02*
X174987857Y-143855415D01*
X174987857Y-143855415D02*
X175048333Y-143915892D01*
X175048333Y-143915892D02*
X175169285Y-143976368D01*
X175169285Y-143976368D02*
X175290238Y-143976368D01*
X175290238Y-143976368D02*
X175411190Y-143915892D01*
X175411190Y-143915892D02*
X175471666Y-143855415D01*
X175471666Y-143855415D02*
X175532143Y-143734463D01*
X175532143Y-143734463D02*
X175592619Y-143492558D01*
X175592619Y-143492558D02*
X175592619Y-143190177D01*
X175592619Y-143190177D02*
X175532143Y-142948272D01*
X175532143Y-142948272D02*
X175471666Y-142827320D01*
X175471666Y-142827320D02*
X175411190Y-142766844D01*
X175411190Y-142766844D02*
X175290238Y-142706368D01*
X174383095Y-142827320D02*
X174322619Y-142766844D01*
X174322619Y-142766844D02*
X174201666Y-142706368D01*
X174201666Y-142706368D02*
X173899285Y-142706368D01*
X173899285Y-142706368D02*
X173778333Y-142766844D01*
X173778333Y-142766844D02*
X173717857Y-142827320D01*
X173717857Y-142827320D02*
X173657380Y-142948272D01*
X173657380Y-142948272D02*
X173657380Y-143069225D01*
X173657380Y-143069225D02*
X173717857Y-143250653D01*
X173717857Y-143250653D02*
X174443571Y-143976368D01*
X174443571Y-143976368D02*
X173657380Y-143976368D01*
X172508333Y-142706368D02*
X173113095Y-142706368D01*
X173113095Y-142706368D02*
X173173571Y-143311130D01*
X173173571Y-143311130D02*
X173113095Y-143250653D01*
X173113095Y-143250653D02*
X172992142Y-143190177D01*
X172992142Y-143190177D02*
X172689761Y-143190177D01*
X172689761Y-143190177D02*
X172568809Y-143250653D01*
X172568809Y-143250653D02*
X172508333Y-143311130D01*
X172508333Y-143311130D02*
X172447856Y-143432082D01*
X172447856Y-143432082D02*
X172447856Y-143734463D01*
X172447856Y-143734463D02*
X172508333Y-143855415D01*
X172508333Y-143855415D02*
X172568809Y-143915892D01*
X172568809Y-143915892D02*
X172689761Y-143976368D01*
X172689761Y-143976368D02*
X172992142Y-143976368D01*
X172992142Y-143976368D02*
X173113095Y-143915892D01*
X173113095Y-143915892D02*
X173173571Y-143855415D01*
X79505818Y-102174318D02*
X79505818Y-103081461D01*
X79505818Y-103081461D02*
X79560247Y-103262889D01*
X79560247Y-103262889D02*
X79669104Y-103383842D01*
X79669104Y-103383842D02*
X79832390Y-103444318D01*
X79832390Y-103444318D02*
X79941247Y-103444318D01*
X78961533Y-103444318D02*
X78961533Y-102174318D01*
X78961533Y-102174318D02*
X78526104Y-102174318D01*
X78526104Y-102174318D02*
X78417247Y-102234794D01*
X78417247Y-102234794D02*
X78362818Y-102295270D01*
X78362818Y-102295270D02*
X78308390Y-102416222D01*
X78308390Y-102416222D02*
X78308390Y-102597651D01*
X78308390Y-102597651D02*
X78362818Y-102718603D01*
X78362818Y-102718603D02*
X78417247Y-102779080D01*
X78417247Y-102779080D02*
X78526104Y-102839556D01*
X78526104Y-102839556D02*
X78961533Y-102839556D01*
X77274247Y-102174318D02*
X77818533Y-102174318D01*
X77818533Y-102174318D02*
X77872961Y-102779080D01*
X77872961Y-102779080D02*
X77818533Y-102718603D01*
X77818533Y-102718603D02*
X77709676Y-102658127D01*
X77709676Y-102658127D02*
X77437533Y-102658127D01*
X77437533Y-102658127D02*
X77328676Y-102718603D01*
X77328676Y-102718603D02*
X77274247Y-102779080D01*
X77274247Y-102779080D02*
X77219818Y-102900032D01*
X77219818Y-102900032D02*
X77219818Y-103202413D01*
X77219818Y-103202413D02*
X77274247Y-103323365D01*
X77274247Y-103323365D02*
X77328676Y-103383842D01*
X77328676Y-103383842D02*
X77437533Y-103444318D01*
X77437533Y-103444318D02*
X77709676Y-103444318D01*
X77709676Y-103444318D02*
X77818533Y-103383842D01*
X77818533Y-103383842D02*
X77872961Y-103323365D01*
X194814180Y-99634318D02*
X194814180Y-100541461D01*
X194814180Y-100541461D02*
X194868609Y-100722889D01*
X194868609Y-100722889D02*
X194977466Y-100843842D01*
X194977466Y-100843842D02*
X195140752Y-100904318D01*
X195140752Y-100904318D02*
X195249609Y-100904318D01*
X194269895Y-100904318D02*
X194269895Y-99634318D01*
X194269895Y-99634318D02*
X193834466Y-99634318D01*
X193834466Y-99634318D02*
X193725609Y-99694794D01*
X193725609Y-99694794D02*
X193671180Y-99755270D01*
X193671180Y-99755270D02*
X193616752Y-99876222D01*
X193616752Y-99876222D02*
X193616752Y-100057651D01*
X193616752Y-100057651D02*
X193671180Y-100178603D01*
X193671180Y-100178603D02*
X193725609Y-100239080D01*
X193725609Y-100239080D02*
X193834466Y-100299556D01*
X193834466Y-100299556D02*
X194269895Y-100299556D01*
X192528180Y-100904318D02*
X193181323Y-100904318D01*
X192854752Y-100904318D02*
X192854752Y-99634318D01*
X192854752Y-99634318D02*
X192963609Y-99815746D01*
X192963609Y-99815746D02*
X193072466Y-99936699D01*
X193072466Y-99936699D02*
X193181323Y-99997175D01*
X192092752Y-99755270D02*
X192038324Y-99694794D01*
X192038324Y-99694794D02*
X191929467Y-99634318D01*
X191929467Y-99634318D02*
X191657324Y-99634318D01*
X191657324Y-99634318D02*
X191548467Y-99694794D01*
X191548467Y-99694794D02*
X191494038Y-99755270D01*
X191494038Y-99755270D02*
X191439609Y-99876222D01*
X191439609Y-99876222D02*
X191439609Y-99997175D01*
X191439609Y-99997175D02*
X191494038Y-100178603D01*
X191494038Y-100178603D02*
X192147181Y-100904318D01*
X192147181Y-100904318D02*
X191439609Y-100904318D01*
X79505818Y-104714318D02*
X79505818Y-105621461D01*
X79505818Y-105621461D02*
X79560247Y-105802889D01*
X79560247Y-105802889D02*
X79669104Y-105923842D01*
X79669104Y-105923842D02*
X79832390Y-105984318D01*
X79832390Y-105984318D02*
X79941247Y-105984318D01*
X78961533Y-105984318D02*
X78961533Y-104714318D01*
X78961533Y-104714318D02*
X78526104Y-104714318D01*
X78526104Y-104714318D02*
X78417247Y-104774794D01*
X78417247Y-104774794D02*
X78362818Y-104835270D01*
X78362818Y-104835270D02*
X78308390Y-104956222D01*
X78308390Y-104956222D02*
X78308390Y-105137651D01*
X78308390Y-105137651D02*
X78362818Y-105258603D01*
X78362818Y-105258603D02*
X78417247Y-105319080D01*
X78417247Y-105319080D02*
X78526104Y-105379556D01*
X78526104Y-105379556D02*
X78961533Y-105379556D01*
X77328676Y-104714318D02*
X77546390Y-104714318D01*
X77546390Y-104714318D02*
X77655247Y-104774794D01*
X77655247Y-104774794D02*
X77709676Y-104835270D01*
X77709676Y-104835270D02*
X77818533Y-105016699D01*
X77818533Y-105016699D02*
X77872961Y-105258603D01*
X77872961Y-105258603D02*
X77872961Y-105742413D01*
X77872961Y-105742413D02*
X77818533Y-105863365D01*
X77818533Y-105863365D02*
X77764104Y-105923842D01*
X77764104Y-105923842D02*
X77655247Y-105984318D01*
X77655247Y-105984318D02*
X77437533Y-105984318D01*
X77437533Y-105984318D02*
X77328676Y-105923842D01*
X77328676Y-105923842D02*
X77274247Y-105863365D01*
X77274247Y-105863365D02*
X77219818Y-105742413D01*
X77219818Y-105742413D02*
X77219818Y-105440032D01*
X77219818Y-105440032D02*
X77274247Y-105319080D01*
X77274247Y-105319080D02*
X77328676Y-105258603D01*
X77328676Y-105258603D02*
X77437533Y-105198127D01*
X77437533Y-105198127D02*
X77655247Y-105198127D01*
X77655247Y-105198127D02*
X77764104Y-105258603D01*
X77764104Y-105258603D02*
X77818533Y-105319080D01*
X77818533Y-105319080D02*
X77872961Y-105440032D01*
X175437609Y-131356680D02*
X175492037Y-131429252D01*
X175492037Y-131429252D02*
X175655323Y-131501823D01*
X175655323Y-131501823D02*
X175764180Y-131501823D01*
X175764180Y-131501823D02*
X175927466Y-131429252D01*
X175927466Y-131429252D02*
X176036323Y-131284109D01*
X176036323Y-131284109D02*
X176090752Y-131138966D01*
X176090752Y-131138966D02*
X176145180Y-130848680D01*
X176145180Y-130848680D02*
X176145180Y-130630966D01*
X176145180Y-130630966D02*
X176090752Y-130340680D01*
X176090752Y-130340680D02*
X176036323Y-130195537D01*
X176036323Y-130195537D02*
X175927466Y-130050394D01*
X175927466Y-130050394D02*
X175764180Y-129977823D01*
X175764180Y-129977823D02*
X175655323Y-129977823D01*
X175655323Y-129977823D02*
X175492037Y-130050394D01*
X175492037Y-130050394D02*
X175437609Y-130122966D01*
X174947752Y-131501823D02*
X174947752Y-129977823D01*
X174947752Y-130703537D02*
X174294609Y-130703537D01*
X174294609Y-131501823D02*
X174294609Y-129977823D01*
X173097180Y-131356680D02*
X173151608Y-131429252D01*
X173151608Y-131429252D02*
X173314894Y-131501823D01*
X173314894Y-131501823D02*
X173423751Y-131501823D01*
X173423751Y-131501823D02*
X173587037Y-131429252D01*
X173587037Y-131429252D02*
X173695894Y-131284109D01*
X173695894Y-131284109D02*
X173750323Y-131138966D01*
X173750323Y-131138966D02*
X173804751Y-130848680D01*
X173804751Y-130848680D02*
X173804751Y-130630966D01*
X173804751Y-130630966D02*
X173750323Y-130340680D01*
X173750323Y-130340680D02*
X173695894Y-130195537D01*
X173695894Y-130195537D02*
X173587037Y-130050394D01*
X173587037Y-130050394D02*
X173423751Y-129977823D01*
X173423751Y-129977823D02*
X173314894Y-129977823D01*
X173314894Y-129977823D02*
X173151608Y-130050394D01*
X173151608Y-130050394D02*
X173097180Y-130122966D01*
X194814180Y-102174318D02*
X194814180Y-103081461D01*
X194814180Y-103081461D02*
X194868609Y-103262889D01*
X194868609Y-103262889D02*
X194977466Y-103383842D01*
X194977466Y-103383842D02*
X195140752Y-103444318D01*
X195140752Y-103444318D02*
X195249609Y-103444318D01*
X194269895Y-103444318D02*
X194269895Y-102174318D01*
X194269895Y-102174318D02*
X193834466Y-102174318D01*
X193834466Y-102174318D02*
X193725609Y-102234794D01*
X193725609Y-102234794D02*
X193671180Y-102295270D01*
X193671180Y-102295270D02*
X193616752Y-102416222D01*
X193616752Y-102416222D02*
X193616752Y-102597651D01*
X193616752Y-102597651D02*
X193671180Y-102718603D01*
X193671180Y-102718603D02*
X193725609Y-102779080D01*
X193725609Y-102779080D02*
X193834466Y-102839556D01*
X193834466Y-102839556D02*
X194269895Y-102839556D01*
X192528180Y-103444318D02*
X193181323Y-103444318D01*
X192854752Y-103444318D02*
X192854752Y-102174318D01*
X192854752Y-102174318D02*
X192963609Y-102355746D01*
X192963609Y-102355746D02*
X193072466Y-102476699D01*
X193072466Y-102476699D02*
X193181323Y-102537175D01*
X192147181Y-102174318D02*
X191439609Y-102174318D01*
X191439609Y-102174318D02*
X191820609Y-102658127D01*
X191820609Y-102658127D02*
X191657324Y-102658127D01*
X191657324Y-102658127D02*
X191548467Y-102718603D01*
X191548467Y-102718603D02*
X191494038Y-102779080D01*
X191494038Y-102779080D02*
X191439609Y-102900032D01*
X191439609Y-102900032D02*
X191439609Y-103202413D01*
X191439609Y-103202413D02*
X191494038Y-103323365D01*
X191494038Y-103323365D02*
X191548467Y-103383842D01*
X191548467Y-103383842D02*
X191657324Y-103444318D01*
X191657324Y-103444318D02*
X191983895Y-103444318D01*
X191983895Y-103444318D02*
X192092752Y-103383842D01*
X192092752Y-103383842D02*
X192147181Y-103323365D01*
D12*
X132913333Y-121389819D02*
X132913333Y-122104104D01*
X132913333Y-122104104D02*
X132960952Y-122246961D01*
X132960952Y-122246961D02*
X133056190Y-122342200D01*
X133056190Y-122342200D02*
X133199047Y-122389819D01*
X133199047Y-122389819D02*
X133294285Y-122389819D01*
X132437142Y-122389819D02*
X132437142Y-121389819D01*
X132437142Y-121389819D02*
X132056190Y-121389819D01*
X132056190Y-121389819D02*
X131960952Y-121437438D01*
X131960952Y-121437438D02*
X131913333Y-121485057D01*
X131913333Y-121485057D02*
X131865714Y-121580295D01*
X131865714Y-121580295D02*
X131865714Y-121723152D01*
X131865714Y-121723152D02*
X131913333Y-121818390D01*
X131913333Y-121818390D02*
X131960952Y-121866009D01*
X131960952Y-121866009D02*
X132056190Y-121913628D01*
X132056190Y-121913628D02*
X132437142Y-121913628D01*
X131532380Y-121389819D02*
X130913333Y-121389819D01*
X130913333Y-121389819D02*
X131246666Y-121770771D01*
X131246666Y-121770771D02*
X131103809Y-121770771D01*
X131103809Y-121770771D02*
X131008571Y-121818390D01*
X131008571Y-121818390D02*
X130960952Y-121866009D01*
X130960952Y-121866009D02*
X130913333Y-121961247D01*
X130913333Y-121961247D02*
X130913333Y-122199342D01*
X130913333Y-122199342D02*
X130960952Y-122294580D01*
X130960952Y-122294580D02*
X131008571Y-122342200D01*
X131008571Y-122342200D02*
X131103809Y-122389819D01*
X131103809Y-122389819D02*
X131389523Y-122389819D01*
X131389523Y-122389819D02*
X131484761Y-122342200D01*
X131484761Y-122342200D02*
X131532380Y-122294580D01*
X184348333Y-120104819D02*
X184348333Y-120819104D01*
X184348333Y-120819104D02*
X184395952Y-120961961D01*
X184395952Y-120961961D02*
X184491190Y-121057200D01*
X184491190Y-121057200D02*
X184634047Y-121104819D01*
X184634047Y-121104819D02*
X184729285Y-121104819D01*
X183872142Y-121104819D02*
X183872142Y-120104819D01*
X183872142Y-120104819D02*
X183491190Y-120104819D01*
X183491190Y-120104819D02*
X183395952Y-120152438D01*
X183395952Y-120152438D02*
X183348333Y-120200057D01*
X183348333Y-120200057D02*
X183300714Y-120295295D01*
X183300714Y-120295295D02*
X183300714Y-120438152D01*
X183300714Y-120438152D02*
X183348333Y-120533390D01*
X183348333Y-120533390D02*
X183395952Y-120581009D01*
X183395952Y-120581009D02*
X183491190Y-120628628D01*
X183491190Y-120628628D02*
X183872142Y-120628628D01*
X182443571Y-120438152D02*
X182443571Y-121104819D01*
X182681666Y-120057200D02*
X182919761Y-120771485D01*
X182919761Y-120771485D02*
X182300714Y-120771485D01*
D13*
%TO.C,JP3*%
X127905000Y-121220000D02*
X127905000Y-122620000D01*
X128605000Y-123320000D02*
X129205000Y-123320000D01*
X129205000Y-120520000D02*
X128605000Y-120520000D01*
X129905000Y-122620000D02*
X129905000Y-121220000D01*
X127905000Y-121220000D02*
G75*
G02*
X128605000Y-120520000I699999J1D01*
G01*
X128605000Y-123320000D02*
G75*
G02*
X127905000Y-122620000I0J700000D01*
G01*
X129205000Y-120520000D02*
G75*
G02*
X129905000Y-121220000I1J-699999D01*
G01*
X129905000Y-122620000D02*
G75*
G02*
X129205000Y-123320000I-700000J0D01*
G01*
%TO.C,JP4*%
X178955000Y-120350000D02*
X178955000Y-120950000D01*
X179655000Y-121650000D02*
X181055000Y-121650000D01*
X181055000Y-119650000D02*
X179655000Y-119650000D01*
X181755000Y-120950000D02*
X181755000Y-120350000D01*
X178955000Y-120350000D02*
G75*
G02*
X179655000Y-119650000I700000J0D01*
G01*
X179655000Y-121650000D02*
G75*
G02*
X178955000Y-120950000I0J700000D01*
G01*
X181055000Y-119650000D02*
G75*
G02*
X181755000Y-120350000I1J-699999D01*
G01*
X181755000Y-120950000D02*
G75*
G02*
X181055000Y-121650000I-699999J-1D01*
G01*
%TD*%
M02*
