M48
; DRILL file {KiCad 8.0.8} date 2025-07-05T11:35:31-0400
; FORMAT={-:-/ absolute / inch / decimal}
; #@! TF.CreationDate,2025-07-05T11:35:31-04:00
; #@! TF.GenerationSoftware,Kicad,Pcbnew,8.0.8
; #@! TF.FileFunction,Plated,1,2,PTH
FMAT,2
INCH
; #@! TA.AperFunction,Plated,PTH,ViaDrill
T1C0.0157
; #@! TA.AperFunction,Plated,PTH,ComponentDrill
T2C0.0276
; #@! TA.AperFunction,Plated,PTH,ComponentDrill
T3C0.0394
%
G90
G05
T1
X3.175Y-4.475
X3.175Y-4.725
X3.225Y-3.25
X3.525Y-3.65
X3.6Y-3.75
X3.6225Y-3.7025
X3.65Y-4.025
X3.8Y-3.85
X3.85Y-3.875
X3.85Y-4.1
X3.875Y-3.925
X4.075Y-4.05
X4.125Y-4.3
X4.2Y-4.25
X4.225Y-3.6
X4.275Y-3.65
X4.275Y-4.4
X4.3Y-3.975
X4.3Y-4.2
X4.325Y-3.75
X4.325Y-4.35
X4.35Y-5.25
X4.4Y-3.7
X4.5Y-3.825
X4.5Y-4.1
X4.525Y-3.875
X4.525Y-5.5
X4.55Y-3.925
X4.675Y-5.5014
X4.75Y-4.05
X4.775Y-4.115
X4.7875Y-5.5081
X4.8Y-4.3
X4.9Y-4.25
X4.95Y-4.2
X4.975Y-3.6
X4.975Y-4.825
X4.975Y-5.0
X5.0Y-4.35
X5.0Y-5.375
X5.05Y-3.65
X5.05Y-3.75
X5.05Y-4.125
X5.075Y-4.65
X5.125Y-4.4
X5.15Y-3.7
X5.225Y-3.925
X5.225Y-3.975
X5.25Y-3.825
X5.25Y-3.875
X5.25Y-4.1
X5.35Y-3.925
X5.35Y-4.15
X5.375Y-4.3
X5.375Y-4.6
X5.4Y-3.7
X5.4Y-3.875
X5.4Y-4.35
X5.45Y-3.925
X5.45Y-4.9
X5.495Y-4.015
X5.495Y-4.115
X5.5Y-5.0
X5.55Y-3.6
X5.55Y-4.3
X5.55Y-4.45
X5.575Y-3.75
X5.575Y-4.35
X5.63Y-4.25
X5.675Y-4.2
X5.75Y-3.65
X5.775Y-4.115
X5.795Y-3.75
X5.85Y-3.7
X5.95Y-3.875
X5.955Y-3.955
X5.975Y-3.825
X5.975Y-4.095
X5.975Y-4.75
X5.975Y-4.8
X6.0Y-4.0
X6.2Y-4.05
X6.25Y-4.3
X6.2875Y-5.1875
X6.35Y-4.25
X6.375Y-4.45
X6.4Y-3.6
X6.425Y-3.65
X6.435Y-4.2
X6.475Y-3.75
X6.475Y-4.35
X6.575Y-3.7
X6.635Y-3.955
X6.65Y-3.825
X6.675Y-3.875
X6.675Y-4.095
X6.725Y-3.975
X6.9Y-4.05
X6.925Y-4.1
X6.95Y-4.3
X7.0Y-4.7
X7.075Y-4.25
X7.075Y-4.65
X7.115Y-4.2
X7.125Y-4.35
X7.175Y-3.8
X7.2Y-3.6
X7.225Y-3.75
X7.225Y-4.65
X7.275Y-4.1
X7.3Y-4.15
T2
X7.45Y-3.475
T3
X3.225Y-3.65
X3.225Y-3.75
X3.225Y-3.85
X3.225Y-3.95
X3.225Y-4.05
X3.225Y-4.15
X3.225Y-4.25
X3.225Y-4.35
X3.95Y-3.0
X3.95Y-3.1
X3.95Y-4.9
X3.95Y-5.0
X3.95Y-5.25
X4.05Y-3.0
X4.05Y-3.1
X4.05Y-4.9
X4.05Y-5.0
X4.15Y-3.0
X4.15Y-3.1
X4.15Y-4.9
X4.15Y-5.0
X4.25Y-3.0
X4.25Y-3.1
X4.25Y-4.9
X4.25Y-5.0
X4.35Y-3.0
X4.35Y-3.1
X4.35Y-4.9
X4.35Y-5.0
X4.45Y-3.0
X4.45Y-3.1
X4.45Y-4.9
X4.45Y-5.0
X4.55Y-3.0
X4.55Y-3.1
X4.55Y-4.9
X4.55Y-5.0
X4.65Y-3.0
X4.65Y-3.1
X4.65Y-4.9
X4.65Y-5.0
X5.2Y-5.525
X5.2Y-5.625
X5.3Y-5.525
X5.3Y-5.625
X5.35Y-2.85
X5.35Y-3.325
X5.35Y-5.225
X5.4Y-4.675
X5.4Y-5.525
X5.4Y-5.625
X5.5Y-5.525
X5.5Y-5.625
X5.6Y-5.525
X5.6Y-5.625
X5.7Y-5.525
X5.7Y-5.625
X5.8Y-5.525
X5.8Y-5.625
X5.9Y-5.525
X5.9Y-5.625
X6.0Y-5.525
X6.0Y-5.625
X6.05Y-3.0
X6.05Y-3.1
X6.05Y-4.9
X6.05Y-5.0
X6.1Y-5.525
X6.1Y-5.625
X6.15Y-3.0
X6.15Y-3.1
X6.15Y-4.9
X6.15Y-5.0
X6.2Y-5.275
X6.2Y-5.375
X6.2Y-5.525
X6.2Y-5.625
X6.25Y-3.0
X6.25Y-3.1
X6.25Y-4.9
X6.25Y-5.0
X6.3Y-5.275
X6.3Y-5.375
X6.3Y-5.525
X6.3Y-5.625
X6.35Y-3.0
X6.35Y-3.1
X6.35Y-4.9
X6.35Y-5.0
X6.4Y-5.275
X6.4Y-5.375
X6.4Y-5.525
X6.4Y-5.625
X6.45Y-3.0
X6.45Y-3.1
X6.45Y-4.9
X6.45Y-5.0
X6.5Y-5.275
X6.5Y-5.375
X6.5Y-5.525
X6.5Y-5.625
X6.55Y-3.0
X6.55Y-3.1
X6.55Y-4.9
X6.55Y-5.0
X6.6Y-5.275
X6.6Y-5.375
X6.6Y-5.525
X6.6Y-5.625
X6.65Y-3.0
X6.65Y-3.1
X6.65Y-4.9
X6.65Y-5.0
X6.7Y-5.275
X6.7Y-5.375
X6.75Y-3.0
X6.75Y-3.1
X6.75Y-4.9
X6.75Y-5.0
X6.8Y-5.275
X6.8Y-5.375
X6.9Y-5.275
X6.9Y-5.375
X7.45Y-3.65
X7.45Y-3.75
X7.45Y-3.85
X7.45Y-3.95
X7.45Y-4.05
X7.45Y-4.15
X7.45Y-4.25
X7.45Y-4.35
M30
