%TF.GenerationSoftware,KiCad,Pcbnew,8.0.8*%
%TF.CreationDate,2025-07-05T11:35:26-04:00*%
%TF.ProjectId,cross-point-exp-brd-mini-red2-m2k,63726f73-732d-4706-9f69-6e742d657870,rev?*%
%TF.SameCoordinates,Original*%
%TF.FileFunction,Soldermask,Top*%
%TF.FilePolarity,Negative*%
%FSLAX46Y46*%
G04 Gerber Fmt 4.6, Leading zero omitted, Abs format (unit mm)*
G04 Created by KiCad (PCBNEW 8.0.8) date 2025-07-05 11:35:26*
%MOMM*%
%LPD*%
G01*
G04 APERTURE LIST*
G04 Aperture macros list*
%AMRoundRect*
0 Rectangle with rounded corners*
0 $1 Rounding radius*
0 $2 $3 $4 $5 $6 $7 $8 $9 X,Y pos of 4 corners*
0 Add a 4 corners polygon primitive as box body*
4,1,4,$2,$3,$4,$5,$6,$7,$8,$9,$2,$3,0*
0 Add four circle primitives for the rounded corners*
1,1,$1+$1,$2,$3*
1,1,$1+$1,$4,$5*
1,1,$1+$1,$6,$7*
1,1,$1+$1,$8,$9*
0 Add four rect primitives between the rounded corners*
20,1,$1+$1,$2,$3,$4,$5,0*
20,1,$1+$1,$4,$5,$6,$7,0*
20,1,$1+$1,$6,$7,$8,$9,0*
20,1,$1+$1,$8,$9,$2,$3,0*%
%AMFreePoly0*
4,1,19,0.500000,-0.750000,0.000000,-0.750000,0.000000,-0.744911,-0.071157,-0.744911,-0.207708,-0.704816,-0.327430,-0.627875,-0.420627,-0.520320,-0.479746,-0.390866,-0.500000,-0.250000,-0.500000,0.250000,-0.479746,0.390866,-0.420627,0.520320,-0.327430,0.627875,-0.207708,0.704816,-0.071157,0.744911,0.000000,0.744911,0.000000,0.750000,0.500000,0.750000,0.500000,-0.750000,0.500000,-0.750000,
$1*%
%AMFreePoly1*
4,1,19,0.000000,0.744911,0.071157,0.744911,0.207708,0.704816,0.327430,0.627875,0.420627,0.520320,0.479746,0.390866,0.500000,0.250000,0.500000,-0.250000,0.479746,-0.390866,0.420627,-0.520320,0.327430,-0.627875,0.207708,-0.704816,0.071157,-0.744911,0.000000,-0.744911,0.000000,-0.750000,-0.500000,-0.750000,-0.500000,0.750000,0.000000,0.750000,0.000000,0.744911,0.000000,0.744911,
$1*%
%AMFreePoly2*
4,1,19,0.550000,-0.750000,0.000000,-0.750000,0.000000,-0.744911,-0.071157,-0.744911,-0.207708,-0.704816,-0.327430,-0.627875,-0.420627,-0.520320,-0.479746,-0.390866,-0.500000,-0.250000,-0.500000,0.250000,-0.479746,0.390866,-0.420627,0.520320,-0.327430,0.627875,-0.207708,0.704816,-0.071157,0.744911,0.000000,0.744911,0.000000,0.750000,0.550000,0.750000,0.550000,-0.750000,0.550000,-0.750000,
$1*%
%AMFreePoly3*
4,1,19,0.000000,0.744911,0.071157,0.744911,0.207708,0.704816,0.327430,0.627875,0.420627,0.520320,0.479746,0.390866,0.500000,0.250000,0.500000,-0.250000,0.479746,-0.390866,0.420627,-0.520320,0.327430,-0.627875,0.207708,-0.704816,0.071157,-0.744911,0.000000,-0.744911,0.000000,-0.750000,-0.550000,-0.750000,-0.550000,0.750000,0.000000,0.750000,0.000000,0.744911,0.000000,0.744911,
$1*%
G04 Aperture macros list end*
%ADD10C,2.200000*%
%ADD11RoundRect,0.250000X-0.650000X0.325000X-0.650000X-0.325000X0.650000X-0.325000X0.650000X0.325000X0*%
%ADD12FreePoly0,90.000000*%
%ADD13FreePoly1,90.000000*%
%ADD14RoundRect,0.250000X0.650000X-0.325000X0.650000X0.325000X-0.650000X0.325000X-0.650000X-0.325000X0*%
%ADD15R,1.700000X1.700000*%
%ADD16O,1.700000X1.700000*%
%ADD17R,0.500000X1.200000*%
%ADD18R,1.200000X0.500000*%
%ADD19C,2.286000*%
%ADD20O,4.572000X1.700000*%
%ADD21C,2.000000*%
%ADD22C,3.200000*%
%ADD23FreePoly2,180.000000*%
%ADD24R,1.000000X1.500000*%
%ADD25FreePoly3,180.000000*%
%ADD26C,1.500000*%
G04 APERTURE END LIST*
D10*
%TO.C,PP3*%
X93345000Y-87630000D03*
%TD*%
D11*
%TO.C,C5*%
X114935000Y-135255000D03*
X114935000Y-138205000D03*
%TD*%
D10*
%TO.C,PP65*%
X175895000Y-115570000D03*
%TD*%
%TO.C,PP60*%
X163195000Y-115570000D03*
%TD*%
D11*
%TO.C,C3*%
X123507500Y-136955000D03*
X123507500Y-139905000D03*
%TD*%
D10*
%TO.C,PP33*%
X126365000Y-115570000D03*
%TD*%
%TO.C,PP55*%
X150495000Y-115570000D03*
%TD*%
%TO.C,REF\u002A\u002A*%
X96520000Y-125730000D03*
%TD*%
%TO.C,REF\u002A\u002A*%
X175260000Y-125730000D03*
%TD*%
D12*
%TO.C,JP1*%
X108585000Y-137175000D03*
D13*
X108585000Y-135875000D03*
%TD*%
D10*
%TO.C,PP47*%
X173355000Y-87630000D03*
%TD*%
%TO.C,PP39*%
X153035000Y-87630000D03*
%TD*%
%TO.C,PP29*%
X116205000Y-115570000D03*
%TD*%
D14*
%TO.C,C8*%
X80645000Y-118485000D03*
X80645000Y-115535000D03*
%TD*%
D10*
%TO.C,PP66*%
X178435000Y-115570000D03*
%TD*%
%TO.C,PP23*%
X100965000Y-115570000D03*
%TD*%
%TO.C,PP11*%
X113665000Y-87630000D03*
%TD*%
%TO.C,PP32*%
X123825000Y-115570000D03*
%TD*%
%TO.C,PP1*%
X88265000Y-87630000D03*
%TD*%
D15*
%TO.C,JM2K1*%
X132080000Y-142875000D03*
D16*
X132080000Y-140335000D03*
X134620000Y-142875000D03*
X134620000Y-140335000D03*
X137160000Y-142875000D03*
X137160000Y-140335000D03*
X139700000Y-142875000D03*
X139700000Y-140335000D03*
X142240000Y-142875000D03*
X142240000Y-140335000D03*
X144780000Y-142875000D03*
X144780000Y-140335000D03*
X147320000Y-142875000D03*
X147320000Y-140335000D03*
X149860000Y-142875000D03*
X149860000Y-140335000D03*
X152400000Y-142875000D03*
X152400000Y-140335000D03*
X154940000Y-142875000D03*
X154940000Y-140335000D03*
X157480000Y-142875000D03*
X157480000Y-140335000D03*
X160020000Y-142875000D03*
X160020000Y-140335000D03*
X162560000Y-142875000D03*
X162560000Y-140335000D03*
X165100000Y-142875000D03*
X165100000Y-140335000D03*
X167640000Y-142875000D03*
X167640000Y-140335000D03*
%TD*%
D17*
%TO.C,U3*%
X150331698Y-107299028D03*
X151131698Y-107299028D03*
X151931698Y-107299028D03*
X152731698Y-107299028D03*
X153531698Y-107299028D03*
X154331698Y-107299028D03*
X155131698Y-107299028D03*
X155931698Y-107299028D03*
X156731698Y-107299028D03*
X157531698Y-107299028D03*
X158331698Y-107299028D03*
D18*
X160031698Y-105599028D03*
X160031698Y-104799028D03*
X160031698Y-103999028D03*
X160031698Y-103199028D03*
X160031698Y-102399028D03*
X160031698Y-101599028D03*
X160031698Y-100799028D03*
X160031698Y-99999028D03*
X160031698Y-99199028D03*
X160031698Y-98399028D03*
X160031698Y-97599028D03*
D17*
X158331698Y-95899028D03*
X157531698Y-95899028D03*
X156731698Y-95899028D03*
X155931698Y-95899028D03*
X155131698Y-95899028D03*
X154331698Y-95899028D03*
X153531698Y-95899028D03*
X152731698Y-95899028D03*
X151931698Y-95899028D03*
X151131698Y-95899028D03*
X150331698Y-95899028D03*
D18*
X148631698Y-97599028D03*
X148631698Y-98399028D03*
X148631698Y-99199028D03*
X148631698Y-99999028D03*
X148631698Y-100799028D03*
X148631698Y-101599028D03*
X148631698Y-102399028D03*
X148631698Y-103199028D03*
X148631698Y-103999028D03*
X148631698Y-104799028D03*
X148631698Y-105599028D03*
%TD*%
D10*
%TO.C,PP51*%
X183515000Y-87630000D03*
%TD*%
D15*
%TO.C,J1*%
X81915000Y-92710000D03*
D16*
X81915000Y-95250000D03*
X81915000Y-97790000D03*
X81915000Y-100330000D03*
X81915000Y-102870000D03*
X81915000Y-105410000D03*
X81915000Y-107950000D03*
X81915000Y-110490000D03*
%TD*%
D10*
%TO.C,PP56*%
X153035000Y-115570000D03*
%TD*%
D15*
%TO.C,J2*%
X189230000Y-92710000D03*
D16*
X189230000Y-95250000D03*
X189230000Y-97790000D03*
X189230000Y-100330000D03*
X189230000Y-102870000D03*
X189230000Y-105410000D03*
X189230000Y-107950000D03*
X189230000Y-110490000D03*
%TD*%
D10*
%TO.C,PP27*%
X111125000Y-115570000D03*
%TD*%
D19*
%TO.C,J4*%
X144614900Y-101600000D03*
X181775100Y-101600000D03*
%TD*%
D10*
%TO.C,PP49*%
X178435000Y-87630000D03*
%TD*%
%TO.C,PP50*%
X180975000Y-87630000D03*
%TD*%
%TO.C,PP16*%
X126365000Y-87630000D03*
%TD*%
%TO.C,PP36*%
X145415000Y-87630000D03*
%TD*%
%TO.C,PP59*%
X160655000Y-115570000D03*
%TD*%
%TO.C,PP18*%
X88265000Y-115570000D03*
%TD*%
%TO.C,PP53*%
X145415000Y-115570000D03*
%TD*%
D20*
%TO.C,J5*%
X100330000Y-78740000D03*
X102870000Y-78740000D03*
X105410000Y-78740000D03*
X107950000Y-78740000D03*
X110490000Y-78740000D03*
X113030000Y-78740000D03*
X115570000Y-78740000D03*
X118110000Y-78740000D03*
X153670000Y-78740000D03*
X156210000Y-78740000D03*
X158750000Y-78740000D03*
X161290000Y-78740000D03*
X163830000Y-78740000D03*
X166370000Y-78740000D03*
X168910000Y-78740000D03*
X171450000Y-78740000D03*
X100330000Y-76200000D03*
X102870000Y-76200000D03*
X105410000Y-76200000D03*
X107950000Y-76200000D03*
X110490000Y-76200000D03*
X113030000Y-76200000D03*
X115570000Y-76200000D03*
X118110000Y-76200000D03*
X153670000Y-76200000D03*
X156210000Y-76200000D03*
X158750000Y-76200000D03*
X161290000Y-76200000D03*
X163830000Y-76200000D03*
X166370000Y-76200000D03*
X168910000Y-76200000D03*
X171450000Y-76200000D03*
%TD*%
D10*
%TO.C,PP37*%
X147955000Y-87630000D03*
%TD*%
%TO.C,PP10*%
X111125000Y-87630000D03*
%TD*%
D20*
%TO.C,J6*%
X100330000Y-127000000D03*
X102870000Y-127000000D03*
X105410000Y-127000000D03*
X107950000Y-127000000D03*
X110490000Y-127000000D03*
X113030000Y-127000000D03*
X115570000Y-127000000D03*
X118110000Y-127000000D03*
X153670000Y-127000000D03*
X156210000Y-127000000D03*
X158750000Y-127000000D03*
X161290000Y-127000000D03*
X163830000Y-127000000D03*
X166370000Y-127000000D03*
X168910000Y-127000000D03*
X171450000Y-127000000D03*
X100330000Y-124460000D03*
X102870000Y-124460000D03*
X105410000Y-124460000D03*
X107950000Y-124460000D03*
X110490000Y-124460000D03*
X113030000Y-124460000D03*
X115570000Y-124460000D03*
X118110000Y-124460000D03*
X153670000Y-124460000D03*
X156210000Y-124460000D03*
X158750000Y-124460000D03*
X161290000Y-124460000D03*
X163830000Y-124460000D03*
X166370000Y-124460000D03*
X168910000Y-124460000D03*
X171450000Y-124460000D03*
%TD*%
D10*
%TO.C,PP44*%
X165735000Y-87630000D03*
%TD*%
D15*
%TO.C,J8*%
X157480000Y-136525000D03*
D16*
X160020000Y-136525000D03*
X162560000Y-136525000D03*
X165100000Y-136525000D03*
X167640000Y-136525000D03*
X170180000Y-136525000D03*
X172720000Y-136525000D03*
X175260000Y-136525000D03*
%TD*%
D10*
%TO.C,PP25*%
X106045000Y-115570000D03*
%TD*%
%TO.C,PP9*%
X108585000Y-87630000D03*
%TD*%
%TO.C,PP6*%
X100965000Y-87630000D03*
%TD*%
%TO.C,PP15*%
X123825000Y-87630000D03*
%TD*%
%TO.C,PP5*%
X98425000Y-87630000D03*
%TD*%
%TO.C,PP62*%
X168275000Y-115570000D03*
%TD*%
%TO.C,PP21*%
X95885000Y-115570000D03*
%TD*%
%TO.C,PP34*%
X128905000Y-115570000D03*
%TD*%
%TO.C,PP4*%
X95885000Y-87630000D03*
%TD*%
%TO.C,PP28*%
X113665000Y-115570000D03*
%TD*%
%TO.C,PP40*%
X155575000Y-87630000D03*
%TD*%
D19*
%TO.C,J3*%
X90004900Y-101600000D03*
X127165100Y-101600000D03*
%TD*%
D17*
%TO.C,U1*%
X96336869Y-107291043D03*
X97136869Y-107291043D03*
X97936869Y-107291043D03*
X98736869Y-107291043D03*
X99536869Y-107291043D03*
X100336869Y-107291043D03*
X101136869Y-107291043D03*
X101936869Y-107291043D03*
X102736869Y-107291043D03*
X103536869Y-107291043D03*
X104336869Y-107291043D03*
D18*
X106036869Y-105591043D03*
X106036869Y-104791043D03*
X106036869Y-103991043D03*
X106036869Y-103191043D03*
X106036869Y-102391043D03*
X106036869Y-101591043D03*
X106036869Y-100791043D03*
X106036869Y-99991043D03*
X106036869Y-99191043D03*
X106036869Y-98391043D03*
X106036869Y-97591043D03*
D17*
X104336869Y-95891043D03*
X103536869Y-95891043D03*
X102736869Y-95891043D03*
X101936869Y-95891043D03*
X101136869Y-95891043D03*
X100336869Y-95891043D03*
X99536869Y-95891043D03*
X98736869Y-95891043D03*
X97936869Y-95891043D03*
X97136869Y-95891043D03*
X96336869Y-95891043D03*
D18*
X94636869Y-97591043D03*
X94636869Y-98391043D03*
X94636869Y-99191043D03*
X94636869Y-99991043D03*
X94636869Y-100791043D03*
X94636869Y-101591043D03*
X94636869Y-102391043D03*
X94636869Y-103191043D03*
X94636869Y-103991043D03*
X94636869Y-104791043D03*
X94636869Y-105591043D03*
%TD*%
D10*
%TO.C,PP38*%
X150495000Y-87630000D03*
%TD*%
D15*
%TO.C,J7*%
X157480000Y-133985000D03*
D16*
X160020000Y-133985000D03*
X162560000Y-133985000D03*
X165100000Y-133985000D03*
X167640000Y-133985000D03*
X170180000Y-133985000D03*
X172720000Y-133985000D03*
X175260000Y-133985000D03*
%TD*%
D21*
%TO.C,GND2*%
X135890000Y-84455000D03*
%TD*%
D10*
%TO.C,PP24*%
X103505000Y-115570000D03*
%TD*%
D22*
%TO.C,REF\u002A\u002A*%
X80645000Y-75565000D03*
%TD*%
D21*
%TO.C,VEE1*%
X135890000Y-132715000D03*
%TD*%
D10*
%TO.C,PP45*%
X168275000Y-87630000D03*
%TD*%
%TO.C,REF\u002A\u002A*%
X175260000Y-77470000D03*
%TD*%
%TO.C,PP26*%
X108585000Y-115570000D03*
%TD*%
%TO.C,PP58*%
X158115000Y-115570000D03*
%TD*%
%TO.C,PP57*%
X155575000Y-115570000D03*
%TD*%
%TO.C,PP43*%
X163195000Y-87630000D03*
%TD*%
D17*
%TO.C,U2*%
X113490194Y-107280485D03*
X114290194Y-107280485D03*
X115090194Y-107280485D03*
X115890194Y-107280485D03*
X116690194Y-107280485D03*
X117490194Y-107280485D03*
X118290194Y-107280485D03*
X119090194Y-107280485D03*
X119890194Y-107280485D03*
X120690194Y-107280485D03*
X121490194Y-107280485D03*
D18*
X123190194Y-105580485D03*
X123190194Y-104780485D03*
X123190194Y-103980485D03*
X123190194Y-103180485D03*
X123190194Y-102380485D03*
X123190194Y-101580485D03*
X123190194Y-100780485D03*
X123190194Y-99980485D03*
X123190194Y-99180485D03*
X123190194Y-98380485D03*
X123190194Y-97580485D03*
D17*
X121490194Y-95880485D03*
X120690194Y-95880485D03*
X119890194Y-95880485D03*
X119090194Y-95880485D03*
X118290194Y-95880485D03*
X117490194Y-95880485D03*
X116690194Y-95880485D03*
X115890194Y-95880485D03*
X115090194Y-95880485D03*
X114290194Y-95880485D03*
X113490194Y-95880485D03*
D18*
X111790194Y-97580485D03*
X111790194Y-98380485D03*
X111790194Y-99180485D03*
X111790194Y-99980485D03*
X111790194Y-100780485D03*
X111790194Y-101580485D03*
X111790194Y-102380485D03*
X111790194Y-103180485D03*
X111790194Y-103980485D03*
X111790194Y-104780485D03*
X111790194Y-105580485D03*
%TD*%
D10*
%TO.C,PP30*%
X118745000Y-115570000D03*
%TD*%
%TO.C,PP35*%
X142875000Y-87630000D03*
%TD*%
%TO.C,PP14*%
X121285000Y-87630000D03*
%TD*%
%TO.C,PP63*%
X170815000Y-115570000D03*
%TD*%
%TO.C,PP31*%
X121285000Y-115570000D03*
%TD*%
%TO.C,PP64*%
X173355000Y-115570000D03*
%TD*%
%TO.C,PP48*%
X175895000Y-87630000D03*
%TD*%
%TO.C,PP2*%
X90805000Y-87630000D03*
%TD*%
%TO.C,PP46*%
X170815000Y-87630000D03*
%TD*%
%TO.C,PP61*%
X165735000Y-115570000D03*
%TD*%
D21*
%TO.C,VCC1*%
X137160000Y-118745000D03*
%TD*%
D10*
%TO.C,PP12*%
X116205000Y-87630000D03*
%TD*%
%TO.C,PP19*%
X90805000Y-115570000D03*
%TD*%
D21*
%TO.C,V3P1*%
X100330000Y-133350000D03*
%TD*%
D23*
%TO.C,JpVDD4*%
X107980000Y-133350000D03*
D24*
X106680000Y-133350000D03*
D25*
X105380000Y-133350000D03*
%TD*%
D22*
%TO.C,REF\u002A\u002A*%
X192405000Y-140970000D03*
%TD*%
D12*
%TO.C,JP2*%
X127000000Y-139715000D03*
D13*
X127000000Y-138415000D03*
%TD*%
D10*
%TO.C,PP17*%
X128905000Y-87630000D03*
%TD*%
%TO.C,PP8*%
X106045000Y-87630000D03*
%TD*%
%TO.C,REF\u002A\u002A*%
X96520000Y-77470000D03*
%TD*%
%TO.C,PP67*%
X180975000Y-115570000D03*
%TD*%
%TO.C,PP41*%
X158115000Y-87630000D03*
%TD*%
D22*
%TO.C,REF\u002A\u002A*%
X192405000Y-75565000D03*
%TD*%
D11*
%TO.C,C4*%
X118745000Y-135255000D03*
X118745000Y-138205000D03*
%TD*%
D17*
%TO.C,U4*%
X168102427Y-107299028D03*
X168902427Y-107299028D03*
X169702427Y-107299028D03*
X170502427Y-107299028D03*
X171302427Y-107299028D03*
X172102427Y-107299028D03*
X172902427Y-107299028D03*
X173702427Y-107299028D03*
X174502427Y-107299028D03*
X175302427Y-107299028D03*
X176102427Y-107299028D03*
D18*
X177802427Y-105599028D03*
X177802427Y-104799028D03*
X177802427Y-103999028D03*
X177802427Y-103199028D03*
X177802427Y-102399028D03*
X177802427Y-101599028D03*
X177802427Y-100799028D03*
X177802427Y-99999028D03*
X177802427Y-99199028D03*
X177802427Y-98399028D03*
X177802427Y-97599028D03*
D17*
X176102427Y-95899028D03*
X175302427Y-95899028D03*
X174502427Y-95899028D03*
X173702427Y-95899028D03*
X172902427Y-95899028D03*
X172102427Y-95899028D03*
X171302427Y-95899028D03*
X170502427Y-95899028D03*
X169702427Y-95899028D03*
X168902427Y-95899028D03*
X168102427Y-95899028D03*
D18*
X166402427Y-97599028D03*
X166402427Y-98399028D03*
X166402427Y-99199028D03*
X166402427Y-99999028D03*
X166402427Y-100799028D03*
X166402427Y-101599028D03*
X166402427Y-102399028D03*
X166402427Y-103199028D03*
X166402427Y-103999028D03*
X166402427Y-104799028D03*
X166402427Y-105599028D03*
%TD*%
D10*
%TO.C,PP54*%
X147955000Y-115570000D03*
%TD*%
%TO.C,PP52*%
X142875000Y-115570000D03*
%TD*%
%TO.C,PP42*%
X160655000Y-87630000D03*
%TD*%
D22*
%TO.C,REF\u002A\u002A*%
X80645000Y-140970000D03*
%TD*%
D10*
%TO.C,PP22*%
X98425000Y-115570000D03*
%TD*%
D17*
%TO.C,U5*%
X131870679Y-107310533D03*
X132670679Y-107310533D03*
X133470679Y-107310533D03*
X134270679Y-107310533D03*
X135070679Y-107310533D03*
X135870679Y-107310533D03*
X136670679Y-107310533D03*
X137470679Y-107310533D03*
X138270679Y-107310533D03*
X139070679Y-107310533D03*
X139870679Y-107310533D03*
D18*
X141570679Y-105610533D03*
X141570679Y-104810533D03*
X141570679Y-104010533D03*
X141570679Y-103210533D03*
X141570679Y-102410533D03*
X141570679Y-101610533D03*
X141570679Y-100810533D03*
X141570679Y-100010533D03*
X141570679Y-99210533D03*
X141570679Y-98410533D03*
X141570679Y-97610533D03*
D17*
X139870679Y-95910533D03*
X139070679Y-95910533D03*
X138270679Y-95910533D03*
X137470679Y-95910533D03*
X136670679Y-95910533D03*
X135870679Y-95910533D03*
X135070679Y-95910533D03*
X134270679Y-95910533D03*
X133470679Y-95910533D03*
X132670679Y-95910533D03*
X131870679Y-95910533D03*
D18*
X130170679Y-97610533D03*
X130170679Y-98410533D03*
X130170679Y-99210533D03*
X130170679Y-100010533D03*
X130170679Y-100810533D03*
X130170679Y-101610533D03*
X130170679Y-102410533D03*
X130170679Y-103210533D03*
X130170679Y-104010533D03*
X130170679Y-104810533D03*
X130170679Y-105610533D03*
%TD*%
D10*
%TO.C,PP13*%
X118745000Y-87630000D03*
%TD*%
D14*
%TO.C,C7*%
X81915000Y-87370000D03*
X81915000Y-84420000D03*
%TD*%
D10*
%TO.C,PP20*%
X93345000Y-115570000D03*
%TD*%
%TO.C,PP68*%
X183515000Y-115570000D03*
%TD*%
D26*
%TO.C,GND1*%
X189230000Y-88265000D03*
%TD*%
D21*
%TO.C,VDD1*%
X135890000Y-72390000D03*
%TD*%
D10*
%TO.C,PP7*%
X103505000Y-87630000D03*
%TD*%
M02*
