%TF.GenerationSoftware,KiCad,Pcbnew,8.0.8*%
%TF.CreationDate,2025-04-12T08:48:54-04:00*%
%TF.ProjectId,cross-point-exp-brd-mini-red2-sjmp,63726f73-732d-4706-9f69-6e742d657870,rev?*%
%TF.SameCoordinates,Original*%
%TF.FileFunction,Copper,L2,Bot*%
%TF.FilePolarity,Positive*%
%FSLAX46Y46*%
G04 Gerber Fmt 4.6, Leading zero omitted, Abs format (unit mm)*
G04 Created by KiCad (PCBNEW 8.0.8) date 2025-04-12 08:48:54*
%MOMM*%
%LPD*%
G01*
G04 APERTURE LIST*
G04 Aperture macros list*
%AMFreePoly0*
4,1,19,0.500000,-0.750000,0.000000,-0.750000,0.000000,-0.744911,-0.071157,-0.744911,-0.207708,-0.704816,-0.327430,-0.627875,-0.420627,-0.520320,-0.479746,-0.390866,-0.500000,-0.250000,-0.500000,0.250000,-0.479746,0.390866,-0.420627,0.520320,-0.327430,0.627875,-0.207708,0.704816,-0.071157,0.744911,0.000000,0.744911,0.000000,0.750000,0.500000,0.750000,0.500000,-0.750000,0.500000,-0.750000,
$1*%
%AMFreePoly1*
4,1,19,0.000000,0.744911,0.071157,0.744911,0.207708,0.704816,0.327430,0.627875,0.420627,0.520320,0.479746,0.390866,0.500000,0.250000,0.500000,-0.250000,0.479746,-0.390866,0.420627,-0.520320,0.327430,-0.627875,0.207708,-0.704816,0.071157,-0.744911,0.000000,-0.744911,0.000000,-0.750000,-0.500000,-0.750000,-0.500000,0.750000,0.000000,0.750000,0.000000,0.744911,0.000000,0.744911,
$1*%
G04 Aperture macros list end*
%TA.AperFunction,ComponentPad*%
%ADD10R,1.700000X1.700000*%
%TD*%
%TA.AperFunction,ComponentPad*%
%ADD11O,1.700000X1.700000*%
%TD*%
%TA.AperFunction,ComponentPad*%
%ADD12C,1.440000*%
%TD*%
%TA.AperFunction,ComponentPad*%
%ADD13O,4.572000X1.700000*%
%TD*%
%TA.AperFunction,ComponentPad*%
%ADD14C,2.000000*%
%TD*%
%TA.AperFunction,ComponentPad*%
%ADD15C,1.500000*%
%TD*%
%TA.AperFunction,SMDPad,CuDef*%
%ADD16FreePoly0,270.000000*%
%TD*%
%TA.AperFunction,SMDPad,CuDef*%
%ADD17FreePoly1,270.000000*%
%TD*%
%TA.AperFunction,SMDPad,CuDef*%
%ADD18FreePoly0,180.000000*%
%TD*%
%TA.AperFunction,SMDPad,CuDef*%
%ADD19FreePoly1,180.000000*%
%TD*%
%TA.AperFunction,ViaPad*%
%ADD20C,0.700001*%
%TD*%
%TA.AperFunction,Conductor*%
%ADD21C,0.406400*%
%TD*%
%TA.AperFunction,Conductor*%
%ADD22C,0.812800*%
%TD*%
%TA.AperFunction,Conductor*%
%ADD23C,1.016000*%
%TD*%
G04 APERTURE END LIST*
D10*
%TO.P,DC1,1,-Vin*%
%TO.N,GND*%
X83820000Y-139700000D03*
D11*
%TO.P,DC1,2,+Vin*%
%TO.N,VBUS*%
X83820000Y-137160000D03*
%TO.P,DC1,3,-Vout*%
%TO.N,Net-(DC1--Vout)*%
X83820000Y-134620000D03*
%TO.P,DC1,4,+Vout*%
%TO.N,Net-(DC1-+Vout)*%
X83820000Y-132080000D03*
%TD*%
D12*
%TO.P,RV1,1,1*%
%TO.N,V3P3*%
X139700000Y-129540000D03*
%TO.P,RV1,2,2*%
%TO.N,Net-(U11B-+)*%
X139700000Y-132080000D03*
X137160000Y-132080000D03*
%TO.P,RV1,3,3*%
%TO.N,GND*%
X139700000Y-134620000D03*
%TD*%
D10*
%TO.P,J1,1,Pin_1*%
%TO.N,JP1*%
X81915000Y-67945000D03*
D11*
%TO.P,J1,2,Pin_2*%
%TO.N,JP2*%
X81915000Y-70485000D03*
%TO.P,J1,3,Pin_3*%
%TO.N,JP3*%
X81915000Y-73025000D03*
%TO.P,J1,4,Pin_4*%
%TO.N,JP4*%
X81915000Y-75565000D03*
%TO.P,J1,5,Pin_5*%
%TO.N,JP5*%
X81915000Y-78105000D03*
%TO.P,J1,6,Pin_6*%
%TO.N,JP6*%
X81915000Y-80645000D03*
%TO.P,J1,7,Pin_7*%
%TO.N,JP7*%
X81915000Y-83185000D03*
%TO.P,J1,8,Pin_8*%
%TO.N,JP8*%
X81915000Y-85725000D03*
%TD*%
D10*
%TO.P,J2,1,Pin_1*%
%TO.N,JP9*%
X189230000Y-67945000D03*
D11*
%TO.P,J2,2,Pin_2*%
%TO.N,JP10*%
X189230000Y-70485000D03*
%TO.P,J2,3,Pin_3*%
%TO.N,JP11*%
X189230000Y-73025000D03*
%TO.P,J2,4,Pin_4*%
%TO.N,JP12*%
X189230000Y-75565000D03*
%TO.P,J2,5,Pin_5*%
%TO.N,JP13*%
X189230000Y-78105000D03*
%TO.P,J2,6,Pin_6*%
%TO.N,JP14*%
X189230000Y-80645000D03*
%TO.P,J2,7,Pin_7*%
%TO.N,JP15*%
X189230000Y-83185000D03*
%TO.P,J2,8,Pin_8*%
%TO.N,JP16*%
X189230000Y-85725000D03*
%TD*%
D13*
%TO.P,J5,1,Pin_1*%
%TO.N,GND*%
X100330000Y-53975000D03*
X102870000Y-53975000D03*
X105410000Y-53975000D03*
X107950000Y-53975000D03*
X110490000Y-53975000D03*
X113030000Y-53975000D03*
X115570000Y-53975000D03*
X118110000Y-53975000D03*
X153670000Y-53975000D03*
X156210000Y-53975000D03*
X158750000Y-53975000D03*
X161290000Y-53975000D03*
X163830000Y-53975000D03*
X166370000Y-53975000D03*
X168910000Y-53975000D03*
X171450000Y-53975000D03*
%TO.P,J5,2,Pin_2*%
%TO.N,VDD*%
X100330000Y-51435000D03*
X102870000Y-51435000D03*
X105410000Y-51435000D03*
X107950000Y-51435000D03*
X110490000Y-51435000D03*
X113030000Y-51435000D03*
X115570000Y-51435000D03*
X118110000Y-51435000D03*
X153670000Y-51435000D03*
X156210000Y-51435000D03*
X158750000Y-51435000D03*
X161290000Y-51435000D03*
X163830000Y-51435000D03*
X166370000Y-51435000D03*
X168910000Y-51435000D03*
X171450000Y-51435000D03*
%TD*%
%TO.P,J6,1,Pin_1*%
%TO.N,VEE*%
X100330000Y-102235000D03*
X102870000Y-102235000D03*
X105410000Y-102235000D03*
X107950000Y-102235000D03*
X110490000Y-102235000D03*
X113030000Y-102235000D03*
X115570000Y-102235000D03*
X118110000Y-102235000D03*
X153670000Y-102235000D03*
X156210000Y-102235000D03*
X158750000Y-102235000D03*
X161290000Y-102235000D03*
X163830000Y-102235000D03*
X166370000Y-102235000D03*
X168910000Y-102235000D03*
X171450000Y-102235000D03*
%TO.P,J6,2,Pin_2*%
%TO.N,VCC*%
X100330000Y-99695000D03*
X102870000Y-99695000D03*
X105410000Y-99695000D03*
X107950000Y-99695000D03*
X110490000Y-99695000D03*
X113030000Y-99695000D03*
X115570000Y-99695000D03*
X118110000Y-99695000D03*
X153670000Y-99695000D03*
X156210000Y-99695000D03*
X158750000Y-99695000D03*
X161290000Y-99695000D03*
X163830000Y-99695000D03*
X166370000Y-99695000D03*
X168910000Y-99695000D03*
X171450000Y-99695000D03*
%TD*%
D10*
%TO.P,J8,1,Pin_1*%
%TO.N,AinH*%
X109220000Y-114300000D03*
D11*
%TO.P,J8,2,Pin_2*%
%TO.N,V165*%
X111760000Y-114300000D03*
%TO.P,J8,3,Pin_3*%
%TO.N,BinH*%
X114300000Y-114300000D03*
%TO.P,J8,4,Pin_4*%
%TO.N,V165*%
X116840000Y-114300000D03*
%TO.P,J8,5,Pin_5*%
%TO.N,CinH*%
X119380000Y-114300000D03*
%TO.P,J8,6,Pin_6*%
%TO.N,V165*%
X121920000Y-114300000D03*
%TO.P,J8,7,Pin_7*%
%TO.N,Net-(J8-Pin_7)*%
X124460000Y-114300000D03*
%TO.P,J8,8,Pin_8*%
%TO.N,Net-(J8-Pin_8)*%
X127000000Y-114300000D03*
%TD*%
D10*
%TO.P,J7,1,Pin_1*%
%TO.N,AIN*%
X109220000Y-111760000D03*
D11*
%TO.P,J7,2,Pin_2*%
%TO.N,AinL*%
X111760000Y-111760000D03*
%TO.P,J7,3,Pin_3*%
%TO.N,BIN*%
X114300000Y-111760000D03*
%TO.P,J7,4,Pin_4*%
%TO.N,BinL*%
X116840000Y-111760000D03*
%TO.P,J7,5,Pin_5*%
%TO.N,CIN*%
X119380000Y-111760000D03*
%TO.P,J7,6,Pin_6*%
%TO.N,CinL*%
X121920000Y-111760000D03*
%TO.P,J7,7,Pin_7*%
%TO.N,DAC1OUT*%
X124460000Y-111760000D03*
%TO.P,J7,8,Pin_8*%
%TO.N,DAC2OUT*%
X127000000Y-111760000D03*
%TD*%
D14*
%TO.P,GND2,1,1*%
%TO.N,GND*%
X135890000Y-59690000D03*
%TD*%
%TO.P,VEE1,1,1*%
%TO.N,VEE*%
X138430000Y-107950000D03*
%TD*%
%TO.P,VCC1,1,1*%
%TO.N,VCC*%
X138430000Y-93980000D03*
%TD*%
D10*
%TO.P,PMOD1,1,Pin_1*%
%TO.N,CS*%
X80645000Y-111760000D03*
D11*
%TO.P,PMOD1,2,Pin_2*%
%TO.N,MOSI*%
X80645000Y-106680000D03*
%TO.P,PMOD1,3,Pin_3*%
%TO.N,MISO*%
X80645000Y-109220000D03*
%TO.P,PMOD1,4,Pin_4*%
%TO.N,SCK*%
X80645000Y-104140000D03*
%TO.P,PMOD1,5,Pin_5*%
%TO.N,GND*%
X80645000Y-101600000D03*
%TO.P,PMOD1,6,Pin_6*%
%TO.N,Net-(JP1-C)*%
X80645000Y-99060000D03*
%TO.P,PMOD1,7,Pin_7*%
%TO.N,GPIO11*%
X78105000Y-111760000D03*
%TO.P,PMOD1,8,Pin_8*%
%TO.N,GPIO10*%
X78105000Y-109220000D03*
%TO.P,PMOD1,9,Pin_9*%
%TO.N,GPIO9*%
X78105000Y-106680000D03*
%TO.P,PMOD1,10,Pin_10*%
%TO.N,GPIO8*%
X78105000Y-104140000D03*
%TO.P,PMOD1,11,Pin_11*%
%TO.N,GND*%
X78105000Y-101600000D03*
%TO.P,PMOD1,12,Pin_12*%
%TO.N,Net-(JP1-C)*%
X78105000Y-99060000D03*
%TD*%
%TO.P,U9,1,GPIO0*%
%TO.N,CLK*%
X200025000Y-114300000D03*
%TO.P,U9,2,GPIO1*%
%TO.N,DATA*%
X197485000Y-114300000D03*
D10*
%TO.P,U9,3,GND*%
%TO.N,GND*%
X194945000Y-114300000D03*
D11*
%TO.P,U9,4,GPIO2*%
%TO.N,RST*%
X192405000Y-114300000D03*
%TO.P,U9,5,GPIO3*%
%TO.N,CSD*%
X189865000Y-114300000D03*
%TO.P,U9,6,GPIO4*%
%TO.N,CSE*%
X187325000Y-114300000D03*
%TO.P,U9,7,GPIO5*%
%TO.N,CSC*%
X184785000Y-114300000D03*
D10*
%TO.P,U9,8,GND*%
%TO.N,GND*%
X182245000Y-114300000D03*
D11*
%TO.P,U9,9,GPIO6*%
%TO.N,CSB*%
X179705000Y-114300000D03*
%TO.P,U9,10,GPIO7*%
%TO.N,CSA*%
X177165000Y-114300000D03*
%TO.P,U9,11,GPIO8*%
%TO.N,GPIO8*%
X174625000Y-114300000D03*
%TO.P,U9,12,GPIO9*%
%TO.N,GPIO9*%
X172085000Y-114300000D03*
D10*
%TO.P,U9,13,GND*%
%TO.N,GND*%
X169545000Y-114300000D03*
D11*
%TO.P,U9,14,GPIO10*%
%TO.N,GPIO10*%
X167005000Y-114300000D03*
%TO.P,U9,15,GPIO11*%
%TO.N,GPIO11*%
X164465000Y-114300000D03*
%TO.P,U9,16,GPIO12*%
%TO.N,MISO*%
X161925000Y-114300000D03*
%TO.P,U9,17,GPIO13*%
%TO.N,CS*%
X159385000Y-114300000D03*
D10*
%TO.P,U9,18,GND*%
%TO.N,GND*%
X156845000Y-114300000D03*
D11*
%TO.P,U9,19,GPIO14*%
%TO.N,SCK*%
X154305000Y-114300000D03*
%TO.P,U9,20,GPIO15*%
%TO.N,MOSI*%
X151765000Y-114300000D03*
%TO.P,U9,21,GPIO16*%
%TO.N,unconnected-(U9-GPIO16-Pad21)*%
X151765000Y-132080000D03*
%TO.P,U9,22,GPIO17*%
%TO.N,DACCS*%
X154305000Y-132080000D03*
D10*
%TO.P,U9,23,GND*%
%TO.N,GND*%
X156845000Y-132080000D03*
D11*
%TO.P,U9,24,GPIO18*%
%TO.N,DACSCK*%
X159385000Y-132080000D03*
%TO.P,U9,25,GPIO19*%
%TO.N,DACDATA*%
X161925000Y-132080000D03*
%TO.P,U9,26,GPIO20*%
%TO.N,unconnected-(U9-GPIO20-Pad26)*%
X164465000Y-132080000D03*
%TO.P,U9,27,GPIO21*%
%TO.N,unconnected-(U9-GPIO21-Pad27)*%
X167005000Y-132080000D03*
D10*
%TO.P,U9,28,GND*%
%TO.N,GND*%
X169545000Y-132080000D03*
D11*
%TO.P,U9,29,GPIO22*%
%TO.N,unconnected-(U9-GPIO22-Pad29)*%
X172085000Y-132080000D03*
%TO.P,U9,30,RUN*%
%TO.N,unconnected-(U9-RUN-Pad30)*%
X174625000Y-132080000D03*
%TO.P,U9,31,GPIO26_ADC0*%
%TO.N,ADC0*%
X177165000Y-132080000D03*
%TO.P,U9,32,GPIO27_ADC1*%
%TO.N,ADC1*%
X179705000Y-132080000D03*
D10*
%TO.P,U9,33,AGND*%
%TO.N,GND*%
X182245000Y-132080000D03*
D11*
%TO.P,U9,34,GPIO28_ADC2*%
%TO.N,ADC2*%
X184785000Y-132080000D03*
%TO.P,U9,35,ADC_VREF*%
%TO.N,ADC3*%
X187325000Y-132080000D03*
%TO.P,U9,36,3V3*%
%TO.N,V3P3*%
X189865000Y-132080000D03*
%TO.P,U9,37,3V3_EN*%
%TO.N,unconnected-(U9-3V3_EN-Pad37)*%
X192405000Y-132080000D03*
D10*
%TO.P,U9,38,GND*%
%TO.N,GND*%
X194945000Y-132080000D03*
D11*
%TO.P,U9,39,VSYS*%
%TO.N,VSYS*%
X197485000Y-132080000D03*
%TO.P,U9,40,VBUS*%
%TO.N,VBUS*%
X200025000Y-132080000D03*
%TO.P,U9,41,SWCLK*%
%TO.N,unconnected-(U9-SWCLK-Pad41)*%
X151995000Y-120650000D03*
D10*
%TO.P,U9,42,GND*%
%TO.N,GND*%
X151995000Y-123190000D03*
D11*
%TO.P,U9,43,SWDIO*%
%TO.N,unconnected-(U9-SWDIO-Pad43)*%
X151995000Y-125730000D03*
%TD*%
D15*
%TO.P,GND1,1,1*%
%TO.N,GND*%
X196215000Y-65405000D03*
%TD*%
D14*
%TO.P,VDD1,1,1*%
%TO.N,VDD*%
X135890000Y-47625000D03*
%TD*%
D16*
%TO.P,JP3,1,A*%
%TO.N,CE2*%
X136525000Y-96505000D03*
D17*
%TO.P,JP3,2,B*%
%TO.N,VEE*%
X136525000Y-97805000D03*
%TD*%
D18*
%TO.P,JP4,1,A*%
%TO.N,Net-(JP4-A)*%
X181005000Y-95885000D03*
D19*
%TO.P,JP4,2,B*%
%TO.N,VEE*%
X179705000Y-95885000D03*
%TD*%
D20*
%TO.N,JP1*%
X130810000Y-69215000D03*
X111760000Y-69215000D03*
X92011500Y-69278500D03*
%TO.N,JP2*%
X109855000Y-70485000D03*
X91440000Y-70485000D03*
X128270000Y-70485000D03*
%TO.N,JP3*%
X115570000Y-74930000D03*
X132715000Y-74930000D03*
X98425000Y-74930000D03*
%TO.N,JP4*%
X92710000Y-77470000D03*
X132715000Y-76200000D03*
X109220000Y-76200000D03*
%TO.N,JP5*%
X120650000Y-78105000D03*
X135890000Y-74930000D03*
X103505000Y-78105000D03*
%TO.N,JP6*%
X125730000Y-81915000D03*
X135890000Y-80645000D03*
X109220000Y-81915000D03*
%TO.N,JP7*%
X136525000Y-84455000D03*
X106680000Y-83185000D03*
X124460000Y-83185000D03*
%TO.N,JP8*%
X121920000Y-84455000D03*
X137160000Y-85725000D03*
X104775000Y-84455000D03*
%TO.N,JP9*%
X167005000Y-69215000D03*
X137160000Y-69215000D03*
X148590000Y-69215000D03*
%TO.N,JP10*%
X147193000Y-70485000D03*
X141605000Y-70485000D03*
X164465000Y-70485000D03*
%TO.N,JP11*%
X168529000Y-75692000D03*
X137160000Y-73660000D03*
X151257000Y-75692000D03*
%TO.N,JP12*%
X170815000Y-76200000D03*
X138430000Y-74930000D03*
X152400000Y-76835000D03*
%TO.N,JP13*%
X157480000Y-78105000D03*
X175260000Y-78105000D03*
X139573000Y-77216000D03*
%TO.N,JP14*%
X180721000Y-81915000D03*
X144145000Y-81915000D03*
X163449000Y-81915000D03*
%TO.N,JP15*%
X143002000Y-83185000D03*
X179705000Y-83185000D03*
X161290000Y-83185000D03*
%TO.N,JP16*%
X176530000Y-84455000D03*
X158750000Y-84455000D03*
X140970000Y-84455000D03*
%TO.N,GND*%
X186055000Y-140335000D03*
X126365000Y-66675000D03*
X86995000Y-111760000D03*
X81915000Y-95250000D03*
X107315000Y-66675000D03*
X162560000Y-66675000D03*
X182880000Y-66675000D03*
X81915000Y-57785000D03*
X86995000Y-101600000D03*
X90805000Y-130175000D03*
X86995000Y-100330000D03*
X140970000Y-66675000D03*
X99695000Y-138430000D03*
X98425000Y-113665000D03*
X82550000Y-116205000D03*
X170815000Y-142240000D03*
X113665000Y-127635000D03*
X137795000Y-118110000D03*
X130175000Y-125730000D03*
X86995000Y-110490000D03*
X156845000Y-107950000D03*
%TO.N,VEE*%
X98425000Y-109220000D03*
X89535000Y-116840000D03*
X138430000Y-102235000D03*
%TO.N,VDD*%
X86360000Y-97155000D03*
X91440000Y-97155000D03*
%TO.N,RST*%
X169545000Y-79248000D03*
X133350000Y-79375000D03*
X151765000Y-79248000D03*
X97790000Y-79375000D03*
X185420000Y-80645000D03*
X114300000Y-79375000D03*
%TO.N,CSA*%
X172720000Y-96520000D03*
X108585000Y-86995000D03*
%TO.N,CSB*%
X175260000Y-95250000D03*
X121285000Y-79756000D03*
X130175000Y-86995000D03*
X128270000Y-80010000D03*
%TO.N,CSC*%
X161925000Y-88265000D03*
X185420000Y-93980000D03*
%TO.N,CSD*%
X184785000Y-79375000D03*
X175895000Y-79375000D03*
%TO.N,CSE*%
X139573000Y-79756000D03*
X182245000Y-86995000D03*
X146685000Y-79756000D03*
X143510000Y-86995000D03*
%TO.N,CLK*%
X183515000Y-70485000D03*
X96520000Y-73025000D03*
X114300000Y-72390000D03*
X133350000Y-72390000D03*
X168910000Y-72390000D03*
X151765000Y-72390000D03*
%TO.N,DATA*%
X182245000Y-71755000D03*
X133350000Y-73660000D03*
X151130000Y-73660000D03*
X114935000Y-73660000D03*
X169545000Y-73660000D03*
X97790000Y-73660000D03*
%TO.N,VSYS*%
X146050000Y-135255000D03*
X113665000Y-137795000D03*
X146050000Y-141605000D03*
X108267500Y-140652500D03*
%TO.N,V165*%
X121920000Y-133350000D03*
%TO.N,V3P3*%
X144145000Y-118110000D03*
X142240000Y-141605000D03*
%TO.N,Net-(U11A-+)*%
X110490000Y-124460000D03*
X112395000Y-132715000D03*
%TO.N,Net-(U11C--)*%
X127000000Y-130810000D03*
X129540000Y-138430000D03*
%TO.N,Net-(U11D-+)*%
X112395000Y-126365000D03*
X116205000Y-126365000D03*
%TO.N,VEE1*%
X164465000Y-85725000D03*
X84455000Y-124460000D03*
X141605000Y-85725000D03*
X127000000Y-85725000D03*
X109855000Y-85725000D03*
X84455000Y-119380000D03*
X86360000Y-85725000D03*
X180975000Y-85725000D03*
%TO.N,VDD1*%
X128270000Y-67945000D03*
X108585000Y-67945000D03*
X146050000Y-67945000D03*
X94615000Y-120015000D03*
X89535000Y-67945000D03*
X94615000Y-123190000D03*
X163195000Y-67945000D03*
%TO.N,MOSI*%
X149225000Y-106045000D03*
%TO.N,CE2*%
X128905000Y-93345000D03*
X136525000Y-92075000D03*
%TO.N,VCC*%
X136525000Y-99695000D03*
%TO.N,SCK*%
X151765000Y-104775000D03*
%TO.N,GPIO11*%
X147320000Y-111125000D03*
%TO.N,Net-(JP4-A)*%
X183515000Y-93980000D03*
%TO.N,Net-(DC1--Vout)*%
X88265000Y-134620000D03*
X87630000Y-127000000D03*
%TD*%
D21*
%TO.N,JP1*%
X85725000Y-67945000D02*
X81930000Y-67945000D01*
X81915000Y-67960000D02*
X81661000Y-67960000D01*
X87058500Y-69278500D02*
X85725000Y-67945000D01*
X92075000Y-69215000D02*
X92011500Y-69278500D01*
X81930000Y-67945000D02*
X81915000Y-67960000D01*
X130810000Y-69215000D02*
X92075000Y-69215000D01*
X92011500Y-69278500D02*
X87058500Y-69278500D01*
%TO.N,JP2*%
X128270000Y-70485000D02*
X81930000Y-70485000D01*
X81930000Y-70485000D02*
X81915000Y-70500000D01*
X81915000Y-70500000D02*
X81661000Y-70500000D01*
%TO.N,JP3*%
X115570000Y-74930000D02*
X98425000Y-74930000D01*
X118110000Y-74295000D02*
X131222420Y-74295000D01*
X91440000Y-73025000D02*
X81915000Y-73025000D01*
X115570000Y-74930000D02*
X117475000Y-74930000D01*
X93345000Y-74930000D02*
X91440000Y-73025000D01*
X131857420Y-74930000D02*
X132715000Y-74930000D01*
X98425000Y-74930000D02*
X93345000Y-74930000D01*
X131222420Y-74295000D02*
X131857420Y-74930000D01*
X117475000Y-74930000D02*
X118110000Y-74295000D01*
%TO.N,JP4*%
X125095000Y-74930000D02*
X128905000Y-74930000D01*
X92710000Y-77470000D02*
X93980000Y-76200000D01*
X128905000Y-74930000D02*
X130175000Y-76200000D01*
X85090000Y-75565000D02*
X88900000Y-79375000D01*
X130175000Y-76200000D02*
X132715000Y-76200000D01*
X109220000Y-76200000D02*
X123825000Y-76200000D01*
X81915000Y-75565000D02*
X85090000Y-75565000D01*
X90805000Y-79375000D02*
X92710000Y-77470000D01*
X93980000Y-76200000D02*
X109220000Y-76200000D01*
X123825000Y-76200000D02*
X125095000Y-74930000D01*
X88900000Y-79375000D02*
X90805000Y-79375000D01*
%TO.N,JP5*%
X93980000Y-80645000D02*
X88138000Y-80645000D01*
X85598000Y-78105000D02*
X81915000Y-78105000D01*
X103505000Y-78105000D02*
X120650000Y-78105000D01*
X132080000Y-78740000D02*
X124460000Y-78740000D01*
X88138000Y-80645000D02*
X85598000Y-78105000D01*
X135890000Y-74930000D02*
X132080000Y-78740000D01*
X103505000Y-78105000D02*
X96520000Y-78105000D01*
X123825000Y-78105000D02*
X120650000Y-78105000D01*
X124460000Y-78740000D02*
X123825000Y-78105000D01*
X96520000Y-78105000D02*
X93980000Y-80645000D01*
%TO.N,JP6*%
X125730000Y-81915000D02*
X86360000Y-81915000D01*
X86360000Y-81915000D02*
X85090000Y-80645000D01*
X85090000Y-80645000D02*
X81915000Y-80645000D01*
X135890000Y-80645000D02*
X134064375Y-80645000D01*
X132794375Y-81915000D02*
X125730000Y-81915000D01*
X134064375Y-80645000D02*
X132794375Y-81915000D01*
%TO.N,JP7*%
X124460000Y-83185000D02*
X81915000Y-83185000D01*
X133350000Y-84455000D02*
X132080000Y-83185000D01*
X132080000Y-83185000D02*
X124460000Y-83185000D01*
X136525000Y-84455000D02*
X133350000Y-84455000D01*
%TO.N,JP8*%
X132715000Y-85725000D02*
X131445000Y-84455000D01*
X131445000Y-84455000D02*
X121920000Y-84455000D01*
X121920000Y-84455000D02*
X85090000Y-84455000D01*
X85090000Y-84455000D02*
X83820000Y-85725000D01*
X137160000Y-85725000D02*
X132715000Y-85725000D01*
X83820000Y-85725000D02*
X81915000Y-85725000D01*
%TO.N,JP9*%
X168275000Y-67945000D02*
X189230000Y-67945000D01*
X167005000Y-69215000D02*
X168275000Y-67945000D01*
X167005000Y-69215000D02*
X148590000Y-69215000D01*
X137160000Y-69215000D02*
X148590000Y-69215000D01*
%TO.N,JP10*%
X189230000Y-70485000D02*
X187325000Y-70485000D01*
X189357000Y-70612000D02*
X189230000Y-70485000D01*
X168910000Y-70485000D02*
X164465000Y-70485000D01*
X170180000Y-69215000D02*
X168910000Y-70485000D01*
X187325000Y-70485000D02*
X186055000Y-69215000D01*
X186055000Y-69215000D02*
X170180000Y-69215000D01*
X164465000Y-70485000D02*
X147193000Y-70485000D01*
X141605000Y-70485000D02*
X147193000Y-70485000D01*
%TO.N,JP11*%
X149225000Y-73660000D02*
X137160000Y-73660000D01*
X151257000Y-75692000D02*
X149225000Y-73660000D01*
X172085000Y-73025000D02*
X189230000Y-73025000D01*
X151257000Y-75692000D02*
X169418000Y-75692000D01*
X169418000Y-75692000D02*
X172085000Y-73025000D01*
%TO.N,JP12*%
X170815000Y-76200000D02*
X172847000Y-74168000D01*
X185420000Y-75565000D02*
X189230000Y-75565000D01*
X148590000Y-74930000D02*
X150495000Y-76835000D01*
X170180000Y-76835000D02*
X170815000Y-76200000D01*
X150495000Y-76835000D02*
X152400000Y-76835000D01*
X138430000Y-74930000D02*
X148590000Y-74930000D01*
X184023000Y-74168000D02*
X185420000Y-75565000D01*
X172847000Y-74168000D02*
X184023000Y-74168000D01*
X152400000Y-76835000D02*
X170180000Y-76835000D01*
%TO.N,JP13*%
X149225000Y-78740000D02*
X149860000Y-78105000D01*
X139573000Y-77216000D02*
X140716000Y-77216000D01*
X179705000Y-78740000D02*
X179070000Y-78105000D01*
X149860000Y-78105000D02*
X175260000Y-78105000D01*
X184150000Y-78105000D02*
X183515000Y-78740000D01*
X179070000Y-78105000D02*
X175260000Y-78105000D01*
X140716000Y-77216000D02*
X142240000Y-78740000D01*
X183515000Y-78740000D02*
X179705000Y-78740000D01*
X142240000Y-78740000D02*
X149225000Y-78740000D01*
X189230000Y-78105000D02*
X184150000Y-78105000D01*
%TO.N,JP14*%
X187452000Y-80645000D02*
X189230000Y-80645000D01*
X144145000Y-81915000D02*
X162560000Y-81915000D01*
X186182000Y-81915000D02*
X187452000Y-80645000D01*
X180721000Y-81915000D02*
X186182000Y-81915000D01*
X162560000Y-81915000D02*
X180721000Y-81915000D01*
%TO.N,JP15*%
X143002000Y-83185000D02*
X161290000Y-83185000D01*
X179705000Y-83185000D02*
X161290000Y-83185000D01*
X179705000Y-83185000D02*
X189230000Y-83185000D01*
%TO.N,JP16*%
X189230000Y-85725000D02*
X189357000Y-85852000D01*
X140970000Y-84455000D02*
X183515000Y-84455000D01*
X183515000Y-84455000D02*
X184785000Y-85725000D01*
X184785000Y-85725000D02*
X189230000Y-85725000D01*
D22*
%TO.N,GND*%
X86995000Y-101600000D02*
X85090000Y-101600000D01*
X107315000Y-66675000D02*
X84455000Y-66675000D01*
D23*
X135890000Y-59690000D02*
X135890000Y-53975000D01*
D22*
X78105000Y-101600000D02*
X80645000Y-101600000D01*
X126365000Y-66675000D02*
X162560000Y-66675000D01*
D23*
X100330000Y-53975000D02*
X98425000Y-55880000D01*
D22*
X169545000Y-114300000D02*
X169545000Y-111125000D01*
X80645000Y-101600000D02*
X86995000Y-101600000D01*
D23*
X98425000Y-55880000D02*
X84455000Y-55880000D01*
X173990000Y-56515000D02*
X171450000Y-53975000D01*
D22*
X169545000Y-114300000D02*
X169545000Y-117475000D01*
D23*
X135890000Y-53975000D02*
X102870000Y-53975000D01*
D22*
X162560000Y-66675000D02*
X187325000Y-66675000D01*
X171450000Y-53975000D02*
X168910000Y-53975000D01*
X126365000Y-66675000D02*
X107315000Y-66675000D01*
D23*
X168910000Y-53975000D02*
X135890000Y-53975000D01*
X187325000Y-56515000D02*
X173990000Y-56515000D01*
D22*
%TO.N,VEE*%
X100330000Y-102235000D02*
X138430000Y-102235000D01*
D21*
X178435000Y-102870000D02*
X177165000Y-104140000D01*
D22*
X98425000Y-109220000D02*
X97155000Y-110490000D01*
D21*
X138430000Y-99710000D02*
X138430000Y-102235000D01*
X136525000Y-97805000D02*
X138430000Y-99710000D01*
D22*
X92075000Y-116840000D02*
X89535000Y-116840000D01*
X97155000Y-110490000D02*
X97155000Y-111760000D01*
D21*
X178435000Y-99060000D02*
X178435000Y-102870000D01*
D22*
X97155000Y-111760000D02*
X92075000Y-116840000D01*
D21*
X179705000Y-97790000D02*
X178435000Y-99060000D01*
X179705000Y-95885000D02*
X179705000Y-97790000D01*
D22*
X138430000Y-102235000D02*
X171450000Y-102235000D01*
D21*
X177165000Y-104140000D02*
X173355000Y-104140000D01*
X173355000Y-104140000D02*
X171450000Y-102235000D01*
D22*
%TO.N,VDD*%
X91440000Y-97155000D02*
X86360000Y-97155000D01*
D21*
%TO.N,RST*%
X151765000Y-79248000D02*
X151773800Y-79256800D01*
X185420000Y-80645000D02*
X170942000Y-80645000D01*
X133350000Y-79375000D02*
X133032500Y-79375000D01*
X133032500Y-79375000D02*
X131127500Y-81280000D01*
X115697000Y-80772000D02*
X114300000Y-79375000D01*
X97917000Y-79248000D02*
X114173000Y-79248000D01*
X133350000Y-79375000D02*
X137795000Y-79375000D01*
X139192000Y-80772000D02*
X150241000Y-80772000D01*
X127127000Y-80772000D02*
X115697000Y-80772000D01*
X114173000Y-79248000D02*
X114300000Y-79375000D01*
X169536200Y-79256800D02*
X169545000Y-79248000D01*
X131127500Y-81280000D02*
X127635000Y-81280000D01*
X170942000Y-80645000D02*
X169545000Y-79248000D01*
X150241000Y-80772000D02*
X151765000Y-79248000D01*
X97790000Y-79375000D02*
X97917000Y-79248000D01*
X137795000Y-79375000D02*
X139192000Y-80772000D01*
X127635000Y-81280000D02*
X127127000Y-80772000D01*
X151773800Y-79256800D02*
X169536200Y-79256800D01*
%TO.N,CSA*%
X138430000Y-90805000D02*
X132080000Y-90805000D01*
X172720000Y-96520000D02*
X144145000Y-96520000D01*
X128270000Y-86995000D02*
X108585000Y-86995000D01*
X144145000Y-96520000D02*
X138430000Y-90805000D01*
X132080000Y-90805000D02*
X128270000Y-86995000D01*
%TO.N,CSB*%
X175260000Y-95250000D02*
X144145000Y-95250000D01*
X128016000Y-79756000D02*
X128270000Y-80010000D01*
X138430000Y-89535000D02*
X132715000Y-89535000D01*
X132715000Y-89535000D02*
X130175000Y-86995000D01*
X144145000Y-95250000D02*
X138430000Y-89535000D01*
X121285000Y-79756000D02*
X128016000Y-79756000D01*
%TO.N,CSC*%
X185420000Y-93980000D02*
X185420000Y-89535000D01*
X185420000Y-89535000D02*
X184150000Y-88265000D01*
X184150000Y-88265000D02*
X161925000Y-88265000D01*
%TO.N,CSD*%
X176022000Y-79502000D02*
X175895000Y-79375000D01*
X184658000Y-79502000D02*
X176022000Y-79502000D01*
X184785000Y-79375000D02*
X184658000Y-79502000D01*
%TO.N,CSE*%
X182245000Y-86995000D02*
X143510000Y-86995000D01*
X146685000Y-79756000D02*
X139573000Y-79756000D01*
%TO.N,CLK*%
X96520000Y-73025000D02*
X97155000Y-72390000D01*
X151765000Y-72390000D02*
X151765000Y-71755000D01*
X132715000Y-71755000D02*
X133350000Y-72390000D01*
X133985000Y-71755000D02*
X151765000Y-71755000D01*
X151765000Y-71755000D02*
X168275000Y-71755000D01*
X183515000Y-70485000D02*
X170815000Y-70485000D01*
X133350000Y-72390000D02*
X133985000Y-71755000D01*
X170815000Y-70485000D02*
X168910000Y-72390000D01*
X97155000Y-72390000D02*
X114300000Y-72390000D01*
X168275000Y-71755000D02*
X168910000Y-72390000D01*
X114935000Y-71755000D02*
X132715000Y-71755000D01*
X114300000Y-72390000D02*
X114935000Y-71755000D01*
%TO.N,DATA*%
X132715000Y-73660000D02*
X132080000Y-73025000D01*
X132080000Y-73025000D02*
X115570000Y-73025000D01*
X113665000Y-73660000D02*
X114935000Y-73660000D01*
X169545000Y-73660000D02*
X151130000Y-73660000D01*
X97790000Y-73660000D02*
X113665000Y-73660000D01*
X169545000Y-73660000D02*
X171450000Y-71755000D01*
X133350000Y-73660000D02*
X132715000Y-73660000D01*
X171450000Y-71755000D02*
X182245000Y-71755000D01*
X134620000Y-72390000D02*
X133350000Y-73660000D01*
X115570000Y-73025000D02*
X114935000Y-73660000D01*
X149860000Y-72390000D02*
X134620000Y-72390000D01*
X151130000Y-73660000D02*
X149860000Y-72390000D01*
D22*
%TO.N,VSYS*%
X108267500Y-140652500D02*
X111125000Y-137795000D01*
X111125000Y-137795000D02*
X113665000Y-137795000D01*
X146050000Y-135255000D02*
X146050000Y-141605000D01*
D21*
%TO.N,V165*%
X116840000Y-114300000D02*
X116840000Y-116205000D01*
X121920000Y-116205000D02*
X111760000Y-116205000D01*
X121920000Y-133350000D02*
X121920000Y-116205000D01*
X121920000Y-116205000D02*
X121920000Y-114300000D01*
X111760000Y-114300000D02*
X111760000Y-116205000D01*
X111760000Y-116205000D02*
X116840000Y-116205000D01*
X116840000Y-116205000D02*
X121920000Y-116205000D01*
D22*
%TO.N,V3P3*%
X144145000Y-127635000D02*
X142240000Y-129540000D01*
X142240000Y-141605000D02*
X142240000Y-129540000D01*
X144145000Y-127635000D02*
X144145000Y-118110000D01*
X142240000Y-129540000D02*
X139685000Y-129540000D01*
D21*
%TO.N,Net-(U11A-+)*%
X110490000Y-130810000D02*
X110490000Y-124460000D01*
X112395000Y-132715000D02*
X110490000Y-130810000D01*
%TO.N,Net-(U11C--)*%
X129540000Y-137160000D02*
X129540000Y-138430000D01*
X127000000Y-130810000D02*
X127000000Y-134620000D01*
X127000000Y-134620000D02*
X129540000Y-137160000D01*
%TO.N,Net-(U11D-+)*%
X116205000Y-126365000D02*
X112395000Y-126365000D01*
D22*
%TO.N,VEE1*%
X127000000Y-85725000D02*
X109855000Y-85725000D01*
X180975000Y-85725000D02*
X164465000Y-85725000D01*
X84455000Y-119380000D02*
X84455000Y-124460000D01*
X86360000Y-85725000D02*
X109855000Y-85725000D01*
X141605000Y-85725000D02*
X140335000Y-85725000D01*
X130810000Y-85725000D02*
X127000000Y-85725000D01*
X141605000Y-85725000D02*
X164465000Y-85725000D01*
X132080000Y-86995000D02*
X130810000Y-85725000D01*
X140335000Y-85725000D02*
X139065000Y-86995000D01*
X139065000Y-86995000D02*
X132080000Y-86995000D01*
%TO.N,VDD1*%
X163195000Y-67945000D02*
X89535000Y-67945000D01*
X94615000Y-123190000D02*
X94615000Y-120015000D01*
D21*
%TO.N,CS*%
X133985000Y-111125000D02*
X144780000Y-111125000D01*
X130810000Y-107950000D02*
X133985000Y-111125000D01*
X158115000Y-110490000D02*
X159385000Y-111760000D01*
X87630000Y-107950000D02*
X130810000Y-107950000D01*
X83820000Y-111760000D02*
X87630000Y-107950000D01*
X80645000Y-111760000D02*
X83820000Y-111760000D01*
X144780000Y-111125000D02*
X146050000Y-112395000D01*
X150495000Y-110490000D02*
X158115000Y-110490000D01*
X146050000Y-112395000D02*
X148590000Y-112395000D01*
X159385000Y-111760000D02*
X159385000Y-114300000D01*
X148590000Y-112395000D02*
X150495000Y-110490000D01*
%TO.N,MOSI*%
X83117081Y-105410000D02*
X81847081Y-106680000D01*
X148590000Y-105410000D02*
X83117081Y-105410000D01*
X149225000Y-106045000D02*
X148590000Y-105410000D01*
X81847081Y-106680000D02*
X80645000Y-106680000D01*
%TO.N,MISO*%
X85725000Y-106680000D02*
X83185000Y-109220000D01*
X83185000Y-109220000D02*
X80645000Y-109220000D01*
X160655000Y-109855000D02*
X136525000Y-109855000D01*
X133350000Y-106680000D02*
X85725000Y-106680000D01*
X161925000Y-111125000D02*
X160655000Y-109855000D01*
X136525000Y-109855000D02*
X133350000Y-106680000D01*
X161925000Y-114300000D02*
X161925000Y-111125000D01*
%TO.N,CE2*%
X136525000Y-92075000D02*
X136525000Y-96520000D01*
X136525000Y-96520000D02*
X132080000Y-96520000D01*
X132080000Y-96520000D02*
X128905000Y-93345000D01*
D22*
%TO.N,VCC*%
X100330000Y-99695000D02*
X136525000Y-99695000D01*
D21*
%TO.N,SCK*%
X151765000Y-104775000D02*
X151130000Y-104140000D01*
X151130000Y-104140000D02*
X80645000Y-104140000D01*
%TO.N,GPIO8*%
X168275000Y-104775000D02*
X153670000Y-104775000D01*
X152400000Y-103505000D02*
X84455000Y-103505000D01*
X83820000Y-102870000D02*
X79375000Y-102870000D01*
X153670000Y-104775000D02*
X152400000Y-103505000D01*
X79375000Y-102870000D02*
X78105000Y-104140000D01*
X84455000Y-103505000D02*
X83820000Y-102870000D01*
X174625000Y-111125000D02*
X168275000Y-104775000D01*
X174625000Y-114300000D02*
X174625000Y-111125000D01*
%TO.N,GPIO9*%
X149860000Y-104775000D02*
X81782293Y-104775000D01*
X151130000Y-106045000D02*
X149860000Y-104775000D01*
X79375000Y-105410000D02*
X78105000Y-106680000D01*
X172085000Y-111125000D02*
X167005000Y-106045000D01*
X81782293Y-104775000D02*
X81147293Y-105410000D01*
X172085000Y-114300000D02*
X172085000Y-111125000D01*
X167005000Y-106045000D02*
X151130000Y-106045000D01*
X81147293Y-105410000D02*
X79375000Y-105410000D01*
%TO.N,GPIO10*%
X82550000Y-107950000D02*
X79375000Y-107950000D01*
X79375000Y-107950000D02*
X78105000Y-109220000D01*
X167005000Y-114300000D02*
X167005000Y-111125000D01*
X84455000Y-106045000D02*
X82550000Y-107950000D01*
X140335000Y-106045000D02*
X84455000Y-106045000D01*
X167005000Y-111125000D02*
X165100000Y-109220000D01*
X143510000Y-109220000D02*
X140335000Y-106045000D01*
X165100000Y-109220000D02*
X143510000Y-109220000D01*
%TO.N,GPIO11*%
X135255000Y-110490000D02*
X132080000Y-107315000D01*
X147320000Y-111125000D02*
X146685000Y-110490000D01*
X79375000Y-110490000D02*
X78105000Y-111760000D01*
X83185000Y-110490000D02*
X79375000Y-110490000D01*
X86360000Y-107315000D02*
X83185000Y-110490000D01*
X146685000Y-110490000D02*
X135255000Y-110490000D01*
X132080000Y-107315000D02*
X86360000Y-107315000D01*
%TO.N,Net-(JP4-A)*%
X181005000Y-95885000D02*
X181610000Y-95885000D01*
X181610000Y-95885000D02*
X183515000Y-93980000D01*
D22*
%TO.N,Net-(DC1--Vout)*%
X87630000Y-127000000D02*
X88305000Y-127675000D01*
X88305000Y-127675000D02*
X88305000Y-134610000D01*
%TD*%
%TA.AperFunction,Conductor*%
%TO.N,GND*%
G36*
X130534195Y-108673385D02*
G01*
X130554837Y-108690019D01*
X133435274Y-111570456D01*
X133435303Y-111570487D01*
X133536414Y-111671598D01*
X133651676Y-111748613D01*
X133779735Y-111801656D01*
X133779736Y-111801656D01*
X133779738Y-111801657D01*
X133779742Y-111801657D01*
X133779743Y-111801658D01*
X133915688Y-111828701D01*
X133915691Y-111828701D01*
X134060422Y-111828701D01*
X134060442Y-111828700D01*
X144437156Y-111828700D01*
X144504195Y-111848385D01*
X144524837Y-111865019D01*
X145500274Y-112840456D01*
X145500303Y-112840487D01*
X145601414Y-112941598D01*
X145716676Y-113018613D01*
X145844733Y-113071655D01*
X145844738Y-113071657D01*
X145844742Y-113071657D01*
X145844743Y-113071658D01*
X145980688Y-113098700D01*
X145980691Y-113098700D01*
X145980692Y-113098700D01*
X148514558Y-113098700D01*
X148514578Y-113098701D01*
X148520692Y-113098701D01*
X148659310Y-113098701D01*
X148768412Y-113076998D01*
X148795262Y-113071657D01*
X148841511Y-113052500D01*
X148923323Y-113018613D01*
X148923324Y-113018612D01*
X148923327Y-113018611D01*
X149038583Y-112941600D01*
X149136600Y-112843583D01*
X149136601Y-112843581D01*
X149143667Y-112836515D01*
X149143669Y-112836511D01*
X150750163Y-111230019D01*
X150811486Y-111196534D01*
X150837844Y-111193700D01*
X157772156Y-111193700D01*
X157839195Y-111213385D01*
X157859837Y-111230019D01*
X158644981Y-112015163D01*
X158678466Y-112076486D01*
X158681300Y-112102844D01*
X158681300Y-113079528D01*
X158661615Y-113146567D01*
X158628425Y-113181102D01*
X158513599Y-113261505D01*
X158391284Y-113383819D01*
X158329960Y-113417303D01*
X158260269Y-113412318D01*
X158204335Y-113370447D01*
X158187421Y-113339470D01*
X158138354Y-113207913D01*
X158138350Y-113207906D01*
X158052190Y-113092812D01*
X158052187Y-113092809D01*
X157937093Y-113006649D01*
X157937086Y-113006645D01*
X157802379Y-112956403D01*
X157802372Y-112956401D01*
X157742844Y-112950000D01*
X157095000Y-112950000D01*
X157095000Y-113855439D01*
X157041853Y-113824755D01*
X156912143Y-113790000D01*
X156777857Y-113790000D01*
X156648147Y-113824755D01*
X156595000Y-113855439D01*
X156595000Y-112950000D01*
X155947155Y-112950000D01*
X155887627Y-112956401D01*
X155887620Y-112956403D01*
X155752913Y-113006645D01*
X155752906Y-113006649D01*
X155637812Y-113092809D01*
X155637809Y-113092812D01*
X155551649Y-113207906D01*
X155551645Y-113207913D01*
X155502578Y-113339470D01*
X155460707Y-113395404D01*
X155395242Y-113419821D01*
X155326969Y-113404969D01*
X155298715Y-113383819D01*
X155253977Y-113339081D01*
X155176401Y-113261505D01*
X155176397Y-113261502D01*
X155176396Y-113261501D01*
X154982834Y-113125967D01*
X154982830Y-113125965D01*
X154982828Y-113125964D01*
X154768663Y-113026097D01*
X154768659Y-113026096D01*
X154768655Y-113026094D01*
X154540413Y-112964938D01*
X154540403Y-112964936D01*
X154305001Y-112944341D01*
X154304999Y-112944341D01*
X154069596Y-112964936D01*
X154069586Y-112964938D01*
X153841344Y-113026094D01*
X153841335Y-113026098D01*
X153627171Y-113125964D01*
X153627169Y-113125965D01*
X153433597Y-113261505D01*
X153266505Y-113428597D01*
X153136575Y-113614158D01*
X153081998Y-113657783D01*
X153012500Y-113664977D01*
X152950145Y-113633454D01*
X152933425Y-113614158D01*
X152803494Y-113428597D01*
X152636402Y-113261506D01*
X152636395Y-113261501D01*
X152442834Y-113125967D01*
X152442830Y-113125965D01*
X152442828Y-113125964D01*
X152228663Y-113026097D01*
X152228659Y-113026096D01*
X152228655Y-113026094D01*
X152000413Y-112964938D01*
X152000403Y-112964936D01*
X151765001Y-112944341D01*
X151764999Y-112944341D01*
X151529596Y-112964936D01*
X151529586Y-112964938D01*
X151301344Y-113026094D01*
X151301335Y-113026098D01*
X151087171Y-113125964D01*
X151087169Y-113125965D01*
X150893597Y-113261505D01*
X150726505Y-113428597D01*
X150590965Y-113622169D01*
X150590964Y-113622171D01*
X150491098Y-113836335D01*
X150491094Y-113836344D01*
X150429938Y-114064586D01*
X150429936Y-114064596D01*
X150409341Y-114299999D01*
X150409341Y-114300000D01*
X150429936Y-114535403D01*
X150429938Y-114535413D01*
X150491094Y-114763655D01*
X150491096Y-114763659D01*
X150491097Y-114763663D01*
X150571004Y-114935023D01*
X150590965Y-114977830D01*
X150590967Y-114977834D01*
X150684991Y-115112113D01*
X150726505Y-115171401D01*
X150893599Y-115338495D01*
X150990384Y-115406265D01*
X151087165Y-115474032D01*
X151087167Y-115474033D01*
X151087170Y-115474035D01*
X151301337Y-115573903D01*
X151529592Y-115635063D01*
X151706034Y-115650500D01*
X151764999Y-115655659D01*
X151765000Y-115655659D01*
X151765001Y-115655659D01*
X151823966Y-115650500D01*
X152000408Y-115635063D01*
X152228663Y-115573903D01*
X152442830Y-115474035D01*
X152636401Y-115338495D01*
X152803495Y-115171401D01*
X152933425Y-114985842D01*
X152988002Y-114942217D01*
X153057500Y-114935023D01*
X153119855Y-114966546D01*
X153136575Y-114985842D01*
X153266500Y-115171395D01*
X153266505Y-115171401D01*
X153433599Y-115338495D01*
X153530384Y-115406265D01*
X153627165Y-115474032D01*
X153627167Y-115474033D01*
X153627170Y-115474035D01*
X153841337Y-115573903D01*
X154069592Y-115635063D01*
X154246034Y-115650500D01*
X154304999Y-115655659D01*
X154305000Y-115655659D01*
X154305001Y-115655659D01*
X154363966Y-115650500D01*
X154540408Y-115635063D01*
X154768663Y-115573903D01*
X154982830Y-115474035D01*
X155176401Y-115338495D01*
X155298717Y-115216178D01*
X155360036Y-115182696D01*
X155429728Y-115187680D01*
X155485662Y-115229551D01*
X155502577Y-115260528D01*
X155551646Y-115392088D01*
X155551649Y-115392093D01*
X155637809Y-115507187D01*
X155637812Y-115507190D01*
X155752906Y-115593350D01*
X155752913Y-115593354D01*
X155887620Y-115643596D01*
X155887627Y-115643598D01*
X155947155Y-115649999D01*
X155947172Y-115650000D01*
X156595000Y-115650000D01*
X156595000Y-114744560D01*
X156648147Y-114775245D01*
X156777857Y-114810000D01*
X156912143Y-114810000D01*
X157041853Y-114775245D01*
X157095000Y-114744560D01*
X157095000Y-115650000D01*
X157742828Y-115650000D01*
X157742844Y-115649999D01*
X157802372Y-115643598D01*
X157802379Y-115643596D01*
X157937086Y-115593354D01*
X157937093Y-115593350D01*
X158052187Y-115507190D01*
X158052190Y-115507187D01*
X158138350Y-115392093D01*
X158138354Y-115392086D01*
X158187422Y-115260529D01*
X158229293Y-115204595D01*
X158294757Y-115180178D01*
X158363030Y-115195030D01*
X158391285Y-115216181D01*
X158513599Y-115338495D01*
X158610384Y-115406265D01*
X158707165Y-115474032D01*
X158707167Y-115474033D01*
X158707170Y-115474035D01*
X158921337Y-115573903D01*
X159149592Y-115635063D01*
X159326034Y-115650500D01*
X159384999Y-115655659D01*
X159385000Y-115655659D01*
X159385001Y-115655659D01*
X159443966Y-115650500D01*
X159620408Y-115635063D01*
X159848663Y-115573903D01*
X160062830Y-115474035D01*
X160256401Y-115338495D01*
X160423495Y-115171401D01*
X160553425Y-114985842D01*
X160608002Y-114942217D01*
X160677500Y-114935023D01*
X160739855Y-114966546D01*
X160756575Y-114985842D01*
X160886500Y-115171395D01*
X160886505Y-115171401D01*
X161053599Y-115338495D01*
X161150384Y-115406265D01*
X161247165Y-115474032D01*
X161247167Y-115474033D01*
X161247170Y-115474035D01*
X161461337Y-115573903D01*
X161689592Y-115635063D01*
X161866034Y-115650500D01*
X161924999Y-115655659D01*
X161925000Y-115655659D01*
X161925001Y-115655659D01*
X161983966Y-115650500D01*
X162160408Y-115635063D01*
X162388663Y-115573903D01*
X162602830Y-115474035D01*
X162796401Y-115338495D01*
X162963495Y-115171401D01*
X163093425Y-114985842D01*
X163148002Y-114942217D01*
X163217500Y-114935023D01*
X163279855Y-114966546D01*
X163296575Y-114985842D01*
X163426500Y-115171395D01*
X163426505Y-115171401D01*
X163593599Y-115338495D01*
X163690384Y-115406265D01*
X163787165Y-115474032D01*
X163787167Y-115474033D01*
X163787170Y-115474035D01*
X164001337Y-115573903D01*
X164229592Y-115635063D01*
X164406034Y-115650500D01*
X164464999Y-115655659D01*
X164465000Y-115655659D01*
X164465001Y-115655659D01*
X164523966Y-115650500D01*
X164700408Y-115635063D01*
X164928663Y-115573903D01*
X165142830Y-115474035D01*
X165336401Y-115338495D01*
X165503495Y-115171401D01*
X165633425Y-114985842D01*
X165688002Y-114942217D01*
X165757500Y-114935023D01*
X165819855Y-114966546D01*
X165836575Y-114985842D01*
X165966500Y-115171395D01*
X165966505Y-115171401D01*
X166133599Y-115338495D01*
X166230384Y-115406265D01*
X166327165Y-115474032D01*
X166327167Y-115474033D01*
X166327170Y-115474035D01*
X166541337Y-115573903D01*
X166769592Y-115635063D01*
X166946034Y-115650500D01*
X167004999Y-115655659D01*
X167005000Y-115655659D01*
X167005001Y-115655659D01*
X167063966Y-115650500D01*
X167240408Y-115635063D01*
X167468663Y-115573903D01*
X167682830Y-115474035D01*
X167876401Y-115338495D01*
X167998717Y-115216178D01*
X168060036Y-115182696D01*
X168129728Y-115187680D01*
X168185662Y-115229551D01*
X168202577Y-115260528D01*
X168251646Y-115392088D01*
X168251649Y-115392093D01*
X168337809Y-115507187D01*
X168337812Y-115507190D01*
X168452906Y-115593350D01*
X168452913Y-115593354D01*
X168587620Y-115643596D01*
X168587627Y-115643598D01*
X168647155Y-115649999D01*
X168647172Y-115650000D01*
X169295000Y-115650000D01*
X169295000Y-114744560D01*
X169348147Y-114775245D01*
X169477857Y-114810000D01*
X169612143Y-114810000D01*
X169741853Y-114775245D01*
X169795000Y-114744560D01*
X169795000Y-115650000D01*
X170442828Y-115650000D01*
X170442844Y-115649999D01*
X170502372Y-115643598D01*
X170502379Y-115643596D01*
X170637086Y-115593354D01*
X170637093Y-115593350D01*
X170752187Y-115507190D01*
X170752190Y-115507187D01*
X170838350Y-115392093D01*
X170838354Y-115392086D01*
X170887422Y-115260529D01*
X170929293Y-115204595D01*
X170994757Y-115180178D01*
X171063030Y-115195030D01*
X171091285Y-115216181D01*
X171213599Y-115338495D01*
X171310384Y-115406265D01*
X171407165Y-115474032D01*
X171407167Y-115474033D01*
X171407170Y-115474035D01*
X171621337Y-115573903D01*
X171849592Y-115635063D01*
X172026034Y-115650500D01*
X172084999Y-115655659D01*
X172085000Y-115655659D01*
X172085001Y-115655659D01*
X172143966Y-115650500D01*
X172320408Y-115635063D01*
X172548663Y-115573903D01*
X172762830Y-115474035D01*
X172956401Y-115338495D01*
X173123495Y-115171401D01*
X173253425Y-114985842D01*
X173308002Y-114942217D01*
X173377500Y-114935023D01*
X173439855Y-114966546D01*
X173456575Y-114985842D01*
X173586500Y-115171395D01*
X173586505Y-115171401D01*
X173753599Y-115338495D01*
X173850384Y-115406265D01*
X173947165Y-115474032D01*
X173947167Y-115474033D01*
X173947170Y-115474035D01*
X174161337Y-115573903D01*
X174389592Y-115635063D01*
X174566034Y-115650500D01*
X174624999Y-115655659D01*
X174625000Y-115655659D01*
X174625001Y-115655659D01*
X174683966Y-115650500D01*
X174860408Y-115635063D01*
X175088663Y-115573903D01*
X175302830Y-115474035D01*
X175496401Y-115338495D01*
X175663495Y-115171401D01*
X175793425Y-114985842D01*
X175848002Y-114942217D01*
X175917500Y-114935023D01*
X175979855Y-114966546D01*
X175996575Y-114985842D01*
X176126500Y-115171395D01*
X176126505Y-115171401D01*
X176293599Y-115338495D01*
X176390384Y-115406265D01*
X176487165Y-115474032D01*
X176487167Y-115474033D01*
X176487170Y-115474035D01*
X176701337Y-115573903D01*
X176929592Y-115635063D01*
X177106034Y-115650500D01*
X177164999Y-115655659D01*
X177165000Y-115655659D01*
X177165001Y-115655659D01*
X177223966Y-115650500D01*
X177400408Y-115635063D01*
X177628663Y-115573903D01*
X177842830Y-115474035D01*
X178036401Y-115338495D01*
X178203495Y-115171401D01*
X178333425Y-114985842D01*
X178388002Y-114942217D01*
X178457500Y-114935023D01*
X178519855Y-114966546D01*
X178536575Y-114985842D01*
X178666500Y-115171395D01*
X178666505Y-115171401D01*
X178833599Y-115338495D01*
X178930384Y-115406265D01*
X179027165Y-115474032D01*
X179027167Y-115474033D01*
X179027170Y-115474035D01*
X179241337Y-115573903D01*
X179469592Y-115635063D01*
X179646034Y-115650500D01*
X179704999Y-115655659D01*
X179705000Y-115655659D01*
X179705001Y-115655659D01*
X179763966Y-115650500D01*
X179940408Y-115635063D01*
X180168663Y-115573903D01*
X180382830Y-115474035D01*
X180576401Y-115338495D01*
X180698717Y-115216178D01*
X180760036Y-115182696D01*
X180829728Y-115187680D01*
X180885662Y-115229551D01*
X180902577Y-115260528D01*
X180951646Y-115392088D01*
X180951649Y-115392093D01*
X181037809Y-115507187D01*
X181037812Y-115507190D01*
X181152906Y-115593350D01*
X181152913Y-115593354D01*
X181287620Y-115643596D01*
X181287627Y-115643598D01*
X181347155Y-115649999D01*
X181347172Y-115650000D01*
X181995000Y-115650000D01*
X181995000Y-114744560D01*
X182048147Y-114775245D01*
X182177857Y-114810000D01*
X182312143Y-114810000D01*
X182441853Y-114775245D01*
X182495000Y-114744560D01*
X182495000Y-115650000D01*
X183142828Y-115650000D01*
X183142844Y-115649999D01*
X183202372Y-115643598D01*
X183202379Y-115643596D01*
X183337086Y-115593354D01*
X183337093Y-115593350D01*
X183452187Y-115507190D01*
X183452190Y-115507187D01*
X183538350Y-115392093D01*
X183538354Y-115392086D01*
X183587422Y-115260529D01*
X183629293Y-115204595D01*
X183694757Y-115180178D01*
X183763030Y-115195030D01*
X183791285Y-115216181D01*
X183913599Y-115338495D01*
X184010384Y-115406265D01*
X184107165Y-115474032D01*
X184107167Y-115474033D01*
X184107170Y-115474035D01*
X184321337Y-115573903D01*
X184549592Y-115635063D01*
X184726034Y-115650500D01*
X184784999Y-115655659D01*
X184785000Y-115655659D01*
X184785001Y-115655659D01*
X184843966Y-115650500D01*
X185020408Y-115635063D01*
X185248663Y-115573903D01*
X185462830Y-115474035D01*
X185656401Y-115338495D01*
X185823495Y-115171401D01*
X185953425Y-114985842D01*
X186008002Y-114942217D01*
X186077500Y-114935023D01*
X186139855Y-114966546D01*
X186156575Y-114985842D01*
X186286500Y-115171395D01*
X186286505Y-115171401D01*
X186453599Y-115338495D01*
X186550384Y-115406265D01*
X186647165Y-115474032D01*
X186647167Y-115474033D01*
X186647170Y-115474035D01*
X186861337Y-115573903D01*
X187089592Y-115635063D01*
X187266034Y-115650500D01*
X187324999Y-115655659D01*
X187325000Y-115655659D01*
X187325001Y-115655659D01*
X187383966Y-115650500D01*
X187560408Y-115635063D01*
X187788663Y-115573903D01*
X188002830Y-115474035D01*
X188196401Y-115338495D01*
X188363495Y-115171401D01*
X188493425Y-114985842D01*
X188548002Y-114942217D01*
X188617500Y-114935023D01*
X188679855Y-114966546D01*
X188696575Y-114985842D01*
X188826500Y-115171395D01*
X188826505Y-115171401D01*
X188993599Y-115338495D01*
X189090384Y-115406265D01*
X189187165Y-115474032D01*
X189187167Y-115474033D01*
X189187170Y-115474035D01*
X189401337Y-115573903D01*
X189629592Y-115635063D01*
X189806034Y-115650500D01*
X189864999Y-115655659D01*
X189865000Y-115655659D01*
X189865001Y-115655659D01*
X189923966Y-115650500D01*
X190100408Y-115635063D01*
X190328663Y-115573903D01*
X190542830Y-115474035D01*
X190736401Y-115338495D01*
X190903495Y-115171401D01*
X191033425Y-114985842D01*
X191088002Y-114942217D01*
X191157500Y-114935023D01*
X191219855Y-114966546D01*
X191236575Y-114985842D01*
X191366500Y-115171395D01*
X191366505Y-115171401D01*
X191533599Y-115338495D01*
X191630384Y-115406265D01*
X191727165Y-115474032D01*
X191727167Y-115474033D01*
X191727170Y-115474035D01*
X191941337Y-115573903D01*
X192169592Y-115635063D01*
X192346034Y-115650500D01*
X192404999Y-115655659D01*
X192405000Y-115655659D01*
X192405001Y-115655659D01*
X192463966Y-115650500D01*
X192640408Y-115635063D01*
X192868663Y-115573903D01*
X193082830Y-115474035D01*
X193276401Y-115338495D01*
X193398717Y-115216178D01*
X193460036Y-115182696D01*
X193529728Y-115187680D01*
X193585662Y-115229551D01*
X193602577Y-115260528D01*
X193651646Y-115392088D01*
X193651649Y-115392093D01*
X193737809Y-115507187D01*
X193737812Y-115507190D01*
X193852906Y-115593350D01*
X193852913Y-115593354D01*
X193987620Y-115643596D01*
X193987627Y-115643598D01*
X194047155Y-115649999D01*
X194047172Y-115650000D01*
X194695000Y-115650000D01*
X194695000Y-114744560D01*
X194748147Y-114775245D01*
X194877857Y-114810000D01*
X195012143Y-114810000D01*
X195141853Y-114775245D01*
X195195000Y-114744560D01*
X195195000Y-115650000D01*
X195842828Y-115650000D01*
X195842844Y-115649999D01*
X195902372Y-115643598D01*
X195902379Y-115643596D01*
X196037086Y-115593354D01*
X196037093Y-115593350D01*
X196152187Y-115507190D01*
X196152190Y-115507187D01*
X196238350Y-115392093D01*
X196238354Y-115392086D01*
X196287422Y-115260529D01*
X196329293Y-115204595D01*
X196394757Y-115180178D01*
X196463030Y-115195030D01*
X196491285Y-115216181D01*
X196613599Y-115338495D01*
X196710384Y-115406265D01*
X196807165Y-115474032D01*
X196807167Y-115474033D01*
X196807170Y-115474035D01*
X197021337Y-115573903D01*
X197249592Y-115635063D01*
X197426034Y-115650500D01*
X197484999Y-115655659D01*
X197485000Y-115655659D01*
X197485001Y-115655659D01*
X197543966Y-115650500D01*
X197720408Y-115635063D01*
X197948663Y-115573903D01*
X198162830Y-115474035D01*
X198356401Y-115338495D01*
X198523495Y-115171401D01*
X198653425Y-114985842D01*
X198708002Y-114942217D01*
X198777500Y-114935023D01*
X198839855Y-114966546D01*
X198856575Y-114985842D01*
X198986500Y-115171395D01*
X198986505Y-115171401D01*
X199153599Y-115338495D01*
X199250384Y-115406265D01*
X199347165Y-115474032D01*
X199347167Y-115474033D01*
X199347170Y-115474035D01*
X199561337Y-115573903D01*
X199789592Y-115635063D01*
X199966034Y-115650500D01*
X200024999Y-115655659D01*
X200025000Y-115655659D01*
X200025001Y-115655659D01*
X200083966Y-115650500D01*
X200260408Y-115635063D01*
X200488663Y-115573903D01*
X200702830Y-115474035D01*
X200896401Y-115338495D01*
X201063495Y-115171401D01*
X201069424Y-115162932D01*
X201123999Y-115119308D01*
X201193497Y-115112113D01*
X201255853Y-115143634D01*
X201291268Y-115203863D01*
X201295000Y-115234055D01*
X201295000Y-119630778D01*
X201275315Y-119697817D01*
X201222511Y-119743572D01*
X201153353Y-119753516D01*
X201089797Y-119724491D01*
X201067192Y-119698600D01*
X201003984Y-119601854D01*
X201003982Y-119601852D01*
X201003979Y-119601847D01*
X200846784Y-119431087D01*
X200846779Y-119431083D01*
X200846777Y-119431081D01*
X200663634Y-119288535D01*
X200663628Y-119288531D01*
X200459504Y-119178064D01*
X200459495Y-119178061D01*
X200239984Y-119102702D01*
X200068282Y-119074050D01*
X200011049Y-119064500D01*
X199778951Y-119064500D01*
X199733164Y-119072140D01*
X199550015Y-119102702D01*
X199330504Y-119178061D01*
X199330495Y-119178064D01*
X199126371Y-119288531D01*
X199126365Y-119288535D01*
X198943222Y-119431081D01*
X198943219Y-119431084D01*
X198786016Y-119601852D01*
X198659075Y-119796151D01*
X198565842Y-120008699D01*
X198508866Y-120233691D01*
X198508864Y-120233702D01*
X198489700Y-120464993D01*
X198489700Y-120465006D01*
X198508864Y-120696297D01*
X198508866Y-120696308D01*
X198565842Y-120921300D01*
X198659075Y-121133848D01*
X198786016Y-121328147D01*
X198786019Y-121328151D01*
X198786021Y-121328153D01*
X198943216Y-121498913D01*
X198943219Y-121498915D01*
X198943222Y-121498918D01*
X199126365Y-121641464D01*
X199126371Y-121641468D01*
X199126374Y-121641470D01*
X199330497Y-121751936D01*
X199396891Y-121774729D01*
X199550015Y-121827297D01*
X199550017Y-121827297D01*
X199550019Y-121827298D01*
X199778951Y-121865500D01*
X199778952Y-121865500D01*
X200011048Y-121865500D01*
X200011049Y-121865500D01*
X200239981Y-121827298D01*
X200459503Y-121751936D01*
X200663626Y-121641470D01*
X200846784Y-121498913D01*
X201003979Y-121328153D01*
X201067191Y-121231400D01*
X201120337Y-121186043D01*
X201189569Y-121176619D01*
X201252905Y-121206121D01*
X201290236Y-121265181D01*
X201295000Y-121299221D01*
X201295000Y-125080778D01*
X201275315Y-125147817D01*
X201222511Y-125193572D01*
X201153353Y-125203516D01*
X201089797Y-125174491D01*
X201067192Y-125148600D01*
X201003984Y-125051854D01*
X201003982Y-125051852D01*
X201003979Y-125051847D01*
X200846784Y-124881087D01*
X200846779Y-124881083D01*
X200846777Y-124881081D01*
X200663634Y-124738535D01*
X200663628Y-124738531D01*
X200459504Y-124628064D01*
X200459495Y-124628061D01*
X200239984Y-124552702D01*
X200068282Y-124524050D01*
X200011049Y-124514500D01*
X199778951Y-124514500D01*
X199733164Y-124522140D01*
X199550015Y-124552702D01*
X199330504Y-124628061D01*
X199330495Y-124628064D01*
X199126371Y-124738531D01*
X199126365Y-124738535D01*
X198943222Y-124881081D01*
X198943219Y-124881084D01*
X198786016Y-125051852D01*
X198659075Y-125246151D01*
X198565842Y-125458699D01*
X198508866Y-125683691D01*
X198508864Y-125683702D01*
X198489700Y-125914993D01*
X198489700Y-125915006D01*
X198508864Y-126146297D01*
X198508866Y-126146308D01*
X198565842Y-126371300D01*
X198659075Y-126583848D01*
X198786016Y-126778147D01*
X198786019Y-126778151D01*
X198786021Y-126778153D01*
X198943216Y-126948913D01*
X198943219Y-126948915D01*
X198943222Y-126948918D01*
X199126365Y-127091464D01*
X199126371Y-127091468D01*
X199126374Y-127091470D01*
X199330497Y-127201936D01*
X199370008Y-127215500D01*
X199550015Y-127277297D01*
X199550017Y-127277297D01*
X199550019Y-127277298D01*
X199778951Y-127315500D01*
X199778952Y-127315500D01*
X200011048Y-127315500D01*
X200011049Y-127315500D01*
X200239981Y-127277298D01*
X200459503Y-127201936D01*
X200663626Y-127091470D01*
X200692622Y-127068902D01*
X200776130Y-127003905D01*
X200846784Y-126948913D01*
X201003979Y-126778153D01*
X201067191Y-126681400D01*
X201120337Y-126636043D01*
X201189569Y-126626619D01*
X201252905Y-126656121D01*
X201290236Y-126715181D01*
X201295000Y-126749221D01*
X201295000Y-131145944D01*
X201275315Y-131212983D01*
X201222511Y-131258738D01*
X201153353Y-131268682D01*
X201089797Y-131239657D01*
X201069426Y-131217069D01*
X201063493Y-131208596D01*
X200896402Y-131041506D01*
X200896395Y-131041501D01*
X200702834Y-130905967D01*
X200702830Y-130905965D01*
X200645664Y-130879308D01*
X200488663Y-130806097D01*
X200488659Y-130806096D01*
X200488655Y-130806094D01*
X200260413Y-130744938D01*
X200260403Y-130744936D01*
X200025001Y-130724341D01*
X200024999Y-130724341D01*
X199789596Y-130744936D01*
X199789586Y-130744938D01*
X199561344Y-130806094D01*
X199561335Y-130806098D01*
X199347171Y-130905964D01*
X199347169Y-130905965D01*
X199153597Y-131041505D01*
X198986505Y-131208597D01*
X198856575Y-131394158D01*
X198801998Y-131437783D01*
X198732500Y-131444977D01*
X198670145Y-131413454D01*
X198653425Y-131394158D01*
X198523494Y-131208597D01*
X198356402Y-131041506D01*
X198356395Y-131041501D01*
X198162834Y-130905967D01*
X198162830Y-130905965D01*
X198105664Y-130879308D01*
X197948663Y-130806097D01*
X197948659Y-130806096D01*
X197948655Y-130806094D01*
X197720413Y-130744938D01*
X197720403Y-130744936D01*
X197485001Y-130724341D01*
X197484999Y-130724341D01*
X197249596Y-130744936D01*
X197249586Y-130744938D01*
X197021344Y-130806094D01*
X197021335Y-130806098D01*
X196807171Y-130905964D01*
X196807169Y-130905965D01*
X196613600Y-131041503D01*
X196491284Y-131163819D01*
X196429961Y-131197303D01*
X196360269Y-131192319D01*
X196304336Y-131150447D01*
X196287421Y-131119470D01*
X196238354Y-130987913D01*
X196238350Y-130987906D01*
X196152190Y-130872812D01*
X196152187Y-130872809D01*
X196037093Y-130786649D01*
X196037086Y-130786645D01*
X195902379Y-130736403D01*
X195902372Y-130736401D01*
X195842844Y-130730000D01*
X195195000Y-130730000D01*
X195195000Y-131635439D01*
X195141853Y-131604755D01*
X195012143Y-131570000D01*
X194877857Y-131570000D01*
X194748147Y-131604755D01*
X194695000Y-131635439D01*
X194695000Y-130730000D01*
X194047155Y-130730000D01*
X193987627Y-130736401D01*
X193987620Y-130736403D01*
X193852913Y-130786645D01*
X193852906Y-130786649D01*
X193737812Y-130872809D01*
X193737809Y-130872812D01*
X193651649Y-130987906D01*
X193651645Y-130987913D01*
X193602578Y-131119470D01*
X193560707Y-131175404D01*
X193495242Y-131199821D01*
X193426969Y-131184969D01*
X193398715Y-131163819D01*
X193354366Y-131119470D01*
X193276401Y-131041505D01*
X193276397Y-131041502D01*
X193276396Y-131041501D01*
X193082834Y-130905967D01*
X193082830Y-130905965D01*
X193025664Y-130879308D01*
X192868663Y-130806097D01*
X192868659Y-130806096D01*
X192868655Y-130806094D01*
X192640413Y-130744938D01*
X192640403Y-130744936D01*
X192405001Y-130724341D01*
X192404999Y-130724341D01*
X192169596Y-130744936D01*
X192169586Y-130744938D01*
X191941344Y-130806094D01*
X191941335Y-130806098D01*
X191727171Y-130905964D01*
X191727169Y-130905965D01*
X191533597Y-131041505D01*
X191366505Y-131208597D01*
X191236575Y-131394158D01*
X191181998Y-131437783D01*
X191112500Y-131444977D01*
X191050145Y-131413454D01*
X191033425Y-131394158D01*
X190903494Y-131208597D01*
X190736402Y-131041506D01*
X190736395Y-131041501D01*
X190542834Y-130905967D01*
X190542830Y-130905965D01*
X190485664Y-130879308D01*
X190328663Y-130806097D01*
X190328659Y-130806096D01*
X190328655Y-130806094D01*
X190100413Y-130744938D01*
X190100403Y-130744936D01*
X189865001Y-130724341D01*
X189864999Y-130724341D01*
X189629596Y-130744936D01*
X189629586Y-130744938D01*
X189401344Y-130806094D01*
X189401335Y-130806098D01*
X189187171Y-130905964D01*
X189187169Y-130905965D01*
X188993597Y-131041505D01*
X188826505Y-131208597D01*
X188696575Y-131394158D01*
X188641998Y-131437783D01*
X188572500Y-131444977D01*
X188510145Y-131413454D01*
X188493425Y-131394158D01*
X188363494Y-131208597D01*
X188196402Y-131041506D01*
X188196395Y-131041501D01*
X188002834Y-130905967D01*
X188002830Y-130905965D01*
X187945664Y-130879308D01*
X187788663Y-130806097D01*
X187788659Y-130806096D01*
X187788655Y-130806094D01*
X187560413Y-130744938D01*
X187560403Y-130744936D01*
X187325001Y-130724341D01*
X187324999Y-130724341D01*
X187089596Y-130744936D01*
X187089586Y-130744938D01*
X186861344Y-130806094D01*
X186861335Y-130806098D01*
X186647171Y-130905964D01*
X186647169Y-130905965D01*
X186453597Y-131041505D01*
X186286505Y-131208597D01*
X186156575Y-131394158D01*
X186101998Y-131437783D01*
X186032500Y-131444977D01*
X185970145Y-131413454D01*
X185953425Y-131394158D01*
X185823494Y-131208597D01*
X185656402Y-131041506D01*
X185656395Y-131041501D01*
X185462834Y-130905967D01*
X185462830Y-130905965D01*
X185405664Y-130879308D01*
X185248663Y-130806097D01*
X185248659Y-130806096D01*
X185248655Y-130806094D01*
X185020413Y-130744938D01*
X185020403Y-130744936D01*
X184785001Y-130724341D01*
X184784999Y-130724341D01*
X184549596Y-130744936D01*
X184549586Y-130744938D01*
X184321344Y-130806094D01*
X184321335Y-130806098D01*
X184107171Y-130905964D01*
X184107169Y-130905965D01*
X183913600Y-131041503D01*
X183791284Y-131163819D01*
X183729961Y-131197303D01*
X183660269Y-131192319D01*
X183604336Y-131150447D01*
X183587421Y-131119470D01*
X183538354Y-130987913D01*
X183538350Y-130987906D01*
X183452190Y-130872812D01*
X183452187Y-130872809D01*
X183337093Y-130786649D01*
X183337086Y-130786645D01*
X183202379Y-130736403D01*
X183202372Y-130736401D01*
X183142844Y-130730000D01*
X182495000Y-130730000D01*
X182495000Y-131635439D01*
X182441853Y-131604755D01*
X182312143Y-131570000D01*
X182177857Y-131570000D01*
X182048147Y-131604755D01*
X181995000Y-131635439D01*
X181995000Y-130730000D01*
X181347155Y-130730000D01*
X181287627Y-130736401D01*
X181287620Y-130736403D01*
X181152913Y-130786645D01*
X181152906Y-130786649D01*
X181037812Y-130872809D01*
X181037809Y-130872812D01*
X180951649Y-130987906D01*
X180951645Y-130987913D01*
X180902578Y-131119470D01*
X180860707Y-131175404D01*
X180795242Y-131199821D01*
X180726969Y-131184969D01*
X180698715Y-131163819D01*
X180654366Y-131119470D01*
X180576401Y-131041505D01*
X180576397Y-131041502D01*
X180576396Y-131041501D01*
X180382834Y-130905967D01*
X180382830Y-130905965D01*
X180325664Y-130879308D01*
X180168663Y-130806097D01*
X180168659Y-130806096D01*
X180168655Y-130806094D01*
X179940413Y-130744938D01*
X179940403Y-130744936D01*
X179705001Y-130724341D01*
X179704999Y-130724341D01*
X179469596Y-130744936D01*
X179469586Y-130744938D01*
X179241344Y-130806094D01*
X179241335Y-130806098D01*
X179027171Y-130905964D01*
X179027169Y-130905965D01*
X178833597Y-131041505D01*
X178666505Y-131208597D01*
X178536575Y-131394158D01*
X178481998Y-131437783D01*
X178412500Y-131444977D01*
X178350145Y-131413454D01*
X178333425Y-131394158D01*
X178203494Y-131208597D01*
X178036402Y-131041506D01*
X178036395Y-131041501D01*
X177842834Y-130905967D01*
X177842830Y-130905965D01*
X177785664Y-130879308D01*
X177628663Y-130806097D01*
X177628659Y-130806096D01*
X177628655Y-130806094D01*
X177400413Y-130744938D01*
X177400403Y-130744936D01*
X177165001Y-130724341D01*
X177164999Y-130724341D01*
X176929596Y-130744936D01*
X176929586Y-130744938D01*
X176701344Y-130806094D01*
X176701335Y-130806098D01*
X176487171Y-130905964D01*
X176487169Y-130905965D01*
X176293597Y-131041505D01*
X176126505Y-131208597D01*
X175996575Y-131394158D01*
X175941998Y-131437783D01*
X175872500Y-131444977D01*
X175810145Y-131413454D01*
X175793425Y-131394158D01*
X175663494Y-131208597D01*
X175496402Y-131041506D01*
X175496395Y-131041501D01*
X175302834Y-130905967D01*
X175302830Y-130905965D01*
X175245664Y-130879308D01*
X175088663Y-130806097D01*
X175088659Y-130806096D01*
X175088655Y-130806094D01*
X174860413Y-130744938D01*
X174860403Y-130744936D01*
X174625001Y-130724341D01*
X174624999Y-130724341D01*
X174389596Y-130744936D01*
X174389586Y-130744938D01*
X174161344Y-130806094D01*
X174161335Y-130806098D01*
X173947171Y-130905964D01*
X173947169Y-130905965D01*
X173753597Y-131041505D01*
X173586505Y-131208597D01*
X173456575Y-131394158D01*
X173401998Y-131437783D01*
X173332500Y-131444977D01*
X173270145Y-131413454D01*
X173253425Y-131394158D01*
X173123494Y-131208597D01*
X172956402Y-131041506D01*
X172956395Y-131041501D01*
X172762834Y-130905967D01*
X172762830Y-130905965D01*
X172705664Y-130879308D01*
X172548663Y-130806097D01*
X172548659Y-130806096D01*
X172548655Y-130806094D01*
X172320413Y-130744938D01*
X172320403Y-130744936D01*
X172085001Y-130724341D01*
X172084999Y-130724341D01*
X171849596Y-130744936D01*
X171849586Y-130744938D01*
X171621344Y-130806094D01*
X171621335Y-130806098D01*
X171407171Y-130905964D01*
X171407169Y-130905965D01*
X171213600Y-131041503D01*
X171091284Y-131163819D01*
X171029961Y-131197303D01*
X170960269Y-131192319D01*
X170904336Y-131150447D01*
X170887421Y-131119470D01*
X170838354Y-130987913D01*
X170838350Y-130987906D01*
X170752190Y-130872812D01*
X170752187Y-130872809D01*
X170637093Y-130786649D01*
X170637086Y-130786645D01*
X170502379Y-130736403D01*
X170502372Y-130736401D01*
X170442844Y-130730000D01*
X169795000Y-130730000D01*
X169795000Y-131635439D01*
X169741853Y-131604755D01*
X169612143Y-131570000D01*
X169477857Y-131570000D01*
X169348147Y-131604755D01*
X169295000Y-131635439D01*
X169295000Y-130730000D01*
X168647155Y-130730000D01*
X168587627Y-130736401D01*
X168587620Y-130736403D01*
X168452913Y-130786645D01*
X168452906Y-130786649D01*
X168337812Y-130872809D01*
X168337809Y-130872812D01*
X168251649Y-130987906D01*
X168251645Y-130987913D01*
X168202578Y-131119470D01*
X168160707Y-131175404D01*
X168095242Y-131199821D01*
X168026969Y-131184969D01*
X167998715Y-131163819D01*
X167954366Y-131119470D01*
X167876401Y-131041505D01*
X167876397Y-131041502D01*
X167876396Y-131041501D01*
X167682834Y-130905967D01*
X167682830Y-130905965D01*
X167625664Y-130879308D01*
X167468663Y-130806097D01*
X167468659Y-130806096D01*
X167468655Y-130806094D01*
X167240413Y-130744938D01*
X167240403Y-130744936D01*
X167005001Y-130724341D01*
X167004999Y-130724341D01*
X166769596Y-130744936D01*
X166769586Y-130744938D01*
X166541344Y-130806094D01*
X166541335Y-130806098D01*
X166327171Y-130905964D01*
X166327169Y-130905965D01*
X166133597Y-131041505D01*
X165966505Y-131208597D01*
X165836575Y-131394158D01*
X165781998Y-131437783D01*
X165712500Y-131444977D01*
X165650145Y-131413454D01*
X165633425Y-131394158D01*
X165503494Y-131208597D01*
X165336402Y-131041506D01*
X165336395Y-131041501D01*
X165142834Y-130905967D01*
X165142830Y-130905965D01*
X165085664Y-130879308D01*
X164928663Y-130806097D01*
X164928659Y-130806096D01*
X164928655Y-130806094D01*
X164700413Y-130744938D01*
X164700403Y-130744936D01*
X164465001Y-130724341D01*
X164464999Y-130724341D01*
X164229596Y-130744936D01*
X164229586Y-130744938D01*
X164001344Y-130806094D01*
X164001335Y-130806098D01*
X163787171Y-130905964D01*
X163787169Y-130905965D01*
X163593597Y-131041505D01*
X163426505Y-131208597D01*
X163296575Y-131394158D01*
X163241998Y-131437783D01*
X163172500Y-131444977D01*
X163110145Y-131413454D01*
X163093425Y-131394158D01*
X162963494Y-131208597D01*
X162796402Y-131041506D01*
X162796395Y-131041501D01*
X162602834Y-130905967D01*
X162602830Y-130905965D01*
X162545664Y-130879308D01*
X162388663Y-130806097D01*
X162388659Y-130806096D01*
X162388655Y-130806094D01*
X162160413Y-130744938D01*
X162160403Y-130744936D01*
X161925001Y-130724341D01*
X161924999Y-130724341D01*
X161689596Y-130744936D01*
X161689586Y-130744938D01*
X161461344Y-130806094D01*
X161461335Y-130806098D01*
X161247171Y-130905964D01*
X161247169Y-130905965D01*
X161053597Y-131041505D01*
X160886505Y-131208597D01*
X160756575Y-131394158D01*
X160701998Y-131437783D01*
X160632500Y-131444977D01*
X160570145Y-131413454D01*
X160553425Y-131394158D01*
X160423494Y-131208597D01*
X160256402Y-131041506D01*
X160256395Y-131041501D01*
X160062834Y-130905967D01*
X160062830Y-130905965D01*
X160005664Y-130879308D01*
X159848663Y-130806097D01*
X159848659Y-130806096D01*
X159848655Y-130806094D01*
X159620413Y-130744938D01*
X159620403Y-130744936D01*
X159385001Y-130724341D01*
X159384999Y-130724341D01*
X159149596Y-130744936D01*
X159149586Y-130744938D01*
X158921344Y-130806094D01*
X158921335Y-130806098D01*
X158707171Y-130905964D01*
X158707169Y-130905965D01*
X158513600Y-131041503D01*
X158391284Y-131163819D01*
X158329961Y-131197303D01*
X158260269Y-131192319D01*
X158204336Y-131150447D01*
X158187421Y-131119470D01*
X158138354Y-130987913D01*
X158138350Y-130987906D01*
X158052190Y-130872812D01*
X158052187Y-130872809D01*
X157937093Y-130786649D01*
X157937086Y-130786645D01*
X157802379Y-130736403D01*
X157802372Y-130736401D01*
X157742844Y-130730000D01*
X157095000Y-130730000D01*
X157095000Y-131635439D01*
X157041853Y-131604755D01*
X156912143Y-131570000D01*
X156777857Y-131570000D01*
X156648147Y-131604755D01*
X156595000Y-131635439D01*
X156595000Y-130730000D01*
X155947155Y-130730000D01*
X155887627Y-130736401D01*
X155887620Y-130736403D01*
X155752913Y-130786645D01*
X155752906Y-130786649D01*
X155637812Y-130872809D01*
X155637809Y-130872812D01*
X155551649Y-130987906D01*
X155551645Y-130987913D01*
X155502578Y-131119470D01*
X155460707Y-131175404D01*
X155395242Y-131199821D01*
X155326969Y-131184969D01*
X155298715Y-131163819D01*
X155254366Y-131119470D01*
X155176401Y-131041505D01*
X155176397Y-131041502D01*
X155176396Y-131041501D01*
X154982834Y-130905967D01*
X154982830Y-130905965D01*
X154925664Y-130879308D01*
X154768663Y-130806097D01*
X154768659Y-130806096D01*
X154768655Y-130806094D01*
X154540413Y-130744938D01*
X154540403Y-130744936D01*
X154305001Y-130724341D01*
X154304999Y-130724341D01*
X154069596Y-130744936D01*
X154069586Y-130744938D01*
X153841344Y-130806094D01*
X153841335Y-130806098D01*
X153627171Y-130905964D01*
X153627169Y-130905965D01*
X153433597Y-131041505D01*
X153266505Y-131208597D01*
X153136575Y-131394158D01*
X153081998Y-131437783D01*
X153012500Y-131444977D01*
X152950145Y-131413454D01*
X152933425Y-131394158D01*
X152803494Y-131208597D01*
X152636402Y-131041506D01*
X152636395Y-131041501D01*
X152442834Y-130905967D01*
X152442830Y-130905965D01*
X152385664Y-130879308D01*
X152228663Y-130806097D01*
X152228659Y-130806096D01*
X152228655Y-130806094D01*
X152000413Y-130744938D01*
X152000403Y-130744936D01*
X151765001Y-130724341D01*
X151764999Y-130724341D01*
X151529596Y-130744936D01*
X151529586Y-130744938D01*
X151301344Y-130806094D01*
X151301335Y-130806098D01*
X151087171Y-130905964D01*
X151087169Y-130905965D01*
X150893597Y-131041505D01*
X150726505Y-131208597D01*
X150590965Y-131402169D01*
X150590964Y-131402171D01*
X150491098Y-131616335D01*
X150491094Y-131616344D01*
X150429938Y-131844586D01*
X150429936Y-131844596D01*
X150409341Y-132079999D01*
X150409341Y-132080000D01*
X150429936Y-132315403D01*
X150429938Y-132315413D01*
X150491094Y-132543655D01*
X150491096Y-132543659D01*
X150491097Y-132543663D01*
X150560539Y-132692581D01*
X150590965Y-132757830D01*
X150590967Y-132757834D01*
X150685477Y-132892807D01*
X150726505Y-132951401D01*
X150893599Y-133118495D01*
X150925771Y-133141022D01*
X151087165Y-133254032D01*
X151087167Y-133254033D01*
X151087170Y-133254035D01*
X151301337Y-133353903D01*
X151529592Y-133415063D01*
X151700319Y-133430000D01*
X151764999Y-133435659D01*
X151765000Y-133435659D01*
X151765001Y-133435659D01*
X151829681Y-133430000D01*
X152000408Y-133415063D01*
X152228663Y-133353903D01*
X152442830Y-133254035D01*
X152636401Y-133118495D01*
X152803495Y-132951401D01*
X152933425Y-132765842D01*
X152988002Y-132722217D01*
X153057500Y-132715023D01*
X153119855Y-132746546D01*
X153136575Y-132765842D01*
X153266500Y-132951395D01*
X153266505Y-132951401D01*
X153433599Y-133118495D01*
X153465771Y-133141022D01*
X153627165Y-133254032D01*
X153627167Y-133254033D01*
X153627170Y-133254035D01*
X153841337Y-133353903D01*
X154069592Y-133415063D01*
X154240319Y-133430000D01*
X154304999Y-133435659D01*
X154305000Y-133435659D01*
X154305001Y-133435659D01*
X154369681Y-133430000D01*
X154540408Y-133415063D01*
X154768663Y-133353903D01*
X154982830Y-133254035D01*
X155176401Y-133118495D01*
X155298717Y-132996178D01*
X155360036Y-132962696D01*
X155429728Y-132967680D01*
X155485662Y-133009551D01*
X155502577Y-133040528D01*
X155551646Y-133172088D01*
X155551649Y-133172093D01*
X155637809Y-133287187D01*
X155637812Y-133287190D01*
X155752906Y-133373350D01*
X155752913Y-133373354D01*
X155887620Y-133423596D01*
X155887627Y-133423598D01*
X155947155Y-133429999D01*
X155947172Y-133430000D01*
X156595000Y-133430000D01*
X156595000Y-132524560D01*
X156648147Y-132555245D01*
X156777857Y-132590000D01*
X156912143Y-132590000D01*
X157041853Y-132555245D01*
X157095000Y-132524560D01*
X157095000Y-133430000D01*
X157742828Y-133430000D01*
X157742844Y-133429999D01*
X157802372Y-133423598D01*
X157802379Y-133423596D01*
X157937086Y-133373354D01*
X157937093Y-133373350D01*
X158052187Y-133287190D01*
X158052190Y-133287187D01*
X158138350Y-133172093D01*
X158138354Y-133172086D01*
X158187422Y-133040529D01*
X158229293Y-132984595D01*
X158294757Y-132960178D01*
X158363030Y-132975030D01*
X158391285Y-132996181D01*
X158513599Y-133118495D01*
X158545771Y-133141022D01*
X158707165Y-133254032D01*
X158707167Y-133254033D01*
X158707170Y-133254035D01*
X158921337Y-133353903D01*
X159149592Y-133415063D01*
X159320319Y-133430000D01*
X159384999Y-133435659D01*
X159385000Y-133435659D01*
X159385001Y-133435659D01*
X159449681Y-133430000D01*
X159620408Y-133415063D01*
X159848663Y-133353903D01*
X160062830Y-133254035D01*
X160256401Y-133118495D01*
X160423495Y-132951401D01*
X160553425Y-132765842D01*
X160608002Y-132722217D01*
X160677500Y-132715023D01*
X160739855Y-132746546D01*
X160756575Y-132765842D01*
X160886500Y-132951395D01*
X160886505Y-132951401D01*
X161053599Y-133118495D01*
X161085771Y-133141022D01*
X161247165Y-133254032D01*
X161247167Y-133254033D01*
X161247170Y-133254035D01*
X161461337Y-133353903D01*
X161689592Y-133415063D01*
X161860319Y-133430000D01*
X161924999Y-133435659D01*
X161925000Y-133435659D01*
X161925001Y-133435659D01*
X161989681Y-133430000D01*
X162160408Y-133415063D01*
X162388663Y-133353903D01*
X162602830Y-133254035D01*
X162796401Y-133118495D01*
X162963495Y-132951401D01*
X163093425Y-132765842D01*
X163148002Y-132722217D01*
X163217500Y-132715023D01*
X163279855Y-132746546D01*
X163296575Y-132765842D01*
X163426500Y-132951395D01*
X163426505Y-132951401D01*
X163593599Y-133118495D01*
X163625771Y-133141022D01*
X163787165Y-133254032D01*
X163787167Y-133254033D01*
X163787170Y-133254035D01*
X164001337Y-133353903D01*
X164229592Y-133415063D01*
X164400319Y-133430000D01*
X164464999Y-133435659D01*
X164465000Y-133435659D01*
X164465001Y-133435659D01*
X164529681Y-133430000D01*
X164700408Y-133415063D01*
X164928663Y-133353903D01*
X165142830Y-133254035D01*
X165336401Y-133118495D01*
X165503495Y-132951401D01*
X165633425Y-132765842D01*
X165688002Y-132722217D01*
X165757500Y-132715023D01*
X165819855Y-132746546D01*
X165836575Y-132765842D01*
X165966500Y-132951395D01*
X165966505Y-132951401D01*
X166133599Y-133118495D01*
X166165771Y-133141022D01*
X166327165Y-133254032D01*
X166327167Y-133254033D01*
X166327170Y-133254035D01*
X166541337Y-133353903D01*
X166769592Y-133415063D01*
X166940319Y-133430000D01*
X167004999Y-133435659D01*
X167005000Y-133435659D01*
X167005001Y-133435659D01*
X167069681Y-133430000D01*
X167240408Y-133415063D01*
X167468663Y-133353903D01*
X167682830Y-133254035D01*
X167876401Y-133118495D01*
X167998717Y-132996178D01*
X168060036Y-132962696D01*
X168129728Y-132967680D01*
X168185662Y-133009551D01*
X168202577Y-133040528D01*
X168251646Y-133172088D01*
X168251649Y-133172093D01*
X168337809Y-133287187D01*
X168337812Y-133287190D01*
X168452906Y-133373350D01*
X168452913Y-133373354D01*
X168587620Y-133423596D01*
X168587627Y-133423598D01*
X168647155Y-133429999D01*
X168647172Y-133430000D01*
X169295000Y-133430000D01*
X169295000Y-132524560D01*
X169348147Y-132555245D01*
X169477857Y-132590000D01*
X169612143Y-132590000D01*
X169741853Y-132555245D01*
X169795000Y-132524560D01*
X169795000Y-133430000D01*
X170442828Y-133430000D01*
X170442844Y-133429999D01*
X170502372Y-133423598D01*
X170502379Y-133423596D01*
X170637086Y-133373354D01*
X170637093Y-133373350D01*
X170752187Y-133287190D01*
X170752190Y-133287187D01*
X170838350Y-133172093D01*
X170838354Y-133172086D01*
X170887422Y-133040529D01*
X170929293Y-132984595D01*
X170994757Y-132960178D01*
X171063030Y-132975030D01*
X171091285Y-132996181D01*
X171213599Y-133118495D01*
X171245771Y-133141022D01*
X171407165Y-133254032D01*
X171407167Y-133254033D01*
X171407170Y-133254035D01*
X171621337Y-133353903D01*
X171849592Y-133415063D01*
X172020319Y-133430000D01*
X172084999Y-133435659D01*
X172085000Y-133435659D01*
X172085001Y-133435659D01*
X172149681Y-133430000D01*
X172320408Y-133415063D01*
X172548663Y-133353903D01*
X172762830Y-133254035D01*
X172956401Y-133118495D01*
X173123495Y-132951401D01*
X173253425Y-132765842D01*
X173308002Y-132722217D01*
X173377500Y-132715023D01*
X173439855Y-132746546D01*
X173456575Y-132765842D01*
X173586500Y-132951395D01*
X173586505Y-132951401D01*
X173753599Y-133118495D01*
X173785771Y-133141022D01*
X173947165Y-133254032D01*
X173947167Y-133254033D01*
X173947170Y-133254035D01*
X174161337Y-133353903D01*
X174389592Y-133415063D01*
X174560319Y-133430000D01*
X174624999Y-133435659D01*
X174625000Y-133435659D01*
X174625001Y-133435659D01*
X174689681Y-133430000D01*
X174860408Y-133415063D01*
X175088663Y-133353903D01*
X175302830Y-133254035D01*
X175496401Y-133118495D01*
X175663495Y-132951401D01*
X175793425Y-132765842D01*
X175848002Y-132722217D01*
X175917500Y-132715023D01*
X175979855Y-132746546D01*
X175996575Y-132765842D01*
X176126500Y-132951395D01*
X176126505Y-132951401D01*
X176293599Y-133118495D01*
X176325771Y-133141022D01*
X176487165Y-133254032D01*
X176487167Y-133254033D01*
X176487170Y-133254035D01*
X176701337Y-133353903D01*
X176929592Y-133415063D01*
X177100319Y-133430000D01*
X177164999Y-133435659D01*
X177165000Y-133435659D01*
X177165001Y-133435659D01*
X177229681Y-133430000D01*
X177400408Y-133415063D01*
X177628663Y-133353903D01*
X177842830Y-133254035D01*
X178036401Y-133118495D01*
X178203495Y-132951401D01*
X178333425Y-132765842D01*
X178388002Y-132722217D01*
X178457500Y-132715023D01*
X178519855Y-132746546D01*
X178536575Y-132765842D01*
X178666500Y-132951395D01*
X178666505Y-132951401D01*
X178833599Y-133118495D01*
X178865771Y-133141022D01*
X179027165Y-133254032D01*
X179027167Y-133254033D01*
X179027170Y-133254035D01*
X179241337Y-133353903D01*
X179469592Y-133415063D01*
X179640319Y-133430000D01*
X179704999Y-133435659D01*
X179705000Y-133435659D01*
X179705001Y-133435659D01*
X179769681Y-133430000D01*
X179940408Y-133415063D01*
X180168663Y-133353903D01*
X180382830Y-133254035D01*
X180576401Y-133118495D01*
X180698717Y-132996178D01*
X180760036Y-132962696D01*
X180829728Y-132967680D01*
X180885662Y-133009551D01*
X180902577Y-133040528D01*
X180951646Y-133172088D01*
X180951649Y-133172093D01*
X181037809Y-133287187D01*
X181037812Y-133287190D01*
X181152906Y-133373350D01*
X181152913Y-133373354D01*
X181287620Y-133423596D01*
X181287627Y-133423598D01*
X181347155Y-133429999D01*
X181347172Y-133430000D01*
X181995000Y-133430000D01*
X181995000Y-132524560D01*
X182048147Y-132555245D01*
X182177857Y-132590000D01*
X182312143Y-132590000D01*
X182441853Y-132555245D01*
X182495000Y-132524560D01*
X182495000Y-133430000D01*
X183142828Y-133430000D01*
X183142844Y-133429999D01*
X183202372Y-133423598D01*
X183202379Y-133423596D01*
X183337086Y-133373354D01*
X183337093Y-133373350D01*
X183452187Y-133287190D01*
X183452190Y-133287187D01*
X183538350Y-133172093D01*
X183538354Y-133172086D01*
X183587422Y-133040529D01*
X183629293Y-132984595D01*
X183694757Y-132960178D01*
X183763030Y-132975030D01*
X183791285Y-132996181D01*
X183913599Y-133118495D01*
X183945771Y-133141022D01*
X184107165Y-133254032D01*
X184107167Y-133254033D01*
X184107170Y-133254035D01*
X184321337Y-133353903D01*
X184549592Y-133415063D01*
X184720319Y-133430000D01*
X184784999Y-133435659D01*
X184785000Y-133435659D01*
X184785001Y-133435659D01*
X184849681Y-133430000D01*
X185020408Y-133415063D01*
X185248663Y-133353903D01*
X185462830Y-133254035D01*
X185656401Y-133118495D01*
X185823495Y-132951401D01*
X185953425Y-132765842D01*
X186008002Y-132722217D01*
X186077500Y-132715023D01*
X186139855Y-132746546D01*
X186156575Y-132765842D01*
X186286500Y-132951395D01*
X186286505Y-132951401D01*
X186453599Y-133118495D01*
X186485771Y-133141022D01*
X186647165Y-133254032D01*
X186647167Y-133254033D01*
X186647170Y-133254035D01*
X186861337Y-133353903D01*
X187089592Y-133415063D01*
X187260319Y-133430000D01*
X187324999Y-133435659D01*
X187325000Y-133435659D01*
X187325001Y-133435659D01*
X187389681Y-133430000D01*
X187560408Y-133415063D01*
X187788663Y-133353903D01*
X188002830Y-133254035D01*
X188196401Y-133118495D01*
X188363495Y-132951401D01*
X188493425Y-132765842D01*
X188548002Y-132722217D01*
X188617500Y-132715023D01*
X188679855Y-132746546D01*
X188696575Y-132765842D01*
X188826500Y-132951395D01*
X188826505Y-132951401D01*
X188993599Y-133118495D01*
X189025771Y-133141022D01*
X189187165Y-133254032D01*
X189187167Y-133254033D01*
X189187170Y-133254035D01*
X189401337Y-133353903D01*
X189629592Y-133415063D01*
X189800319Y-133430000D01*
X189864999Y-133435659D01*
X189865000Y-133435659D01*
X189865001Y-133435659D01*
X189929681Y-133430000D01*
X190100408Y-133415063D01*
X190328663Y-133353903D01*
X190542830Y-133254035D01*
X190736401Y-133118495D01*
X190903495Y-132951401D01*
X191033425Y-132765842D01*
X191088002Y-132722217D01*
X191157500Y-132715023D01*
X191219855Y-132746546D01*
X191236575Y-132765842D01*
X191366500Y-132951395D01*
X191366505Y-132951401D01*
X191533599Y-133118495D01*
X191565771Y-133141022D01*
X191727165Y-133254032D01*
X191727167Y-133254033D01*
X191727170Y-133254035D01*
X191941337Y-133353903D01*
X192169592Y-133415063D01*
X192340319Y-133430000D01*
X192404999Y-133435659D01*
X192405000Y-133435659D01*
X192405001Y-133435659D01*
X192469681Y-133430000D01*
X192640408Y-133415063D01*
X192868663Y-133353903D01*
X193082830Y-133254035D01*
X193276401Y-133118495D01*
X193398717Y-132996178D01*
X193460036Y-132962696D01*
X193529728Y-132967680D01*
X193585662Y-133009551D01*
X193602577Y-133040528D01*
X193651646Y-133172088D01*
X193651649Y-133172093D01*
X193737809Y-133287187D01*
X193737812Y-133287190D01*
X193852906Y-133373350D01*
X193852913Y-133373354D01*
X193987620Y-133423596D01*
X193987627Y-133423598D01*
X194047155Y-133429999D01*
X194047172Y-133430000D01*
X194695000Y-133430000D01*
X194695000Y-132524560D01*
X194748147Y-132555245D01*
X194877857Y-132590000D01*
X195012143Y-132590000D01*
X195141853Y-132555245D01*
X195195000Y-132524560D01*
X195195000Y-133430000D01*
X195842828Y-133430000D01*
X195842844Y-133429999D01*
X195902372Y-133423598D01*
X195902379Y-133423596D01*
X196037086Y-133373354D01*
X196037093Y-133373350D01*
X196152187Y-133287190D01*
X196152190Y-133287187D01*
X196238350Y-133172093D01*
X196238354Y-133172086D01*
X196287422Y-133040529D01*
X196329293Y-132984595D01*
X196394757Y-132960178D01*
X196463030Y-132975030D01*
X196491285Y-132996181D01*
X196613599Y-133118495D01*
X196645771Y-133141022D01*
X196807165Y-133254032D01*
X196807167Y-133254033D01*
X196807170Y-133254035D01*
X197021337Y-133353903D01*
X197249592Y-133415063D01*
X197420319Y-133430000D01*
X197484999Y-133435659D01*
X197485000Y-133435659D01*
X197485001Y-133435659D01*
X197549681Y-133430000D01*
X197720408Y-133415063D01*
X197948663Y-133353903D01*
X198162830Y-133254035D01*
X198356401Y-133118495D01*
X198523495Y-132951401D01*
X198653425Y-132765842D01*
X198708002Y-132722217D01*
X198777500Y-132715023D01*
X198839855Y-132746546D01*
X198856575Y-132765842D01*
X198986500Y-132951395D01*
X198986505Y-132951401D01*
X199153599Y-133118495D01*
X199185771Y-133141022D01*
X199347165Y-133254032D01*
X199347167Y-133254033D01*
X199347170Y-133254035D01*
X199561337Y-133353903D01*
X199789592Y-133415063D01*
X199960319Y-133430000D01*
X200024999Y-133435659D01*
X200025000Y-133435659D01*
X200025001Y-133435659D01*
X200089681Y-133430000D01*
X200260408Y-133415063D01*
X200488663Y-133353903D01*
X200702830Y-133254035D01*
X200896401Y-133118495D01*
X201063495Y-132951401D01*
X201069424Y-132942932D01*
X201123999Y-132899308D01*
X201193497Y-132892113D01*
X201255853Y-132923634D01*
X201291268Y-132983863D01*
X201295000Y-133014055D01*
X201295000Y-144656000D01*
X201275315Y-144723039D01*
X201222511Y-144768794D01*
X201171000Y-144780000D01*
X92075000Y-144780000D01*
X92075000Y-140741824D01*
X107360599Y-140741824D01*
X107395450Y-140917027D01*
X107395452Y-140917033D01*
X107463814Y-141082075D01*
X107463819Y-141082084D01*
X107563064Y-141230614D01*
X107563067Y-141230618D01*
X107689381Y-141356932D01*
X107689385Y-141356935D01*
X107837915Y-141456180D01*
X107837921Y-141456183D01*
X107837922Y-141456184D01*
X108002967Y-141524548D01*
X108002971Y-141524548D01*
X108002972Y-141524549D01*
X108178175Y-141559400D01*
X108178178Y-141559400D01*
X108356824Y-141559400D01*
X108474698Y-141535952D01*
X108532033Y-141524548D01*
X108697078Y-141456184D01*
X108845615Y-141356935D01*
X111464331Y-138738219D01*
X111525654Y-138704734D01*
X111552012Y-138701900D01*
X113754324Y-138701900D01*
X113872198Y-138678452D01*
X113929533Y-138667048D01*
X114094578Y-138598684D01*
X114243115Y-138499435D01*
X114369435Y-138373115D01*
X114468684Y-138224578D01*
X114537048Y-138059533D01*
X114571900Y-137884322D01*
X114571900Y-137705678D01*
X114571900Y-137705675D01*
X114537049Y-137530472D01*
X114537048Y-137530471D01*
X114537048Y-137530467D01*
X114468684Y-137365422D01*
X114468683Y-137365421D01*
X114468680Y-137365415D01*
X114369435Y-137216885D01*
X114369432Y-137216881D01*
X114243118Y-137090567D01*
X114243114Y-137090564D01*
X114094584Y-136991319D01*
X114094575Y-136991314D01*
X113929533Y-136922952D01*
X113929527Y-136922950D01*
X113754324Y-136888100D01*
X113754322Y-136888100D01*
X111214322Y-136888100D01*
X111035678Y-136888100D01*
X111035676Y-136888100D01*
X110860472Y-136922950D01*
X110860466Y-136922952D01*
X110695424Y-136991314D01*
X110695415Y-136991319D01*
X110546885Y-137090564D01*
X110546881Y-137090567D01*
X107563067Y-140074381D01*
X107563064Y-140074385D01*
X107463819Y-140222915D01*
X107463814Y-140222924D01*
X107395452Y-140387966D01*
X107395450Y-140387972D01*
X107360600Y-140563175D01*
X107360600Y-140563178D01*
X107360600Y-140741822D01*
X107360600Y-140741824D01*
X107360599Y-140741824D01*
X92075000Y-140741824D01*
X92075000Y-124460000D01*
X109634815Y-124460000D01*
X109653503Y-124637805D01*
X109653504Y-124637807D01*
X109708747Y-124807829D01*
X109708750Y-124807835D01*
X109751040Y-124881084D01*
X109769687Y-124913380D01*
X109786300Y-124975380D01*
X109786300Y-130735556D01*
X109786299Y-130735582D01*
X109786299Y-130740692D01*
X109786299Y-130879308D01*
X109807881Y-130987803D01*
X109807903Y-130987913D01*
X109813343Y-131015262D01*
X109813344Y-131015266D01*
X109866386Y-131143323D01*
X109943401Y-131258585D01*
X110045736Y-131360920D01*
X110045758Y-131360940D01*
X111528250Y-132843432D01*
X111558500Y-132892795D01*
X111613747Y-133062828D01*
X111613750Y-133062835D01*
X111703141Y-133217665D01*
X111717066Y-133233130D01*
X111822764Y-133350521D01*
X111822767Y-133350523D01*
X111822770Y-133350526D01*
X111967407Y-133455612D01*
X112130733Y-133528329D01*
X112305609Y-133565500D01*
X112305610Y-133565500D01*
X112484389Y-133565500D01*
X112484391Y-133565500D01*
X112659267Y-133528329D01*
X112822593Y-133455612D01*
X112967230Y-133350526D01*
X113086859Y-133217665D01*
X113176250Y-133062835D01*
X113231497Y-132892803D01*
X113250185Y-132715000D01*
X113231497Y-132537197D01*
X113203873Y-132452181D01*
X113176252Y-132367170D01*
X113176249Y-132367164D01*
X113146365Y-132315403D01*
X113086859Y-132212335D01*
X113028160Y-132147143D01*
X112967235Y-132079478D01*
X112967232Y-132079476D01*
X112967231Y-132079475D01*
X112967230Y-132079474D01*
X112822593Y-131974388D01*
X112659267Y-131901671D01*
X112659265Y-131901670D01*
X112590532Y-131887060D01*
X112529050Y-131853867D01*
X112528633Y-131853451D01*
X111230019Y-130554837D01*
X111196534Y-130493514D01*
X111193700Y-130467156D01*
X111193700Y-126365000D01*
X111539815Y-126365000D01*
X111558503Y-126542805D01*
X111558504Y-126542807D01*
X111613747Y-126712829D01*
X111613750Y-126712835D01*
X111703141Y-126867665D01*
X111735886Y-126904032D01*
X111822764Y-127000521D01*
X111822767Y-127000523D01*
X111822770Y-127000526D01*
X111967407Y-127105612D01*
X112130733Y-127178329D01*
X112305609Y-127215500D01*
X112305610Y-127215500D01*
X112484389Y-127215500D01*
X112484391Y-127215500D01*
X112659267Y-127178329D01*
X112822593Y-127105612D01*
X112840801Y-127092382D01*
X112906606Y-127068902D01*
X112913687Y-127068700D01*
X115686313Y-127068700D01*
X115753352Y-127088385D01*
X115759186Y-127092373D01*
X115777407Y-127105612D01*
X115940733Y-127178329D01*
X116115609Y-127215500D01*
X116115610Y-127215500D01*
X116294389Y-127215500D01*
X116294391Y-127215500D01*
X116469267Y-127178329D01*
X116632593Y-127105612D01*
X116777230Y-127000526D01*
X116896859Y-126867665D01*
X116986250Y-126712835D01*
X117041497Y-126542803D01*
X117060185Y-126365000D01*
X117041497Y-126187197D01*
X116995077Y-126044331D01*
X116986252Y-126017170D01*
X116986249Y-126017164D01*
X116956365Y-125965403D01*
X116896859Y-125862335D01*
X116850003Y-125810296D01*
X116777235Y-125729478D01*
X116777232Y-125729476D01*
X116777231Y-125729475D01*
X116777230Y-125729474D01*
X116632593Y-125624388D01*
X116469267Y-125551671D01*
X116469265Y-125551670D01*
X116341594Y-125524533D01*
X116294391Y-125514500D01*
X116115609Y-125514500D01*
X116084954Y-125521015D01*
X115940733Y-125551670D01*
X115940728Y-125551672D01*
X115777408Y-125624387D01*
X115764257Y-125633942D01*
X115759197Y-125637618D01*
X115693393Y-125661098D01*
X115686313Y-125661300D01*
X112913687Y-125661300D01*
X112846648Y-125641615D01*
X112840813Y-125637626D01*
X112822593Y-125624388D01*
X112659267Y-125551671D01*
X112659265Y-125551670D01*
X112531594Y-125524533D01*
X112484391Y-125514500D01*
X112305609Y-125514500D01*
X112274954Y-125521015D01*
X112130733Y-125551670D01*
X112130728Y-125551672D01*
X111967408Y-125624387D01*
X111822768Y-125729475D01*
X111703140Y-125862336D01*
X111613750Y-126017164D01*
X111613747Y-126017170D01*
X111558504Y-126187192D01*
X111558503Y-126187194D01*
X111539815Y-126365000D01*
X111193700Y-126365000D01*
X111193700Y-124975380D01*
X111210313Y-124913380D01*
X111224057Y-124889575D01*
X111271250Y-124807835D01*
X111326497Y-124637803D01*
X111345185Y-124460000D01*
X111326497Y-124282197D01*
X111271250Y-124112165D01*
X111181859Y-123957335D01*
X111135003Y-123905296D01*
X111062235Y-123824478D01*
X111062232Y-123824476D01*
X111062231Y-123824475D01*
X111062230Y-123824474D01*
X110917593Y-123719388D01*
X110754267Y-123646671D01*
X110754265Y-123646670D01*
X110626594Y-123619533D01*
X110579391Y-123609500D01*
X110400609Y-123609500D01*
X110369954Y-123616015D01*
X110225733Y-123646670D01*
X110225728Y-123646672D01*
X110062408Y-123719387D01*
X109917768Y-123824475D01*
X109798140Y-123957336D01*
X109708750Y-124112164D01*
X109708747Y-124112170D01*
X109653504Y-124282192D01*
X109653503Y-124282194D01*
X109634815Y-124460000D01*
X92075000Y-124460000D01*
X92075000Y-123279324D01*
X93708099Y-123279324D01*
X93742950Y-123454527D01*
X93742952Y-123454533D01*
X93811314Y-123619575D01*
X93811319Y-123619584D01*
X93910564Y-123768114D01*
X93910567Y-123768118D01*
X94036881Y-123894432D01*
X94036885Y-123894435D01*
X94185415Y-123993680D01*
X94185421Y-123993683D01*
X94185422Y-123993684D01*
X94350467Y-124062048D01*
X94350471Y-124062048D01*
X94350472Y-124062049D01*
X94525675Y-124096900D01*
X94525678Y-124096900D01*
X94704324Y-124096900D01*
X94822198Y-124073452D01*
X94879533Y-124062048D01*
X95044578Y-123993684D01*
X95193115Y-123894435D01*
X95319435Y-123768115D01*
X95418684Y-123619578D01*
X95487048Y-123454533D01*
X95521900Y-123279322D01*
X95521900Y-119925678D01*
X95521900Y-119925675D01*
X95487049Y-119750472D01*
X95487048Y-119750471D01*
X95487048Y-119750467D01*
X95425490Y-119601852D01*
X95418685Y-119585424D01*
X95418680Y-119585415D01*
X95319435Y-119436885D01*
X95319432Y-119436881D01*
X95193118Y-119310567D01*
X95193114Y-119310564D01*
X95044584Y-119211319D01*
X95044575Y-119211314D01*
X94879533Y-119142952D01*
X94879527Y-119142950D01*
X94704324Y-119108100D01*
X94704322Y-119108100D01*
X94525678Y-119108100D01*
X94525676Y-119108100D01*
X94350472Y-119142950D01*
X94350466Y-119142952D01*
X94185424Y-119211314D01*
X94185415Y-119211319D01*
X94036885Y-119310564D01*
X94036881Y-119310567D01*
X93910567Y-119436881D01*
X93910564Y-119436885D01*
X93811319Y-119585415D01*
X93811314Y-119585424D01*
X93742952Y-119750466D01*
X93742950Y-119750472D01*
X93708100Y-119925675D01*
X93708100Y-119925678D01*
X93708100Y-123279322D01*
X93708100Y-123279324D01*
X93708099Y-123279324D01*
X92075000Y-123279324D01*
X92075000Y-117746900D01*
X92164324Y-117746900D01*
X92282198Y-117723452D01*
X92339533Y-117712048D01*
X92504578Y-117643684D01*
X92653115Y-117544435D01*
X97859435Y-112338115D01*
X97958684Y-112189578D01*
X98027048Y-112024533D01*
X98061900Y-111849322D01*
X98061900Y-111670678D01*
X98061900Y-110917012D01*
X98078014Y-110862135D01*
X107869500Y-110862135D01*
X107869500Y-112657870D01*
X107869501Y-112657876D01*
X107875908Y-112717483D01*
X107926202Y-112852328D01*
X107926203Y-112852330D01*
X108003578Y-112955689D01*
X108027995Y-113021153D01*
X108013144Y-113089426D01*
X108003578Y-113104311D01*
X107926203Y-113207669D01*
X107926202Y-113207671D01*
X107875908Y-113342517D01*
X107869501Y-113402116D01*
X107869500Y-113402135D01*
X107869500Y-115197870D01*
X107869501Y-115197876D01*
X107875908Y-115257483D01*
X107926202Y-115392328D01*
X107926206Y-115392335D01*
X108012452Y-115507544D01*
X108012455Y-115507547D01*
X108127664Y-115593793D01*
X108127671Y-115593797D01*
X108262517Y-115644091D01*
X108262516Y-115644091D01*
X108269444Y-115644835D01*
X108322127Y-115650500D01*
X110117872Y-115650499D01*
X110177483Y-115644091D01*
X110312331Y-115593796D01*
X110427546Y-115507546D01*
X110513796Y-115392331D01*
X110562810Y-115260916D01*
X110604681Y-115204984D01*
X110670145Y-115180566D01*
X110738418Y-115195417D01*
X110766670Y-115216566D01*
X110839723Y-115289619D01*
X110888600Y-115338496D01*
X111003423Y-115418895D01*
X111047048Y-115473471D01*
X111056300Y-115520470D01*
X111056300Y-116274312D01*
X111083341Y-116410254D01*
X111083344Y-116410266D01*
X111136386Y-116538323D01*
X111213401Y-116653585D01*
X111311414Y-116751598D01*
X111426676Y-116828613D01*
X111554733Y-116881655D01*
X111554738Y-116881657D01*
X111690687Y-116908699D01*
X111690690Y-116908700D01*
X111690692Y-116908700D01*
X116770692Y-116908700D01*
X121092300Y-116908700D01*
X121159339Y-116928385D01*
X121205094Y-116981189D01*
X121216300Y-117032700D01*
X121216300Y-132834618D01*
X121199688Y-132896617D01*
X121138749Y-133002167D01*
X121138747Y-133002170D01*
X121083504Y-133172192D01*
X121083503Y-133172194D01*
X121064815Y-133350000D01*
X121083503Y-133527805D01*
X121083504Y-133527807D01*
X121138747Y-133697829D01*
X121138750Y-133697835D01*
X121228141Y-133852665D01*
X121269812Y-133898946D01*
X121347764Y-133985521D01*
X121347767Y-133985523D01*
X121347770Y-133985526D01*
X121492407Y-134090612D01*
X121655733Y-134163329D01*
X121830609Y-134200500D01*
X121830610Y-134200500D01*
X122009389Y-134200500D01*
X122009391Y-134200500D01*
X122184267Y-134163329D01*
X122347593Y-134090612D01*
X122492230Y-133985526D01*
X122611859Y-133852665D01*
X122701250Y-133697835D01*
X122756497Y-133527803D01*
X122775185Y-133350000D01*
X122756497Y-133172197D01*
X122706567Y-133018529D01*
X122701252Y-133002170D01*
X122701251Y-133002168D01*
X122701250Y-133002165D01*
X122640311Y-132896616D01*
X122623700Y-132834618D01*
X122623700Y-130810000D01*
X126144815Y-130810000D01*
X126163503Y-130987803D01*
X126163539Y-130987913D01*
X126218747Y-131157829D01*
X126218750Y-131157835D01*
X126276918Y-131258585D01*
X126279687Y-131263380D01*
X126296300Y-131325380D01*
X126296300Y-134545556D01*
X126296299Y-134545582D01*
X126296299Y-134550692D01*
X126296299Y-134689308D01*
X126317881Y-134797803D01*
X126323343Y-134825262D01*
X126323344Y-134825266D01*
X126376386Y-134953323D01*
X126453401Y-135068585D01*
X126555736Y-135170920D01*
X126555758Y-135170940D01*
X128799981Y-137415163D01*
X128833466Y-137476486D01*
X128836300Y-137502844D01*
X128836300Y-137914618D01*
X128819688Y-137976617D01*
X128758749Y-138082167D01*
X128758747Y-138082170D01*
X128703504Y-138252192D01*
X128703503Y-138252194D01*
X128684815Y-138430000D01*
X128703503Y-138607805D01*
X128703504Y-138607807D01*
X128758747Y-138777829D01*
X128758750Y-138777835D01*
X128848141Y-138932665D01*
X128889812Y-138978946D01*
X128967764Y-139065521D01*
X128967767Y-139065523D01*
X128967770Y-139065526D01*
X129112407Y-139170612D01*
X129275733Y-139243329D01*
X129450609Y-139280500D01*
X129450610Y-139280500D01*
X129629389Y-139280500D01*
X129629391Y-139280500D01*
X129804267Y-139243329D01*
X129967593Y-139170612D01*
X130112230Y-139065526D01*
X130231859Y-138932665D01*
X130321250Y-138777835D01*
X130376497Y-138607803D01*
X130395185Y-138430000D01*
X130376497Y-138252197D01*
X130344498Y-138153714D01*
X130321252Y-138082170D01*
X130321251Y-138082168D01*
X130321250Y-138082165D01*
X130260311Y-137976616D01*
X130243700Y-137914618D01*
X130243700Y-137090689D01*
X130243699Y-137090687D01*
X130216658Y-136954745D01*
X130216657Y-136954738D01*
X130189055Y-136888100D01*
X130163613Y-136826676D01*
X130086598Y-136711414D01*
X129985487Y-136610303D01*
X129985456Y-136610274D01*
X127740019Y-134364837D01*
X127706534Y-134303514D01*
X127703700Y-134277156D01*
X127703700Y-132079998D01*
X135934838Y-132079998D01*
X135934838Y-132080001D01*
X135953450Y-132292741D01*
X135953452Y-132292752D01*
X136008721Y-132499022D01*
X136008723Y-132499026D01*
X136008724Y-132499030D01*
X136034938Y-132555245D01*
X136098977Y-132692578D01*
X136221472Y-132867521D01*
X136372478Y-133018527D01*
X136372481Y-133018529D01*
X136547419Y-133141021D01*
X136547421Y-133141022D01*
X136547420Y-133141022D01*
X136611936Y-133171106D01*
X136740970Y-133231276D01*
X136947253Y-133286549D01*
X137099215Y-133299844D01*
X137159998Y-133305162D01*
X137160000Y-133305162D01*
X137160002Y-133305162D01*
X137213186Y-133300508D01*
X137372747Y-133286549D01*
X137579030Y-133231276D01*
X137772581Y-133141021D01*
X137947519Y-133018529D01*
X138098529Y-132867519D01*
X138221021Y-132692581D01*
X138311276Y-132499030D01*
X138311280Y-132499013D01*
X138313130Y-132493936D01*
X138315253Y-132494709D01*
X138346576Y-132443305D01*
X138409419Y-132412766D01*
X138478796Y-132421050D01*
X138532680Y-132465528D01*
X138545827Y-132494315D01*
X138546870Y-132493936D01*
X138548722Y-132499022D01*
X138548724Y-132499030D01*
X138574938Y-132555245D01*
X138638977Y-132692578D01*
X138761472Y-132867521D01*
X138912478Y-133018527D01*
X138912481Y-133018529D01*
X139087419Y-133141021D01*
X139087421Y-133141022D01*
X139087420Y-133141022D01*
X139151936Y-133171106D01*
X139280970Y-133231276D01*
X139280983Y-133231279D01*
X139286064Y-133233130D01*
X139285390Y-133234978D01*
X139337680Y-133266857D01*
X139368204Y-133329707D01*
X139359903Y-133399082D01*
X139315413Y-133452956D01*
X139285904Y-133466432D01*
X139286236Y-133467342D01*
X139281140Y-133469197D01*
X139087671Y-133559412D01*
X139087669Y-133559413D01*
X139031969Y-133598415D01*
X139031968Y-133598415D01*
X139653554Y-134220000D01*
X139647339Y-134220000D01*
X139545606Y-134247259D01*
X139454394Y-134299920D01*
X139379920Y-134374394D01*
X139327259Y-134465606D01*
X139300000Y-134567339D01*
X139300000Y-134573553D01*
X138678415Y-133951968D01*
X138678415Y-133951969D01*
X138639413Y-134007669D01*
X138639412Y-134007671D01*
X138549197Y-134201140D01*
X138549194Y-134201146D01*
X138493945Y-134407337D01*
X138493944Y-134407345D01*
X138475340Y-134619997D01*
X138475340Y-134620002D01*
X138493944Y-134832654D01*
X138493945Y-134832662D01*
X138549194Y-135038853D01*
X138549197Y-135038859D01*
X138639413Y-135232329D01*
X138678415Y-135288030D01*
X139300000Y-134666445D01*
X139300000Y-134672661D01*
X139327259Y-134774394D01*
X139379920Y-134865606D01*
X139454394Y-134940080D01*
X139545606Y-134992741D01*
X139647339Y-135020000D01*
X139653554Y-135020000D01*
X139031968Y-135641584D01*
X139087663Y-135680582D01*
X139087669Y-135680586D01*
X139281140Y-135770802D01*
X139281146Y-135770805D01*
X139487337Y-135826054D01*
X139487345Y-135826055D01*
X139699998Y-135844660D01*
X139700002Y-135844660D01*
X139912654Y-135826055D01*
X139912662Y-135826054D01*
X140118853Y-135770805D01*
X140118864Y-135770801D01*
X140312325Y-135680589D01*
X140368030Y-135641583D01*
X139746447Y-135020000D01*
X139752661Y-135020000D01*
X139854394Y-134992741D01*
X139945606Y-134940080D01*
X140020080Y-134865606D01*
X140072741Y-134774394D01*
X140100000Y-134672661D01*
X140100000Y-134666446D01*
X140721583Y-135288029D01*
X140760589Y-135232325D01*
X140850801Y-135038864D01*
X140850805Y-135038853D01*
X140906054Y-134832662D01*
X140906055Y-134832654D01*
X140924660Y-134620002D01*
X140924660Y-134619997D01*
X140906055Y-134407345D01*
X140906054Y-134407337D01*
X140850805Y-134201146D01*
X140850802Y-134201140D01*
X140760586Y-134007669D01*
X140760582Y-134007663D01*
X140721584Y-133951968D01*
X140100000Y-134573552D01*
X140100000Y-134567339D01*
X140072741Y-134465606D01*
X140020080Y-134374394D01*
X139945606Y-134299920D01*
X139854394Y-134247259D01*
X139752661Y-134220000D01*
X139746447Y-134220000D01*
X140368030Y-133598415D01*
X140312329Y-133559413D01*
X140118859Y-133469197D01*
X140113764Y-133467342D01*
X140114455Y-133465443D01*
X140062325Y-133433667D01*
X140031797Y-133370820D01*
X140040093Y-133301444D01*
X140084579Y-133247567D01*
X140114257Y-133234014D01*
X140113936Y-133233130D01*
X140119013Y-133231280D01*
X140119030Y-133231276D01*
X140312581Y-133141021D01*
X140487519Y-133018529D01*
X140638529Y-132867519D01*
X140761021Y-132692581D01*
X140851276Y-132499030D01*
X140906549Y-132292747D01*
X140925162Y-132080000D01*
X140925116Y-132079478D01*
X140908282Y-131887060D01*
X140906549Y-131867253D01*
X140851276Y-131660970D01*
X140761021Y-131467419D01*
X140638529Y-131292481D01*
X140638527Y-131292478D01*
X140487521Y-131141472D01*
X140312578Y-131018977D01*
X140312579Y-131018977D01*
X140183547Y-130958809D01*
X140119030Y-130928724D01*
X140119023Y-130928722D01*
X140113936Y-130926870D01*
X140114709Y-130924746D01*
X140063305Y-130893424D01*
X140032766Y-130830581D01*
X140041050Y-130761204D01*
X140085528Y-130707320D01*
X140114315Y-130694172D01*
X140113936Y-130693130D01*
X140119013Y-130691280D01*
X140119030Y-130691276D01*
X140312581Y-130601021D01*
X140487519Y-130478529D01*
X140487519Y-130478528D01*
X140487523Y-130478526D01*
X140490644Y-130475908D01*
X140554653Y-130447897D01*
X140570346Y-130446900D01*
X141209100Y-130446900D01*
X141276139Y-130466585D01*
X141321894Y-130519389D01*
X141333100Y-130570900D01*
X141333100Y-141694322D01*
X141333100Y-141694324D01*
X141333099Y-141694324D01*
X141367950Y-141869527D01*
X141367952Y-141869533D01*
X141436314Y-142034575D01*
X141436319Y-142034584D01*
X141535564Y-142183114D01*
X141535567Y-142183118D01*
X141661881Y-142309432D01*
X141661885Y-142309435D01*
X141810415Y-142408680D01*
X141810421Y-142408683D01*
X141810422Y-142408684D01*
X141975467Y-142477048D01*
X141975471Y-142477048D01*
X141975472Y-142477049D01*
X142150675Y-142511900D01*
X142150678Y-142511900D01*
X142329324Y-142511900D01*
X142447198Y-142488452D01*
X142504533Y-142477048D01*
X142669578Y-142408684D01*
X142818115Y-142309435D01*
X142944435Y-142183115D01*
X143043684Y-142034578D01*
X143112048Y-141869533D01*
X143146900Y-141694324D01*
X145143099Y-141694324D01*
X145177950Y-141869527D01*
X145177952Y-141869533D01*
X145246314Y-142034575D01*
X145246319Y-142034584D01*
X145345564Y-142183114D01*
X145345567Y-142183118D01*
X145471881Y-142309432D01*
X145471885Y-142309435D01*
X145620415Y-142408680D01*
X145620421Y-142408683D01*
X145620422Y-142408684D01*
X145785467Y-142477048D01*
X145785471Y-142477048D01*
X145785472Y-142477049D01*
X145960675Y-142511900D01*
X145960678Y-142511900D01*
X146139324Y-142511900D01*
X146257198Y-142488452D01*
X146314533Y-142477048D01*
X146479578Y-142408684D01*
X146628115Y-142309435D01*
X146754435Y-142183115D01*
X146853684Y-142034578D01*
X146922048Y-141869533D01*
X146956900Y-141694322D01*
X146956900Y-135165678D01*
X146956900Y-135165675D01*
X146922049Y-134990472D01*
X146922048Y-134990471D01*
X146922048Y-134990467D01*
X146853684Y-134825422D01*
X146853683Y-134825421D01*
X146853680Y-134825415D01*
X146754435Y-134676885D01*
X146754432Y-134676881D01*
X146628118Y-134550567D01*
X146628114Y-134550564D01*
X146479584Y-134451319D01*
X146479575Y-134451314D01*
X146314533Y-134382952D01*
X146314527Y-134382950D01*
X146139324Y-134348100D01*
X146139322Y-134348100D01*
X145960678Y-134348100D01*
X145960676Y-134348100D01*
X145785472Y-134382950D01*
X145785466Y-134382952D01*
X145620424Y-134451314D01*
X145620415Y-134451319D01*
X145471885Y-134550564D01*
X145471881Y-134550567D01*
X145345567Y-134676881D01*
X145345564Y-134676885D01*
X145246319Y-134825415D01*
X145246314Y-134825424D01*
X145177952Y-134990466D01*
X145177950Y-134990472D01*
X145143100Y-135165675D01*
X145143100Y-135165678D01*
X145143100Y-141694322D01*
X145143100Y-141694324D01*
X145143099Y-141694324D01*
X143146900Y-141694324D01*
X143146900Y-141694322D01*
X143146900Y-129967012D01*
X143166585Y-129899973D01*
X143183219Y-129879331D01*
X144849432Y-128213118D01*
X144849435Y-128213115D01*
X144948684Y-128064578D01*
X145017048Y-127899533D01*
X145051900Y-127724322D01*
X145051900Y-127545678D01*
X145051900Y-120649999D01*
X150639341Y-120649999D01*
X150639341Y-120650000D01*
X150659936Y-120885403D01*
X150659938Y-120885413D01*
X150721094Y-121113655D01*
X150721096Y-121113659D01*
X150721097Y-121113663D01*
X150764211Y-121206121D01*
X150820965Y-121327830D01*
X150820967Y-121327834D01*
X150929281Y-121482521D01*
X150956501Y-121521396D01*
X150956506Y-121521402D01*
X151078818Y-121643714D01*
X151112303Y-121705037D01*
X151107319Y-121774729D01*
X151065447Y-121830662D01*
X151034471Y-121847577D01*
X150902912Y-121896646D01*
X150902906Y-121896649D01*
X150787812Y-121982809D01*
X150787809Y-121982812D01*
X150701649Y-122097906D01*
X150701645Y-122097913D01*
X150651403Y-122232620D01*
X150651401Y-122232627D01*
X150645000Y-122292155D01*
X150645000Y-122940000D01*
X151550440Y-122940000D01*
X151519755Y-122993147D01*
X151485000Y-123122857D01*
X151485000Y-123257143D01*
X151519755Y-123386853D01*
X151550440Y-123440000D01*
X150645000Y-123440000D01*
X150645000Y-124087844D01*
X150651401Y-124147372D01*
X150651403Y-124147379D01*
X150701645Y-124282086D01*
X150701649Y-124282093D01*
X150787809Y-124397187D01*
X150787812Y-124397190D01*
X150902906Y-124483350D01*
X150902913Y-124483354D01*
X151034470Y-124532421D01*
X151090403Y-124574292D01*
X151114821Y-124639756D01*
X151099970Y-124708029D01*
X151078819Y-124736284D01*
X150956503Y-124858600D01*
X150820965Y-125052169D01*
X150820964Y-125052171D01*
X150721098Y-125266335D01*
X150721094Y-125266344D01*
X150659938Y-125494586D01*
X150659936Y-125494596D01*
X150639341Y-125729999D01*
X150639341Y-125730000D01*
X150659936Y-125965403D01*
X150659938Y-125965413D01*
X150721094Y-126193655D01*
X150721096Y-126193659D01*
X150721097Y-126193663D01*
X150768615Y-126295565D01*
X150820965Y-126407830D01*
X150820967Y-126407834D01*
X150915477Y-126542807D01*
X150956505Y-126601401D01*
X151123599Y-126768495D01*
X151160848Y-126794577D01*
X151317165Y-126904032D01*
X151317167Y-126904033D01*
X151317170Y-126904035D01*
X151531337Y-127003903D01*
X151759592Y-127065063D01*
X151947918Y-127081539D01*
X151994999Y-127085659D01*
X151995000Y-127085659D01*
X151995001Y-127085659D01*
X152034234Y-127082226D01*
X152230408Y-127065063D01*
X152458663Y-127003903D01*
X152672830Y-126904035D01*
X152866401Y-126768495D01*
X153033495Y-126601401D01*
X153169035Y-126407830D01*
X153268903Y-126193663D01*
X153330063Y-125965408D01*
X153350659Y-125730000D01*
X153340597Y-125614997D01*
X195609723Y-125614997D01*
X195609723Y-125615002D01*
X195628793Y-125832975D01*
X195628793Y-125832979D01*
X195685422Y-126044322D01*
X195685424Y-126044326D01*
X195685425Y-126044330D01*
X195708167Y-126093100D01*
X195777897Y-126242638D01*
X195777898Y-126242639D01*
X195903402Y-126421877D01*
X196058123Y-126576598D01*
X196237361Y-126702102D01*
X196435670Y-126794575D01*
X196647023Y-126851207D01*
X196829926Y-126867208D01*
X196864998Y-126870277D01*
X196865000Y-126870277D01*
X196865002Y-126870277D01*
X196894879Y-126867663D01*
X197082977Y-126851207D01*
X197294330Y-126794575D01*
X197492639Y-126702102D01*
X197671877Y-126576598D01*
X197826598Y-126421877D01*
X197952102Y-126242639D01*
X198044575Y-126044330D01*
X198101207Y-125832977D01*
X198120277Y-125615000D01*
X198101207Y-125397023D01*
X198044575Y-125185670D01*
X197952102Y-124987362D01*
X197952100Y-124987359D01*
X197952099Y-124987357D01*
X197826599Y-124808124D01*
X197754759Y-124736284D01*
X197671877Y-124653402D01*
X197523257Y-124549337D01*
X197492638Y-124527897D01*
X197338661Y-124456097D01*
X197294330Y-124435425D01*
X197294326Y-124435424D01*
X197294322Y-124435422D01*
X197082977Y-124378793D01*
X196865002Y-124359723D01*
X196864998Y-124359723D01*
X196719682Y-124372436D01*
X196647023Y-124378793D01*
X196647020Y-124378793D01*
X196435677Y-124435422D01*
X196435668Y-124435426D01*
X196237361Y-124527898D01*
X196237357Y-124527900D01*
X196058121Y-124653402D01*
X195903402Y-124808121D01*
X195777900Y-124987357D01*
X195777898Y-124987361D01*
X195747678Y-125052169D01*
X195695329Y-125164432D01*
X195685426Y-125185668D01*
X195685422Y-125185677D01*
X195628793Y-125397020D01*
X195628793Y-125397024D01*
X195609723Y-125614997D01*
X153340597Y-125614997D01*
X153330063Y-125494592D01*
X153268903Y-125266337D01*
X153169035Y-125052171D01*
X153168808Y-125051847D01*
X153033496Y-124858600D01*
X152982725Y-124807829D01*
X152911179Y-124736283D01*
X152877696Y-124674963D01*
X152882680Y-124605271D01*
X152924551Y-124549337D01*
X152955529Y-124532422D01*
X153087086Y-124483354D01*
X153087093Y-124483350D01*
X153202187Y-124397190D01*
X153202190Y-124397187D01*
X153288350Y-124282093D01*
X153288354Y-124282086D01*
X153338596Y-124147379D01*
X153338598Y-124147372D01*
X153344999Y-124087844D01*
X153345000Y-124087827D01*
X153345000Y-123440000D01*
X152439560Y-123440000D01*
X152470245Y-123386853D01*
X152505000Y-123257143D01*
X152505000Y-123122857D01*
X152470245Y-122993147D01*
X152439560Y-122940000D01*
X153345000Y-122940000D01*
X153345000Y-122292172D01*
X153344999Y-122292155D01*
X153338598Y-122232627D01*
X153338596Y-122232620D01*
X153288354Y-122097913D01*
X153288350Y-122097906D01*
X153202190Y-121982812D01*
X153202187Y-121982809D01*
X153087093Y-121896649D01*
X153087088Y-121896646D01*
X152955528Y-121847577D01*
X152899595Y-121805705D01*
X152875178Y-121740241D01*
X152890030Y-121671968D01*
X152911175Y-121643720D01*
X153033495Y-121521401D01*
X153169035Y-121327830D01*
X153268903Y-121113663D01*
X153330063Y-120885408D01*
X153340598Y-120765000D01*
X195609723Y-120765000D01*
X195620257Y-120885413D01*
X195628793Y-120982975D01*
X195628793Y-120982979D01*
X195685422Y-121194322D01*
X195685424Y-121194326D01*
X195685425Y-121194330D01*
X195731661Y-121293484D01*
X195777897Y-121392638D01*
X195777898Y-121392639D01*
X195903402Y-121571877D01*
X196058123Y-121726598D01*
X196237361Y-121852102D01*
X196435670Y-121944575D01*
X196647023Y-122001207D01*
X196829926Y-122017208D01*
X196864998Y-122020277D01*
X196865000Y-122020277D01*
X196865002Y-122020277D01*
X196893254Y-122017805D01*
X197082977Y-122001207D01*
X197294330Y-121944575D01*
X197492639Y-121852102D01*
X197671877Y-121726598D01*
X197826598Y-121571877D01*
X197952102Y-121392639D01*
X198044575Y-121194330D01*
X198101207Y-120982977D01*
X198120277Y-120765000D01*
X198101207Y-120547023D01*
X198044575Y-120335670D01*
X197952102Y-120137362D01*
X197952100Y-120137359D01*
X197952099Y-120137357D01*
X197826599Y-119958124D01*
X197794150Y-119925675D01*
X197671877Y-119803402D01*
X197533978Y-119706844D01*
X197492638Y-119677897D01*
X197391590Y-119630778D01*
X197294330Y-119585425D01*
X197294326Y-119585424D01*
X197294322Y-119585422D01*
X197082977Y-119528793D01*
X196865002Y-119509723D01*
X196864998Y-119509723D01*
X196719682Y-119522436D01*
X196647023Y-119528793D01*
X196647020Y-119528793D01*
X196435677Y-119585422D01*
X196435668Y-119585426D01*
X196237361Y-119677898D01*
X196237357Y-119677900D01*
X196058121Y-119803402D01*
X195903402Y-119958121D01*
X195777900Y-120137357D01*
X195777898Y-120137361D01*
X195685426Y-120335668D01*
X195685422Y-120335677D01*
X195628793Y-120547020D01*
X195628793Y-120547024D01*
X195615733Y-120696308D01*
X195609723Y-120765000D01*
X153340598Y-120765000D01*
X153350659Y-120650000D01*
X153330063Y-120414592D01*
X153268903Y-120186337D01*
X153169035Y-119972171D01*
X153159200Y-119958124D01*
X153033494Y-119778597D01*
X152866402Y-119611506D01*
X152866395Y-119611501D01*
X152829153Y-119585424D01*
X152827521Y-119584281D01*
X152672834Y-119475967D01*
X152672830Y-119475965D01*
X152672828Y-119475964D01*
X152458663Y-119376097D01*
X152458659Y-119376096D01*
X152458655Y-119376094D01*
X152230413Y-119314938D01*
X152230403Y-119314936D01*
X151995001Y-119294341D01*
X151994999Y-119294341D01*
X151759596Y-119314936D01*
X151759586Y-119314938D01*
X151531344Y-119376094D01*
X151531335Y-119376098D01*
X151317171Y-119475964D01*
X151317169Y-119475965D01*
X151123597Y-119611505D01*
X150956505Y-119778597D01*
X150820965Y-119972169D01*
X150820964Y-119972171D01*
X150721098Y-120186335D01*
X150721094Y-120186344D01*
X150659938Y-120414586D01*
X150659936Y-120414596D01*
X150639341Y-120649999D01*
X145051900Y-120649999D01*
X145051900Y-118020678D01*
X145051900Y-118020675D01*
X145017049Y-117845472D01*
X145017048Y-117845471D01*
X145017048Y-117845467D01*
X144948684Y-117680422D01*
X144948683Y-117680421D01*
X144948680Y-117680415D01*
X144849435Y-117531885D01*
X144849432Y-117531881D01*
X144723118Y-117405567D01*
X144723114Y-117405564D01*
X144574584Y-117306319D01*
X144574575Y-117306314D01*
X144409533Y-117237952D01*
X144409527Y-117237950D01*
X144234324Y-117203100D01*
X144234322Y-117203100D01*
X144055678Y-117203100D01*
X144055676Y-117203100D01*
X143880472Y-117237950D01*
X143880466Y-117237952D01*
X143715424Y-117306314D01*
X143715415Y-117306319D01*
X143566885Y-117405564D01*
X143566881Y-117405567D01*
X143440567Y-117531881D01*
X143440564Y-117531885D01*
X143341319Y-117680415D01*
X143341314Y-117680424D01*
X143272952Y-117845466D01*
X143272950Y-117845472D01*
X143238100Y-118020675D01*
X143238100Y-127207988D01*
X143218415Y-127275027D01*
X143201781Y-127295669D01*
X141900669Y-128596781D01*
X141839346Y-128630266D01*
X141812988Y-128633100D01*
X140570346Y-128633100D01*
X140503307Y-128613415D01*
X140490644Y-128604092D01*
X140487523Y-128601473D01*
X140312578Y-128478977D01*
X140312579Y-128478977D01*
X140183547Y-128418809D01*
X140119030Y-128388724D01*
X140119026Y-128388723D01*
X140119022Y-128388721D01*
X139912752Y-128333452D01*
X139912748Y-128333451D01*
X139912747Y-128333451D01*
X139912746Y-128333450D01*
X139912741Y-128333450D01*
X139700002Y-128314838D01*
X139699998Y-128314838D01*
X139487258Y-128333450D01*
X139487247Y-128333452D01*
X139280977Y-128388721D01*
X139280968Y-128388725D01*
X139087421Y-128478977D01*
X138912478Y-128601472D01*
X138761472Y-128752478D01*
X138638977Y-128927421D01*
X138548725Y-129120968D01*
X138548721Y-129120977D01*
X138493452Y-129327247D01*
X138493450Y-129327258D01*
X138474838Y-129539998D01*
X138474838Y-129540001D01*
X138493450Y-129752741D01*
X138493452Y-129752752D01*
X138548721Y-129959022D01*
X138548723Y-129959026D01*
X138548724Y-129959030D01*
X138566277Y-129996672D01*
X138638977Y-130152578D01*
X138761472Y-130327521D01*
X138912478Y-130478527D01*
X138912481Y-130478529D01*
X139087419Y-130601021D01*
X139087421Y-130601022D01*
X139087420Y-130601022D01*
X139151936Y-130631106D01*
X139280970Y-130691276D01*
X139280983Y-130691279D01*
X139286064Y-130693130D01*
X139285292Y-130695250D01*
X139336710Y-130726594D01*
X139367237Y-130789442D01*
X139358939Y-130858817D01*
X139314452Y-130912693D01*
X139285685Y-130925830D01*
X139286064Y-130926870D01*
X139280972Y-130928723D01*
X139280970Y-130928724D01*
X139280968Y-130928725D01*
X139087421Y-131018977D01*
X138912478Y-131141472D01*
X138761472Y-131292478D01*
X138638977Y-131467421D01*
X138548725Y-131660968D01*
X138546870Y-131666064D01*
X138544749Y-131665292D01*
X138513406Y-131716710D01*
X138450558Y-131747237D01*
X138381183Y-131738939D01*
X138327307Y-131694452D01*
X138314169Y-131665685D01*
X138313130Y-131666064D01*
X138311279Y-131660983D01*
X138311276Y-131660970D01*
X138221021Y-131467419D01*
X138098529Y-131292481D01*
X138098527Y-131292478D01*
X137947521Y-131141472D01*
X137772578Y-131018977D01*
X137772579Y-131018977D01*
X137643547Y-130958809D01*
X137579030Y-130928724D01*
X137579026Y-130928723D01*
X137579022Y-130928721D01*
X137372752Y-130873452D01*
X137372748Y-130873451D01*
X137372747Y-130873451D01*
X137372746Y-130873450D01*
X137372741Y-130873450D01*
X137160002Y-130854838D01*
X137159998Y-130854838D01*
X136947258Y-130873450D01*
X136947247Y-130873452D01*
X136740977Y-130928721D01*
X136740968Y-130928725D01*
X136547421Y-131018977D01*
X136372478Y-131141472D01*
X136221472Y-131292478D01*
X136098977Y-131467421D01*
X136008725Y-131660968D01*
X136008721Y-131660977D01*
X135953452Y-131867247D01*
X135953450Y-131867258D01*
X135934838Y-132079998D01*
X127703700Y-132079998D01*
X127703700Y-131325380D01*
X127720313Y-131263380D01*
X127722993Y-131258738D01*
X127781250Y-131157835D01*
X127836497Y-130987803D01*
X127855185Y-130810000D01*
X127836497Y-130632197D01*
X127786567Y-130478529D01*
X127781252Y-130462170D01*
X127781249Y-130462164D01*
X127773012Y-130447897D01*
X127691859Y-130307335D01*
X127645003Y-130255296D01*
X127572235Y-130174478D01*
X127572232Y-130174476D01*
X127572231Y-130174475D01*
X127572230Y-130174474D01*
X127427593Y-130069388D01*
X127264267Y-129996671D01*
X127264265Y-129996670D01*
X127124732Y-129967012D01*
X127089391Y-129959500D01*
X126910609Y-129959500D01*
X126879954Y-129966015D01*
X126735733Y-129996670D01*
X126735728Y-129996672D01*
X126572408Y-130069387D01*
X126427768Y-130174475D01*
X126308140Y-130307336D01*
X126218750Y-130462164D01*
X126218747Y-130462170D01*
X126163504Y-130632192D01*
X126163503Y-130632194D01*
X126151653Y-130744937D01*
X126144815Y-130810000D01*
X122623700Y-130810000D01*
X122623700Y-115520470D01*
X122643385Y-115453431D01*
X122676577Y-115418895D01*
X122791401Y-115338495D01*
X122958495Y-115171401D01*
X123088425Y-114985842D01*
X123143002Y-114942217D01*
X123212500Y-114935023D01*
X123274855Y-114966546D01*
X123291575Y-114985842D01*
X123421500Y-115171395D01*
X123421505Y-115171401D01*
X123588599Y-115338495D01*
X123685384Y-115406265D01*
X123782165Y-115474032D01*
X123782167Y-115474033D01*
X123782170Y-115474035D01*
X123996337Y-115573903D01*
X124224592Y-115635063D01*
X124401034Y-115650500D01*
X124459999Y-115655659D01*
X124460000Y-115655659D01*
X124460001Y-115655659D01*
X124518966Y-115650500D01*
X124695408Y-115635063D01*
X124923663Y-115573903D01*
X125137830Y-115474035D01*
X125331401Y-115338495D01*
X125498495Y-115171401D01*
X125628425Y-114985842D01*
X125683002Y-114942217D01*
X125752500Y-114935023D01*
X125814855Y-114966546D01*
X125831575Y-114985842D01*
X125961500Y-115171395D01*
X125961505Y-115171401D01*
X126128599Y-115338495D01*
X126225384Y-115406265D01*
X126322165Y-115474032D01*
X126322167Y-115474033D01*
X126322170Y-115474035D01*
X126536337Y-115573903D01*
X126764592Y-115635063D01*
X126941034Y-115650500D01*
X126999999Y-115655659D01*
X127000000Y-115655659D01*
X127000001Y-115655659D01*
X127058966Y-115650500D01*
X127235408Y-115635063D01*
X127463663Y-115573903D01*
X127677830Y-115474035D01*
X127871401Y-115338495D01*
X128038495Y-115171401D01*
X128174035Y-114977830D01*
X128273903Y-114763663D01*
X128335063Y-114535408D01*
X128355659Y-114300000D01*
X128335063Y-114064592D01*
X128273903Y-113836337D01*
X128174035Y-113622171D01*
X128168425Y-113614158D01*
X128038494Y-113428597D01*
X127871402Y-113261506D01*
X127871396Y-113261501D01*
X127685842Y-113131575D01*
X127642217Y-113076998D01*
X127635023Y-113007500D01*
X127666546Y-112945145D01*
X127685842Y-112928425D01*
X127749119Y-112884118D01*
X127871401Y-112798495D01*
X128038495Y-112631401D01*
X128174035Y-112437830D01*
X128273903Y-112223663D01*
X128335063Y-111995408D01*
X128355659Y-111760000D01*
X128335063Y-111524592D01*
X128286690Y-111344058D01*
X128273905Y-111296344D01*
X128273904Y-111296343D01*
X128273903Y-111296337D01*
X128174035Y-111082171D01*
X128168425Y-111074158D01*
X128038494Y-110888597D01*
X127871402Y-110721506D01*
X127871395Y-110721501D01*
X127677834Y-110585967D01*
X127677830Y-110585965D01*
X127654903Y-110575274D01*
X127463663Y-110486097D01*
X127463659Y-110486096D01*
X127463655Y-110486094D01*
X127235413Y-110424938D01*
X127235403Y-110424936D01*
X127000001Y-110404341D01*
X126999999Y-110404341D01*
X126764596Y-110424936D01*
X126764586Y-110424938D01*
X126536344Y-110486094D01*
X126536335Y-110486098D01*
X126322171Y-110585964D01*
X126322169Y-110585965D01*
X126128597Y-110721505D01*
X125961505Y-110888597D01*
X125831575Y-111074158D01*
X125776998Y-111117783D01*
X125707500Y-111124977D01*
X125645145Y-111093454D01*
X125628425Y-111074158D01*
X125498494Y-110888597D01*
X125331402Y-110721506D01*
X125331395Y-110721501D01*
X125137834Y-110585967D01*
X125137830Y-110585965D01*
X125114903Y-110575274D01*
X124923663Y-110486097D01*
X124923659Y-110486096D01*
X124923655Y-110486094D01*
X124695413Y-110424938D01*
X124695403Y-110424936D01*
X124460001Y-110404341D01*
X124459999Y-110404341D01*
X124224596Y-110424936D01*
X124224586Y-110424938D01*
X123996344Y-110486094D01*
X123996335Y-110486098D01*
X123782171Y-110585964D01*
X123782169Y-110585965D01*
X123588597Y-110721505D01*
X123421505Y-110888597D01*
X123291575Y-111074158D01*
X123236998Y-111117783D01*
X123167500Y-111124977D01*
X123105145Y-111093454D01*
X123088425Y-111074158D01*
X122958494Y-110888597D01*
X122791402Y-110721506D01*
X122791395Y-110721501D01*
X122597834Y-110585967D01*
X122597830Y-110585965D01*
X122574903Y-110575274D01*
X122383663Y-110486097D01*
X122383659Y-110486096D01*
X122383655Y-110486094D01*
X122155413Y-110424938D01*
X122155403Y-110424936D01*
X121920001Y-110404341D01*
X121919999Y-110404341D01*
X121684596Y-110424936D01*
X121684586Y-110424938D01*
X121456344Y-110486094D01*
X121456335Y-110486098D01*
X121242171Y-110585964D01*
X121242169Y-110585965D01*
X121048597Y-110721505D01*
X120881505Y-110888597D01*
X120751575Y-111074158D01*
X120696998Y-111117783D01*
X120627500Y-111124977D01*
X120565145Y-111093454D01*
X120548425Y-111074158D01*
X120418494Y-110888597D01*
X120251402Y-110721506D01*
X120251395Y-110721501D01*
X120057834Y-110585967D01*
X120057830Y-110585965D01*
X120034903Y-110575274D01*
X119843663Y-110486097D01*
X119843659Y-110486096D01*
X119843655Y-110486094D01*
X119615413Y-110424938D01*
X119615403Y-110424936D01*
X119380001Y-110404341D01*
X119379999Y-110404341D01*
X119144596Y-110424936D01*
X119144586Y-110424938D01*
X118916344Y-110486094D01*
X118916335Y-110486098D01*
X118702171Y-110585964D01*
X118702169Y-110585965D01*
X118508597Y-110721505D01*
X118341505Y-110888597D01*
X118211575Y-111074158D01*
X118156998Y-111117783D01*
X118087500Y-111124977D01*
X118025145Y-111093454D01*
X118008425Y-111074158D01*
X117878494Y-110888597D01*
X117711402Y-110721506D01*
X117711395Y-110721501D01*
X117517834Y-110585967D01*
X117517830Y-110585965D01*
X117494903Y-110575274D01*
X117303663Y-110486097D01*
X117303659Y-110486096D01*
X117303655Y-110486094D01*
X117075413Y-110424938D01*
X117075403Y-110424936D01*
X116840001Y-110404341D01*
X116839999Y-110404341D01*
X116604596Y-110424936D01*
X116604586Y-110424938D01*
X116376344Y-110486094D01*
X116376335Y-110486098D01*
X116162171Y-110585964D01*
X116162169Y-110585965D01*
X115968597Y-110721505D01*
X115801505Y-110888597D01*
X115671575Y-111074158D01*
X115616998Y-111117783D01*
X115547500Y-111124977D01*
X115485145Y-111093454D01*
X115468425Y-111074158D01*
X115338494Y-110888597D01*
X115171402Y-110721506D01*
X115171395Y-110721501D01*
X114977834Y-110585967D01*
X114977830Y-110585965D01*
X114954903Y-110575274D01*
X114763663Y-110486097D01*
X114763659Y-110486096D01*
X114763655Y-110486094D01*
X114535413Y-110424938D01*
X114535403Y-110424936D01*
X114300001Y-110404341D01*
X114299999Y-110404341D01*
X114064596Y-110424936D01*
X114064586Y-110424938D01*
X113836344Y-110486094D01*
X113836335Y-110486098D01*
X113622171Y-110585964D01*
X113622169Y-110585965D01*
X113428597Y-110721505D01*
X113261505Y-110888597D01*
X113131575Y-111074158D01*
X113076998Y-111117783D01*
X113007500Y-111124977D01*
X112945145Y-111093454D01*
X112928425Y-111074158D01*
X112798494Y-110888597D01*
X112631402Y-110721506D01*
X112631395Y-110721501D01*
X112437834Y-110585967D01*
X112437830Y-110585965D01*
X112414903Y-110575274D01*
X112223663Y-110486097D01*
X112223659Y-110486096D01*
X112223655Y-110486094D01*
X111995413Y-110424938D01*
X111995403Y-110424936D01*
X111760001Y-110404341D01*
X111759999Y-110404341D01*
X111524596Y-110424936D01*
X111524586Y-110424938D01*
X111296344Y-110486094D01*
X111296335Y-110486098D01*
X111082171Y-110585964D01*
X111082169Y-110585965D01*
X110888600Y-110721503D01*
X110766673Y-110843430D01*
X110705350Y-110876914D01*
X110635658Y-110871930D01*
X110579725Y-110830058D01*
X110562810Y-110799081D01*
X110513797Y-110667671D01*
X110513793Y-110667664D01*
X110427547Y-110552455D01*
X110427544Y-110552452D01*
X110312335Y-110466206D01*
X110312328Y-110466202D01*
X110177482Y-110415908D01*
X110177483Y-110415908D01*
X110117883Y-110409501D01*
X110117881Y-110409500D01*
X110117873Y-110409500D01*
X110117864Y-110409500D01*
X108322129Y-110409500D01*
X108322123Y-110409501D01*
X108262516Y-110415908D01*
X108127671Y-110466202D01*
X108127664Y-110466206D01*
X108012455Y-110552452D01*
X108012452Y-110552455D01*
X107926206Y-110667664D01*
X107926202Y-110667671D01*
X107875908Y-110802517D01*
X107869501Y-110862116D01*
X107869500Y-110862135D01*
X98078014Y-110862135D01*
X98081585Y-110849973D01*
X98098219Y-110829331D01*
X99129432Y-109798118D01*
X99129435Y-109798115D01*
X99228684Y-109649578D01*
X99297048Y-109484533D01*
X99331900Y-109309322D01*
X99331900Y-109130678D01*
X99331900Y-109130675D01*
X99297049Y-108955472D01*
X99297048Y-108955471D01*
X99297048Y-108955467D01*
X99243069Y-108825152D01*
X99235601Y-108755683D01*
X99266876Y-108693204D01*
X99326965Y-108657552D01*
X99357631Y-108653700D01*
X130467156Y-108653700D01*
X130534195Y-108673385D01*
G37*
%TD.AperFunction*%
%TA.AperFunction,Conductor*%
G36*
X97476427Y-108673385D02*
G01*
X97522182Y-108726189D01*
X97532126Y-108795347D01*
X97503101Y-108858903D01*
X97497069Y-108865381D01*
X96576885Y-109785565D01*
X96513724Y-109848726D01*
X96450563Y-109911886D01*
X96351319Y-110060415D01*
X96351314Y-110060424D01*
X96282952Y-110225466D01*
X96282950Y-110225472D01*
X96248100Y-110400675D01*
X96248100Y-111332988D01*
X96228415Y-111400027D01*
X96211781Y-111420669D01*
X92075000Y-115557450D01*
X92075000Y-111760000D01*
X84815180Y-111760000D01*
X87885163Y-108690019D01*
X87946486Y-108656534D01*
X87972844Y-108653700D01*
X97409388Y-108653700D01*
X97476427Y-108673385D01*
G37*
%TD.AperFunction*%
%TA.AperFunction,Conductor*%
G36*
X148314195Y-106133385D02*
G01*
X148334837Y-106150019D01*
X148358250Y-106173432D01*
X148388500Y-106222795D01*
X148443747Y-106392828D01*
X148443750Y-106392835D01*
X148533141Y-106547665D01*
X148572699Y-106591598D01*
X148652764Y-106680521D01*
X148652767Y-106680523D01*
X148652770Y-106680526D01*
X148797407Y-106785612D01*
X148960733Y-106858329D01*
X149135609Y-106895500D01*
X149135610Y-106895500D01*
X149314389Y-106895500D01*
X149314391Y-106895500D01*
X149489267Y-106858329D01*
X149652593Y-106785612D01*
X149797230Y-106680526D01*
X149807959Y-106668611D01*
X149823148Y-106651741D01*
X149916859Y-106547665D01*
X150006250Y-106392835D01*
X150060553Y-106225706D01*
X150099989Y-106168034D01*
X150164348Y-106140835D01*
X150233194Y-106152749D01*
X150266164Y-106176346D01*
X150580274Y-106490456D01*
X150580303Y-106490487D01*
X150681414Y-106591598D01*
X150796676Y-106668613D01*
X150924733Y-106721655D01*
X150924738Y-106721657D01*
X150924742Y-106721657D01*
X150924743Y-106721658D01*
X151060688Y-106748700D01*
X151060691Y-106748700D01*
X151060692Y-106748700D01*
X166662156Y-106748700D01*
X166729195Y-106768385D01*
X166749837Y-106785019D01*
X171344981Y-111380163D01*
X171378466Y-111441486D01*
X171381300Y-111467844D01*
X171381300Y-113079528D01*
X171361615Y-113146567D01*
X171328425Y-113181102D01*
X171213599Y-113261505D01*
X171091284Y-113383819D01*
X171029960Y-113417303D01*
X170960269Y-113412318D01*
X170904335Y-113370447D01*
X170887421Y-113339470D01*
X170838354Y-113207913D01*
X170838350Y-113207906D01*
X170752190Y-113092812D01*
X170752187Y-113092809D01*
X170637093Y-113006649D01*
X170637086Y-113006645D01*
X170502379Y-112956403D01*
X170502372Y-112956401D01*
X170442844Y-112950000D01*
X169795000Y-112950000D01*
X169795000Y-113855439D01*
X169741853Y-113824755D01*
X169612143Y-113790000D01*
X169477857Y-113790000D01*
X169348147Y-113824755D01*
X169295000Y-113855439D01*
X169295000Y-112950000D01*
X168647155Y-112950000D01*
X168587627Y-112956401D01*
X168587620Y-112956403D01*
X168452913Y-113006645D01*
X168452906Y-113006649D01*
X168337812Y-113092809D01*
X168337809Y-113092812D01*
X168251649Y-113207906D01*
X168251645Y-113207913D01*
X168202578Y-113339470D01*
X168160707Y-113395404D01*
X168095242Y-113419821D01*
X168026969Y-113404969D01*
X167998715Y-113383819D01*
X167953977Y-113339081D01*
X167876401Y-113261505D01*
X167799854Y-113207906D01*
X167761575Y-113181102D01*
X167717951Y-113126525D01*
X167708700Y-113079528D01*
X167708700Y-111200443D01*
X167708701Y-111200422D01*
X167708701Y-111055689D01*
X167681658Y-110919743D01*
X167681656Y-110919735D01*
X167641722Y-110823326D01*
X167628611Y-110791673D01*
X167551600Y-110676417D01*
X167551598Y-110676414D01*
X167450487Y-110575303D01*
X167450456Y-110575274D01*
X165650940Y-108775758D01*
X165650920Y-108775736D01*
X165548585Y-108673401D01*
X165433323Y-108596386D01*
X165305266Y-108543344D01*
X165305257Y-108543341D01*
X165299375Y-108542172D01*
X165299369Y-108542169D01*
X165299369Y-108542170D01*
X165234339Y-108529235D01*
X165169309Y-108516299D01*
X165169308Y-108516299D01*
X165030692Y-108516299D01*
X165024578Y-108516299D01*
X165024558Y-108516300D01*
X143852844Y-108516300D01*
X143785805Y-108496615D01*
X143765163Y-108479981D01*
X141610563Y-106325381D01*
X141577078Y-106264058D01*
X141582062Y-106194366D01*
X141623934Y-106138433D01*
X141689398Y-106114016D01*
X141698244Y-106113700D01*
X148247156Y-106113700D01*
X148314195Y-106133385D01*
G37*
%TD.AperFunction*%
%TA.AperFunction,Conductor*%
G36*
X201238039Y-47009685D02*
G01*
X201283794Y-47062489D01*
X201295000Y-47114000D01*
X201295000Y-113365944D01*
X201275315Y-113432983D01*
X201222511Y-113478738D01*
X201153353Y-113488682D01*
X201089797Y-113459657D01*
X201069426Y-113437069D01*
X201063493Y-113428596D01*
X200896402Y-113261506D01*
X200896395Y-113261501D01*
X200702834Y-113125967D01*
X200702830Y-113125965D01*
X200702828Y-113125964D01*
X200488663Y-113026097D01*
X200488659Y-113026096D01*
X200488655Y-113026094D01*
X200260413Y-112964938D01*
X200260403Y-112964936D01*
X200025001Y-112944341D01*
X200024999Y-112944341D01*
X199789596Y-112964936D01*
X199789586Y-112964938D01*
X199561344Y-113026094D01*
X199561335Y-113026098D01*
X199347171Y-113125964D01*
X199347169Y-113125965D01*
X199153597Y-113261505D01*
X198986505Y-113428597D01*
X198856575Y-113614158D01*
X198801998Y-113657783D01*
X198732500Y-113664977D01*
X198670145Y-113633454D01*
X198653425Y-113614158D01*
X198523494Y-113428597D01*
X198356402Y-113261506D01*
X198356395Y-113261501D01*
X198162834Y-113125967D01*
X198162830Y-113125965D01*
X198162828Y-113125964D01*
X197948663Y-113026097D01*
X197948659Y-113026096D01*
X197948655Y-113026094D01*
X197720413Y-112964938D01*
X197720403Y-112964936D01*
X197485001Y-112944341D01*
X197484999Y-112944341D01*
X197249596Y-112964936D01*
X197249586Y-112964938D01*
X197021344Y-113026094D01*
X197021335Y-113026098D01*
X196807171Y-113125964D01*
X196807169Y-113125965D01*
X196613600Y-113261503D01*
X196491284Y-113383819D01*
X196429961Y-113417303D01*
X196360269Y-113412319D01*
X196304336Y-113370447D01*
X196287421Y-113339470D01*
X196238354Y-113207913D01*
X196238350Y-113207906D01*
X196152190Y-113092812D01*
X196152187Y-113092809D01*
X196037093Y-113006649D01*
X196037086Y-113006645D01*
X195902379Y-112956403D01*
X195902372Y-112956401D01*
X195842844Y-112950000D01*
X195195000Y-112950000D01*
X195195000Y-113855439D01*
X195141853Y-113824755D01*
X195012143Y-113790000D01*
X194877857Y-113790000D01*
X194748147Y-113824755D01*
X194695000Y-113855439D01*
X194695000Y-112950000D01*
X194047155Y-112950000D01*
X193987627Y-112956401D01*
X193987620Y-112956403D01*
X193852913Y-113006645D01*
X193852906Y-113006649D01*
X193737812Y-113092809D01*
X193737809Y-113092812D01*
X193651649Y-113207906D01*
X193651645Y-113207913D01*
X193602578Y-113339470D01*
X193560707Y-113395404D01*
X193495242Y-113419821D01*
X193426969Y-113404969D01*
X193398715Y-113383819D01*
X193353977Y-113339081D01*
X193276401Y-113261505D01*
X193276397Y-113261502D01*
X193276396Y-113261501D01*
X193082834Y-113125967D01*
X193082830Y-113125965D01*
X193082828Y-113125964D01*
X192868663Y-113026097D01*
X192868659Y-113026096D01*
X192868655Y-113026094D01*
X192640413Y-112964938D01*
X192640403Y-112964936D01*
X192405001Y-112944341D01*
X192404999Y-112944341D01*
X192169596Y-112964936D01*
X192169586Y-112964938D01*
X191941344Y-113026094D01*
X191941335Y-113026098D01*
X191727171Y-113125964D01*
X191727169Y-113125965D01*
X191533597Y-113261505D01*
X191366505Y-113428597D01*
X191236575Y-113614158D01*
X191181998Y-113657783D01*
X191112500Y-113664977D01*
X191050145Y-113633454D01*
X191033425Y-113614158D01*
X190903494Y-113428597D01*
X190736402Y-113261506D01*
X190736395Y-113261501D01*
X190542834Y-113125967D01*
X190542830Y-113125965D01*
X190542828Y-113125964D01*
X190328663Y-113026097D01*
X190328659Y-113026096D01*
X190328655Y-113026094D01*
X190100413Y-112964938D01*
X190100403Y-112964936D01*
X189865001Y-112944341D01*
X189864999Y-112944341D01*
X189629596Y-112964936D01*
X189629586Y-112964938D01*
X189401344Y-113026094D01*
X189401335Y-113026098D01*
X189187171Y-113125964D01*
X189187169Y-113125965D01*
X188993597Y-113261505D01*
X188826505Y-113428597D01*
X188696575Y-113614158D01*
X188641998Y-113657783D01*
X188572500Y-113664977D01*
X188510145Y-113633454D01*
X188493425Y-113614158D01*
X188363494Y-113428597D01*
X188196402Y-113261506D01*
X188196395Y-113261501D01*
X188002834Y-113125967D01*
X188002830Y-113125965D01*
X188002828Y-113125964D01*
X187788663Y-113026097D01*
X187788659Y-113026096D01*
X187788655Y-113026094D01*
X187560413Y-112964938D01*
X187560403Y-112964936D01*
X187325001Y-112944341D01*
X187324999Y-112944341D01*
X187089596Y-112964936D01*
X187089586Y-112964938D01*
X186861344Y-113026094D01*
X186861335Y-113026098D01*
X186647171Y-113125964D01*
X186647169Y-113125965D01*
X186453597Y-113261505D01*
X186286505Y-113428597D01*
X186156575Y-113614158D01*
X186101998Y-113657783D01*
X186032500Y-113664977D01*
X185970145Y-113633454D01*
X185953425Y-113614158D01*
X185823494Y-113428597D01*
X185656402Y-113261506D01*
X185656395Y-113261501D01*
X185462834Y-113125967D01*
X185462830Y-113125965D01*
X185462828Y-113125964D01*
X185248663Y-113026097D01*
X185248659Y-113026096D01*
X185248655Y-113026094D01*
X185020413Y-112964938D01*
X185020403Y-112964936D01*
X184785001Y-112944341D01*
X184784999Y-112944341D01*
X184549596Y-112964936D01*
X184549586Y-112964938D01*
X184321344Y-113026094D01*
X184321335Y-113026098D01*
X184107171Y-113125964D01*
X184107169Y-113125965D01*
X183913600Y-113261503D01*
X183791284Y-113383819D01*
X183729961Y-113417303D01*
X183660269Y-113412319D01*
X183604336Y-113370447D01*
X183587421Y-113339470D01*
X183538354Y-113207913D01*
X183538350Y-113207906D01*
X183452190Y-113092812D01*
X183452187Y-113092809D01*
X183337093Y-113006649D01*
X183337086Y-113006645D01*
X183202379Y-112956403D01*
X183202372Y-112956401D01*
X183142844Y-112950000D01*
X182495000Y-112950000D01*
X182495000Y-113855439D01*
X182441853Y-113824755D01*
X182312143Y-113790000D01*
X182177857Y-113790000D01*
X182048147Y-113824755D01*
X181995000Y-113855439D01*
X181995000Y-112950000D01*
X181347155Y-112950000D01*
X181287627Y-112956401D01*
X181287620Y-112956403D01*
X181152913Y-113006645D01*
X181152906Y-113006649D01*
X181037812Y-113092809D01*
X181037809Y-113092812D01*
X180951649Y-113207906D01*
X180951645Y-113207913D01*
X180902578Y-113339470D01*
X180860707Y-113395404D01*
X180795242Y-113419821D01*
X180726969Y-113404969D01*
X180698715Y-113383819D01*
X180653977Y-113339081D01*
X180576401Y-113261505D01*
X180576397Y-113261502D01*
X180576396Y-113261501D01*
X180382834Y-113125967D01*
X180382830Y-113125965D01*
X180382828Y-113125964D01*
X180168663Y-113026097D01*
X180168659Y-113026096D01*
X180168655Y-113026094D01*
X179940413Y-112964938D01*
X179940403Y-112964936D01*
X179705001Y-112944341D01*
X179704999Y-112944341D01*
X179469596Y-112964936D01*
X179469586Y-112964938D01*
X179241344Y-113026094D01*
X179241335Y-113026098D01*
X179027171Y-113125964D01*
X179027169Y-113125965D01*
X178833597Y-113261505D01*
X178666505Y-113428597D01*
X178536575Y-113614158D01*
X178481998Y-113657783D01*
X178412500Y-113664977D01*
X178350145Y-113633454D01*
X178333425Y-113614158D01*
X178203494Y-113428597D01*
X178036402Y-113261506D01*
X178036395Y-113261501D01*
X177842834Y-113125967D01*
X177842830Y-113125965D01*
X177842828Y-113125964D01*
X177628663Y-113026097D01*
X177628659Y-113026096D01*
X177628655Y-113026094D01*
X177400413Y-112964938D01*
X177400403Y-112964936D01*
X177165001Y-112944341D01*
X177164999Y-112944341D01*
X176929596Y-112964936D01*
X176929586Y-112964938D01*
X176701344Y-113026094D01*
X176701335Y-113026098D01*
X176487171Y-113125964D01*
X176487169Y-113125965D01*
X176293597Y-113261505D01*
X176126505Y-113428597D01*
X175996575Y-113614158D01*
X175941998Y-113657783D01*
X175872500Y-113664977D01*
X175810145Y-113633454D01*
X175793425Y-113614158D01*
X175663494Y-113428597D01*
X175496404Y-113261508D01*
X175496401Y-113261505D01*
X175419854Y-113207906D01*
X175381575Y-113181102D01*
X175337951Y-113126525D01*
X175328700Y-113079528D01*
X175328700Y-111200442D01*
X175328701Y-111200421D01*
X175328701Y-111055688D01*
X175301658Y-110919743D01*
X175301656Y-110919735D01*
X175248613Y-110791678D01*
X175248611Y-110791673D01*
X175223795Y-110754533D01*
X175201727Y-110721506D01*
X175171603Y-110676421D01*
X175171597Y-110676413D01*
X175070487Y-110575303D01*
X175070456Y-110575274D01*
X168825940Y-104330758D01*
X168825920Y-104330736D01*
X168723585Y-104228401D01*
X168665955Y-104189894D01*
X168608327Y-104151389D01*
X168608325Y-104151388D01*
X168480265Y-104098344D01*
X168480256Y-104098341D01*
X168480194Y-104098329D01*
X168480194Y-104098328D01*
X168344310Y-104071299D01*
X168344308Y-104071299D01*
X168205692Y-104071299D01*
X168199578Y-104071299D01*
X168199558Y-104071300D01*
X154012844Y-104071300D01*
X153945805Y-104051615D01*
X153925163Y-104034981D01*
X153687363Y-103797181D01*
X153653878Y-103735858D01*
X153658862Y-103666166D01*
X153700734Y-103610233D01*
X153766198Y-103585816D01*
X153775044Y-103585500D01*
X154667713Y-103585500D01*
X157207713Y-103585500D01*
X159747713Y-103585500D01*
X162287713Y-103585500D01*
X164827713Y-103585500D01*
X167367713Y-103585500D01*
X169907713Y-103585500D01*
X171753956Y-103585500D01*
X171820995Y-103605185D01*
X171841637Y-103621819D01*
X172805274Y-104585456D01*
X172805303Y-104585487D01*
X172906414Y-104686598D01*
X173021676Y-104763613D01*
X173149735Y-104816656D01*
X173149736Y-104816656D01*
X173149738Y-104816657D01*
X173149742Y-104816657D01*
X173149743Y-104816658D01*
X173285689Y-104843701D01*
X173285692Y-104843701D01*
X173430423Y-104843701D01*
X173430443Y-104843700D01*
X177089558Y-104843700D01*
X177089578Y-104843701D01*
X177095692Y-104843701D01*
X177234310Y-104843701D01*
X177325768Y-104825507D01*
X177370262Y-104816657D01*
X177412950Y-104798975D01*
X177498323Y-104763613D01*
X177498324Y-104763612D01*
X177498327Y-104763611D01*
X177613583Y-104686600D01*
X177711600Y-104588583D01*
X177711601Y-104588581D01*
X177718667Y-104581515D01*
X177718670Y-104581511D01*
X178883579Y-103416602D01*
X178883583Y-103416600D01*
X178981600Y-103318583D01*
X179058611Y-103203327D01*
X179111657Y-103075262D01*
X179134902Y-102958401D01*
X179138700Y-102939309D01*
X179138700Y-102800692D01*
X179138700Y-99402843D01*
X179158385Y-99335804D01*
X179175014Y-99315166D01*
X180028862Y-98461318D01*
X180090185Y-98427834D01*
X180116543Y-98425000D01*
X186690000Y-98425000D01*
X186690000Y-86552700D01*
X186709685Y-86485661D01*
X186762489Y-86439906D01*
X186814000Y-86428700D01*
X188009529Y-86428700D01*
X188076568Y-86448385D01*
X188111103Y-86481576D01*
X188118637Y-86492335D01*
X188191505Y-86596401D01*
X188358599Y-86763495D01*
X188435293Y-86817197D01*
X188552165Y-86899032D01*
X188552167Y-86899033D01*
X188552170Y-86899035D01*
X188766337Y-86998903D01*
X188994592Y-87060063D01*
X189182918Y-87076539D01*
X189229999Y-87080659D01*
X189230000Y-87080659D01*
X189230001Y-87080659D01*
X189269234Y-87077226D01*
X189465408Y-87060063D01*
X189693663Y-86998903D01*
X189907830Y-86899035D01*
X190101401Y-86763495D01*
X190268495Y-86596401D01*
X190404035Y-86402830D01*
X190503903Y-86188663D01*
X190565063Y-85960408D01*
X190585659Y-85725000D01*
X190565063Y-85489592D01*
X190503903Y-85261337D01*
X190404035Y-85047171D01*
X190385406Y-85020565D01*
X190268494Y-84853597D01*
X190101402Y-84686506D01*
X190101396Y-84686501D01*
X189915842Y-84556575D01*
X189872217Y-84501998D01*
X189865023Y-84432500D01*
X189896546Y-84370145D01*
X189915842Y-84353425D01*
X189938026Y-84337891D01*
X190101401Y-84223495D01*
X190268495Y-84056401D01*
X190404035Y-83862830D01*
X190503903Y-83648663D01*
X190565063Y-83420408D01*
X190585659Y-83185000D01*
X190565063Y-82949592D01*
X190518626Y-82776285D01*
X190503905Y-82721344D01*
X190503904Y-82721343D01*
X190503903Y-82721337D01*
X190404035Y-82507171D01*
X190372137Y-82461615D01*
X190268494Y-82313597D01*
X190101402Y-82146506D01*
X190101396Y-82146501D01*
X189915842Y-82016575D01*
X189872217Y-81961998D01*
X189865023Y-81892500D01*
X189896546Y-81830145D01*
X189915842Y-81813425D01*
X189938026Y-81797891D01*
X190101401Y-81683495D01*
X190268495Y-81516401D01*
X190404035Y-81322830D01*
X190503903Y-81108663D01*
X190565063Y-80880408D01*
X190585659Y-80645000D01*
X190565063Y-80409592D01*
X190508940Y-80200136D01*
X190503905Y-80181344D01*
X190503904Y-80181343D01*
X190503903Y-80181337D01*
X190404035Y-79967171D01*
X190393203Y-79951700D01*
X190268494Y-79773597D01*
X190101402Y-79606506D01*
X190101396Y-79606501D01*
X189915842Y-79476575D01*
X189872217Y-79421998D01*
X189865023Y-79352500D01*
X189896546Y-79290145D01*
X189915842Y-79273425D01*
X189994197Y-79218560D01*
X190101401Y-79143495D01*
X190268495Y-78976401D01*
X190404035Y-78782830D01*
X190503903Y-78568663D01*
X190565063Y-78340408D01*
X190585659Y-78105000D01*
X190565063Y-77869592D01*
X190518626Y-77696285D01*
X190503905Y-77641344D01*
X190503904Y-77641343D01*
X190503903Y-77641337D01*
X190404035Y-77427171D01*
X190385920Y-77401299D01*
X190268494Y-77233597D01*
X190101402Y-77066506D01*
X190101396Y-77066501D01*
X189915842Y-76936575D01*
X189872217Y-76881998D01*
X189865023Y-76812500D01*
X189896546Y-76750145D01*
X189915842Y-76733425D01*
X190007279Y-76669400D01*
X190101401Y-76603495D01*
X190268495Y-76436401D01*
X190404035Y-76242830D01*
X190503903Y-76028663D01*
X190565063Y-75800408D01*
X190585659Y-75565000D01*
X190565063Y-75329592D01*
X190518626Y-75156285D01*
X190503905Y-75101344D01*
X190503904Y-75101343D01*
X190503903Y-75101337D01*
X190404035Y-74887171D01*
X190398084Y-74878671D01*
X190268494Y-74693597D01*
X190101402Y-74526506D01*
X190101396Y-74526501D01*
X189915842Y-74396575D01*
X189872217Y-74341998D01*
X189865023Y-74272500D01*
X189896546Y-74210145D01*
X189915842Y-74193425D01*
X189959772Y-74162665D01*
X190101401Y-74063495D01*
X190268495Y-73896401D01*
X190404035Y-73702830D01*
X190503903Y-73488663D01*
X190565063Y-73260408D01*
X190585659Y-73025000D01*
X190565063Y-72789592D01*
X190518626Y-72616285D01*
X190503905Y-72561344D01*
X190503904Y-72561343D01*
X190503903Y-72561337D01*
X190404035Y-72347171D01*
X190385920Y-72321299D01*
X190268494Y-72153597D01*
X190101402Y-71986506D01*
X190101396Y-71986501D01*
X189915842Y-71856575D01*
X189872217Y-71801998D01*
X189865023Y-71732500D01*
X189896546Y-71670145D01*
X189915842Y-71653425D01*
X189938026Y-71637891D01*
X190101401Y-71523495D01*
X190268495Y-71356401D01*
X190404035Y-71162830D01*
X190503903Y-70948663D01*
X190565063Y-70720408D01*
X190585659Y-70485000D01*
X190565063Y-70249592D01*
X190515736Y-70065500D01*
X190503905Y-70021344D01*
X190503904Y-70021343D01*
X190503903Y-70021337D01*
X190404035Y-69807171D01*
X190372136Y-69761615D01*
X190268496Y-69613600D01*
X190217731Y-69562835D01*
X190146567Y-69491671D01*
X190113084Y-69430351D01*
X190118068Y-69360659D01*
X190159939Y-69304725D01*
X190190915Y-69287810D01*
X190322331Y-69238796D01*
X190437546Y-69152546D01*
X190523796Y-69037331D01*
X190574091Y-68902483D01*
X190580500Y-68842873D01*
X190580499Y-67047128D01*
X190574091Y-66987517D01*
X190523796Y-66852669D01*
X190523795Y-66852668D01*
X190523793Y-66852664D01*
X190437547Y-66737455D01*
X190437544Y-66737452D01*
X190322335Y-66651206D01*
X190322328Y-66651202D01*
X190187482Y-66600908D01*
X190187483Y-66600908D01*
X190127883Y-66594501D01*
X190127881Y-66594500D01*
X190127873Y-66594500D01*
X190127864Y-66594500D01*
X188332129Y-66594500D01*
X188332123Y-66594501D01*
X188272516Y-66600908D01*
X188137671Y-66651202D01*
X188137664Y-66651206D01*
X188022455Y-66737452D01*
X188022452Y-66737455D01*
X187936206Y-66852664D01*
X187936202Y-66852671D01*
X187885908Y-66987517D01*
X187879501Y-67047116D01*
X187879501Y-67047123D01*
X187879500Y-67047135D01*
X187879500Y-67117300D01*
X187859815Y-67184339D01*
X187807011Y-67230094D01*
X187755500Y-67241300D01*
X186814000Y-67241300D01*
X186746961Y-67221615D01*
X186701206Y-67168811D01*
X186690000Y-67117300D01*
X186690000Y-66448124D01*
X195525427Y-66448124D01*
X195587612Y-66491666D01*
X195785840Y-66584101D01*
X195785849Y-66584105D01*
X195997105Y-66640710D01*
X195997115Y-66640712D01*
X196214999Y-66659775D01*
X196215001Y-66659775D01*
X196432884Y-66640712D01*
X196432894Y-66640710D01*
X196644150Y-66584105D01*
X196644164Y-66584100D01*
X196842383Y-66491669D01*
X196842385Y-66491668D01*
X196904571Y-66448124D01*
X196215001Y-65758553D01*
X196215000Y-65758553D01*
X195525427Y-66448124D01*
X186690000Y-66448124D01*
X186690000Y-65404999D01*
X194960225Y-65404999D01*
X194960225Y-65405000D01*
X194979287Y-65622884D01*
X194979289Y-65622894D01*
X195035894Y-65834150D01*
X195035898Y-65834159D01*
X195128333Y-66032387D01*
X195171874Y-66094571D01*
X195861446Y-65405000D01*
X195861446Y-65404999D01*
X195815369Y-65358922D01*
X195865000Y-65358922D01*
X195865000Y-65451078D01*
X195888852Y-65540095D01*
X195934930Y-65619905D01*
X196000095Y-65685070D01*
X196079905Y-65731148D01*
X196168922Y-65755000D01*
X196261078Y-65755000D01*
X196350095Y-65731148D01*
X196429905Y-65685070D01*
X196495070Y-65619905D01*
X196541148Y-65540095D01*
X196565000Y-65451078D01*
X196565000Y-65404999D01*
X196568553Y-65404999D01*
X196568553Y-65405000D01*
X197258124Y-66094570D01*
X197301668Y-66032385D01*
X197301669Y-66032383D01*
X197394100Y-65834164D01*
X197394105Y-65834150D01*
X197450710Y-65622894D01*
X197450712Y-65622884D01*
X197469775Y-65405000D01*
X197469775Y-65404999D01*
X197450712Y-65187115D01*
X197450710Y-65187105D01*
X197394105Y-64975849D01*
X197394101Y-64975840D01*
X197301668Y-64777615D01*
X197258123Y-64715428D01*
X196568553Y-65404999D01*
X196565000Y-65404999D01*
X196565000Y-65358922D01*
X196541148Y-65269905D01*
X196495070Y-65190095D01*
X196429905Y-65124930D01*
X196350095Y-65078852D01*
X196261078Y-65055000D01*
X196168922Y-65055000D01*
X196079905Y-65078852D01*
X196000095Y-65124930D01*
X195934930Y-65190095D01*
X195888852Y-65269905D01*
X195865000Y-65358922D01*
X195815369Y-65358922D01*
X195171875Y-64715427D01*
X195171875Y-64715428D01*
X195128333Y-64777612D01*
X195128332Y-64777614D01*
X195035898Y-64975840D01*
X195035894Y-64975849D01*
X194979289Y-65187105D01*
X194979287Y-65187115D01*
X194960225Y-65404999D01*
X186690000Y-65404999D01*
X186690000Y-64361875D01*
X195525427Y-64361875D01*
X196215000Y-65051446D01*
X196215001Y-65051446D01*
X196904571Y-64361874D01*
X196842387Y-64318333D01*
X196644159Y-64225898D01*
X196644150Y-64225894D01*
X196432894Y-64169289D01*
X196432884Y-64169287D01*
X196215001Y-64150225D01*
X196214999Y-64150225D01*
X195997115Y-64169287D01*
X195997105Y-64169289D01*
X195785849Y-64225894D01*
X195785840Y-64225898D01*
X195587614Y-64318332D01*
X195587612Y-64318333D01*
X195525428Y-64361875D01*
X195525427Y-64361875D01*
X186690000Y-64361875D01*
X186690000Y-59055000D01*
X187325000Y-59055000D01*
X187325000Y-46990000D01*
X201171000Y-46990000D01*
X201238039Y-47009685D01*
G37*
%TD.AperFunction*%
%TA.AperFunction,Conductor*%
G36*
X98029802Y-98444685D02*
G01*
X98075557Y-98497489D01*
X98085501Y-98566647D01*
X98056476Y-98630203D01*
X98035648Y-98649318D01*
X98014214Y-98664890D01*
X98014209Y-98664894D01*
X97863890Y-98815213D01*
X97738951Y-98987179D01*
X97642444Y-99176585D01*
X97576753Y-99378760D01*
X97543500Y-99588713D01*
X97543500Y-99795942D01*
X97523815Y-99862981D01*
X97471011Y-99908736D01*
X97401853Y-99918680D01*
X97346615Y-99896260D01*
X97227820Y-99809951D01*
X97038414Y-99713444D01*
X97038413Y-99713443D01*
X97038412Y-99713443D01*
X96836243Y-99647754D01*
X96836241Y-99647753D01*
X96836240Y-99647753D01*
X96674957Y-99622208D01*
X96626287Y-99614500D01*
X96413713Y-99614500D01*
X96365042Y-99622208D01*
X96203760Y-99647753D01*
X96001585Y-99713444D01*
X95812179Y-99809951D01*
X95640213Y-99934890D01*
X95489890Y-100085213D01*
X95364951Y-100257179D01*
X95268444Y-100446585D01*
X95202753Y-100648760D01*
X95169500Y-100858713D01*
X95169500Y-101071286D01*
X95202753Y-101281239D01*
X95268444Y-101483414D01*
X95364951Y-101672820D01*
X95489890Y-101844786D01*
X95640213Y-101995109D01*
X95812179Y-102120048D01*
X95812181Y-102120049D01*
X95812184Y-102120051D01*
X96001588Y-102216557D01*
X96203757Y-102282246D01*
X96413713Y-102315500D01*
X96413714Y-102315500D01*
X96626286Y-102315500D01*
X96626287Y-102315500D01*
X96836243Y-102282246D01*
X97038412Y-102216557D01*
X97227816Y-102120051D01*
X97346615Y-102033738D01*
X97412421Y-102010259D01*
X97480475Y-102026084D01*
X97529170Y-102076190D01*
X97543500Y-102134057D01*
X97543500Y-102341287D01*
X97576754Y-102551243D01*
X97605263Y-102638984D01*
X97607258Y-102708822D01*
X97571178Y-102768655D01*
X97508477Y-102799484D01*
X97487332Y-102801300D01*
X84797844Y-102801300D01*
X84730805Y-102781615D01*
X84710163Y-102764981D01*
X84370940Y-102425758D01*
X84370920Y-102425736D01*
X84268585Y-102323401D01*
X84153323Y-102246386D01*
X84025264Y-102193343D01*
X84025256Y-102193341D01*
X83889310Y-102166299D01*
X83889308Y-102166299D01*
X83750692Y-102166299D01*
X83744578Y-102166299D01*
X83744558Y-102166300D01*
X82039000Y-102166300D01*
X81971961Y-102146615D01*
X81926206Y-102093811D01*
X81915000Y-102042300D01*
X81915000Y-99554552D01*
X81919224Y-99522463D01*
X81980063Y-99295408D01*
X82000659Y-99060000D01*
X85090000Y-99060000D01*
X85090000Y-98425000D01*
X97962763Y-98425000D01*
X98029802Y-98444685D01*
G37*
%TD.AperFunction*%
%TD*%
%TA.AperFunction,Conductor*%
%TO.N,GND*%
G36*
X187325000Y-59055000D02*
G01*
X178559000Y-59055000D01*
X178491961Y-59035315D01*
X178446206Y-58982511D01*
X178435000Y-58931000D01*
X178435000Y-47114000D01*
X178454685Y-47046961D01*
X178507489Y-47001206D01*
X178559000Y-46990000D01*
X187325000Y-46990000D01*
X187325000Y-59055000D01*
G37*
%TD.AperFunction*%
%TD*%
%TA.AperFunction,Conductor*%
%TO.N,GND*%
G36*
X85090000Y-59055000D02*
G01*
X85090000Y-67117300D01*
X85070315Y-67184339D01*
X85017511Y-67230094D01*
X84966000Y-67241300D01*
X83389499Y-67241300D01*
X83322460Y-67221615D01*
X83276705Y-67168811D01*
X83265499Y-67117300D01*
X83265499Y-67047129D01*
X83265498Y-67047123D01*
X83265497Y-67047116D01*
X83259091Y-66987517D01*
X83208796Y-66852669D01*
X83208795Y-66852668D01*
X83208793Y-66852664D01*
X83122547Y-66737455D01*
X83122544Y-66737452D01*
X83007335Y-66651206D01*
X83007328Y-66651202D01*
X82872482Y-66600908D01*
X82872483Y-66600908D01*
X82812883Y-66594501D01*
X82812881Y-66594500D01*
X82812873Y-66594500D01*
X82812864Y-66594500D01*
X81017129Y-66594500D01*
X81017123Y-66594501D01*
X80957516Y-66600908D01*
X80822671Y-66651202D01*
X80822664Y-66651206D01*
X80707455Y-66737452D01*
X80707452Y-66737455D01*
X80621206Y-66852664D01*
X80621202Y-66852671D01*
X80570908Y-66987517D01*
X80564501Y-67047116D01*
X80564501Y-67047123D01*
X80564500Y-67047135D01*
X80564500Y-68842870D01*
X80564501Y-68842876D01*
X80570908Y-68902483D01*
X80621202Y-69037328D01*
X80621206Y-69037335D01*
X80707452Y-69152544D01*
X80707455Y-69152547D01*
X80822664Y-69238793D01*
X80822671Y-69238797D01*
X80954081Y-69287810D01*
X81010015Y-69329681D01*
X81034432Y-69395145D01*
X81019580Y-69463418D01*
X80998430Y-69491673D01*
X80876503Y-69613600D01*
X80740965Y-69807169D01*
X80740964Y-69807171D01*
X80641098Y-70021335D01*
X80641094Y-70021344D01*
X80579938Y-70249586D01*
X80579936Y-70249596D01*
X80559341Y-70484999D01*
X80559341Y-70485000D01*
X80579936Y-70720403D01*
X80579938Y-70720413D01*
X80641094Y-70948655D01*
X80641096Y-70948659D01*
X80641097Y-70948663D01*
X80715682Y-71108611D01*
X80740965Y-71162830D01*
X80740967Y-71162834D01*
X80876501Y-71356395D01*
X80876506Y-71356402D01*
X81043597Y-71523493D01*
X81043603Y-71523498D01*
X81229158Y-71653425D01*
X81272783Y-71708002D01*
X81279977Y-71777500D01*
X81248454Y-71839855D01*
X81229158Y-71856575D01*
X81043597Y-71986505D01*
X80876505Y-72153597D01*
X80740965Y-72347169D01*
X80740964Y-72347171D01*
X80641098Y-72561335D01*
X80641094Y-72561344D01*
X80579938Y-72789586D01*
X80579936Y-72789596D01*
X80559341Y-73024999D01*
X80559341Y-73025000D01*
X80579936Y-73260403D01*
X80579938Y-73260413D01*
X80641094Y-73488655D01*
X80641096Y-73488659D01*
X80641097Y-73488663D01*
X80715682Y-73648611D01*
X80740965Y-73702830D01*
X80740967Y-73702834D01*
X80876501Y-73896395D01*
X80876506Y-73896402D01*
X81043597Y-74063493D01*
X81043603Y-74063498D01*
X81229158Y-74193425D01*
X81272783Y-74248002D01*
X81279977Y-74317500D01*
X81248454Y-74379855D01*
X81229158Y-74396575D01*
X81043597Y-74526505D01*
X80876505Y-74693597D01*
X80740965Y-74887169D01*
X80740964Y-74887171D01*
X80641098Y-75101335D01*
X80641094Y-75101344D01*
X80579938Y-75329586D01*
X80579936Y-75329596D01*
X80559341Y-75564999D01*
X80559341Y-75565000D01*
X80579936Y-75800403D01*
X80579938Y-75800413D01*
X80641094Y-76028655D01*
X80641096Y-76028659D01*
X80641097Y-76028663D01*
X80740965Y-76242830D01*
X80740967Y-76242834D01*
X80876501Y-76436395D01*
X80876506Y-76436402D01*
X81043597Y-76603493D01*
X81043603Y-76603498D01*
X81229158Y-76733425D01*
X81272783Y-76788002D01*
X81279977Y-76857500D01*
X81248454Y-76919855D01*
X81229158Y-76936575D01*
X81043597Y-77066505D01*
X80876505Y-77233597D01*
X80740965Y-77427169D01*
X80740964Y-77427171D01*
X80641098Y-77641335D01*
X80641094Y-77641344D01*
X80579938Y-77869586D01*
X80579936Y-77869596D01*
X80559341Y-78104999D01*
X80559341Y-78105000D01*
X80579936Y-78340403D01*
X80579938Y-78340413D01*
X80641094Y-78568655D01*
X80641096Y-78568659D01*
X80641097Y-78568663D01*
X80740965Y-78782830D01*
X80740967Y-78782834D01*
X80876501Y-78976395D01*
X80876506Y-78976402D01*
X81043597Y-79143493D01*
X81043603Y-79143498D01*
X81229158Y-79273425D01*
X81272783Y-79328002D01*
X81279977Y-79397500D01*
X81248454Y-79459855D01*
X81229158Y-79476575D01*
X81043597Y-79606505D01*
X80876505Y-79773597D01*
X80740965Y-79967169D01*
X80740964Y-79967171D01*
X80641098Y-80181335D01*
X80641094Y-80181344D01*
X80579938Y-80409586D01*
X80579936Y-80409596D01*
X80559341Y-80644999D01*
X80559341Y-80645000D01*
X80579936Y-80880403D01*
X80579938Y-80880413D01*
X80641094Y-81108655D01*
X80641096Y-81108659D01*
X80641097Y-81108663D01*
X80679771Y-81191599D01*
X80740965Y-81322830D01*
X80740967Y-81322834D01*
X80876501Y-81516395D01*
X80876506Y-81516402D01*
X81043597Y-81683493D01*
X81043603Y-81683498D01*
X81229158Y-81813425D01*
X81272783Y-81868002D01*
X81279977Y-81937500D01*
X81248454Y-81999855D01*
X81229158Y-82016575D01*
X81043597Y-82146505D01*
X80876505Y-82313597D01*
X80740965Y-82507169D01*
X80740964Y-82507171D01*
X80641098Y-82721335D01*
X80641094Y-82721344D01*
X80579938Y-82949586D01*
X80579936Y-82949596D01*
X80559341Y-83184999D01*
X80559341Y-83185000D01*
X80579936Y-83420403D01*
X80579938Y-83420413D01*
X80641094Y-83648655D01*
X80641096Y-83648659D01*
X80641097Y-83648663D01*
X80715682Y-83808611D01*
X80740965Y-83862830D01*
X80740967Y-83862834D01*
X80876501Y-84056395D01*
X80876506Y-84056402D01*
X81043597Y-84223493D01*
X81043603Y-84223498D01*
X81229158Y-84353425D01*
X81272783Y-84408002D01*
X81279977Y-84477500D01*
X81248454Y-84539855D01*
X81229158Y-84556575D01*
X81043597Y-84686505D01*
X80876505Y-84853597D01*
X80740965Y-85047169D01*
X80740964Y-85047171D01*
X80641098Y-85261335D01*
X80641094Y-85261344D01*
X80579938Y-85489586D01*
X80579936Y-85489596D01*
X80559341Y-85724999D01*
X80559341Y-85725000D01*
X80579936Y-85960403D01*
X80579938Y-85960413D01*
X80641094Y-86188655D01*
X80641096Y-86188659D01*
X80641097Y-86188663D01*
X80715682Y-86348611D01*
X80740965Y-86402830D01*
X80740967Y-86402834D01*
X80849281Y-86557521D01*
X80876505Y-86596401D01*
X81043599Y-86763495D01*
X81140384Y-86831265D01*
X81237165Y-86899032D01*
X81237167Y-86899033D01*
X81237170Y-86899035D01*
X81451337Y-86998903D01*
X81679592Y-87060063D01*
X81867918Y-87076539D01*
X81914999Y-87080659D01*
X81915000Y-87080659D01*
X81915001Y-87080659D01*
X81954234Y-87077226D01*
X82150408Y-87060063D01*
X82378663Y-86998903D01*
X82592830Y-86899035D01*
X82786401Y-86763495D01*
X82953495Y-86596401D01*
X83033897Y-86481576D01*
X83088474Y-86437951D01*
X83135471Y-86428700D01*
X83744558Y-86428700D01*
X83744578Y-86428701D01*
X83750692Y-86428701D01*
X83889310Y-86428701D01*
X83980768Y-86410507D01*
X84025262Y-86401657D01*
X84067950Y-86383975D01*
X84153323Y-86348613D01*
X84153324Y-86348612D01*
X84153327Y-86348611D01*
X84268583Y-86271600D01*
X84366600Y-86173583D01*
X84366601Y-86173581D01*
X84373667Y-86166515D01*
X84373669Y-86166511D01*
X84878320Y-85661861D01*
X84939642Y-85628377D01*
X85009334Y-85633361D01*
X85065267Y-85675233D01*
X85089684Y-85740697D01*
X85090000Y-85749543D01*
X85090000Y-99060000D01*
X82000659Y-99060000D01*
X82000659Y-99059999D01*
X81980063Y-98824596D01*
X81980063Y-98824592D01*
X81918903Y-98596337D01*
X81819035Y-98382171D01*
X81813425Y-98374158D01*
X81683494Y-98188597D01*
X81516402Y-98021506D01*
X81516395Y-98021501D01*
X81322834Y-97885967D01*
X81322830Y-97885965D01*
X81322828Y-97885964D01*
X81108663Y-97786097D01*
X81108659Y-97786096D01*
X81108655Y-97786094D01*
X80880413Y-97724938D01*
X80880403Y-97724936D01*
X80645001Y-97704341D01*
X80644999Y-97704341D01*
X80409596Y-97724936D01*
X80409586Y-97724938D01*
X80181344Y-97786094D01*
X80181335Y-97786098D01*
X79967171Y-97885964D01*
X79967169Y-97885965D01*
X79773597Y-98021505D01*
X79606505Y-98188597D01*
X79476575Y-98374158D01*
X79421998Y-98417783D01*
X79352500Y-98424977D01*
X79290145Y-98393454D01*
X79273425Y-98374158D01*
X79143494Y-98188597D01*
X78976402Y-98021506D01*
X78976395Y-98021501D01*
X78782834Y-97885967D01*
X78782830Y-97885965D01*
X78782828Y-97885964D01*
X78568663Y-97786097D01*
X78568659Y-97786096D01*
X78568655Y-97786094D01*
X78340413Y-97724938D01*
X78340403Y-97724936D01*
X78105001Y-97704341D01*
X78104999Y-97704341D01*
X77869596Y-97724936D01*
X77869586Y-97724938D01*
X77641344Y-97786094D01*
X77641335Y-97786098D01*
X77427171Y-97885964D01*
X77427169Y-97885965D01*
X77233597Y-98021505D01*
X77066507Y-98188595D01*
X77060574Y-98197069D01*
X77005997Y-98240693D01*
X76936498Y-98247885D01*
X76874144Y-98216362D01*
X76838731Y-98156132D01*
X76835000Y-98125944D01*
X76835000Y-47114000D01*
X76854685Y-47046961D01*
X76907489Y-47001206D01*
X76959000Y-46990000D01*
X85090000Y-46990000D01*
X85090000Y-59055000D01*
G37*
%TD.AperFunction*%
%TD*%
%TA.AperFunction,Conductor*%
%TO.N,GND*%
G36*
X92075000Y-115557450D02*
G01*
X91735669Y-115896781D01*
X91674346Y-115930266D01*
X91647988Y-115933100D01*
X89445676Y-115933100D01*
X89270472Y-115967950D01*
X89270466Y-115967952D01*
X89105424Y-116036314D01*
X89105415Y-116036319D01*
X88956885Y-116135564D01*
X88956881Y-116135567D01*
X88830567Y-116261881D01*
X88830564Y-116261885D01*
X88731319Y-116410415D01*
X88731314Y-116410424D01*
X88662952Y-116575466D01*
X88662950Y-116575472D01*
X88628100Y-116750675D01*
X88628100Y-116750678D01*
X88628100Y-116929322D01*
X88628100Y-116929324D01*
X88628099Y-116929324D01*
X88662950Y-117104527D01*
X88662952Y-117104533D01*
X88731314Y-117269575D01*
X88731319Y-117269584D01*
X88830564Y-117418114D01*
X88830567Y-117418118D01*
X88956881Y-117544432D01*
X88956885Y-117544435D01*
X89105415Y-117643680D01*
X89105421Y-117643683D01*
X89105422Y-117643684D01*
X89270467Y-117712048D01*
X89270471Y-117712048D01*
X89270472Y-117712049D01*
X89445675Y-117746900D01*
X92075000Y-117746900D01*
X92075000Y-144780000D01*
X81915000Y-144780000D01*
X76959000Y-144780000D01*
X76891961Y-144760315D01*
X76846206Y-144707511D01*
X76835000Y-144656000D01*
X76835000Y-132079999D01*
X82464341Y-132079999D01*
X82464341Y-132080000D01*
X82484936Y-132315403D01*
X82484938Y-132315413D01*
X82546094Y-132543655D01*
X82546096Y-132543659D01*
X82546097Y-132543663D01*
X82645965Y-132757830D01*
X82645967Y-132757834D01*
X82781501Y-132951395D01*
X82781506Y-132951402D01*
X82948597Y-133118493D01*
X82948603Y-133118498D01*
X83134158Y-133248425D01*
X83177783Y-133303002D01*
X83184977Y-133372500D01*
X83153454Y-133434855D01*
X83134158Y-133451575D01*
X82948597Y-133581505D01*
X82781505Y-133748597D01*
X82645965Y-133942169D01*
X82645964Y-133942171D01*
X82546098Y-134156335D01*
X82546094Y-134156344D01*
X82484938Y-134384586D01*
X82484936Y-134384596D01*
X82464341Y-134619999D01*
X82464341Y-134620000D01*
X82484936Y-134855403D01*
X82484938Y-134855413D01*
X82546094Y-135083655D01*
X82546096Y-135083659D01*
X82546097Y-135083663D01*
X82645965Y-135297830D01*
X82645967Y-135297834D01*
X82781501Y-135491395D01*
X82781506Y-135491402D01*
X82948597Y-135658493D01*
X82948603Y-135658498D01*
X83134158Y-135788425D01*
X83177783Y-135843002D01*
X83184977Y-135912500D01*
X83153454Y-135974855D01*
X83134158Y-135991575D01*
X82948597Y-136121505D01*
X82781505Y-136288597D01*
X82645965Y-136482169D01*
X82645964Y-136482171D01*
X82546098Y-136696335D01*
X82546094Y-136696344D01*
X82484938Y-136924586D01*
X82484936Y-136924596D01*
X82464341Y-137159999D01*
X82464341Y-137160000D01*
X82484936Y-137395403D01*
X82484938Y-137395413D01*
X82546094Y-137623655D01*
X82546096Y-137623659D01*
X82546097Y-137623663D01*
X82645965Y-137837830D01*
X82645967Y-137837834D01*
X82754281Y-137992521D01*
X82781501Y-138031396D01*
X82781506Y-138031402D01*
X82903818Y-138153714D01*
X82937303Y-138215037D01*
X82932319Y-138284729D01*
X82890447Y-138340662D01*
X82859471Y-138357577D01*
X82727912Y-138406646D01*
X82727906Y-138406649D01*
X82612812Y-138492809D01*
X82612809Y-138492812D01*
X82526649Y-138607906D01*
X82526645Y-138607913D01*
X82476403Y-138742620D01*
X82476401Y-138742627D01*
X82470000Y-138802155D01*
X82470000Y-139450000D01*
X83386988Y-139450000D01*
X83354075Y-139507007D01*
X83320000Y-139634174D01*
X83320000Y-139765826D01*
X83354075Y-139892993D01*
X83386988Y-139950000D01*
X82470000Y-139950000D01*
X82470000Y-140597844D01*
X82476401Y-140657372D01*
X82476403Y-140657379D01*
X82526645Y-140792086D01*
X82526649Y-140792093D01*
X82612809Y-140907187D01*
X82612812Y-140907190D01*
X82727906Y-140993350D01*
X82727913Y-140993354D01*
X82862620Y-141043596D01*
X82862627Y-141043598D01*
X82922155Y-141049999D01*
X82922172Y-141050000D01*
X83570000Y-141050000D01*
X83570000Y-140133012D01*
X83627007Y-140165925D01*
X83754174Y-140200000D01*
X83885826Y-140200000D01*
X84012993Y-140165925D01*
X84070000Y-140133012D01*
X84070000Y-141050000D01*
X84717828Y-141050000D01*
X84717844Y-141049999D01*
X84777372Y-141043598D01*
X84777379Y-141043596D01*
X84912086Y-140993354D01*
X84912093Y-140993350D01*
X85027187Y-140907190D01*
X85027190Y-140907187D01*
X85113350Y-140792093D01*
X85113354Y-140792086D01*
X85163596Y-140657379D01*
X85163598Y-140657372D01*
X85169999Y-140597844D01*
X85170000Y-140597827D01*
X85170000Y-139950000D01*
X84253012Y-139950000D01*
X84285925Y-139892993D01*
X84320000Y-139765826D01*
X84320000Y-139634174D01*
X84285925Y-139507007D01*
X84253012Y-139450000D01*
X85170000Y-139450000D01*
X85170000Y-138802172D01*
X85169999Y-138802155D01*
X85163598Y-138742627D01*
X85163596Y-138742620D01*
X85113354Y-138607913D01*
X85113350Y-138607906D01*
X85027190Y-138492812D01*
X85027187Y-138492809D01*
X84912093Y-138406649D01*
X84912088Y-138406646D01*
X84780528Y-138357577D01*
X84724595Y-138315705D01*
X84700178Y-138250241D01*
X84715030Y-138181968D01*
X84736175Y-138153720D01*
X84858495Y-138031401D01*
X84994035Y-137837830D01*
X85093903Y-137623663D01*
X85155063Y-137395408D01*
X85175659Y-137160000D01*
X85155063Y-136924592D01*
X85093903Y-136696337D01*
X84994035Y-136482171D01*
X84858495Y-136288599D01*
X84858494Y-136288597D01*
X84691402Y-136121506D01*
X84691396Y-136121501D01*
X84505842Y-135991575D01*
X84462217Y-135936998D01*
X84455023Y-135867500D01*
X84486546Y-135805145D01*
X84505842Y-135788425D01*
X84528026Y-135772891D01*
X84691401Y-135658495D01*
X84858495Y-135491401D01*
X84994035Y-135297830D01*
X85093903Y-135083663D01*
X85155063Y-134855408D01*
X85175659Y-134620000D01*
X85155063Y-134384592D01*
X85093903Y-134156337D01*
X84994035Y-133942171D01*
X84858495Y-133748599D01*
X84858494Y-133748597D01*
X84691402Y-133581506D01*
X84691396Y-133581501D01*
X84505842Y-133451575D01*
X84462217Y-133396998D01*
X84455023Y-133327500D01*
X84486546Y-133265145D01*
X84505842Y-133248425D01*
X84528026Y-133232891D01*
X84691401Y-133118495D01*
X84858495Y-132951401D01*
X84994035Y-132757830D01*
X85093903Y-132543663D01*
X85155063Y-132315408D01*
X85175659Y-132080000D01*
X85155063Y-131844592D01*
X85093903Y-131616337D01*
X84994035Y-131402171D01*
X84858495Y-131208599D01*
X84858494Y-131208597D01*
X84691402Y-131041506D01*
X84691395Y-131041501D01*
X84497834Y-130905967D01*
X84497830Y-130905965D01*
X84497828Y-130905964D01*
X84283663Y-130806097D01*
X84283659Y-130806096D01*
X84283655Y-130806094D01*
X84055413Y-130744938D01*
X84055403Y-130744936D01*
X83820001Y-130724341D01*
X83819999Y-130724341D01*
X83584596Y-130744936D01*
X83584586Y-130744938D01*
X83356344Y-130806094D01*
X83356335Y-130806098D01*
X83142171Y-130905964D01*
X83142169Y-130905965D01*
X82948597Y-131041505D01*
X82781505Y-131208597D01*
X82645965Y-131402169D01*
X82645964Y-131402171D01*
X82546098Y-131616335D01*
X82546094Y-131616344D01*
X82484938Y-131844586D01*
X82484936Y-131844596D01*
X82464341Y-132079999D01*
X76835000Y-132079999D01*
X76835000Y-127089324D01*
X86723099Y-127089324D01*
X86757950Y-127264527D01*
X86757952Y-127264533D01*
X86826314Y-127429575D01*
X86826319Y-127429584D01*
X86925564Y-127578114D01*
X86925567Y-127578118D01*
X87361781Y-128014331D01*
X87395266Y-128075654D01*
X87398100Y-128102012D01*
X87398100Y-134699322D01*
X87398100Y-134699324D01*
X87398099Y-134699324D01*
X87432950Y-134874527D01*
X87432952Y-134874533D01*
X87501314Y-135039575D01*
X87501319Y-135039584D01*
X87600564Y-135188114D01*
X87600567Y-135188118D01*
X87726881Y-135314432D01*
X87726885Y-135314435D01*
X87875415Y-135413680D01*
X87875421Y-135413683D01*
X87875422Y-135413684D01*
X88040467Y-135482048D01*
X88040471Y-135482048D01*
X88040472Y-135482049D01*
X88215675Y-135516900D01*
X88215678Y-135516900D01*
X88394324Y-135516900D01*
X88522543Y-135491395D01*
X88569533Y-135482048D01*
X88734578Y-135413684D01*
X88883115Y-135314435D01*
X89009435Y-135188115D01*
X89108684Y-135039578D01*
X89177048Y-134874533D01*
X89211900Y-134699322D01*
X89211900Y-127585678D01*
X89211900Y-127585675D01*
X89177049Y-127410472D01*
X89177048Y-127410471D01*
X89177048Y-127410467D01*
X89108684Y-127245422D01*
X89108683Y-127245421D01*
X89108680Y-127245415D01*
X89009436Y-127096886D01*
X89001872Y-127089322D01*
X88883115Y-126970565D01*
X88648016Y-126735466D01*
X88208118Y-126295567D01*
X88208114Y-126295564D01*
X88059584Y-126196319D01*
X88059575Y-126196314D01*
X87894533Y-126127952D01*
X87894527Y-126127950D01*
X87719324Y-126093100D01*
X87719322Y-126093100D01*
X87540678Y-126093100D01*
X87540676Y-126093100D01*
X87365472Y-126127950D01*
X87365466Y-126127952D01*
X87200424Y-126196314D01*
X87200415Y-126196319D01*
X87051885Y-126295564D01*
X87051881Y-126295567D01*
X86925567Y-126421881D01*
X86925564Y-126421885D01*
X86826319Y-126570415D01*
X86826314Y-126570424D01*
X86757952Y-126735466D01*
X86757950Y-126735472D01*
X86723100Y-126910675D01*
X86723100Y-126910678D01*
X86723100Y-127089322D01*
X86723100Y-127089324D01*
X86723099Y-127089324D01*
X76835000Y-127089324D01*
X76835000Y-124549324D01*
X83548099Y-124549324D01*
X83582950Y-124724527D01*
X83582952Y-124724533D01*
X83651314Y-124889575D01*
X83651319Y-124889584D01*
X83750564Y-125038114D01*
X83750567Y-125038118D01*
X83876881Y-125164432D01*
X83876885Y-125164435D01*
X84025415Y-125263680D01*
X84025421Y-125263683D01*
X84025422Y-125263684D01*
X84190467Y-125332048D01*
X84190471Y-125332048D01*
X84190472Y-125332049D01*
X84365675Y-125366900D01*
X84365678Y-125366900D01*
X84544324Y-125366900D01*
X84662198Y-125343452D01*
X84719533Y-125332048D01*
X84884578Y-125263684D01*
X85033115Y-125164435D01*
X85159435Y-125038115D01*
X85258684Y-124889578D01*
X85327048Y-124724533D01*
X85361900Y-124549322D01*
X85361900Y-119290678D01*
X85361900Y-119290675D01*
X85327049Y-119115472D01*
X85327048Y-119115471D01*
X85327048Y-119115467D01*
X85258684Y-118950422D01*
X85258683Y-118950421D01*
X85258680Y-118950415D01*
X85159435Y-118801885D01*
X85159432Y-118801881D01*
X85033118Y-118675567D01*
X85033114Y-118675564D01*
X84884584Y-118576319D01*
X84884575Y-118576314D01*
X84719533Y-118507952D01*
X84719527Y-118507950D01*
X84544324Y-118473100D01*
X84544322Y-118473100D01*
X84365678Y-118473100D01*
X84365676Y-118473100D01*
X84190472Y-118507950D01*
X84190466Y-118507952D01*
X84025424Y-118576314D01*
X84025415Y-118576319D01*
X83876885Y-118675564D01*
X83876881Y-118675567D01*
X83750567Y-118801881D01*
X83750564Y-118801885D01*
X83651319Y-118950415D01*
X83651314Y-118950424D01*
X83582952Y-119115466D01*
X83582950Y-119115472D01*
X83548100Y-119290675D01*
X83548100Y-119290678D01*
X83548100Y-124549322D01*
X83548100Y-124549324D01*
X83548099Y-124549324D01*
X76835000Y-124549324D01*
X76835000Y-112694055D01*
X76854685Y-112627016D01*
X76907489Y-112581261D01*
X76976647Y-112571317D01*
X77040203Y-112600342D01*
X77060574Y-112622930D01*
X77066505Y-112631401D01*
X77233599Y-112798495D01*
X77330384Y-112866265D01*
X77427165Y-112934032D01*
X77427167Y-112934033D01*
X77427170Y-112934035D01*
X77641337Y-113033903D01*
X77869592Y-113095063D01*
X78046034Y-113110500D01*
X78104999Y-113115659D01*
X78105000Y-113115659D01*
X78105001Y-113115659D01*
X78163966Y-113110500D01*
X78340408Y-113095063D01*
X78568663Y-113033903D01*
X78782830Y-112934035D01*
X78976401Y-112798495D01*
X79098329Y-112676566D01*
X79159648Y-112643084D01*
X79229340Y-112648068D01*
X79285274Y-112689939D01*
X79302189Y-112720917D01*
X79351202Y-112852328D01*
X79351206Y-112852335D01*
X79437452Y-112967544D01*
X79437455Y-112967547D01*
X79552664Y-113053793D01*
X79552671Y-113053797D01*
X79687517Y-113104091D01*
X79687516Y-113104091D01*
X79694444Y-113104835D01*
X79747127Y-113110500D01*
X81542872Y-113110499D01*
X81602483Y-113104091D01*
X81737331Y-113053796D01*
X81852546Y-112967546D01*
X81938796Y-112852331D01*
X81989091Y-112717483D01*
X81995500Y-112657873D01*
X81995500Y-112587700D01*
X82015185Y-112520661D01*
X82067989Y-112474906D01*
X82119500Y-112463700D01*
X83744558Y-112463700D01*
X83744578Y-112463701D01*
X83750692Y-112463701D01*
X83889310Y-112463701D01*
X83980768Y-112445507D01*
X84025262Y-112436657D01*
X84102503Y-112404663D01*
X84153323Y-112383613D01*
X84153324Y-112383612D01*
X84153327Y-112383611D01*
X84268583Y-112306600D01*
X84366600Y-112208583D01*
X84366601Y-112208581D01*
X84373667Y-112201515D01*
X84373669Y-112201511D01*
X84815181Y-111760000D01*
X92075000Y-111760000D01*
X92075000Y-115557450D01*
G37*
%TD.AperFunction*%
%TD*%
%TA.AperFunction,Conductor*%
%TO.N,GND*%
G36*
X93288039Y-47009685D02*
G01*
X93333794Y-47062489D01*
X93345000Y-47114000D01*
X93345000Y-58931000D01*
X93325315Y-58998039D01*
X93272511Y-59043794D01*
X93221000Y-59055000D01*
X84455000Y-59055000D01*
X84455000Y-46990000D01*
X93221000Y-46990000D01*
X93288039Y-47009685D01*
G37*
%TD.AperFunction*%
%TD*%
M02*
