%TF.GenerationSoftware,KiCad,Pcbnew,8.0.8*%
%TF.CreationDate,2025-04-12T08:48:54-04:00*%
%TF.ProjectId,cross-point-exp-brd-mini-red2-sjmp,63726f73-732d-4706-9f69-6e742d657870,rev?*%
%TF.SameCoordinates,Original*%
%TF.FileFunction,Soldermask,Top*%
%TF.FilePolarity,Negative*%
%FSLAX46Y46*%
G04 Gerber Fmt 4.6, Leading zero omitted, Abs format (unit mm)*
G04 Created by KiCad (PCBNEW 8.0.8) date 2025-04-12 08:48:54*
%MOMM*%
%LPD*%
G01*
G04 APERTURE LIST*
G04 Aperture macros list*
%AMRoundRect*
0 Rectangle with rounded corners*
0 $1 Rounding radius*
0 $2 $3 $4 $5 $6 $7 $8 $9 X,Y pos of 4 corners*
0 Add a 4 corners polygon primitive as box body*
4,1,4,$2,$3,$4,$5,$6,$7,$8,$9,$2,$3,0*
0 Add four circle primitives for the rounded corners*
1,1,$1+$1,$2,$3*
1,1,$1+$1,$4,$5*
1,1,$1+$1,$6,$7*
1,1,$1+$1,$8,$9*
0 Add four rect primitives between the rounded corners*
20,1,$1+$1,$2,$3,$4,$5,0*
20,1,$1+$1,$4,$5,$6,$7,0*
20,1,$1+$1,$6,$7,$8,$9,0*
20,1,$1+$1,$8,$9,$2,$3,0*%
%AMFreePoly0*
4,1,19,0.550000,-0.750000,0.000000,-0.750000,0.000000,-0.744911,-0.071157,-0.744911,-0.207708,-0.704816,-0.327430,-0.627875,-0.420627,-0.520320,-0.479746,-0.390866,-0.500000,-0.250000,-0.500000,0.250000,-0.479746,0.390866,-0.420627,0.520320,-0.327430,0.627875,-0.207708,0.704816,-0.071157,0.744911,0.000000,0.744911,0.000000,0.750000,0.550000,0.750000,0.550000,-0.750000,0.550000,-0.750000,
$1*%
%AMFreePoly1*
4,1,19,0.000000,0.744911,0.071157,0.744911,0.207708,0.704816,0.327430,0.627875,0.420627,0.520320,0.479746,0.390866,0.500000,0.250000,0.500000,-0.250000,0.479746,-0.390866,0.420627,-0.520320,0.327430,-0.627875,0.207708,-0.704816,0.071157,-0.744911,0.000000,-0.744911,0.000000,-0.750000,-0.550000,-0.750000,-0.550000,0.750000,0.000000,0.750000,0.000000,0.744911,0.000000,0.744911,
$1*%
%AMFreePoly2*
4,1,19,0.500000,-0.750000,0.000000,-0.750000,0.000000,-0.744911,-0.071157,-0.744911,-0.207708,-0.704816,-0.327430,-0.627875,-0.420627,-0.520320,-0.479746,-0.390866,-0.500000,-0.250000,-0.500000,0.250000,-0.479746,0.390866,-0.420627,0.520320,-0.327430,0.627875,-0.207708,0.704816,-0.071157,0.744911,0.000000,0.744911,0.000000,0.750000,0.500000,0.750000,0.500000,-0.750000,0.500000,-0.750000,
$1*%
%AMFreePoly3*
4,1,19,0.000000,0.744911,0.071157,0.744911,0.207708,0.704816,0.327430,0.627875,0.420627,0.520320,0.479746,0.390866,0.500000,0.250000,0.500000,-0.250000,0.479746,-0.390866,0.420627,-0.520320,0.327430,-0.627875,0.207708,-0.704816,0.071157,-0.744911,0.000000,-0.744911,0.000000,-0.750000,-0.500000,-0.750000,-0.500000,0.750000,0.000000,0.750000,0.000000,0.744911,0.000000,0.744911,
$1*%
G04 Aperture macros list end*
%ADD10R,1.700000X1.700000*%
%ADD11O,1.700000X1.700000*%
%ADD12C,1.440000*%
%ADD13RoundRect,0.250000X0.325000X0.650000X-0.325000X0.650000X-0.325000X-0.650000X0.325000X-0.650000X0*%
%ADD14C,2.200000*%
%ADD15RoundRect,0.250000X-0.650000X0.325000X-0.650000X-0.325000X0.650000X-0.325000X0.650000X0.325000X0*%
%ADD16RoundRect,0.250000X0.650000X-0.325000X0.650000X0.325000X-0.650000X0.325000X-0.650000X-0.325000X0*%
%ADD17RoundRect,0.250000X0.625000X-0.312500X0.625000X0.312500X-0.625000X0.312500X-0.625000X-0.312500X0*%
%ADD18RoundRect,0.250000X-0.312500X-0.625000X0.312500X-0.625000X0.312500X0.625000X-0.312500X0.625000X0*%
%ADD19RoundRect,0.150000X0.150000X-0.725000X0.150000X0.725000X-0.150000X0.725000X-0.150000X-0.725000X0*%
%ADD20FreePoly0,0.000000*%
%ADD21R,1.000000X1.500000*%
%ADD22FreePoly1,0.000000*%
%ADD23R,0.500000X1.200000*%
%ADD24R,1.200000X0.500000*%
%ADD25C,2.286000*%
%ADD26RoundRect,0.250000X0.312500X0.625000X-0.312500X0.625000X-0.312500X-0.625000X0.312500X-0.625000X0*%
%ADD27O,4.572000X1.700000*%
%ADD28FreePoly0,270.000000*%
%ADD29R,1.500000X1.000000*%
%ADD30FreePoly1,270.000000*%
%ADD31C,2.000000*%
%ADD32FreePoly2,270.000000*%
%ADD33FreePoly3,270.000000*%
%ADD34RoundRect,0.150000X0.150000X-0.825000X0.150000X0.825000X-0.150000X0.825000X-0.150000X-0.825000X0*%
%ADD35O,1.800000X1.800000*%
%ADD36O,1.500000X1.500000*%
%ADD37R,1.700000X3.500000*%
%ADD38R,3.500000X1.700000*%
%ADD39FreePoly2,180.000000*%
%ADD40FreePoly3,180.000000*%
%ADD41C,1.500000*%
G04 APERTURE END LIST*
D10*
%TO.C,DC1*%
X83820000Y-139700000D03*
D11*
X83820000Y-137160000D03*
X83820000Y-134620000D03*
X83820000Y-132080000D03*
%TD*%
D12*
%TO.C,RV1*%
X139700000Y-129540000D03*
X139700000Y-132080000D03*
X137160000Y-132080000D03*
X139700000Y-134620000D03*
%TD*%
D13*
%TO.C,C2*%
X94185000Y-135890000D03*
X91235000Y-135890000D03*
%TD*%
D14*
%TO.C,PP3*%
X93345000Y-62865000D03*
%TD*%
D15*
%TO.C,C5*%
X99695000Y-133610000D03*
X99695000Y-136560000D03*
%TD*%
D14*
%TO.C,PP65*%
X175895000Y-90805000D03*
%TD*%
%TO.C,PP60*%
X163195000Y-90805000D03*
%TD*%
D16*
%TO.C,C3*%
X89535000Y-113700000D03*
X89535000Y-110750000D03*
%TD*%
D14*
%TO.C,PP33*%
X126365000Y-90805000D03*
%TD*%
D17*
%TO.C,R9*%
X119380000Y-122940000D03*
X119380000Y-120015000D03*
%TD*%
D14*
%TO.C,PP55*%
X150495000Y-90805000D03*
%TD*%
%TO.C,REF\u002A\u002A*%
X96520000Y-100965000D03*
%TD*%
%TO.C,REF\u002A\u002A*%
X175260000Y-100965000D03*
%TD*%
%TO.C,PP47*%
X173355000Y-62865000D03*
%TD*%
%TO.C,PP39*%
X153035000Y-62865000D03*
%TD*%
%TO.C,PP29*%
X116205000Y-90805000D03*
%TD*%
D16*
%TO.C,C8*%
X81915000Y-93720000D03*
X81915000Y-90770000D03*
%TD*%
D18*
%TO.C,R12*%
X89785000Y-139065000D03*
X92710000Y-139065000D03*
%TD*%
D14*
%TO.C,PP66*%
X178435000Y-90805000D03*
%TD*%
%TO.C,PP23*%
X100965000Y-90805000D03*
%TD*%
%TO.C,PP11*%
X113665000Y-62865000D03*
%TD*%
%TO.C,PP32*%
X123825000Y-90805000D03*
%TD*%
%TO.C,PP1*%
X88265000Y-62865000D03*
%TD*%
D19*
%TO.C,U10*%
X135255000Y-121285000D03*
X136525000Y-121285000D03*
X137795000Y-121285000D03*
X139065000Y-121285000D03*
X139065000Y-116135000D03*
X137795000Y-116135000D03*
X136525000Y-116135000D03*
X135255000Y-116135000D03*
%TD*%
D20*
%TO.C,JpVDD2*%
X92710000Y-130175000D03*
D21*
X94010000Y-130175000D03*
D22*
X95310000Y-130175000D03*
%TD*%
D23*
%TO.C,U3*%
X150331698Y-82534028D03*
X151131698Y-82534028D03*
X151931698Y-82534028D03*
X152731698Y-82534028D03*
X153531698Y-82534028D03*
X154331698Y-82534028D03*
X155131698Y-82534028D03*
X155931698Y-82534028D03*
X156731698Y-82534028D03*
X157531698Y-82534028D03*
X158331698Y-82534028D03*
D24*
X160031698Y-80834028D03*
X160031698Y-80034028D03*
X160031698Y-79234028D03*
X160031698Y-78434028D03*
X160031698Y-77634028D03*
X160031698Y-76834028D03*
X160031698Y-76034028D03*
X160031698Y-75234028D03*
X160031698Y-74434028D03*
X160031698Y-73634028D03*
X160031698Y-72834028D03*
D23*
X158331698Y-71134028D03*
X157531698Y-71134028D03*
X156731698Y-71134028D03*
X155931698Y-71134028D03*
X155131698Y-71134028D03*
X154331698Y-71134028D03*
X153531698Y-71134028D03*
X152731698Y-71134028D03*
X151931698Y-71134028D03*
X151131698Y-71134028D03*
X150331698Y-71134028D03*
D24*
X148631698Y-72834028D03*
X148631698Y-73634028D03*
X148631698Y-74434028D03*
X148631698Y-75234028D03*
X148631698Y-76034028D03*
X148631698Y-76834028D03*
X148631698Y-77634028D03*
X148631698Y-78434028D03*
X148631698Y-79234028D03*
X148631698Y-80034028D03*
X148631698Y-80834028D03*
%TD*%
D14*
%TO.C,PP51*%
X183515000Y-62865000D03*
%TD*%
D10*
%TO.C,J1*%
X81915000Y-67945000D03*
D11*
X81915000Y-70485000D03*
X81915000Y-73025000D03*
X81915000Y-75565000D03*
X81915000Y-78105000D03*
X81915000Y-80645000D03*
X81915000Y-83185000D03*
X81915000Y-85725000D03*
%TD*%
D14*
%TO.C,PP56*%
X153035000Y-90805000D03*
%TD*%
D10*
%TO.C,J2*%
X189230000Y-67945000D03*
D11*
X189230000Y-70485000D03*
X189230000Y-73025000D03*
X189230000Y-75565000D03*
X189230000Y-78105000D03*
X189230000Y-80645000D03*
X189230000Y-83185000D03*
X189230000Y-85725000D03*
%TD*%
D14*
%TO.C,PP27*%
X111125000Y-90805000D03*
%TD*%
D25*
%TO.C,J4*%
X144614900Y-76835000D03*
X181775100Y-76835000D03*
%TD*%
D14*
%TO.C,PP49*%
X178435000Y-62865000D03*
%TD*%
%TO.C,PP50*%
X180975000Y-62865000D03*
%TD*%
%TO.C,PP16*%
X126365000Y-62865000D03*
%TD*%
D26*
%TO.C,R1*%
X125922500Y-137160000D03*
X122997500Y-137160000D03*
%TD*%
D14*
%TO.C,PP36*%
X145415000Y-62865000D03*
%TD*%
%TO.C,PP59*%
X160655000Y-90805000D03*
%TD*%
D16*
%TO.C,C1*%
X130175000Y-131480000D03*
X130175000Y-128530000D03*
%TD*%
D14*
%TO.C,PP18*%
X88265000Y-90805000D03*
%TD*%
%TO.C,PP53*%
X145415000Y-90805000D03*
%TD*%
D17*
%TO.C,R8*%
X121920000Y-122940000D03*
X121920000Y-120015000D03*
%TD*%
D27*
%TO.C,J5*%
X100330000Y-53975000D03*
X102870000Y-53975000D03*
X105410000Y-53975000D03*
X107950000Y-53975000D03*
X110490000Y-53975000D03*
X113030000Y-53975000D03*
X115570000Y-53975000D03*
X118110000Y-53975000D03*
X153670000Y-53975000D03*
X156210000Y-53975000D03*
X158750000Y-53975000D03*
X161290000Y-53975000D03*
X163830000Y-53975000D03*
X166370000Y-53975000D03*
X168910000Y-53975000D03*
X171450000Y-53975000D03*
X100330000Y-51435000D03*
X102870000Y-51435000D03*
X105410000Y-51435000D03*
X107950000Y-51435000D03*
X110490000Y-51435000D03*
X113030000Y-51435000D03*
X115570000Y-51435000D03*
X118110000Y-51435000D03*
X153670000Y-51435000D03*
X156210000Y-51435000D03*
X158750000Y-51435000D03*
X161290000Y-51435000D03*
X163830000Y-51435000D03*
X166370000Y-51435000D03*
X168910000Y-51435000D03*
X171450000Y-51435000D03*
%TD*%
D14*
%TO.C,PP37*%
X147955000Y-62865000D03*
%TD*%
%TO.C,PP10*%
X111125000Y-62865000D03*
%TD*%
D27*
%TO.C,J6*%
X100330000Y-102235000D03*
X102870000Y-102235000D03*
X105410000Y-102235000D03*
X107950000Y-102235000D03*
X110490000Y-102235000D03*
X113030000Y-102235000D03*
X115570000Y-102235000D03*
X118110000Y-102235000D03*
X153670000Y-102235000D03*
X156210000Y-102235000D03*
X158750000Y-102235000D03*
X161290000Y-102235000D03*
X163830000Y-102235000D03*
X166370000Y-102235000D03*
X168910000Y-102235000D03*
X171450000Y-102235000D03*
X100330000Y-99695000D03*
X102870000Y-99695000D03*
X105410000Y-99695000D03*
X107950000Y-99695000D03*
X110490000Y-99695000D03*
X113030000Y-99695000D03*
X115570000Y-99695000D03*
X118110000Y-99695000D03*
X153670000Y-99695000D03*
X156210000Y-99695000D03*
X158750000Y-99695000D03*
X161290000Y-99695000D03*
X163830000Y-99695000D03*
X166370000Y-99695000D03*
X168910000Y-99695000D03*
X171450000Y-99695000D03*
%TD*%
D17*
%TO.C,R6*%
X116840000Y-122940000D03*
X116840000Y-120015000D03*
%TD*%
%TO.C,R4*%
X111760000Y-122940000D03*
X111760000Y-120015000D03*
%TD*%
D20*
%TO.C,JpVDD1*%
X100300000Y-128270000D03*
D21*
X101600000Y-128270000D03*
D22*
X102900000Y-128270000D03*
%TD*%
D14*
%TO.C,PP44*%
X165735000Y-62865000D03*
%TD*%
D10*
%TO.C,J8*%
X109220000Y-114300000D03*
D11*
X111760000Y-114300000D03*
X114300000Y-114300000D03*
X116840000Y-114300000D03*
X119380000Y-114300000D03*
X121920000Y-114300000D03*
X124460000Y-114300000D03*
X127000000Y-114300000D03*
%TD*%
D14*
%TO.C,PP25*%
X106045000Y-90805000D03*
%TD*%
D20*
%TO.C,JpVDD5*%
X94585000Y-117475000D03*
D21*
X95885000Y-117475000D03*
D22*
X97185000Y-117475000D03*
%TD*%
D14*
%TO.C,PP9*%
X108585000Y-62865000D03*
%TD*%
%TO.C,PP6*%
X100965000Y-62865000D03*
%TD*%
%TO.C,PP15*%
X123825000Y-62865000D03*
%TD*%
%TO.C,PP5*%
X98425000Y-62865000D03*
%TD*%
%TO.C,PP62*%
X168275000Y-90805000D03*
%TD*%
%TO.C,PP21*%
X95885000Y-90805000D03*
%TD*%
%TO.C,PP34*%
X128905000Y-90805000D03*
%TD*%
D28*
%TO.C,JP1*%
X80645000Y-124430000D03*
D29*
X80645000Y-125730000D03*
D30*
X80645000Y-127030000D03*
%TD*%
D14*
%TO.C,PP4*%
X95885000Y-62865000D03*
%TD*%
%TO.C,PP28*%
X113665000Y-90805000D03*
%TD*%
%TO.C,PP40*%
X155575000Y-62865000D03*
%TD*%
D25*
%TO.C,J3*%
X90004900Y-76835000D03*
X127165100Y-76835000D03*
%TD*%
D23*
%TO.C,U1*%
X96336869Y-82526043D03*
X97136869Y-82526043D03*
X97936869Y-82526043D03*
X98736869Y-82526043D03*
X99536869Y-82526043D03*
X100336869Y-82526043D03*
X101136869Y-82526043D03*
X101936869Y-82526043D03*
X102736869Y-82526043D03*
X103536869Y-82526043D03*
X104336869Y-82526043D03*
D24*
X106036869Y-80826043D03*
X106036869Y-80026043D03*
X106036869Y-79226043D03*
X106036869Y-78426043D03*
X106036869Y-77626043D03*
X106036869Y-76826043D03*
X106036869Y-76026043D03*
X106036869Y-75226043D03*
X106036869Y-74426043D03*
X106036869Y-73626043D03*
X106036869Y-72826043D03*
D23*
X104336869Y-71126043D03*
X103536869Y-71126043D03*
X102736869Y-71126043D03*
X101936869Y-71126043D03*
X101136869Y-71126043D03*
X100336869Y-71126043D03*
X99536869Y-71126043D03*
X98736869Y-71126043D03*
X97936869Y-71126043D03*
X97136869Y-71126043D03*
X96336869Y-71126043D03*
D24*
X94636869Y-72826043D03*
X94636869Y-73626043D03*
X94636869Y-74426043D03*
X94636869Y-75226043D03*
X94636869Y-76026043D03*
X94636869Y-76826043D03*
X94636869Y-77626043D03*
X94636869Y-78426043D03*
X94636869Y-79226043D03*
X94636869Y-80026043D03*
X94636869Y-80826043D03*
%TD*%
D14*
%TO.C,PP38*%
X150495000Y-62865000D03*
%TD*%
D26*
%TO.C,R2*%
X134177500Y-138430000D03*
X131252500Y-138430000D03*
%TD*%
D10*
%TO.C,J7*%
X109220000Y-111760000D03*
D11*
X111760000Y-111760000D03*
X114300000Y-111760000D03*
X116840000Y-111760000D03*
X119380000Y-111760000D03*
X121920000Y-111760000D03*
X124460000Y-111760000D03*
X127000000Y-111760000D03*
%TD*%
D31*
%TO.C,GND2*%
X135890000Y-59690000D03*
%TD*%
D14*
%TO.C,PP24*%
X103505000Y-90805000D03*
%TD*%
D13*
%TO.C,C6*%
X190705000Y-140335000D03*
X187755000Y-140335000D03*
%TD*%
D31*
%TO.C,VEE1*%
X138430000Y-107950000D03*
%TD*%
D14*
%TO.C,PP45*%
X168275000Y-62865000D03*
%TD*%
%TO.C,REF\u002A\u002A*%
X175260000Y-52705000D03*
%TD*%
%TO.C,PP26*%
X108585000Y-90805000D03*
%TD*%
%TO.C,PP58*%
X158115000Y-90805000D03*
%TD*%
D32*
%TO.C,JP6*%
X81280000Y-118080000D03*
D33*
X81280000Y-119380000D03*
%TD*%
D34*
%TO.C,U11*%
X109855000Y-135190000D03*
X111125000Y-135190000D03*
X112395000Y-135190000D03*
X113665000Y-135190000D03*
X114935000Y-135190000D03*
X116205000Y-135190000D03*
X117475000Y-135190000D03*
X117475000Y-130240000D03*
X116205000Y-130240000D03*
X114935000Y-130240000D03*
X113665000Y-130240000D03*
X112395000Y-130240000D03*
X111125000Y-130240000D03*
X109855000Y-130240000D03*
%TD*%
D26*
%TO.C,R3*%
X183265000Y-139065000D03*
X180340000Y-139065000D03*
%TD*%
D14*
%TO.C,PP57*%
X155575000Y-90805000D03*
%TD*%
%TO.C,PP43*%
X163195000Y-62865000D03*
%TD*%
D32*
%TO.C,JP5*%
X86360000Y-115540000D03*
D33*
X86360000Y-116840000D03*
%TD*%
D23*
%TO.C,U2*%
X113490194Y-82515485D03*
X114290194Y-82515485D03*
X115090194Y-82515485D03*
X115890194Y-82515485D03*
X116690194Y-82515485D03*
X117490194Y-82515485D03*
X118290194Y-82515485D03*
X119090194Y-82515485D03*
X119890194Y-82515485D03*
X120690194Y-82515485D03*
X121490194Y-82515485D03*
D24*
X123190194Y-80815485D03*
X123190194Y-80015485D03*
X123190194Y-79215485D03*
X123190194Y-78415485D03*
X123190194Y-77615485D03*
X123190194Y-76815485D03*
X123190194Y-76015485D03*
X123190194Y-75215485D03*
X123190194Y-74415485D03*
X123190194Y-73615485D03*
X123190194Y-72815485D03*
D23*
X121490194Y-71115485D03*
X120690194Y-71115485D03*
X119890194Y-71115485D03*
X119090194Y-71115485D03*
X118290194Y-71115485D03*
X117490194Y-71115485D03*
X116690194Y-71115485D03*
X115890194Y-71115485D03*
X115090194Y-71115485D03*
X114290194Y-71115485D03*
X113490194Y-71115485D03*
D24*
X111790194Y-72815485D03*
X111790194Y-73615485D03*
X111790194Y-74415485D03*
X111790194Y-75215485D03*
X111790194Y-76015485D03*
X111790194Y-76815485D03*
X111790194Y-77615485D03*
X111790194Y-78415485D03*
X111790194Y-79215485D03*
X111790194Y-80015485D03*
X111790194Y-80815485D03*
%TD*%
D14*
%TO.C,PP30*%
X118745000Y-90805000D03*
%TD*%
%TO.C,PP35*%
X142875000Y-62865000D03*
%TD*%
%TO.C,PP14*%
X121285000Y-62865000D03*
%TD*%
%TO.C,PP63*%
X170815000Y-90805000D03*
%TD*%
%TO.C,PP31*%
X121285000Y-90805000D03*
%TD*%
%TO.C,PP64*%
X173355000Y-90805000D03*
%TD*%
%TO.C,PP48*%
X175895000Y-62865000D03*
%TD*%
%TO.C,PP2*%
X90805000Y-62865000D03*
%TD*%
%TO.C,PP46*%
X170815000Y-62865000D03*
%TD*%
%TO.C,PP61*%
X165735000Y-90805000D03*
%TD*%
D31*
%TO.C,VCC1*%
X138430000Y-93980000D03*
%TD*%
D10*
%TO.C,PMOD1*%
X80645000Y-111760000D03*
D11*
X80645000Y-106680000D03*
X80645000Y-109220000D03*
X80645000Y-104140000D03*
X80645000Y-101600000D03*
X80645000Y-99060000D03*
X78105000Y-111760000D03*
X78105000Y-109220000D03*
X78105000Y-106680000D03*
X78105000Y-104140000D03*
X78105000Y-101600000D03*
X78105000Y-99060000D03*
%TD*%
D17*
%TO.C,R11*%
X127000000Y-122940000D03*
X127000000Y-120015000D03*
%TD*%
D14*
%TO.C,PP12*%
X116205000Y-62865000D03*
%TD*%
%TO.C,PP19*%
X90805000Y-90805000D03*
%TD*%
D20*
%TO.C,JpVDD4*%
X100300000Y-113665000D03*
D21*
X101600000Y-113665000D03*
D22*
X102900000Y-113665000D03*
%TD*%
D35*
%TO.C,U9*%
X199895000Y-125915000D03*
X199895000Y-120465000D03*
D36*
X196865000Y-125615000D03*
X196865000Y-120765000D03*
D11*
X200025000Y-114300000D03*
D37*
X200025000Y-113400000D03*
D11*
X197485000Y-114300000D03*
D37*
X197485000Y-113400000D03*
D10*
X194945000Y-114300000D03*
D37*
X194945000Y-113400000D03*
D11*
X192405000Y-114300000D03*
D37*
X192405000Y-113400000D03*
D11*
X189865000Y-114300000D03*
D37*
X189865000Y-113400000D03*
D11*
X187325000Y-114300000D03*
D37*
X187325000Y-113400000D03*
D11*
X184785000Y-114300000D03*
D37*
X184785000Y-113400000D03*
D10*
X182245000Y-114300000D03*
D37*
X182245000Y-113400000D03*
D11*
X179705000Y-114300000D03*
D37*
X179705000Y-113400000D03*
D11*
X177165000Y-114300000D03*
D37*
X177165000Y-113400000D03*
D11*
X174625000Y-114300000D03*
D37*
X174625000Y-113400000D03*
D11*
X172085000Y-114300000D03*
D37*
X172085000Y-113400000D03*
D10*
X169545000Y-114300000D03*
D37*
X169545000Y-113400000D03*
D11*
X167005000Y-114300000D03*
D37*
X167005000Y-113400000D03*
D11*
X164465000Y-114300000D03*
D37*
X164465000Y-113400000D03*
D11*
X161925000Y-114300000D03*
D37*
X161925000Y-113400000D03*
D11*
X159385000Y-114300000D03*
D37*
X159385000Y-113400000D03*
D10*
X156845000Y-114300000D03*
D37*
X156845000Y-113400000D03*
D11*
X154305000Y-114300000D03*
D37*
X154305000Y-113400000D03*
D11*
X151765000Y-114300000D03*
D37*
X151765000Y-113400000D03*
D11*
X151765000Y-132080000D03*
D37*
X151765000Y-132980000D03*
D11*
X154305000Y-132080000D03*
D37*
X154305000Y-132980000D03*
D10*
X156845000Y-132080000D03*
D37*
X156845000Y-132980000D03*
D11*
X159385000Y-132080000D03*
D37*
X159385000Y-132980000D03*
D11*
X161925000Y-132080000D03*
D37*
X161925000Y-132980000D03*
D11*
X164465000Y-132080000D03*
D37*
X164465000Y-132980000D03*
D11*
X167005000Y-132080000D03*
D37*
X167005000Y-132980000D03*
D10*
X169545000Y-132080000D03*
D37*
X169545000Y-132980000D03*
D11*
X172085000Y-132080000D03*
D37*
X172085000Y-132980000D03*
D11*
X174625000Y-132080000D03*
D37*
X174625000Y-132980000D03*
D11*
X177165000Y-132080000D03*
D37*
X177165000Y-132980000D03*
D11*
X179705000Y-132080000D03*
D37*
X179705000Y-132980000D03*
D10*
X182245000Y-132080000D03*
D37*
X182245000Y-132980000D03*
D11*
X184785000Y-132080000D03*
D37*
X184785000Y-132980000D03*
D11*
X187325000Y-132080000D03*
D37*
X187325000Y-132980000D03*
D11*
X189865000Y-132080000D03*
D37*
X189865000Y-132980000D03*
D11*
X192405000Y-132080000D03*
D37*
X192405000Y-132980000D03*
D10*
X194945000Y-132080000D03*
D37*
X194945000Y-132980000D03*
D11*
X197485000Y-132080000D03*
D37*
X197485000Y-132980000D03*
D11*
X200025000Y-132080000D03*
D37*
X200025000Y-132980000D03*
D11*
X151995000Y-120650000D03*
D38*
X151095000Y-120650000D03*
D10*
X151995000Y-123190000D03*
D38*
X151095000Y-123190000D03*
D11*
X151995000Y-125730000D03*
D38*
X151095000Y-125730000D03*
%TD*%
D39*
%TO.C,JP2*%
X89535000Y-119380000D03*
D40*
X88235000Y-119380000D03*
%TD*%
D14*
%TO.C,PP17*%
X128905000Y-62865000D03*
%TD*%
%TO.C,PP8*%
X106045000Y-62865000D03*
%TD*%
%TO.C,REF\u002A\u002A*%
X96520000Y-52705000D03*
%TD*%
%TO.C,PP67*%
X180975000Y-90805000D03*
%TD*%
%TO.C,PP41*%
X158115000Y-62865000D03*
%TD*%
D13*
%TO.C,C4*%
X175295000Y-142240000D03*
X172345000Y-142240000D03*
%TD*%
D23*
%TO.C,U4*%
X168102427Y-82534028D03*
X168902427Y-82534028D03*
X169702427Y-82534028D03*
X170502427Y-82534028D03*
X171302427Y-82534028D03*
X172102427Y-82534028D03*
X172902427Y-82534028D03*
X173702427Y-82534028D03*
X174502427Y-82534028D03*
X175302427Y-82534028D03*
X176102427Y-82534028D03*
D24*
X177802427Y-80834028D03*
X177802427Y-80034028D03*
X177802427Y-79234028D03*
X177802427Y-78434028D03*
X177802427Y-77634028D03*
X177802427Y-76834028D03*
X177802427Y-76034028D03*
X177802427Y-75234028D03*
X177802427Y-74434028D03*
X177802427Y-73634028D03*
X177802427Y-72834028D03*
D23*
X176102427Y-71134028D03*
X175302427Y-71134028D03*
X174502427Y-71134028D03*
X173702427Y-71134028D03*
X172902427Y-71134028D03*
X172102427Y-71134028D03*
X171302427Y-71134028D03*
X170502427Y-71134028D03*
X169702427Y-71134028D03*
X168902427Y-71134028D03*
X168102427Y-71134028D03*
D24*
X166402427Y-72834028D03*
X166402427Y-73634028D03*
X166402427Y-74434028D03*
X166402427Y-75234028D03*
X166402427Y-76034028D03*
X166402427Y-76834028D03*
X166402427Y-77634028D03*
X166402427Y-78434028D03*
X166402427Y-79234028D03*
X166402427Y-80034028D03*
X166402427Y-80834028D03*
%TD*%
D14*
%TO.C,PP54*%
X147955000Y-90805000D03*
%TD*%
%TO.C,PP52*%
X142875000Y-90805000D03*
%TD*%
%TO.C,PP42*%
X160655000Y-62865000D03*
%TD*%
D17*
%TO.C,R7*%
X114300000Y-122940000D03*
X114300000Y-120015000D03*
%TD*%
D14*
%TO.C,PP22*%
X98425000Y-90805000D03*
%TD*%
D23*
%TO.C,U5*%
X131870679Y-82545533D03*
X132670679Y-82545533D03*
X133470679Y-82545533D03*
X134270679Y-82545533D03*
X135070679Y-82545533D03*
X135870679Y-82545533D03*
X136670679Y-82545533D03*
X137470679Y-82545533D03*
X138270679Y-82545533D03*
X139070679Y-82545533D03*
X139870679Y-82545533D03*
D24*
X141570679Y-80845533D03*
X141570679Y-80045533D03*
X141570679Y-79245533D03*
X141570679Y-78445533D03*
X141570679Y-77645533D03*
X141570679Y-76845533D03*
X141570679Y-76045533D03*
X141570679Y-75245533D03*
X141570679Y-74445533D03*
X141570679Y-73645533D03*
X141570679Y-72845533D03*
D23*
X139870679Y-71145533D03*
X139070679Y-71145533D03*
X138270679Y-71145533D03*
X137470679Y-71145533D03*
X136670679Y-71145533D03*
X135870679Y-71145533D03*
X135070679Y-71145533D03*
X134270679Y-71145533D03*
X133470679Y-71145533D03*
X132670679Y-71145533D03*
X131870679Y-71145533D03*
D24*
X130170679Y-72845533D03*
X130170679Y-73645533D03*
X130170679Y-74445533D03*
X130170679Y-75245533D03*
X130170679Y-76045533D03*
X130170679Y-76845533D03*
X130170679Y-77645533D03*
X130170679Y-78445533D03*
X130170679Y-79245533D03*
X130170679Y-80045533D03*
X130170679Y-80845533D03*
%TD*%
D14*
%TO.C,PP13*%
X118745000Y-62865000D03*
%TD*%
D16*
%TO.C,C7*%
X81915000Y-62605000D03*
X81915000Y-59655000D03*
%TD*%
D17*
%TO.C,R5*%
X109220000Y-122940000D03*
X109220000Y-120015000D03*
%TD*%
D14*
%TO.C,PP20*%
X93345000Y-90805000D03*
%TD*%
%TO.C,PP68*%
X183515000Y-90805000D03*
%TD*%
D41*
%TO.C,GND1*%
X196215000Y-65405000D03*
%TD*%
D31*
%TO.C,VDD1*%
X135890000Y-47625000D03*
%TD*%
D17*
%TO.C,R10*%
X124460000Y-122940000D03*
X124460000Y-120015000D03*
%TD*%
D20*
%TO.C,JpVDD3*%
X86330000Y-124460000D03*
D21*
X87630000Y-124460000D03*
D22*
X88930000Y-124460000D03*
%TD*%
D14*
%TO.C,PP7*%
X103505000Y-62865000D03*
%TD*%
M02*
