M48
; DRILL file {KiCad 8.0.8} date 2025-04-12T08:49:02-0400
; FORMAT={-:-/ absolute / inch / decimal}
; #@! TF.CreationDate,2025-04-12T08:49:02-04:00
; #@! TF.GenerationSoftware,Kicad,Pcbnew,8.0.8
; #@! TF.FileFunction,Plated,1,2,PTH
FMAT,2
INCH
; #@! TA.AperFunction,Plated,PTH,ViaDrill
T1C0.0157
; #@! TA.AperFunction,Plated,PTH,ComponentDrill
T2C0.0276
; #@! TA.AperFunction,Plated,PTH,ComponentDrill
T3C0.0315
; #@! TA.AperFunction,Plated,PTH,ComponentDrill
T4C0.0394
; #@! TA.AperFunction,Plated,PTH,ComponentDrill
T5C0.0402
%
G90
G05
T1
X3.225Y-2.275
X3.225Y-3.75
X3.25Y-4.575
X3.325Y-4.7
X3.325Y-4.9
X3.4Y-3.375
X3.4Y-3.825
X3.425Y-3.95
X3.425Y-4.0
X3.425Y-4.35
X3.425Y-4.4
X3.45Y-5.0
X3.475Y-5.3
X3.525Y-2.675
X3.525Y-4.6
X3.575Y-5.125
X3.6Y-2.775
X3.6Y-3.825
X3.6225Y-2.7275
X3.65Y-3.05
X3.725Y-4.725
X3.725Y-4.85
X3.8Y-2.875
X3.85Y-2.9
X3.85Y-3.125
X3.875Y-2.95
X3.875Y-4.3
X3.875Y-4.475
X3.925Y-5.45
X4.075Y-3.075
X4.125Y-3.325
X4.2Y-3.275
X4.225Y-2.625
X4.2625Y-5.5375
X4.275Y-2.675
X4.275Y-3.425
X4.3Y-3.0
X4.3Y-3.225
X4.325Y-2.775
X4.325Y-3.375
X4.35Y-4.9
X4.4Y-2.725
X4.425Y-4.975
X4.425Y-5.225
X4.475Y-5.025
X4.475Y-5.425
X4.5Y-2.85
X4.5Y-3.125
X4.525Y-2.9
X4.55Y-2.95
X4.575Y-4.975
X4.75Y-3.075
X4.775Y-3.14
X4.8Y-3.325
X4.8Y-5.25
X4.9Y-3.275
X4.95Y-3.225
X4.975Y-2.625
X5.0Y-3.375
X5.0Y-5.15
X5.05Y-2.675
X5.05Y-2.775
X5.05Y-3.15
X5.075Y-3.675
X5.1Y-5.45
X5.125Y-3.425
X5.125Y-4.95
X5.15Y-2.725
X5.225Y-2.95
X5.225Y-3.0
X5.25Y-2.85
X5.25Y-2.9
X5.25Y-3.125
X5.35Y-2.95
X5.35Y-3.175
X5.375Y-3.325
X5.375Y-3.625
X5.375Y-3.925
X5.4Y-2.725
X5.4Y-2.9
X5.4Y-3.375
X5.425Y-4.65
X5.45Y-2.95
X5.45Y-4.025
X5.495Y-3.04
X5.495Y-3.14
X5.55Y-2.625
X5.55Y-3.325
X5.575Y-2.775
X5.575Y-3.375
X5.6Y-5.575
X5.63Y-3.275
X5.65Y-3.425
X5.675Y-3.225
X5.675Y-4.65
X5.75Y-2.675
X5.75Y-5.325
X5.75Y-5.575
X5.775Y-3.14
X5.795Y-2.775
X5.8Y-4.375
X5.85Y-2.725
X5.875Y-4.175
X5.95Y-2.9
X5.955Y-2.98
X5.975Y-2.85
X5.975Y-3.12
X5.975Y-4.125
X6.0Y-3.025
X6.175Y-4.25
X6.2Y-3.075
X6.25Y-3.325
X6.35Y-3.275
X6.375Y-3.475
X6.4Y-2.625
X6.425Y-2.675
X6.435Y-3.225
X6.475Y-2.775
X6.475Y-3.375
X6.575Y-2.725
X6.635Y-2.98
X6.65Y-2.85
X6.675Y-2.9
X6.675Y-3.12
X6.725Y-3.0
X6.725Y-5.6
X6.8Y-3.8
X6.9Y-3.075
X6.9Y-3.75
X6.925Y-3.125
X6.95Y-3.325
X7.075Y-3.275
X7.115Y-3.225
X7.125Y-3.375
X7.175Y-2.825
X7.175Y-3.425
X7.2Y-2.625
X7.225Y-2.775
X7.225Y-3.7
X7.275Y-3.125
X7.3Y-3.175
X7.3Y-3.7
X7.325Y-5.525
T2
X7.725Y-2.575
T3
X5.4Y-5.2
X5.5Y-5.1
X5.5Y-5.2
X5.5Y-5.3
T4
X3.075Y-3.9
X3.075Y-4.0
X3.075Y-4.1
X3.075Y-4.2
X3.075Y-4.3
X3.075Y-4.4
X3.175Y-3.9
X3.175Y-4.0
X3.175Y-4.1
X3.175Y-4.2
X3.175Y-4.3
X3.175Y-4.4
X3.225Y-2.675
X3.225Y-2.775
X3.225Y-2.875
X3.225Y-2.975
X3.225Y-3.075
X3.225Y-3.175
X3.225Y-3.275
X3.225Y-3.375
X3.3Y-5.2
X3.3Y-5.3
X3.3Y-5.4
X3.3Y-5.5
X3.95Y-2.025
X3.95Y-2.125
X3.95Y-3.925
X3.95Y-4.025
X4.05Y-2.025
X4.05Y-2.125
X4.05Y-3.925
X4.05Y-4.025
X4.15Y-2.025
X4.15Y-2.125
X4.15Y-3.925
X4.15Y-4.025
X4.25Y-2.025
X4.25Y-2.125
X4.25Y-3.925
X4.25Y-4.025
X4.3Y-4.4
X4.3Y-4.5
X4.35Y-2.025
X4.35Y-2.125
X4.35Y-3.925
X4.35Y-4.025
X4.4Y-4.4
X4.4Y-4.5
X4.45Y-2.025
X4.45Y-2.125
X4.45Y-3.925
X4.45Y-4.025
X4.5Y-4.4
X4.5Y-4.5
X4.55Y-2.025
X4.55Y-2.125
X4.55Y-3.925
X4.55Y-4.025
X4.6Y-4.4
X4.6Y-4.5
X4.65Y-2.025
X4.65Y-2.125
X4.65Y-3.925
X4.65Y-4.025
X4.7Y-4.4
X4.7Y-4.5
X4.8Y-4.4
X4.8Y-4.5
X4.9Y-4.4
X4.9Y-4.5
X5.0Y-4.4
X5.0Y-4.5
X5.35Y-1.875
X5.35Y-2.35
X5.45Y-3.7
X5.45Y-4.25
X6.05Y-2.025
X6.05Y-2.125
X6.05Y-3.925
X6.05Y-4.025
X6.15Y-2.025
X6.15Y-2.125
X6.15Y-3.925
X6.15Y-4.025
X6.25Y-2.025
X6.25Y-2.125
X6.25Y-3.925
X6.25Y-4.025
X6.35Y-2.025
X6.35Y-2.125
X6.35Y-3.925
X6.35Y-4.025
X6.45Y-2.025
X6.45Y-2.125
X6.45Y-3.925
X6.45Y-4.025
X6.55Y-2.025
X6.55Y-2.125
X6.55Y-3.925
X6.55Y-4.025
X6.65Y-2.025
X6.65Y-2.125
X6.65Y-3.925
X6.65Y-4.025
X6.75Y-2.025
X6.75Y-2.125
X6.75Y-3.925
X6.75Y-4.025
X7.45Y-2.675
X7.45Y-2.775
X7.45Y-2.875
X7.45Y-2.975
X7.45Y-3.075
X7.45Y-3.175
X7.45Y-3.275
X7.45Y-3.375
T5
X5.975Y-4.5
X5.975Y-5.2
X5.9841Y-4.75
X5.9841Y-4.85
X5.9841Y-4.95
X6.075Y-4.5
X6.075Y-5.2
X6.175Y-4.5
X6.175Y-5.2
X6.275Y-4.5
X6.275Y-5.2
X6.375Y-4.5
X6.375Y-5.2
X6.475Y-4.5
X6.475Y-5.2
X6.575Y-4.5
X6.575Y-5.2
X6.675Y-4.5
X6.675Y-5.2
X6.775Y-4.5
X6.775Y-5.2
X6.875Y-4.5
X6.875Y-5.2
X6.975Y-4.5
X6.975Y-5.2
X7.075Y-4.5
X7.075Y-5.2
X7.175Y-4.5
X7.175Y-5.2
X7.275Y-4.5
X7.275Y-5.2
X7.375Y-4.5
X7.375Y-5.2
X7.475Y-4.5
X7.475Y-5.2
X7.575Y-4.5
X7.575Y-5.2
X7.675Y-4.5
X7.675Y-5.2
X7.775Y-4.5
X7.775Y-5.2
X7.875Y-4.5
X7.875Y-5.2
M30
